ISO-10303-21;
HEADER;
/* Generated by software containing ST-Developer
 * from STEP Tools, Inc. (www.steptools.com) 
 */
/* OPTION: using custom renumber hook */

FILE_DESCRIPTION(
/* description */ ('STEP AP214',
'CAx-IF Rec.Pracs.---User Defined Attributes---1.5---2016-08-15'),
/* implementation_level */ '2;1');

FILE_NAME(
/* name */ '6a7bfb7be5d6ddc0b13a3c2e',
/* time_stamp */ '2026-08-12T04:50:04Z',
/* author */ (''),
/* organization */ (''),
/* preprocessor_version */ 'ST-DEVELOPER v20',
/* originating_system */ 'ONSHAPE BY PTC INC, 1.219',
/* authorisation */ '  ');

FILE_SCHEMA (('AUTOMOTIVE_DESIGN {1 0 10303 214 3 1 1}'));
ENDSEC;

DATA;
#10=PROPERTY_DEFINITION_REPRESENTATION(#14,#12);
#11=PROPERTY_DEFINITION_REPRESENTATION(#15,#13);
#12=REPRESENTATION('',(#16),#1414);
#13=REPRESENTATION('',(#17),#1414);
#14=PROPERTY_DEFINITION('pmi validation property','',#1429);
#15=PROPERTY_DEFINITION('pmi validation property','',#1429);
#16=VALUE_REPRESENTATION_ITEM('number of annotations',COUNT_MEASURE(0.));
#17=VALUE_REPRESENTATION_ITEM('number of views',COUNT_MEASURE(0.));
#18=LINE('',#1279,#38);
#19=LINE('',#1280,#39);
#20=LINE('',#1282,#40);
#21=LINE('',#1283,#41);
#22=LINE('',#1285,#42);
#23=LINE('',#1289,#43);
#24=LINE('',#1291,#44);
#25=LINE('',#1296,#45);
#26=LINE('',#1298,#46);
#27=LINE('',#1299,#47);
#28=LINE('',#1303,#48);
#29=LINE('',#1308,#49);
#30=LINE('',#1314,#50);
#31=LINE('',#1318,#51);
#32=LINE('',#1335,#52);
#33=LINE('',#1339,#53);
#34=LINE('',#1341,#54);
#35=LINE('',#1346,#55);
#36=LINE('',#1362,#56);
#37=LINE('',#1367,#57);
#38=VECTOR('',#924,1.);
#39=VECTOR('',#925,1.);
#40=VECTOR('',#928,1.);
#41=VECTOR('',#929,1.);
#42=VECTOR('',#932,1.);
#43=VECTOR('',#935,1.);
#44=VECTOR('',#938,1.);
#45=VECTOR('',#943,1.);
#46=VECTOR('',#946,1.);
#47=VECTOR('',#947,1.);
#48=VECTOR('',#954,1.);
#49=VECTOR('',#957,1.);
#50=VECTOR('',#964,1.);
#51=VECTOR('',#969,1.);
#52=VECTOR('',#974,1.);
#53=VECTOR('',#977,1.);
#54=VECTOR('',#980,1.);
#55=VECTOR('',#983,1.);
#56=VECTOR('',#988,1.);
#57=VECTOR('',#991,1.);
#58=(
BOUNDED_SURFACE()
B_SPLINE_SURFACE(3,3,((#1248,#1249,#1250,#1251),(#1252,#1253,#1254,#1255),
(#1256,#1257,#1258,#1259),(#1260,#1261,#1262,#1263)),
 .SURF_OF_REVOLUTION.,.F.,.F.,.F.)
B_SPLINE_SURFACE_WITH_KNOTS((4,4),(4,4),(2.16840434497101E-16,1.),(0.,1.),
 .PIECEWISE_BEZIER_KNOTS.)
GEOMETRIC_REPRESENTATION_ITEM()
RATIONAL_B_SPLINE_SURFACE(((1.,0.333333333333333,0.333333333333333,1.),
(1.,0.333333333333333,0.333333333333333,1.),(1.,0.333333333333333,0.333333333333333,
1.),(1.,0.333333333333333,0.333333333333333,1.)))
REPRESENTATION_ITEM('')
SURFACE()
);
#59=(
BOUNDED_SURFACE()
B_SPLINE_SURFACE(3,3,((#1370,#1371,#1372,#1373),(#1374,#1375,#1376,#1377),
(#1378,#1379,#1380,#1381),(#1382,#1383,#1384,#1385)),
 .SURF_OF_REVOLUTION.,.F.,.F.,.F.)
B_SPLINE_SURFACE_WITH_KNOTS((4,4),(4,4),(2.16840434497101E-16,1.),(0.,1.),
 .PIECEWISE_BEZIER_KNOTS.)
GEOMETRIC_REPRESENTATION_ITEM()
RATIONAL_B_SPLINE_SURFACE(((1.,0.333333333333333,0.333333333333333,1.),
(1.,0.333333333333333,0.333333333333333,1.),(1.,0.333333333333333,0.333333333333333,
1.),(1.,0.333333333333333,0.333333333333333,1.)))
REPRESENTATION_ITEM('')
SURFACE()
);
#60=SHAPE_REPRESENTATION_RELATIONSHIP('','',#718,#63);
#61=SHAPE_REPRESENTATION_RELATIONSHIP('','',#719,#64);
#62=SHAPE_REPRESENTATION_RELATIONSHIP('','',#720,#65);
#63=ADVANCED_BREP_SHAPE_REPRESENTATION('',(#712),#1412);
#64=ADVANCED_BREP_SHAPE_REPRESENTATION('',(#713),#1413);
#65=ADVANCED_BREP_SHAPE_REPRESENTATION('',(#714),#1414);
#66=TOROIDAL_SURFACE('',#740,0.0073,0.001);
#67=TOROIDAL_SURFACE('',#741,0.0083,0.001);
#68=TOROIDAL_SURFACE('',#763,0.0073,0.001);
#69=TOROIDAL_SURFACE('',#768,0.0083,0.001);
#70=TOROIDAL_SURFACE('',#801,0.0073,0.001);
#71=TOROIDAL_SURFACE('',#804,0.0083,0.001);
#72=B_SPLINE_SURFACE_WITH_KNOTS('',3,3,((#1099,#1100,#1101,#1102,#1103,
#1104,#1105,#1106,#1107,#1108,#1109,#1110,#1111,#1112,#1113,#1114,#1115,
#1116,#1117),(#1118,#1119,#1120,#1121,#1122,#1123,#1124,#1125,#1126,#1127,
#1128,#1129,#1130,#1131,#1132,#1133,#1134,#1135,#1136),(#1137,#1138,#1139,
#1140,#1141,#1142,#1143,#1144,#1145,#1146,#1147,#1148,#1149,#1150,#1151,
#1152,#1153,#1154,#1155),(#1156,#1157,#1158,#1159,#1160,#1161,#1162,#1163,
#1164,#1165,#1166,#1167,#1168,#1169,#1170,#1171,#1172,#1173,#1174)),
 .UNSPECIFIED.,.F.,.T.,.F.,(4,4),(1,1,1,1,1,1,1,1,1,1,1,1,1,1,1,1,1,1,1,
1,1,1,1),(2.16840434497101E-16,1.),(-1.17809724509617,-0.785398163397448,
-0.392699081698725,0.,0.392699081698724,0.785398163397448,1.17809724509617,
1.5707963267949,1.96349540849362,2.35619449019234,2.74889357189107,3.14159265358979,
3.53429173528852,3.92699081698724,4.31968989868597,4.71238898038469,5.10508806208341,
5.49778714378214,5.89048622548086,6.28318530717959,6.67588438887831,7.06858347057703,
7.46128255227576),.UNSPECIFIED.);
#73=B_SPLINE_CURVE_WITH_KNOTS('',3,(#1039,#1040,#1041,#1042,#1043,#1044,
#1045,#1046,#1047,#1048,#1049),.UNSPECIFIED.,.T.,.F.,(1,1,1,1,1,1,1,1,1,
1,1,1,1,1,1),(-0.00246607770715043,-0.00164405180476695,-0.000822025902383476,
0.,0.000822025902383476,0.00164405180476695,0.00246607770715043,0.0032881036095339,
0.00411012951191738,0.00493215541430085,0.00575418131668433,0.00657620721906781,
0.00739823312145128,0.00822025902383476,0.00904228492621823),
 .UNSPECIFIED.);
#74=B_SPLINE_CURVE_WITH_KNOTS('',3,(#1053,#1054,#1055,#1056,#1057,#1058,
#1059,#1060,#1061,#1062,#1063),.UNSPECIFIED.,.T.,.F.,(1,1,1,1,1,1,1,1,1,
1,1,1,1,1,1),(-0.00246608218734236,-0.00164405479156157,-0.000822027395780787,
1.26868308119058E-20,0.000822027395780787,0.00164405479156157,0.00246608218734236,
0.00328810958312315,0.00411013697890393,0.00493216437468472,0.00575419177046551,
0.00657621916624629,0.00739824656202708,0.00822027395780787,0.00904230135358865),
 .UNSPECIFIED.);
#75=B_SPLINE_CURVE_WITH_KNOTS('',3,(#1073,#1074,#1075,#1076,#1077,#1078,
#1079,#1080,#1081,#1082,#1083),.UNSPECIFIED.,.T.,.F.,(1,1,1,1,1,1,1,1,1,
1,1,1,1,1,1),(-0.00246375461745161,-0.00164250307830107,-0.000821251539150536,
0.,0.000821251539150537,0.00164250307830107,0.00246375461745161,0.00328500615660215,
0.00410625769575268,0.00492750923490322,0.00574876077405376,0.00657001231320429,
0.00739126385235483,0.00821251539150537,0.0090337669306559),
 .UNSPECIFIED.);
#76=B_SPLINE_CURVE_WITH_KNOTS('',3,(#1087,#1088,#1089,#1090,#1091,#1092,
#1093,#1094,#1095,#1096,#1097),.UNSPECIFIED.,.T.,.F.,(1,1,1,1,1,1,1,1,1,
1,1,1,1,1,1),(-0.00246375555274264,-0.00164250370182843,-0.000821251850914214,
4.39099989733995E-19,0.000821251850914216,0.00164250370182843,0.00246375555274265,
0.00328500740365686,0.00410625925457108,0.00492751110548529,0.00574876295639951,
0.00657001480731372,0.00739126665822794,0.00821251850914215,0.00903377036005637),
 .UNSPECIFIED.);
#77=B_SPLINE_CURVE_WITH_KNOTS('',3,(#1206,#1207,#1208,#1209,#1210,#1211,
#1212,#1213,#1214,#1215,#1216),.UNSPECIFIED.,.T.,.F.,(1,1,1,1,1,1,1,1,1,
1,1,1,1,1,1),(-0.00246375555274264,-0.00164250370182843,-0.000821251850914214,
4.39099989733995E-19,0.000821251850914216,0.00164250370182843,0.00246375555274265,
0.00328500740365686,0.00410625925457108,0.00492751110548529,0.00574876295639951,
0.00657001480731372,0.00739126665822794,0.00821251850914215,0.00903377036005637),
 .UNSPECIFIED.);
#78=B_SPLINE_CURVE_WITH_KNOTS('',3,(#1218,#1219,#1220,#1221,#1222,#1223,
#1224,#1225,#1226,#1227,#1228),.UNSPECIFIED.,.T.,.F.,(1,1,1,1,1,1,1,1,1,
1,1,1,1,1,1),(-0.00246608218734236,-0.00164405479156157,-0.000822027395780787,
1.26868308119058E-20,0.000822027395780787,0.00164405479156157,0.00246608218734236,
0.00328810958312315,0.00411013697890393,0.00493216437468472,0.00575419177046551,
0.00657621916624629,0.00739824656202708,0.00822027395780787,0.00904230135358865),
 .UNSPECIFIED.);
#79=B_SPLINE_CURVE_WITH_KNOTS('',3,(#1267,#1268,#1269,#1270),
 .UNSPECIFIED.,.F.,.F.,(4,4),(0.,1.),.PIECEWISE_BEZIER_KNOTS.);
#80=B_SPLINE_CURVE_WITH_KNOTS('',3,(#1274,#1275,#1276,#1277),
 .UNSPECIFIED.,.F.,.F.,(4,4),(0.,1.),.PIECEWISE_BEZIER_KNOTS.);
#81=B_SPLINE_CURVE_WITH_KNOTS('',3,(#1323,#1324,#1325,#1326,#1327,#1328,
#1329,#1330,#1331,#1332,#1333),.UNSPECIFIED.,.T.,.F.,(1,1,1,1,1,1,1,1,1,
1,1,1,1,1,1),(-0.00246607770715043,-0.00164405180476695,-0.000822025902383476,
0.,0.000822025902383476,0.00164405180476695,0.00246607770715043,0.0032881036095339,
0.00411012951191738,0.00493215541430085,0.00575418131668433,0.00657620721906781,
0.00739823312145128,0.00822025902383476,0.00904228492621823),
 .UNSPECIFIED.);
#82=B_SPLINE_CURVE_WITH_KNOTS('',3,(#1350,#1351,#1352,#1353,#1354,#1355,
#1356,#1357,#1358,#1359,#1360),.UNSPECIFIED.,.T.,.F.,(1,1,1,1,1,1,1,1,1,
1,1,1,1,1,1),(-0.00246375461745161,-0.00164250307830107,-0.000821251539150536,
0.,0.000821251539150537,0.00164250307830107,0.00246375461745161,0.00328500615660215,
0.00410625769575268,0.00492750923490322,0.00574876077405376,0.00657001231320429,
0.00739126385235483,0.00821251539150537,0.0090337669306559),
 .UNSPECIFIED.);
#83=B_SPLINE_CURVE_WITH_KNOTS('',3,(#1386,#1387,#1388,#1389),
 .UNSPECIFIED.,.F.,.F.,(4,4),(0.,1.),.PIECEWISE_BEZIER_KNOTS.);
#84=B_SPLINE_CURVE_WITH_KNOTS('',3,(#1390,#1391,#1392,#1393),
 .UNSPECIFIED.,.F.,.F.,(4,4),(0.,1.),.PIECEWISE_BEZIER_KNOTS.);
#85=PLANE('',#725);
#86=PLANE('',#728);
#87=PLANE('',#734);
#88=PLANE('',#747);
#89=PLANE('',#748);
#90=PLANE('',#755);
#91=PLANE('',#776);
#92=PLANE('',#779);
#93=PLANE('',#780);
#94=PLANE('',#783);
#95=PLANE('',#788);
#96=PLANE('',#790);
#97=PLANE('',#795);
#98=PLANE('',#812);
#99=PLANE('',#813);
#100=ORIENTED_EDGE('',*,*,#260,.F.);
#101=ORIENTED_EDGE('',*,*,#261,.T.);
#102=ORIENTED_EDGE('',*,*,#262,.T.);
#103=ORIENTED_EDGE('',*,*,#261,.F.);
#104=ORIENTED_EDGE('',*,*,#263,.T.);
#105=ORIENTED_EDGE('',*,*,#264,.F.);
#106=ORIENTED_EDGE('',*,*,#265,.T.);
#107=ORIENTED_EDGE('',*,*,#266,.F.);
#108=ORIENTED_EDGE('',*,*,#265,.F.);
#109=ORIENTED_EDGE('',*,*,#267,.T.);
#110=ORIENTED_EDGE('',*,*,#268,.T.);
#111=ORIENTED_EDGE('',*,*,#269,.T.);
#112=ORIENTED_EDGE('',*,*,#270,.T.);
#113=ORIENTED_EDGE('',*,*,#271,.T.);
#114=ORIENTED_EDGE('',*,*,#272,.T.);
#115=ORIENTED_EDGE('',*,*,#273,.T.);
#116=ORIENTED_EDGE('',*,*,#274,.T.);
#117=ORIENTED_EDGE('',*,*,#275,.T.);
#118=ORIENTED_EDGE('',*,*,#274,.F.);
#119=ORIENTED_EDGE('',*,*,#260,.T.);
#120=ORIENTED_EDGE('',*,*,#268,.F.);
#121=ORIENTED_EDGE('',*,*,#270,.F.);
#122=ORIENTED_EDGE('',*,*,#271,.F.);
#123=ORIENTED_EDGE('',*,*,#272,.F.);
#124=ORIENTED_EDGE('',*,*,#262,.F.);
#125=ORIENTED_EDGE('',*,*,#276,.T.);
#126=ORIENTED_EDGE('',*,*,#264,.T.);
#127=ORIENTED_EDGE('',*,*,#277,.F.);
#128=ORIENTED_EDGE('',*,*,#273,.F.);
#129=ORIENTED_EDGE('',*,*,#267,.F.);
#130=ORIENTED_EDGE('',*,*,#276,.F.);
#131=ORIENTED_EDGE('',*,*,#277,.T.);
#132=ORIENTED_EDGE('',*,*,#278,.T.);
#133=ORIENTED_EDGE('',*,*,#279,.F.);
#134=ORIENTED_EDGE('',*,*,#263,.F.);
#135=ORIENTED_EDGE('',*,*,#279,.T.);
#136=ORIENTED_EDGE('',*,*,#266,.T.);
#137=ORIENTED_EDGE('',*,*,#278,.F.);
#138=ORIENTED_EDGE('',*,*,#275,.F.);
#139=ORIENTED_EDGE('',*,*,#269,.F.);
#140=ORIENTED_EDGE('',*,*,#280,.T.);
#141=ORIENTED_EDGE('',*,*,#281,.F.);
#142=ORIENTED_EDGE('',*,*,#282,.F.);
#143=ORIENTED_EDGE('',*,*,#281,.T.);
#144=ORIENTED_EDGE('',*,*,#283,.T.);
#145=ORIENTED_EDGE('',*,*,#280,.F.);
#146=ORIENTED_EDGE('',*,*,#284,.F.);
#147=ORIENTED_EDGE('',*,*,#285,.F.);
#148=ORIENTED_EDGE('',*,*,#286,.F.);
#149=ORIENTED_EDGE('',*,*,#287,.F.);
#150=ORIENTED_EDGE('',*,*,#288,.F.);
#151=ORIENTED_EDGE('',*,*,#289,.F.);
#152=ORIENTED_EDGE('',*,*,#290,.F.);
#153=ORIENTED_EDGE('',*,*,#291,.F.);
#154=ORIENTED_EDGE('',*,*,#292,.F.);
#155=ORIENTED_EDGE('',*,*,#293,.F.);
#156=ORIENTED_EDGE('',*,*,#294,.T.);
#157=ORIENTED_EDGE('',*,*,#295,.T.);
#158=ORIENTED_EDGE('',*,*,#296,.F.);
#159=ORIENTED_EDGE('',*,*,#297,.T.);
#160=ORIENTED_EDGE('',*,*,#284,.T.);
#161=ORIENTED_EDGE('',*,*,#296,.T.);
#162=ORIENTED_EDGE('',*,*,#298,.T.);
#163=ORIENTED_EDGE('',*,*,#291,.T.);
#164=ORIENTED_EDGE('',*,*,#299,.T.);
#165=ORIENTED_EDGE('',*,*,#293,.T.);
#166=ORIENTED_EDGE('',*,*,#300,.T.);
#167=ORIENTED_EDGE('',*,*,#287,.T.);
#168=ORIENTED_EDGE('',*,*,#301,.T.);
#169=ORIENTED_EDGE('',*,*,#285,.T.);
#170=ORIENTED_EDGE('',*,*,#289,.T.);
#171=ORIENTED_EDGE('',*,*,#302,.T.);
#172=ORIENTED_EDGE('',*,*,#303,.F.);
#173=ORIENTED_EDGE('',*,*,#304,.T.);
#174=ORIENTED_EDGE('',*,*,#283,.F.);
#175=ORIENTED_EDGE('',*,*,#303,.T.);
#176=ORIENTED_EDGE('',*,*,#305,.T.);
#177=ORIENTED_EDGE('',*,*,#282,.T.);
#178=ORIENTED_EDGE('',*,*,#306,.F.);
#179=ORIENTED_EDGE('',*,*,#307,.T.);
#180=ORIENTED_EDGE('',*,*,#306,.T.);
#181=ORIENTED_EDGE('',*,*,#308,.T.);
#182=ORIENTED_EDGE('',*,*,#294,.F.);
#183=ORIENTED_EDGE('',*,*,#309,.T.);
#184=ORIENTED_EDGE('',*,*,#290,.T.);
#185=ORIENTED_EDGE('',*,*,#301,.F.);
#186=ORIENTED_EDGE('',*,*,#286,.T.);
#187=ORIENTED_EDGE('',*,*,#304,.F.);
#188=ORIENTED_EDGE('',*,*,#305,.F.);
#189=ORIENTED_EDGE('',*,*,#302,.F.);
#190=ORIENTED_EDGE('',*,*,#288,.T.);
#191=ORIENTED_EDGE('',*,*,#300,.F.);
#192=ORIENTED_EDGE('',*,*,#292,.T.);
#193=ORIENTED_EDGE('',*,*,#298,.F.);
#194=ORIENTED_EDGE('',*,*,#295,.F.);
#195=ORIENTED_EDGE('',*,*,#308,.F.);
#196=ORIENTED_EDGE('',*,*,#307,.F.);
#197=ORIENTED_EDGE('',*,*,#309,.F.);
#198=ORIENTED_EDGE('',*,*,#297,.F.);
#199=ORIENTED_EDGE('',*,*,#299,.F.);
#200=ORIENTED_EDGE('',*,*,#310,.F.);
#201=ORIENTED_EDGE('',*,*,#311,.T.);
#202=ORIENTED_EDGE('',*,*,#312,.F.);
#203=ORIENTED_EDGE('',*,*,#313,.F.);
#204=ORIENTED_EDGE('',*,*,#314,.T.);
#205=ORIENTED_EDGE('',*,*,#315,.F.);
#206=ORIENTED_EDGE('',*,*,#311,.F.);
#207=ORIENTED_EDGE('',*,*,#316,.F.);
#208=ORIENTED_EDGE('',*,*,#317,.F.);
#209=ORIENTED_EDGE('',*,*,#318,.T.);
#210=ORIENTED_EDGE('',*,*,#319,.T.);
#211=ORIENTED_EDGE('',*,*,#320,.F.);
#212=ORIENTED_EDGE('',*,*,#321,.T.);
#213=ORIENTED_EDGE('',*,*,#322,.F.);
#214=ORIENTED_EDGE('',*,*,#318,.F.);
#215=ORIENTED_EDGE('',*,*,#323,.F.);
#216=ORIENTED_EDGE('',*,*,#324,.T.);
#217=ORIENTED_EDGE('',*,*,#325,.F.);
#218=ORIENTED_EDGE('',*,*,#326,.T.);
#219=ORIENTED_EDGE('',*,*,#327,.T.);
#220=ORIENTED_EDGE('',*,*,#328,.F.);
#221=ORIENTED_EDGE('',*,*,#329,.T.);
#222=ORIENTED_EDGE('',*,*,#330,.F.);
#223=ORIENTED_EDGE('',*,*,#331,.T.);
#224=ORIENTED_EDGE('',*,*,#332,.F.);
#225=ORIENTED_EDGE('',*,*,#313,.T.);
#226=ORIENTED_EDGE('',*,*,#333,.F.);
#227=ORIENTED_EDGE('',*,*,#329,.F.);
#228=ORIENTED_EDGE('',*,*,#326,.F.);
#229=ORIENTED_EDGE('',*,*,#334,.T.);
#230=ORIENTED_EDGE('',*,*,#321,.F.);
#231=ORIENTED_EDGE('',*,*,#335,.T.);
#232=ORIENTED_EDGE('',*,*,#331,.F.);
#233=ORIENTED_EDGE('',*,*,#336,.T.);
#234=ORIENTED_EDGE('',*,*,#324,.F.);
#235=ORIENTED_EDGE('',*,*,#337,.T.);
#236=ORIENTED_EDGE('',*,*,#314,.F.);
#237=ORIENTED_EDGE('',*,*,#338,.T.);
#238=ORIENTED_EDGE('',*,*,#316,.T.);
#239=ORIENTED_EDGE('',*,*,#339,.F.);
#240=ORIENTED_EDGE('',*,*,#327,.F.);
#241=ORIENTED_EDGE('',*,*,#319,.F.);
#242=ORIENTED_EDGE('',*,*,#338,.F.);
#243=ORIENTED_EDGE('',*,*,#339,.T.);
#244=ORIENTED_EDGE('',*,*,#336,.F.);
#245=ORIENTED_EDGE('',*,*,#330,.T.);
#246=ORIENTED_EDGE('',*,*,#333,.T.);
#247=ORIENTED_EDGE('',*,*,#312,.T.);
#248=ORIENTED_EDGE('',*,*,#315,.T.);
#249=ORIENTED_EDGE('',*,*,#310,.T.);
#250=ORIENTED_EDGE('',*,*,#332,.T.);
#251=ORIENTED_EDGE('',*,*,#328,.T.);
#252=ORIENTED_EDGE('',*,*,#337,.F.);
#253=ORIENTED_EDGE('',*,*,#323,.T.);
#254=ORIENTED_EDGE('',*,*,#335,.F.);
#255=ORIENTED_EDGE('',*,*,#320,.T.);
#256=ORIENTED_EDGE('',*,*,#317,.T.);
#257=ORIENTED_EDGE('',*,*,#322,.T.);
#258=ORIENTED_EDGE('',*,*,#334,.F.);
#259=ORIENTED_EDGE('',*,*,#325,.T.);
#260=EDGE_CURVE('',#340,#340,#404,.T.);
#261=EDGE_CURVE('',#341,#341,#405,.T.);
#262=EDGE_CURVE('',#342,#342,#406,.T.);
#263=EDGE_CURVE('',#343,#343,#407,.T.);
#264=EDGE_CURVE('',#344,#344,#408,.F.);
#265=EDGE_CURVE('',#345,#345,#409,.T.);
#266=EDGE_CURVE('',#346,#346,#410,.F.);
#267=EDGE_CURVE('',#347,#347,#73,.T.);
#268=EDGE_CURVE('',#348,#348,#411,.F.);
#269=EDGE_CURVE('',#349,#349,#74,.T.);
#270=EDGE_CURVE('',#350,#350,#412,.T.);
#271=EDGE_CURVE('',#351,#351,#413,.F.);
#272=EDGE_CURVE('',#352,#352,#414,.T.);
#273=EDGE_CURVE('',#353,#353,#75,.T.);
#274=EDGE_CURVE('',#354,#354,#415,.T.);
#275=EDGE_CURVE('',#355,#355,#76,.T.);
#276=EDGE_CURVE('',#356,#356,#416,.T.);
#277=EDGE_CURVE('',#357,#357,#417,.T.);
#278=EDGE_CURVE('',#358,#358,#418,.T.);
#279=EDGE_CURVE('',#359,#359,#419,.T.);
#280=EDGE_CURVE('',#360,#360,#420,.T.);
#281=EDGE_CURVE('',#361,#361,#421,.T.);
#282=EDGE_CURVE('',#362,#362,#422,.T.);
#283=EDGE_CURVE('',#363,#363,#423,.F.);
#284=EDGE_CURVE('',#364,#364,#77,.T.);
#285=EDGE_CURVE('',#365,#365,#78,.T.);
#286=EDGE_CURVE('',#366,#367,#424,.F.);
#287=EDGE_CURVE('',#368,#366,#425,.T.);
#288=EDGE_CURVE('',#369,#368,#426,.F.);
#289=EDGE_CURVE('',#367,#369,#427,.F.);
#290=EDGE_CURVE('',#370,#371,#428,.F.);
#291=EDGE_CURVE('',#372,#370,#429,.T.);
#292=EDGE_CURVE('',#373,#372,#430,.F.);
#293=EDGE_CURVE('',#371,#373,#431,.F.);
#294=EDGE_CURVE('',#374,#375,#432,.T.);
#295=EDGE_CURVE('',#375,#376,#79,.T.);
#296=EDGE_CURVE('',#377,#376,#433,.T.);
#297=EDGE_CURVE('',#377,#374,#80,.F.);
#298=EDGE_CURVE('',#376,#372,#18,.T.);
#299=EDGE_CURVE('',#370,#377,#19,.F.);
#300=EDGE_CURVE('',#373,#368,#20,.T.);
#301=EDGE_CURVE('',#366,#371,#21,.T.);
#302=EDGE_CURVE('',#369,#378,#22,.F.);
#303=EDGE_CURVE('',#379,#378,#434,.T.);
#304=EDGE_CURVE('',#379,#367,#23,.T.);
#305=EDGE_CURVE('',#378,#379,#24,.T.);
#306=EDGE_CURVE('',#380,#381,#435,.T.);
#307=EDGE_CURVE('',#380,#381,#25,.T.);
#308=EDGE_CURVE('',#381,#375,#26,.T.);
#309=EDGE_CURVE('',#374,#380,#27,.F.);
#310=EDGE_CURVE('',#382,#383,#28,.T.);
#311=EDGE_CURVE('',#382,#384,#436,.T.);
#312=EDGE_CURVE('',#385,#384,#29,.F.);
#313=EDGE_CURVE('',#383,#385,#437,.T.);
#314=EDGE_CURVE('',#386,#386,#438,.T.);
#315=EDGE_CURVE('',#384,#382,#30,.T.);
#316=EDGE_CURVE('',#387,#387,#439,.F.);
#317=EDGE_CURVE('',#388,#389,#31,.T.);
#318=EDGE_CURVE('',#388,#389,#440,.T.);
#319=EDGE_CURVE('',#390,#390,#81,.T.);
#320=EDGE_CURVE('',#391,#388,#32,.F.);
#321=EDGE_CURVE('',#391,#392,#441,.F.);
#322=EDGE_CURVE('',#389,#392,#33,.T.);
#323=EDGE_CURVE('',#393,#394,#34,.T.);
#324=EDGE_CURVE('',#393,#395,#442,.F.);
#325=EDGE_CURVE('',#396,#395,#35,.T.);
#326=EDGE_CURVE('',#396,#394,#443,.T.);
#327=EDGE_CURVE('',#397,#397,#82,.T.);
#328=EDGE_CURVE('',#398,#399,#36,.T.);
#329=EDGE_CURVE('',#398,#400,#444,.T.);
#330=EDGE_CURVE('',#401,#400,#37,.F.);
#331=EDGE_CURVE('',#401,#399,#445,.T.);
#332=EDGE_CURVE('',#383,#398,#83,.T.);
#333=EDGE_CURVE('',#400,#385,#84,.F.);
#334=EDGE_CURVE('',#396,#392,#446,.F.);
#335=EDGE_CURVE('',#391,#394,#447,.F.);
#336=EDGE_CURVE('',#401,#395,#448,.F.);
#337=EDGE_CURVE('',#393,#399,#449,.F.);
#338=EDGE_CURVE('',#402,#402,#450,.T.);
#339=EDGE_CURVE('',#403,#403,#451,.T.);
#340=VERTEX_POINT('',#1023);
#341=VERTEX_POINT('',#1025);
#342=VERTEX_POINT('',#1028);
#343=VERTEX_POINT('',#1030);
#344=VERTEX_POINT('',#1033);
#345=VERTEX_POINT('',#1035);
#346=VERTEX_POINT('',#1037);
#347=VERTEX_POINT('',#1050);
#348=VERTEX_POINT('',#1052);
#349=VERTEX_POINT('',#1064);
#350=VERTEX_POINT('',#1067);
#351=VERTEX_POINT('',#1069);
#352=VERTEX_POINT('',#1072);
#353=VERTEX_POINT('',#1084);
#354=VERTEX_POINT('',#1086);
#355=VERTEX_POINT('',#1098);
#356=VERTEX_POINT('',#1179);
#357=VERTEX_POINT('',#1182);
#358=VERTEX_POINT('',#1187);
#359=VERTEX_POINT('',#1189);
#360=VERTEX_POINT('',#1196);
#361=VERTEX_POINT('',#1198);
#362=VERTEX_POINT('',#1201);
#363=VERTEX_POINT('',#1204);
#364=VERTEX_POINT('',#1217);
#365=VERTEX_POINT('',#1229);
#366=VERTEX_POINT('',#1232);
#367=VERTEX_POINT('',#1233);
#368=VERTEX_POINT('',#1235);
#369=VERTEX_POINT('',#1237);
#370=VERTEX_POINT('',#1241);
#371=VERTEX_POINT('',#1242);
#372=VERTEX_POINT('',#1244);
#373=VERTEX_POINT('',#1246);
#374=VERTEX_POINT('',#1265);
#375=VERTEX_POINT('',#1266);
#376=VERTEX_POINT('',#1271);
#377=VERTEX_POINT('',#1273);
#378=VERTEX_POINT('',#1286);
#379=VERTEX_POINT('',#1288);
#380=VERTEX_POINT('',#1294);
#381=VERTEX_POINT('',#1295);
#382=VERTEX_POINT('',#1304);
#383=VERTEX_POINT('',#1305);
#384=VERTEX_POINT('',#1307);
#385=VERTEX_POINT('',#1309);
#386=VERTEX_POINT('',#1313);
#387=VERTEX_POINT('',#1317);
#388=VERTEX_POINT('',#1319);
#389=VERTEX_POINT('',#1320);
#390=VERTEX_POINT('',#1334);
#391=VERTEX_POINT('',#1336);
#392=VERTEX_POINT('',#1338);
#393=VERTEX_POINT('',#1342);
#394=VERTEX_POINT('',#1343);
#395=VERTEX_POINT('',#1345);
#396=VERTEX_POINT('',#1347);
#397=VERTEX_POINT('',#1361);
#398=VERTEX_POINT('',#1363);
#399=VERTEX_POINT('',#1364);
#400=VERTEX_POINT('',#1366);
#401=VERTEX_POINT('',#1368);
#402=VERTEX_POINT('',#1402);
#403=VERTEX_POINT('',#1405);
#404=CIRCLE('',#723,0.0058);
#405=CIRCLE('',#724,0.0058);
#406=CIRCLE('',#726,0.0015);
#407=CIRCLE('',#727,0.0015);
#408=CIRCLE('',#729,0.0028);
#409=CIRCLE('',#730,0.0063);
#410=CIRCLE('',#731,0.0028);
#411=CIRCLE('',#733,0.0063);
#412=CIRCLE('',#735,0.0073);
#413=CIRCLE('',#736,0.0083);
#414=CIRCLE('',#738,0.0093);
#415=CIRCLE('',#739,0.0093);
#416=CIRCLE('',#743,0.0015);
#417=CIRCLE('',#745,0.0028);
#418=CIRCLE('',#749,0.0028);
#419=CIRCLE('',#750,0.0015);
#420=CIRCLE('',#756,0.0028);
#421=CIRCLE('',#757,0.0015);
#422=CIRCLE('',#759,0.0015);
#423=CIRCLE('',#761,0.0028);
#424=CIRCLE('',#764,0.001);
#425=CIRCLE('',#765,0.0073);
#426=CIRCLE('',#766,0.001);
#427=CIRCLE('',#767,0.0063);
#428=CIRCLE('',#769,0.001);
#429=CIRCLE('',#770,0.0093);
#430=CIRCLE('',#771,0.001);
#431=CIRCLE('',#772,0.0083);
#432=CIRCLE('',#773,0.0058);
#433=CIRCLE('',#774,0.0093);
#434=CIRCLE('',#778,0.0063);
#435=CIRCLE('',#781,0.0058);
#436=CIRCLE('',#786,0.0058);
#437=CIRCLE('',#787,0.0058);
#438=CIRCLE('',#789,0.0015);
#439=CIRCLE('',#791,0.0028);
#440=CIRCLE('',#792,0.0063);
#441=CIRCLE('',#794,0.0063);
#442=CIRCLE('',#796,0.0083);
#443=CIRCLE('',#797,0.0073);
#444=CIRCLE('',#799,0.0093);
#445=CIRCLE('',#800,0.0093);
#446=CIRCLE('',#802,0.001);
#447=CIRCLE('',#803,0.001);
#448=CIRCLE('',#805,0.001);
#449=CIRCLE('',#806,0.001);
#450=CIRCLE('',#808,0.0015);
#451=CIRCLE('',#810,0.0028);
#452=EDGE_LOOP('',(#100));
#453=EDGE_LOOP('',(#101));
#454=EDGE_LOOP('',(#102));
#455=EDGE_LOOP('',(#103));
#456=EDGE_LOOP('',(#104));
#457=EDGE_LOOP('',(#105));
#458=EDGE_LOOP('',(#106));
#459=EDGE_LOOP('',(#107));
#460=EDGE_LOOP('',(#108));
#461=EDGE_LOOP('',(#109));
#462=EDGE_LOOP('',(#110));
#463=EDGE_LOOP('',(#111));
#464=EDGE_LOOP('',(#112));
#465=EDGE_LOOP('',(#113));
#466=EDGE_LOOP('',(#114));
#467=EDGE_LOOP('',(#115));
#468=EDGE_LOOP('',(#116));
#469=EDGE_LOOP('',(#117));
#470=EDGE_LOOP('',(#118));
#471=EDGE_LOOP('',(#119));
#472=EDGE_LOOP('',(#120));
#473=EDGE_LOOP('',(#121));
#474=EDGE_LOOP('',(#122));
#475=EDGE_LOOP('',(#123));
#476=EDGE_LOOP('',(#124));
#477=EDGE_LOOP('',(#125));
#478=EDGE_LOOP('',(#126));
#479=EDGE_LOOP('',(#127));
#480=EDGE_LOOP('',(#128));
#481=EDGE_LOOP('',(#129));
#482=EDGE_LOOP('',(#130));
#483=EDGE_LOOP('',(#131));
#484=EDGE_LOOP('',(#132));
#485=EDGE_LOOP('',(#133));
#486=EDGE_LOOP('',(#134));
#487=EDGE_LOOP('',(#135));
#488=EDGE_LOOP('',(#136));
#489=EDGE_LOOP('',(#137));
#490=EDGE_LOOP('',(#138));
#491=EDGE_LOOP('',(#139));
#492=EDGE_LOOP('',(#140));
#493=EDGE_LOOP('',(#141));
#494=EDGE_LOOP('',(#142));
#495=EDGE_LOOP('',(#143));
#496=EDGE_LOOP('',(#144));
#497=EDGE_LOOP('',(#145));
#498=EDGE_LOOP('',(#146));
#499=EDGE_LOOP('',(#147));
#500=EDGE_LOOP('',(#148,#149,#150,#151));
#501=EDGE_LOOP('',(#152,#153,#154,#155));
#502=EDGE_LOOP('',(#156,#157,#158,#159));
#503=EDGE_LOOP('',(#160));
#504=EDGE_LOOP('',(#161,#162,#163,#164));
#505=EDGE_LOOP('',(#165,#166,#167,#168));
#506=EDGE_LOOP('',(#169));
#507=EDGE_LOOP('',(#170,#171,#172,#173));
#508=EDGE_LOOP('',(#174));
#509=EDGE_LOOP('',(#175,#176));
#510=EDGE_LOOP('',(#177));
#511=EDGE_LOOP('',(#178,#179));
#512=EDGE_LOOP('',(#180,#181,#182,#183));
#513=EDGE_LOOP('',(#184,#185,#186,#187,#188,#189,#190,#191,#192,#193,#194,
#195,#196,#197,#198,#199));
#514=EDGE_LOOP('',(#200,#201,#202,#203));
#515=EDGE_LOOP('',(#204));
#516=EDGE_LOOP('',(#205,#206));
#517=EDGE_LOOP('',(#207));
#518=EDGE_LOOP('',(#208,#209));
#519=EDGE_LOOP('',(#210));
#520=EDGE_LOOP('',(#211,#212,#213,#214));
#521=EDGE_LOOP('',(#215,#216,#217,#218));
#522=EDGE_LOOP('',(#219));
#523=EDGE_LOOP('',(#220,#221,#222,#223));
#524=EDGE_LOOP('',(#224,#225,#226,#227));
#525=EDGE_LOOP('',(#228,#229,#230,#231));
#526=EDGE_LOOP('',(#232,#233,#234,#235));
#527=EDGE_LOOP('',(#236));
#528=EDGE_LOOP('',(#237));
#529=EDGE_LOOP('',(#238));
#530=EDGE_LOOP('',(#239));
#531=EDGE_LOOP('',(#240));
#532=EDGE_LOOP('',(#241));
#533=EDGE_LOOP('',(#242));
#534=EDGE_LOOP('',(#243));
#535=EDGE_LOOP('',(#244,#245,#246,#247,#248,#249,#250,#251,#252,#253,#254,
#255,#256,#257,#258,#259));
#536=FACE_BOUND('',#452,.T.);
#537=FACE_BOUND('',#453,.T.);
#538=FACE_BOUND('',#454,.T.);
#539=FACE_BOUND('',#455,.T.);
#540=FACE_BOUND('',#456,.T.);
#541=FACE_BOUND('',#457,.T.);
#542=FACE_BOUND('',#458,.T.);
#543=FACE_BOUND('',#459,.T.);
#544=FACE_BOUND('',#460,.T.);
#545=FACE_BOUND('',#461,.T.);
#546=FACE_BOUND('',#462,.T.);
#547=FACE_BOUND('',#463,.T.);
#548=FACE_BOUND('',#464,.T.);
#549=FACE_BOUND('',#465,.T.);
#550=FACE_BOUND('',#466,.T.);
#551=FACE_BOUND('',#467,.T.);
#552=FACE_BOUND('',#468,.T.);
#553=FACE_BOUND('',#469,.T.);
#554=FACE_BOUND('',#470,.T.);
#555=FACE_BOUND('',#471,.T.);
#556=FACE_BOUND('',#472,.T.);
#557=FACE_BOUND('',#473,.T.);
#558=FACE_BOUND('',#474,.T.);
#559=FACE_BOUND('',#475,.T.);
#560=FACE_BOUND('',#476,.T.);
#561=FACE_BOUND('',#477,.T.);
#562=FACE_BOUND('',#478,.T.);
#563=FACE_BOUND('',#479,.T.);
#564=FACE_BOUND('',#480,.T.);
#565=FACE_BOUND('',#481,.T.);
#566=FACE_BOUND('',#482,.T.);
#567=FACE_BOUND('',#483,.T.);
#568=FACE_BOUND('',#484,.T.);
#569=FACE_BOUND('',#485,.T.);
#570=FACE_BOUND('',#486,.T.);
#571=FACE_BOUND('',#487,.T.);
#572=FACE_BOUND('',#488,.T.);
#573=FACE_BOUND('',#489,.T.);
#574=FACE_BOUND('',#490,.T.);
#575=FACE_BOUND('',#491,.T.);
#576=FACE_BOUND('',#492,.T.);
#577=FACE_BOUND('',#493,.T.);
#578=FACE_BOUND('',#494,.T.);
#579=FACE_BOUND('',#495,.T.);
#580=FACE_BOUND('',#496,.T.);
#581=FACE_BOUND('',#497,.T.);
#582=FACE_BOUND('',#498,.T.);
#583=FACE_BOUND('',#499,.T.);
#584=FACE_BOUND('',#500,.T.);
#585=FACE_BOUND('',#501,.T.);
#586=FACE_BOUND('',#502,.T.);
#587=FACE_BOUND('',#503,.T.);
#588=FACE_BOUND('',#504,.T.);
#589=FACE_BOUND('',#505,.T.);
#590=FACE_BOUND('',#506,.T.);
#591=FACE_BOUND('',#507,.T.);
#592=FACE_BOUND('',#508,.T.);
#593=FACE_BOUND('',#509,.T.);
#594=FACE_BOUND('',#510,.T.);
#595=FACE_BOUND('',#511,.T.);
#596=FACE_BOUND('',#512,.T.);
#597=FACE_BOUND('',#513,.T.);
#598=FACE_BOUND('',#514,.T.);
#599=FACE_BOUND('',#515,.T.);
#600=FACE_BOUND('',#516,.T.);
#601=FACE_BOUND('',#517,.T.);
#602=FACE_BOUND('',#518,.T.);
#603=FACE_BOUND('',#519,.T.);
#604=FACE_BOUND('',#520,.T.);
#605=FACE_BOUND('',#521,.T.);
#606=FACE_BOUND('',#522,.T.);
#607=FACE_BOUND('',#523,.T.);
#608=FACE_BOUND('',#524,.T.);
#609=FACE_BOUND('',#525,.T.);
#610=FACE_BOUND('',#526,.T.);
#611=FACE_BOUND('',#527,.T.);
#612=FACE_BOUND('',#528,.T.);
#613=FACE_BOUND('',#529,.T.);
#614=FACE_BOUND('',#530,.T.);
#615=FACE_BOUND('',#531,.T.);
#616=FACE_BOUND('',#532,.T.);
#617=FACE_BOUND('',#533,.T.);
#618=FACE_BOUND('',#534,.T.);
#619=FACE_BOUND('',#535,.T.);
#620=CYLINDRICAL_SURFACE('',#722,0.0058);
#621=CYLINDRICAL_SURFACE('',#732,0.0063);
#622=CYLINDRICAL_SURFACE('',#737,0.0093);
#623=CYLINDRICAL_SURFACE('',#742,0.0015);
#624=CYLINDRICAL_SURFACE('',#744,0.0028);
#625=CYLINDRICAL_SURFACE('',#746,0.00105);
#626=CYLINDRICAL_SURFACE('',#751,0.0015);
#627=CYLINDRICAL_SURFACE('',#752,0.0028);
#628=CYLINDRICAL_SURFACE('',#753,0.00105);
#629=CYLINDRICAL_SURFACE('',#758,0.0015);
#630=CYLINDRICAL_SURFACE('',#760,0.0028);
#631=CYLINDRICAL_SURFACE('',#762,0.00105);
#632=CYLINDRICAL_SURFACE('',#775,0.0093);
#633=CYLINDRICAL_SURFACE('',#777,0.0063);
#634=CYLINDRICAL_SURFACE('',#782,0.0058);
#635=CYLINDRICAL_SURFACE('',#785,0.0058);
#636=CYLINDRICAL_SURFACE('',#793,0.0063);
#637=CYLINDRICAL_SURFACE('',#798,0.0093);
#638=CYLINDRICAL_SURFACE('',#807,0.0015);
#639=CYLINDRICAL_SURFACE('',#809,0.0028);
#640=CYLINDRICAL_SURFACE('',#811,0.00105);
#641=ADVANCED_FACE('',(#536,#537),#620,.T.);
#642=ADVANCED_FACE('',(#538,#539,#540),#85,.F.);
#643=ADVANCED_FACE('',(#541,#542,#543),#86,.F.);
#644=ADVANCED_FACE('',(#544,#545,#546,#547),#621,.F.);
#645=ADVANCED_FACE('',(#548,#549),#87,.F.);
#646=ADVANCED_FACE('',(#550,#551,#552,#553),#622,.T.);
#647=ADVANCED_FACE('',(#554,#555),#72,.F.);
#648=ADVANCED_FACE('',(#556,#557),#66,.T.);
#649=ADVANCED_FACE('',(#558,#559),#67,.T.);
#650=ADVANCED_FACE('',(#560,#561),#623,.F.);
#651=ADVANCED_FACE('',(#562,#563),#624,.F.);
#652=ADVANCED_FACE('',(#564,#565),#625,.F.);
#653=ADVANCED_FACE('',(#566,#567),#88,.T.);
#654=ADVANCED_FACE('',(#568,#569),#89,.T.);
#655=ADVANCED_FACE('',(#570,#571),#626,.F.);
#656=ADVANCED_FACE('',(#572,#573),#627,.F.);
#657=ADVANCED_FACE('',(#574,#575),#628,.F.);
#658=ADVANCED_FACE('',(#576,#577),#90,.T.);
#659=ADVANCED_FACE('',(#578,#579),#629,.F.);
#660=ADVANCED_FACE('',(#580,#581),#630,.F.);
#661=ADVANCED_FACE('',(#582,#583),#631,.F.);
#662=ADVANCED_FACE('',(#584),#68,.T.);
#663=ADVANCED_FACE('',(#585),#69,.T.);
#664=ADVANCED_FACE('',(#586),#58,.F.);
#665=ADVANCED_FACE('',(#587,#588),#632,.T.);
#666=ADVANCED_FACE('',(#589),#91,.F.);
#667=ADVANCED_FACE('',(#590,#591),#633,.F.);
#668=ADVANCED_FACE('',(#592,#593),#92,.F.);
#669=ADVANCED_FACE('',(#594,#595),#93,.F.);
#670=ADVANCED_FACE('',(#596),#634,.T.);
#671=ADVANCED_FACE('',(#597),#94,.F.);
#672=ADVANCED_FACE('',(#598),#635,.T.);
#673=ADVANCED_FACE('',(#599,#600),#95,.F.);
#674=ADVANCED_FACE('',(#601,#602),#96,.F.);
#675=ADVANCED_FACE('',(#603,#604),#636,.F.);
#676=ADVANCED_FACE('',(#605),#97,.F.);
#677=ADVANCED_FACE('',(#606,#607),#637,.T.);
#678=ADVANCED_FACE('',(#608),#59,.F.);
#679=ADVANCED_FACE('',(#609),#70,.T.);
#680=ADVANCED_FACE('',(#610),#71,.T.);
#681=ADVANCED_FACE('',(#611,#612),#638,.F.);
#682=ADVANCED_FACE('',(#613,#614),#639,.F.);
#683=ADVANCED_FACE('',(#615,#616),#640,.F.);
#684=ADVANCED_FACE('',(#617,#618),#98,.T.);
#685=ADVANCED_FACE('',(#619),#99,.T.);
#686=CLOSED_SHELL('',(#641,#642,#643,#644,#645,#646,#647,#648,#649,#650,
#651,#652,#653,#654,#655,#656,#657));
#687=CLOSED_SHELL('',(#658,#659,#660,#661,#662,#663,#664,#665,#666,#667,
#668,#669,#670,#671));
#688=CLOSED_SHELL('',(#672,#673,#674,#675,#676,#677,#678,#679,#680,#681,
#682,#683,#684,#685));
#689=STYLED_ITEM('',(#692),#712);
#690=STYLED_ITEM('',(#693),#713);
#691=STYLED_ITEM('',(#694),#714);
#692=PRESENTATION_STYLE_ASSIGNMENT((#695));
#693=PRESENTATION_STYLE_ASSIGNMENT((#696));
#694=PRESENTATION_STYLE_ASSIGNMENT((#697));
#695=SURFACE_STYLE_USAGE(.BOTH.,#698);
#696=SURFACE_STYLE_USAGE(.BOTH.,#699);
#697=SURFACE_STYLE_USAGE(.BOTH.,#700);
#698=SURFACE_SIDE_STYLE('',(#701));
#699=SURFACE_SIDE_STYLE('',(#702));
#700=SURFACE_SIDE_STYLE('',(#703));
#701=SURFACE_STYLE_FILL_AREA(#704);
#702=SURFACE_STYLE_FILL_AREA(#705);
#703=SURFACE_STYLE_FILL_AREA(#706);
#704=FILL_AREA_STYLE('',(#707));
#705=FILL_AREA_STYLE('',(#708));
#706=FILL_AREA_STYLE('',(#709));
#707=FILL_AREA_STYLE_COLOUR('',#710);
#708=FILL_AREA_STYLE_COLOUR('',#711);
#709=FILL_AREA_STYLE_COLOUR('',#711);
#710=COLOUR_RGB('',0.647058823529412,0.647058823529412,0.647058823529412);
#711=COLOUR_RGB('',0.615686274509804,0.811764705882353,0.929411764705882);
#712=MANIFOLD_SOLID_BREP('Cup',#686);
#713=MANIFOLD_SOLID_BREP('CupR',#687);
#714=MANIFOLD_SOLID_BREP('Cup L',#688);
#715=SHAPE_DEFINITION_REPRESENTATION(#1427,#718);
#716=SHAPE_DEFINITION_REPRESENTATION(#1428,#719);
#717=SHAPE_DEFINITION_REPRESENTATION(#1429,#720);
#718=SHAPE_REPRESENTATION('Cup',(#721),#1412);
#719=SHAPE_REPRESENTATION('CupR',(#754),#1413);
#720=SHAPE_REPRESENTATION('Cup L',(#784),#1414);
#721=AXIS2_PLACEMENT_3D('',#1020,#814,#815);
#722=AXIS2_PLACEMENT_3D('',#1021,#816,#817);
#723=AXIS2_PLACEMENT_3D('',#1022,#818,#819);
#724=AXIS2_PLACEMENT_3D('',#1024,#820,#821);
#725=AXIS2_PLACEMENT_3D('',#1026,#822,#823);
#726=AXIS2_PLACEMENT_3D('',#1027,#824,#825);
#727=AXIS2_PLACEMENT_3D('',#1029,#826,#827);
#728=AXIS2_PLACEMENT_3D('',#1031,#828,#829);
#729=AXIS2_PLACEMENT_3D('',#1032,#830,#831);
#730=AXIS2_PLACEMENT_3D('',#1034,#832,#833);
#731=AXIS2_PLACEMENT_3D('',#1036,#834,#835);
#732=AXIS2_PLACEMENT_3D('',#1038,#836,#837);
#733=AXIS2_PLACEMENT_3D('',#1051,#838,#839);
#734=AXIS2_PLACEMENT_3D('',#1065,#840,#841);
#735=AXIS2_PLACEMENT_3D('',#1066,#842,#843);
#736=AXIS2_PLACEMENT_3D('',#1068,#844,#845);
#737=AXIS2_PLACEMENT_3D('',#1070,#846,#847);
#738=AXIS2_PLACEMENT_3D('',#1071,#848,#849);
#739=AXIS2_PLACEMENT_3D('',#1085,#850,#851);
#740=AXIS2_PLACEMENT_3D('',#1175,#852,#853);
#741=AXIS2_PLACEMENT_3D('',#1176,#854,#855);
#742=AXIS2_PLACEMENT_3D('',#1177,#856,#857);
#743=AXIS2_PLACEMENT_3D('',#1178,#858,#859);
#744=AXIS2_PLACEMENT_3D('',#1180,#860,#861);
#745=AXIS2_PLACEMENT_3D('',#1181,#862,#863);
#746=AXIS2_PLACEMENT_3D('',#1183,#864,#865);
#747=AXIS2_PLACEMENT_3D('',#1184,#866,#867);
#748=AXIS2_PLACEMENT_3D('',#1185,#868,#869);
#749=AXIS2_PLACEMENT_3D('',#1186,#870,#871);
#750=AXIS2_PLACEMENT_3D('',#1188,#872,#873);
#751=AXIS2_PLACEMENT_3D('',#1190,#874,#875);
#752=AXIS2_PLACEMENT_3D('',#1191,#876,#877);
#753=AXIS2_PLACEMENT_3D('',#1192,#878,#879);
#754=AXIS2_PLACEMENT_3D('',#1193,#880,#881);
#755=AXIS2_PLACEMENT_3D('',#1194,#882,#883);
#756=AXIS2_PLACEMENT_3D('',#1195,#884,#885);
#757=AXIS2_PLACEMENT_3D('',#1197,#886,#887);
#758=AXIS2_PLACEMENT_3D('',#1199,#888,#889);
#759=AXIS2_PLACEMENT_3D('',#1200,#890,#891);
#760=AXIS2_PLACEMENT_3D('',#1202,#892,#893);
#761=AXIS2_PLACEMENT_3D('',#1203,#894,#895);
#762=AXIS2_PLACEMENT_3D('',#1205,#896,#897);
#763=AXIS2_PLACEMENT_3D('',#1230,#898,#899);
#764=AXIS2_PLACEMENT_3D('',#1231,#900,#901);
#765=AXIS2_PLACEMENT_3D('',#1234,#902,#903);
#766=AXIS2_PLACEMENT_3D('',#1236,#904,#905);
#767=AXIS2_PLACEMENT_3D('',#1238,#906,#907);
#768=AXIS2_PLACEMENT_3D('',#1239,#908,#909);
#769=AXIS2_PLACEMENT_3D('',#1240,#910,#911);
#770=AXIS2_PLACEMENT_3D('',#1243,#912,#913);
#771=AXIS2_PLACEMENT_3D('',#1245,#914,#915);
#772=AXIS2_PLACEMENT_3D('',#1247,#916,#917);
#773=AXIS2_PLACEMENT_3D('',#1264,#918,#919);
#774=AXIS2_PLACEMENT_3D('',#1272,#920,#921);
#775=AXIS2_PLACEMENT_3D('',#1278,#922,#923);
#776=AXIS2_PLACEMENT_3D('',#1281,#926,#927);
#777=AXIS2_PLACEMENT_3D('',#1284,#930,#931);
#778=AXIS2_PLACEMENT_3D('',#1287,#933,#934);
#779=AXIS2_PLACEMENT_3D('',#1290,#936,#937);
#780=AXIS2_PLACEMENT_3D('',#1292,#939,#940);
#781=AXIS2_PLACEMENT_3D('',#1293,#941,#942);
#782=AXIS2_PLACEMENT_3D('',#1297,#944,#945);
#783=AXIS2_PLACEMENT_3D('',#1300,#948,#949);
#784=AXIS2_PLACEMENT_3D('',#1301,#950,#951);
#785=AXIS2_PLACEMENT_3D('',#1302,#952,#953);
#786=AXIS2_PLACEMENT_3D('',#1306,#955,#956);
#787=AXIS2_PLACEMENT_3D('',#1310,#958,#959);
#788=AXIS2_PLACEMENT_3D('',#1311,#960,#961);
#789=AXIS2_PLACEMENT_3D('',#1312,#962,#963);
#790=AXIS2_PLACEMENT_3D('',#1315,#965,#966);
#791=AXIS2_PLACEMENT_3D('',#1316,#967,#968);
#792=AXIS2_PLACEMENT_3D('',#1321,#970,#971);
#793=AXIS2_PLACEMENT_3D('',#1322,#972,#973);
#794=AXIS2_PLACEMENT_3D('',#1337,#975,#976);
#795=AXIS2_PLACEMENT_3D('',#1340,#978,#979);
#796=AXIS2_PLACEMENT_3D('',#1344,#981,#982);
#797=AXIS2_PLACEMENT_3D('',#1348,#984,#985);
#798=AXIS2_PLACEMENT_3D('',#1349,#986,#987);
#799=AXIS2_PLACEMENT_3D('',#1365,#989,#990);
#800=AXIS2_PLACEMENT_3D('',#1369,#992,#993);
#801=AXIS2_PLACEMENT_3D('',#1394,#994,#995);
#802=AXIS2_PLACEMENT_3D('',#1395,#996,#997);
#803=AXIS2_PLACEMENT_3D('',#1396,#998,#999);
#804=AXIS2_PLACEMENT_3D('',#1397,#1000,#1001);
#805=AXIS2_PLACEMENT_3D('',#1398,#1002,#1003);
#806=AXIS2_PLACEMENT_3D('',#1399,#1004,#1005);
#807=AXIS2_PLACEMENT_3D('',#1400,#1006,#1007);
#808=AXIS2_PLACEMENT_3D('',#1401,#1008,#1009);
#809=AXIS2_PLACEMENT_3D('',#1403,#1010,#1011);
#810=AXIS2_PLACEMENT_3D('',#1404,#1012,#1013);
#811=AXIS2_PLACEMENT_3D('',#1406,#1014,#1015);
#812=AXIS2_PLACEMENT_3D('',#1407,#1016,#1017);
#813=AXIS2_PLACEMENT_3D('',#1408,#1018,#1019);
#814=DIRECTION('',(0.,0.,1.));
#815=DIRECTION('',(1.,0.,0.));
#816=DIRECTION('',(-2.34270692061057E-16,-1.,0.));
#817=DIRECTION('',(1.,-2.34270692061057E-16,0.));
#818=DIRECTION('',(-2.34270692061057E-16,-1.,0.));
#819=DIRECTION('',(1.,-2.34270692061057E-16,0.));
#820=DIRECTION('',(-2.34270692061057E-16,-1.,0.));
#821=DIRECTION('',(1.,-2.34270692061057E-16,0.));
#822=DIRECTION('',(-2.34270692061057E-16,-1.,0.));
#823=DIRECTION('',(1.,-2.34270692061057E-16,0.));
#824=DIRECTION('',(-2.34270692061057E-16,-1.,0.));
#825=DIRECTION('',(1.,-2.34270692061057E-16,0.));
#826=DIRECTION('',(-2.34270692061057E-16,-1.,0.));
#827=DIRECTION('',(1.,-2.34270692061057E-16,0.));
#828=DIRECTION('',(2.34270692061057E-16,1.,0.));
#829=DIRECTION('',(-1.,2.34270692061057E-16,0.));
#830=DIRECTION('',(2.34270692061057E-16,1.,0.));
#831=DIRECTION('',(-1.,2.34270692061057E-16,0.));
#832=DIRECTION('',(-2.34270692061057E-16,-1.,0.));
#833=DIRECTION('',(1.,-2.34270692061057E-16,0.));
#834=DIRECTION('',(2.34270692061057E-16,1.,0.));
#835=DIRECTION('',(-1.,2.34270692061057E-16,0.));
#836=DIRECTION('',(-2.34270692061057E-16,-1.,0.));
#837=DIRECTION('',(1.,-2.34270692061057E-16,0.));
#838=DIRECTION('',(2.34270692061057E-16,1.,0.));
#839=DIRECTION('',(-1.,2.34270692061057E-16,0.));
#840=DIRECTION('',(2.34270692061057E-16,1.,0.));
#841=DIRECTION('',(-1.,2.34270692061057E-16,0.));
#842=DIRECTION('',(2.34270692061057E-16,1.,0.));
#843=DIRECTION('',(-1.,2.34270692061057E-16,0.));
#844=DIRECTION('',(2.34270692061057E-16,1.,0.));
#845=DIRECTION('',(-1.,2.34270692061057E-16,0.));
#846=DIRECTION('',(-2.34270692061057E-16,-1.,0.));
#847=DIRECTION('',(1.,-2.34270692061057E-16,0.));
#848=DIRECTION('',(2.34270692061057E-16,1.,0.));
#849=DIRECTION('',(-1.,2.34270692061057E-16,0.));
#850=DIRECTION('',(-2.34270692061057E-16,-1.,0.));
#851=DIRECTION('',(1.,-2.34270692061057E-16,0.));
#852=DIRECTION('',(2.34270692061057E-16,1.,0.));
#853=DIRECTION('',(-1.,2.34270692061057E-16,0.));
#854=DIRECTION('',(2.34270692061057E-16,1.,0.));
#855=DIRECTION('',(-1.,2.34270692061057E-16,0.));
#856=DIRECTION('',(-2.34270692061057E-16,-1.,0.));
#857=DIRECTION('',(1.,-2.34270692061057E-16,0.));
#858=DIRECTION('',(-2.34270692061057E-16,-1.,0.));
#859=DIRECTION('',(1.,-2.34270692061057E-16,0.));
#860=DIRECTION('',(2.34270692061057E-16,1.,0.));
#861=DIRECTION('',(-1.,2.34270692061057E-16,0.));
#862=DIRECTION('',(-2.34270692061057E-16,-1.,0.));
#863=DIRECTION('',(1.,-2.34270692061057E-16,0.));
#864=DIRECTION('',(1.,0.,0.));
#865=DIRECTION('',(0.,0.,-1.));
#866=DIRECTION('',(-2.34270692061057E-16,-1.,0.));
#867=DIRECTION('',(1.,-2.34270692061057E-16,0.));
#868=DIRECTION('',(-2.34270692061057E-16,-1.,0.));
#869=DIRECTION('',(1.,-2.34270692061057E-16,0.));
#870=DIRECTION('',(-2.34270692061057E-16,-1.,0.));
#871=DIRECTION('',(1.,-2.34270692061057E-16,0.));
#872=DIRECTION('',(-2.34270692061057E-16,-1.,0.));
#873=DIRECTION('',(1.,-2.34270692061057E-16,0.));
#874=DIRECTION('',(-2.34270692061057E-16,-1.,0.));
#875=DIRECTION('',(1.,-2.34270692061057E-16,0.));
#876=DIRECTION('',(2.34270692061057E-16,1.,0.));
#877=DIRECTION('',(-1.,2.34270692061057E-16,0.));
#878=DIRECTION('',(1.,0.,0.));
#879=DIRECTION('',(0.,0.,-1.));
#880=DIRECTION('',(0.,0.,1.));
#881=DIRECTION('',(1.,0.,0.));
#882=DIRECTION('',(-2.34270692061057E-16,-1.,0.));
#883=DIRECTION('',(1.,-2.34270692061057E-16,0.));
#884=DIRECTION('',(-2.34270692061057E-16,-1.,0.));
#885=DIRECTION('',(1.,-2.34270692061057E-16,0.));
#886=DIRECTION('',(-2.34270692061057E-16,-1.,0.));
#887=DIRECTION('',(1.,-2.34270692061057E-16,0.));
#888=DIRECTION('',(-2.34270692061057E-16,-1.,0.));
#889=DIRECTION('',(1.,-2.34270692061057E-16,0.));
#890=DIRECTION('',(-2.34270692061057E-16,-1.,0.));
#891=DIRECTION('',(1.,-2.34270692061057E-16,0.));
#892=DIRECTION('',(2.34270692061057E-16,1.,0.));
#893=DIRECTION('',(-1.,2.34270692061057E-16,0.));
#894=DIRECTION('',(2.34270692061057E-16,1.,0.));
#895=DIRECTION('',(-1.,2.34270692061057E-16,0.));
#896=DIRECTION('',(1.,0.,0.));
#897=DIRECTION('',(0.,0.,-1.));
#898=DIRECTION('',(2.34270692061057E-16,1.,0.));
#899=DIRECTION('',(-1.,2.34270692061057E-16,0.));
#900=DIRECTION('',(1.,0.,0.));
#901=DIRECTION('',(0.,0.,-1.));
#902=DIRECTION('',(2.34270692061057E-16,1.,0.));
#903=DIRECTION('',(-1.,2.34270692061057E-16,0.));
#904=DIRECTION('',(1.,0.,0.));
#905=DIRECTION('',(0.,0.,-1.));
#906=DIRECTION('',(2.34270692061057E-16,1.,0.));
#907=DIRECTION('',(-1.,2.34270692061057E-16,0.));
#908=DIRECTION('',(2.34270692061057E-16,1.,0.));
#909=DIRECTION('',(-1.,2.34270692061057E-16,0.));
#910=DIRECTION('',(1.,0.,0.));
#911=DIRECTION('',(0.,0.,-1.));
#912=DIRECTION('',(2.34270692061057E-16,1.,0.));
#913=DIRECTION('',(-1.,2.34270692061057E-16,0.));
#914=DIRECTION('',(1.,0.,0.));
#915=DIRECTION('',(0.,0.,-1.));
#916=DIRECTION('',(2.34270692061057E-16,1.,0.));
#917=DIRECTION('',(-1.,2.34270692061057E-16,0.));
#918=DIRECTION('',(-2.34270692061057E-16,-1.,0.));
#919=DIRECTION('',(1.,-2.34270692061057E-16,0.));
#920=DIRECTION('',(-2.34270692061057E-16,-1.,0.));
#921=DIRECTION('',(1.,-2.34270692061057E-16,0.));
#922=DIRECTION('',(-2.34270692061057E-16,-1.,0.));
#923=DIRECTION('',(1.,-2.34270692061057E-16,0.));
#924=DIRECTION('',(-2.34270692061057E-16,-1.,0.));
#925=DIRECTION('',(-2.34270692061057E-16,-1.,0.));
#926=DIRECTION('',(2.34270692061057E-16,1.,0.));
#927=DIRECTION('',(-1.,2.34270692061057E-16,0.));
#928=DIRECTION('',(0.,0.,-1.));
#929=DIRECTION('',(0.,0.,-1.));
#930=DIRECTION('',(-2.34270692061057E-16,-1.,0.));
#931=DIRECTION('',(1.,-2.34270692061057E-16,0.));
#932=DIRECTION('',(-2.34270692061057E-16,-1.,0.));
#933=DIRECTION('',(-2.34270692061057E-16,-1.,0.));
#934=DIRECTION('',(1.,-2.34270692061057E-16,0.));
#935=DIRECTION('',(-2.34270692061057E-16,-1.,0.));
#936=DIRECTION('',(2.34270692061057E-16,1.,0.));
#937=DIRECTION('',(-1.,2.34270692061057E-16,0.));
#938=DIRECTION('',(0.,0.,-1.));
#939=DIRECTION('',(-2.34270692061057E-16,-1.,0.));
#940=DIRECTION('',(1.,-2.34270692061057E-16,0.));
#941=DIRECTION('',(-2.34270692061057E-16,-1.,0.));
#942=DIRECTION('',(1.,-2.34270692061057E-16,0.));
#943=DIRECTION('',(0.,0.,1.));
#944=DIRECTION('',(-2.34270692061057E-16,-1.,0.));
#945=DIRECTION('',(1.,-2.34270692061057E-16,0.));
#946=DIRECTION('',(-2.34270692061057E-16,-1.,0.));
#947=DIRECTION('',(-2.34270692061057E-16,-1.,0.));
#948=DIRECTION('',(1.,0.,0.));
#949=DIRECTION('',(0.,1.,0.));
#950=DIRECTION('',(0.,0.,1.));
#951=DIRECTION('',(1.,0.,0.));
#952=DIRECTION('',(-2.34270692061057E-16,-1.,0.));
#953=DIRECTION('',(1.,-2.34270692061057E-16,0.));
#954=DIRECTION('',(-2.34270692061057E-16,-1.,0.));
#955=DIRECTION('',(-2.34270692061057E-16,-1.,0.));
#956=DIRECTION('',(1.,-2.34270692061057E-16,0.));
#957=DIRECTION('',(-2.34270692061057E-16,-1.,0.));
#958=DIRECTION('',(-2.34270692061057E-16,-1.,0.));
#959=DIRECTION('',(1.,-2.34270692061057E-16,0.));
#960=DIRECTION('',(-2.34270692061057E-16,-1.,0.));
#961=DIRECTION('',(1.,-2.34270692061057E-16,0.));
#962=DIRECTION('',(-2.34270692061057E-16,-1.,0.));
#963=DIRECTION('',(1.,-2.34270692061057E-16,0.));
#964=DIRECTION('',(0.,0.,1.));
#965=DIRECTION('',(2.34270692061057E-16,1.,0.));
#966=DIRECTION('',(-1.,2.34270692061057E-16,0.));
#967=DIRECTION('',(2.34270692061057E-16,1.,0.));
#968=DIRECTION('',(-1.,2.34270692061057E-16,0.));
#969=DIRECTION('',(0.,0.,-1.));
#970=DIRECTION('',(-2.34270692061057E-16,-1.,0.));
#971=DIRECTION('',(1.,-2.34270692061057E-16,0.));
#972=DIRECTION('',(-2.34270692061057E-16,-1.,0.));
#973=DIRECTION('',(1.,-2.34270692061057E-16,0.));
#974=DIRECTION('',(-2.34270692061057E-16,-1.,0.));
#975=DIRECTION('',(2.34270692061057E-16,1.,0.));
#976=DIRECTION('',(-1.,2.34270692061057E-16,0.));
#977=DIRECTION('',(-2.34270692061057E-16,-1.,0.));
#978=DIRECTION('',(2.34270692061057E-16,1.,0.));
#979=DIRECTION('',(-1.,2.34270692061057E-16,0.));
#980=DIRECTION('',(0.,0.,-1.));
#981=DIRECTION('',(2.34270692061057E-16,1.,0.));
#982=DIRECTION('',(-1.,2.34270692061057E-16,0.));
#983=DIRECTION('',(0.,0.,-1.));
#984=DIRECTION('',(2.34270692061057E-16,1.,0.));
#985=DIRECTION('',(-1.,2.34270692061057E-16,0.));
#986=DIRECTION('',(-2.34270692061057E-16,-1.,0.));
#987=DIRECTION('',(1.,-2.34270692061057E-16,0.));
#988=DIRECTION('',(-2.34270692061057E-16,-1.,0.));
#989=DIRECTION('',(-2.34270692061057E-16,-1.,0.));
#990=DIRECTION('',(1.,-2.34270692061057E-16,0.));
#991=DIRECTION('',(-2.34270692061057E-16,-1.,0.));
#992=DIRECTION('',(2.34270692061057E-16,1.,0.));
#993=DIRECTION('',(-1.,2.34270692061057E-16,0.));
#994=DIRECTION('',(2.34270692061057E-16,1.,0.));
#995=DIRECTION('',(-1.,2.34270692061057E-16,0.));
#996=DIRECTION('',(1.,0.,0.));
#997=DIRECTION('',(0.,0.,-1.));
#998=DIRECTION('',(1.,0.,0.));
#999=DIRECTION('',(0.,0.,-1.));
#1000=DIRECTION('',(2.34270692061057E-16,1.,0.));
#1001=DIRECTION('',(-1.,2.34270692061057E-16,0.));
#1002=DIRECTION('',(1.,0.,0.));
#1003=DIRECTION('',(0.,0.,-1.));
#1004=DIRECTION('',(1.,0.,0.));
#1005=DIRECTION('',(0.,0.,-1.));
#1006=DIRECTION('',(-2.34270692061057E-16,-1.,0.));
#1007=DIRECTION('',(1.,-2.34270692061057E-16,0.));
#1008=DIRECTION('',(-2.34270692061057E-16,-1.,0.));
#1009=DIRECTION('',(1.,-2.34270692061057E-16,0.));
#1010=DIRECTION('',(2.34270692061057E-16,1.,0.));
#1011=DIRECTION('',(-1.,2.34270692061057E-16,0.));
#1012=DIRECTION('',(-2.34270692061057E-16,-1.,0.));
#1013=DIRECTION('',(1.,-2.34270692061057E-16,0.));
#1014=DIRECTION('',(1.,0.,0.));
#1015=DIRECTION('',(0.,0.,-1.));
#1016=DIRECTION('',(-2.34270692061057E-16,-1.,0.));
#1017=DIRECTION('',(1.,-2.34270692061057E-16,0.));
#1018=DIRECTION('',(1.,0.,0.));
#1019=DIRECTION('',(0.,1.,0.));
#1020=CARTESIAN_POINT('',(0.,0.,0.));
#1021=CARTESIAN_POINT('',(-1.25920496982818E-18,-0.005375,0.));
#1022=CARTESIAN_POINT('',(-7.49666214595381E-19,-0.0032,0.));
#1023=CARTESIAN_POINT('',(0.0058,-0.0032,0.));
#1024=CARTESIAN_POINT('',(1.92592994438723E-34,1.7347234759768E-18,0.));
#1025=CARTESIAN_POINT('',(0.0058,3.75953462022677E-19,0.));
#1026=CARTESIAN_POINT('',(0.0029,0.,0.));
#1027=CARTESIAN_POINT('',(-0.003,1.7347234759768E-18,-4.59242549680257E-19));
#1028=CARTESIAN_POINT('',(-0.0015,1.38331743788522E-18,-4.59242549680257E-19));
#1029=CARTESIAN_POINT('',(0.003,0.,6.4293956955236E-19));
#1030=CARTESIAN_POINT('',(0.0045,-3.51406038091585E-19,6.4293956955236E-19));
#1031=CARTESIAN_POINT('',(0.0029,-0.01075,0.));
#1032=CARTESIAN_POINT('',(-0.003,-0.01075,-3.79640507735679E-19));
#1033=CARTESIAN_POINT('',(-0.0058,-0.01075,-3.79640507735679E-19));
#1034=CARTESIAN_POINT('',(-2.51840993965635E-18,-0.01075,0.));
#1035=CARTESIAN_POINT('',(0.0063,-0.01075,0.));
#1036=CARTESIAN_POINT('',(0.003,-0.01075,7.22541611496938E-19));
#1037=CARTESIAN_POINT('',(0.0002,-0.01075,7.22541611496938E-19));
#1038=CARTESIAN_POINT('',(-1.25920496982818E-18,-0.005375,0.));
#1039=CARTESIAN_POINT('',(-0.0062563582903049,-0.0144263279763061,-0.000822101679079705));
#1040=CARTESIAN_POINT('',(-0.00618966622656184,-0.0152501948688807,-0.00116388927899245));
#1041=CARTESIAN_POINT('',(-0.00625627943697537,-0.0160728925481712,-0.000822341204950481));
#1042=CARTESIAN_POINT('',(-0.00632185808988583,-0.0164135124232904,-1.01380209974614E-6));
#1043=CARTESIAN_POINT('',(-0.00625628803055259,-0.0160730567210947,0.000822780695903939));
#1044=CARTESIAN_POINT('',(-0.00618972334904564,-0.0152503089910087,0.00116338779740376));
#1045=CARTESIAN_POINT('',(-0.00625612128856943,-0.0144281762965752,0.000823667630681753));
#1046=CARTESIAN_POINT('',(-0.00632188002083512,-0.0140863744384576,8.71854982754868E-7));
#1047=CARTESIAN_POINT('',(-0.0062563582903049,-0.0144263279763061,-0.000822101679079705));
#1048=CARTESIAN_POINT('',(-0.00618966622656184,-0.0152501948688807,-0.00116388927899245));
#1049=CARTESIAN_POINT('',(-0.00625627943697537,-0.0160728925481712,-0.000822341204950481));
#1050=CARTESIAN_POINT('',(-0.0062118837722546,-0.01525,-0.00105));
#1051=CARTESIAN_POINT('',(-4.62684616820586E-18,-0.01975,0.));
#1052=CARTESIAN_POINT('',(-0.0063,-0.01975,0.));
#1053=CARTESIAN_POINT('',(0.00625614324412702,-0.0144279175430334,-0.00082369224010249));
#1054=CARTESIAN_POINT('',(0.00632190865391773,-0.0140861007407984,1.94955841340395E-7));
#1055=CARTESIAN_POINT('',(0.00625622214020204,-0.0144276794937732,0.000822912416737128));
#1056=CARTESIAN_POINT('',(0.00618971674449498,-0.0152489832406014,0.00116350270252771));
#1057=CARTESIAN_POINT('',(0.00625621369161743,-0.0160727626631374,0.000823075730313841));
#1058=CARTESIAN_POINT('',(0.00632185148890804,-0.0164133975507332,3.07971562374453E-7));
#1059=CARTESIAN_POINT('',(0.00625638027243685,-0.0160736466520485,-0.000821843534207974));
#1060=CARTESIAN_POINT('',(0.0061896948653636,-0.0152508758183357,-0.00116361554691365));
#1061=CARTESIAN_POINT('',(0.00625614324412702,-0.0144279175430334,-0.00082369224010249));
#1062=CARTESIAN_POINT('',(0.00632190865391773,-0.0140861007407984,1.94955841340395E-7));
#1063=CARTESIAN_POINT('',(0.00625622214020204,-0.0144276794937732,0.000822912416737128));
#1064=CARTESIAN_POINT('',(0.0063,-0.0142,-1.30582636753532E-20));
#1065=CARTESIAN_POINT('',(0.0078,-0.02075,0.));
#1066=CARTESIAN_POINT('',(-4.86111686026692E-18,-0.02075,0.));
#1067=CARTESIAN_POINT('',(-0.00730000000000001,-0.02075,0.));
#1068=CARTESIAN_POINT('',(-4.86111686026692E-18,-0.02075,0.));
#1069=CARTESIAN_POINT('',(-0.00830000000000001,-0.02075,0.));
#1070=CARTESIAN_POINT('',(-1.25920496982818E-18,-0.005375,0.));
#1071=CARTESIAN_POINT('',(-4.62684616820587E-18,-0.01975,0.));
#1072=CARTESIAN_POINT('',(-0.0093,-0.01975,0.));
#1073=CARTESIAN_POINT('',(-0.00927043784625266,-0.0160737075755258,-0.000822125335147394));
#1074=CARTESIAN_POINT('',(-0.00922559867168246,-0.0152497953340385,-0.00116387398632186));
#1075=CARTESIAN_POINT('',(-0.0092703816595587,-0.01442711108832,-0.000822378719565176));
#1076=CARTESIAN_POINT('',(-0.00931480460976019,-0.0140865287822772,-9.25000704934045E-7));
#1077=CARTESIAN_POINT('',(-0.00927039979351638,-0.0144267747381169,0.000822608870290146));
#1078=CARTESIAN_POINT('',(-0.00922563527898628,-0.015249778329862,0.00116344028224274));
#1079=CARTESIAN_POINT('',(-0.00927027333246516,-0.0160717718189768,0.000823629566121607));
#1080=CARTESIAN_POINT('',(-0.00931482212852369,-0.0164136294711734,1.08771565802859E-6));
#1081=CARTESIAN_POINT('',(-0.00927043784625266,-0.0160737075755258,-0.000822125335147394));
#1082=CARTESIAN_POINT('',(-0.00922559867168246,-0.0152497953340385,-0.00116387398632186));
#1083=CARTESIAN_POINT('',(-0.0092703816595587,-0.01442711108832,-0.000822378719565176));
#1084=CARTESIAN_POINT('',(-0.00924053569875687,-0.01525,-0.00105));
#1085=CARTESIAN_POINT('',(-2.51840993965635E-18,-0.01075,0.));
#1086=CARTESIAN_POINT('',(0.0093,-0.01075,0.));
#1087=CARTESIAN_POINT('',(0.00927028817908677,-0.0144278786026648,0.000823711748510494));
#1088=CARTESIAN_POINT('',(0.00931484186259452,-0.0140861239569365,-2.04678521880338E-7));
#1089=CARTESIAN_POINT('',(0.00927034437053513,-0.014427625569589,-0.000822893034422974));
#1090=CARTESIAN_POINT('',(0.00922563591778386,-0.0152490743984092,-0.00116346921014608));
#1091=CARTESIAN_POINT('',(0.00927032625956337,-0.016072605157806,-0.000823229168440652));
#1092=CARTESIAN_POINT('',(0.00931480524938418,-0.0164134423088354,-2.21464699740178E-7));
#1093=CARTESIAN_POINT('',(0.00927045269387395,-0.0160736251726228,0.000821775947615377));
#1094=CARTESIAN_POINT('',(0.00922561840727255,-0.0152510886472689,0.00116362739500741));
#1095=CARTESIAN_POINT('',(0.00927028817908677,-0.0144278786026648,0.000823711748510494));
#1096=CARTESIAN_POINT('',(0.00931484186259452,-0.0140861239569365,-2.04678521880338E-7));
#1097=CARTESIAN_POINT('',(0.00927034437053513,-0.014427625569589,-0.000822893034422974));
#1098=CARTESIAN_POINT('',(0.0093,-0.0142,-4.51890806409404E-19));
#1099=CARTESIAN_POINT('',(0.00549800485517587,-0.0032,-0.00227734817700696));
#1100=CARTESIAN_POINT('',(0.00595099757241207,-0.0032,-4.44522890719057E-18));
#1101=CARTESIAN_POINT('',(0.00549800485517586,-0.0032,0.00227734817700697));
#1102=CARTESIAN_POINT('',(0.00420799073827726,-0.0032,0.00420799073827725));
#1103=CARTESIAN_POINT('',(0.00227734817700697,-0.0032,0.00549800485517586));
#1104=CARTESIAN_POINT('',(1.37219337455197E-18,-0.0032,0.00595099757241207));
#1105=CARTESIAN_POINT('',(-0.00227734817700697,-0.0032,0.00549800485517586));
#1106=CARTESIAN_POINT('',(-0.00420799073827725,-0.0032,0.00420799073827726));
#1107=CARTESIAN_POINT('',(-0.00549800485517586,-0.0032,0.00227734817700697));
#1108=CARTESIAN_POINT('',(-0.00595099757241207,-0.0032,8.79865400127755E-19));
#1109=CARTESIAN_POINT('',(-0.00549800485517587,-0.0032,-0.00227734817700697));
#1110=CARTESIAN_POINT('',(-0.00420799073827726,-0.0032,-0.00420799073827726));
#1111=CARTESIAN_POINT('',(-0.00227734817700697,-0.0032,-0.00549800485517586));
#1112=CARTESIAN_POINT('',(-9.45288769135799E-19,-0.0032,-0.00595099757241207));
#1113=CARTESIAN_POINT('',(0.00227734817700697,-0.0032,-0.00549800485517587));
#1114=CARTESIAN_POINT('',(0.00420799073827726,-0.0032,-0.00420799073827725));
#1115=CARTESIAN_POINT('',(0.00549800485517587,-0.0032,-0.00227734817700696));
#1116=CARTESIAN_POINT('',(0.00595099757241207,-0.0032,-4.44522890719057E-18));
#1117=CARTESIAN_POINT('',(0.00549800485517586,-0.0032,0.00227734817700697));
#1118=CARTESIAN_POINT('',(0.00549800485517587,-0.00520000000000001,-0.00227734817700696));
#1119=CARTESIAN_POINT('',(0.00595099757241207,-0.00520000000000001,-3.03576608295941E-18));
#1120=CARTESIAN_POINT('',(0.00549800485517586,-0.0052,0.00227734817700697));
#1121=CARTESIAN_POINT('',(0.00420799073827725,-0.00520000000000001,0.00420799073827726));
#1122=CARTESIAN_POINT('',(0.00227734817700697,-0.00520000000000001,0.00549800485517586));
#1123=CARTESIAN_POINT('',(-3.85569397590158E-18,-0.0052,0.00595099757241207));
#1124=CARTESIAN_POINT('',(-0.00227734817700697,-0.00520000000000001,0.00549800485517586));
#1125=CARTESIAN_POINT('',(-0.00420799073827727,-0.0052,0.00420799073827726));
#1126=CARTESIAN_POINT('',(-0.00549800485517586,-0.0052,0.00227734817700697));
#1127=CARTESIAN_POINT('',(-0.00595099757241208,-0.0052,3.57040930879939E-19));
#1128=CARTESIAN_POINT('',(-0.00549800485517586,-0.0052,-0.00227734817700697));
#1129=CARTESIAN_POINT('',(-0.00420799073827727,-0.0052,-0.00420799073827726));
#1130=CARTESIAN_POINT('',(-0.00227734817700697,-0.00520000000000001,-0.00549800485517586));
#1131=CARTESIAN_POINT('',(-1.00119294365458E-17,-0.00520000000000001,-0.00595099757241207));
#1132=CARTESIAN_POINT('',(0.00227734817700696,-0.00520000000000001,-0.00549800485517587));
#1133=CARTESIAN_POINT('',(0.00420799073827726,-0.00520000000000001,-0.00420799073827726));
#1134=CARTESIAN_POINT('',(0.00549800485517587,-0.00520000000000001,-0.00227734817700696));
#1135=CARTESIAN_POINT('',(0.00595099757241207,-0.00520000000000001,-3.03576608295941E-18));
#1136=CARTESIAN_POINT('',(0.00549800485517586,-0.0052,0.00227734817700697));
#1137=CARTESIAN_POINT('',(0.00881576640571303,-0.00875000000000002,-0.00365161000795943));
#1138=CARTESIAN_POINT('',(0.00954211679714348,-0.00875000000000001,-6.17995238316738E-18));
#1139=CARTESIAN_POINT('',(0.00881576640571302,-0.00875000000000001,0.00365161000795945));
#1140=CARTESIAN_POINT('',(0.00674729549413422,-0.00875000000000002,0.00674729549413423));
#1141=CARTESIAN_POINT('',(0.00365161000795944,-0.00875000000000001,0.00881576640571302));
#1142=CARTESIAN_POINT('',(-4.68917439599981E-18,-0.00875000000000002,0.0095421167971435));
#1143=CARTESIAN_POINT('',(-0.00365161000795945,-0.00875,0.00881576640571302));
#1144=CARTESIAN_POINT('',(-0.00674729549413423,-0.00875000000000001,0.00674729549413422));
#1145=CARTESIAN_POINT('',(-0.00881576640571305,-0.00875,0.00365161000795945));
#1146=CARTESIAN_POINT('',(-0.0095421167971435,-0.00875000000000001,1.44993511724215E-18));
#1147=CARTESIAN_POINT('',(-0.00881576640571303,-0.00875000000000001,-0.00365161000795945));
#1148=CARTESIAN_POINT('',(-0.00674729549413422,-0.00875000000000001,-0.00674729549413423));
#1149=CARTESIAN_POINT('',(-0.00365161000795946,-0.00875000000000001,-0.00881576640571302));
#1150=CARTESIAN_POINT('',(-5.0618688927917E-18,-0.00875000000000002,-0.00954211679714349));
#1151=CARTESIAN_POINT('',(0.00365161000795944,-0.00875000000000001,-0.00881576640571304));
#1152=CARTESIAN_POINT('',(0.00674729549413422,-0.00875000000000002,-0.00674729549413422));
#1153=CARTESIAN_POINT('',(0.00881576640571303,-0.00875000000000002,-0.00365161000795943));
#1154=CARTESIAN_POINT('',(0.00954211679714348,-0.00875000000000001,-6.17995238316738E-18));
#1155=CARTESIAN_POINT('',(0.00881576640571302,-0.00875000000000001,0.00365161000795945));
#1156=CARTESIAN_POINT('',(0.00881576640571303,-0.01075,-0.00365161000795943));
#1157=CARTESIAN_POINT('',(0.00954211679714348,-0.01075,-6.93889390390723E-18));
#1158=CARTESIAN_POINT('',(0.00881576640571302,-0.01075,0.00365161000795945));
#1159=CARTESIAN_POINT('',(0.00674729549413422,-0.01075,0.00674729549413422));
#1160=CARTESIAN_POINT('',(0.00365161000795944,-0.01075,0.00881576640571303));
#1161=CARTESIAN_POINT('',(-8.470329472543E-19,-0.01075,0.00954211679714349));
#1162=CARTESIAN_POINT('',(-0.00365161000795945,-0.01075,0.00881576640571303));
#1163=CARTESIAN_POINT('',(-0.00674729549413422,-0.01075,0.00674729549413422));
#1164=CARTESIAN_POINT('',(-0.00881576640571303,-0.01075,0.00365161000795945));
#1165=CARTESIAN_POINT('',(-0.00954211679714349,-0.01075,1.44990864746255E-18));
#1166=CARTESIAN_POINT('',(-0.00881576640571303,-0.01075,-0.00365161000795945));
#1167=CARTESIAN_POINT('',(-0.00674729549413423,-0.01075,-0.00674729549413422));
#1168=CARTESIAN_POINT('',(-0.00365161000795945,-0.01075,-0.00881576640571303));
#1169=CARTESIAN_POINT('',(-6.105413483809E-18,-0.01075,-0.00954211679714349));
#1170=CARTESIAN_POINT('',(0.00365161000795945,-0.01075,-0.00881576640571303));
#1171=CARTESIAN_POINT('',(0.00674729549413422,-0.01075,-0.00674729549413422));
#1172=CARTESIAN_POINT('',(0.00881576640571303,-0.01075,-0.00365161000795943));
#1173=CARTESIAN_POINT('',(0.00954211679714348,-0.01075,-6.93889390390723E-18));
#1174=CARTESIAN_POINT('',(0.00881576640571302,-0.01075,0.00365161000795945));
#1175=CARTESIAN_POINT('',(-4.62684616820587E-18,-0.01975,0.));
#1176=CARTESIAN_POINT('',(-4.62684616820587E-18,-0.01975,0.));
#1177=CARTESIAN_POINT('',(-0.003,0.01425,-4.59242549680257E-19));
#1178=CARTESIAN_POINT('',(-0.003,-0.00475,-4.59242549680257E-19));
#1179=CARTESIAN_POINT('',(-0.0015,-0.00475,-4.59242549680257E-19));
#1180=CARTESIAN_POINT('',(-0.003,-0.01275,-3.79640507735679E-19));
#1181=CARTESIAN_POINT('',(-0.003,-0.00475,-3.79640507735679E-19));
#1182=CARTESIAN_POINT('',(-0.0002,-0.00475,-3.79640507735679E-19));
#1183=CARTESIAN_POINT('',(-0.0125,-0.01525,6.42939569552361E-20));
#1184=CARTESIAN_POINT('',(-1.11278578729002E-18,-0.00475,0.));
#1185=CARTESIAN_POINT('',(-1.11278578729002E-18,-0.00475,0.));
#1186=CARTESIAN_POINT('',(0.003,-0.00475,7.22541611496938E-19));
#1187=CARTESIAN_POINT('',(0.0058,-0.00475,7.22541611496938E-19));
#1188=CARTESIAN_POINT('',(0.003,-0.00475,6.4293956955236E-19));
#1189=CARTESIAN_POINT('',(0.0045,-0.00475,6.4293956955236E-19));
#1190=CARTESIAN_POINT('',(0.003,0.01425,6.4293956955236E-19));
#1191=CARTESIAN_POINT('',(0.003,-0.01275,7.22541611496938E-19));
#1192=CARTESIAN_POINT('',(-0.0125,-0.01525,6.42939569552361E-20));
#1193=CARTESIAN_POINT('',(0.,0.,0.));
#1194=CARTESIAN_POINT('',(-1.11278578729002E-18,-0.00475,0.));
#1195=CARTESIAN_POINT('',(0.003,-0.00475,7.22541611496938E-19));
#1196=CARTESIAN_POINT('',(0.0058,-0.00475,7.22541611496938E-19));
#1197=CARTESIAN_POINT('',(0.003,-0.00475,6.4293956955236E-19));
#1198=CARTESIAN_POINT('',(0.0045,-0.00475,6.4293956955236E-19));
#1199=CARTESIAN_POINT('',(0.003,0.01425,6.4293956955236E-19));
#1200=CARTESIAN_POINT('',(0.003,0.,6.4293956955236E-19));
#1201=CARTESIAN_POINT('',(0.0045,-3.51406038091585E-19,6.4293956955236E-19));
#1202=CARTESIAN_POINT('',(0.003,-0.01275,7.22541611496938E-19));
#1203=CARTESIAN_POINT('',(0.003,-0.01075,7.22541611496938E-19));
#1204=CARTESIAN_POINT('',(0.0002,-0.01075,7.22541611496938E-19));
#1205=CARTESIAN_POINT('',(-0.0125,-0.01525,6.42939569552361E-20));
#1206=CARTESIAN_POINT('',(0.00927028817908677,-0.0144278786026648,0.000823711748510494));
#1207=CARTESIAN_POINT('',(0.00931484186259452,-0.0140861239569365,-2.04678521880338E-7));
#1208=CARTESIAN_POINT('',(0.00927034437053513,-0.014427625569589,-0.000822893034422974));
#1209=CARTESIAN_POINT('',(0.00922563591778386,-0.0152490743984092,-0.00116346921014608));
#1210=CARTESIAN_POINT('',(0.00927032625956337,-0.016072605157806,-0.000823229168440652));
#1211=CARTESIAN_POINT('',(0.00931480524938418,-0.0164134423088354,-2.21464699740178E-7));
#1212=CARTESIAN_POINT('',(0.00927045269387395,-0.0160736251726228,0.000821775947615377));
#1213=CARTESIAN_POINT('',(0.00922561840727255,-0.0152510886472689,0.00116362739500741));
#1214=CARTESIAN_POINT('',(0.00927028817908677,-0.0144278786026648,0.000823711748510494));
#1215=CARTESIAN_POINT('',(0.00931484186259452,-0.0140861239569365,-2.04678521880338E-7));
#1216=CARTESIAN_POINT('',(0.00927034437053513,-0.014427625569589,-0.000822893034422974));
#1217=CARTESIAN_POINT('',(0.0093,-0.0142,-4.51890806409404E-19));
#1218=CARTESIAN_POINT('',(0.00625614324412702,-0.0144279175430334,-0.00082369224010249));
#1219=CARTESIAN_POINT('',(0.00632190865391773,-0.0140861007407984,1.94955841340395E-7));
#1220=CARTESIAN_POINT('',(0.00625622214020204,-0.0144276794937732,0.000822912416737128));
#1221=CARTESIAN_POINT('',(0.00618971674449498,-0.0152489832406014,0.00116350270252771));
#1222=CARTESIAN_POINT('',(0.00625621369161743,-0.0160727626631374,0.000823075730313841));
#1223=CARTESIAN_POINT('',(0.00632185148890804,-0.0164133975507332,3.07971562374453E-7));
#1224=CARTESIAN_POINT('',(0.00625638027243685,-0.0160736466520485,-0.000821843534207974));
#1225=CARTESIAN_POINT('',(0.0061896948653636,-0.0152508758183357,-0.00116361554691365));
#1226=CARTESIAN_POINT('',(0.00625614324412702,-0.0144279175430334,-0.00082369224010249));
#1227=CARTESIAN_POINT('',(0.00632190865391773,-0.0140861007407984,1.94955841340395E-7));
#1228=CARTESIAN_POINT('',(0.00625622214020204,-0.0144276794937732,0.000822912416737128));
#1229=CARTESIAN_POINT('',(0.0063,-0.0142,-1.30582636753532E-20));
#1230=CARTESIAN_POINT('',(-4.62684616820587E-18,-0.01975,0.));
#1231=CARTESIAN_POINT('',(-4.62684616820587E-18,-0.01975,-0.0073));
#1232=CARTESIAN_POINT('',(-4.62684616820587E-18,-0.02075,-0.0073));
#1233=CARTESIAN_POINT('',(-3.36764119837768E-18,-0.01975,-0.0063));
#1234=CARTESIAN_POINT('',(-4.86111686026692E-18,-0.02075,0.));
#1235=CARTESIAN_POINT('',(0.,-0.02075,0.0073));
#1236=CARTESIAN_POINT('',(-4.62684616820587E-18,-0.01975,0.0073));
#1237=CARTESIAN_POINT('',(-4.62684616820587E-18,-0.01975,0.0063));
#1238=CARTESIAN_POINT('',(-4.62684616820586E-18,-0.01975,0.));
#1239=CARTESIAN_POINT('',(-4.62684616820587E-18,-0.01975,0.));
#1240=CARTESIAN_POINT('',(-4.62684616820587E-18,-0.01975,-0.0083));
#1241=CARTESIAN_POINT('',(-3.36764119837768E-18,-0.01975,-0.0093));
#1242=CARTESIAN_POINT('',(0.,-0.02075,-0.0083));
#1243=CARTESIAN_POINT('',(-4.62684616820587E-18,-0.01975,0.));
#1244=CARTESIAN_POINT('',(-4.62684616820587E-18,-0.01975,0.0093));
#1245=CARTESIAN_POINT('',(-4.62684616820587E-18,-0.01975,0.0083));
#1246=CARTESIAN_POINT('',(-4.62684616820587E-18,-0.02075,0.0083));
#1247=CARTESIAN_POINT('',(-4.86111686026692E-18,-0.02075,0.));
#1248=CARTESIAN_POINT('',(-1.81510892985358E-18,-0.0032,-0.0058));
#1249=CARTESIAN_POINT('',(0.0116,-0.0032,-0.0058));
#1250=CARTESIAN_POINT('',(0.0116,-0.0032,0.0058));
#1251=CARTESIAN_POINT('',(1.02607164416828E-18,-0.0032,0.0058));
#1252=CARTESIAN_POINT('',(-2.28365031397569E-18,-0.0052,-0.0058));
#1253=CARTESIAN_POINT('',(0.0116,-0.0052,-0.0058));
#1254=CARTESIAN_POINT('',(0.0116,-0.0052,0.0058));
#1255=CARTESIAN_POINT('',(5.57530260046168E-19,-0.0052,0.0058));
#1256=CARTESIAN_POINT('',(-3.7582508403448E-18,-0.00875,-0.0093));
#1257=CARTESIAN_POINT('',(0.0186,-0.00875,-0.0093));
#1258=CARTESIAN_POINT('',(0.0186,-0.00875,0.0093));
#1259=CARTESIAN_POINT('',(7.97435252483351E-19,-0.00875,0.0093));
#1260=CARTESIAN_POINT('',(-4.22679222446692E-18,-0.01075,-0.0093));
#1261=CARTESIAN_POINT('',(0.0186,-0.01075,-0.0093));
#1262=CARTESIAN_POINT('',(0.0186,-0.01075,0.0093));
#1263=CARTESIAN_POINT('',(3.28893868361239E-19,-0.01075,0.0093));
#1264=CARTESIAN_POINT('',(-7.49666214595381E-19,-0.0032,0.));
#1265=CARTESIAN_POINT('',(5.09538755232798E-19,-0.0032,-0.0058));
#1266=CARTESIAN_POINT('',(-3.94518642842649E-19,-0.0032,0.0058));
#1267=CARTESIAN_POINT('',(-3.94518642842649E-19,-0.0032,0.0058));
#1268=CARTESIAN_POINT('',(-8.63060026964761E-19,-0.0052,0.0058));
#1269=CARTESIAN_POINT('',(-1.48040779393072E-18,-0.00875,0.0093));
#1270=CARTESIAN_POINT('',(-1.94894917805284E-18,-0.01075,0.0093));
#1271=CARTESIAN_POINT('',(-1.25920496982818E-18,-0.01075,0.0093));
#1272=CARTESIAN_POINT('',(-2.51840993965635E-18,-0.01075,0.));
#1273=CARTESIAN_POINT('',(-4.22679222446691E-18,-0.01075,-0.0093));
#1274=CARTESIAN_POINT('',(-1.81510892985358E-18,-0.0032,-0.0058));
#1275=CARTESIAN_POINT('',(-2.28365031397569E-18,-0.0052,-0.0058));
#1276=CARTESIAN_POINT('',(-3.7582508403448E-18,-0.00875,-0.0093));
#1277=CARTESIAN_POINT('',(-4.22679222446691E-18,-0.01075,-0.0093));
#1278=CARTESIAN_POINT('',(-1.25920496982818E-18,-0.005375,0.));
#1279=CARTESIAN_POINT('',(0.,-0.005375,0.0093));
#1280=CARTESIAN_POINT('',(0.,-0.005375,-0.0093));
#1281=CARTESIAN_POINT('',(0.0078,-0.02075,0.));
#1282=CARTESIAN_POINT('',(0.,-0.02075,0.));
#1283=CARTESIAN_POINT('',(0.,-0.02075,0.));
#1284=CARTESIAN_POINT('',(-1.25920496982818E-18,-0.005375,0.));
#1285=CARTESIAN_POINT('',(0.,-0.005375,0.0063));
#1286=CARTESIAN_POINT('',(-1.25920496982818E-18,-0.01075,0.0063));
#1287=CARTESIAN_POINT('',(-2.51840993965635E-18,-0.01075,0.));
#1288=CARTESIAN_POINT('',(0.,-0.01075,-0.0063));
#1289=CARTESIAN_POINT('',(0.,-0.005375,-0.0063));
#1290=CARTESIAN_POINT('',(0.0029,-0.01075,0.));
#1291=CARTESIAN_POINT('',(0.,-0.01075,0.));
#1292=CARTESIAN_POINT('',(0.0029,0.,0.));
#1293=CARTESIAN_POINT('',(1.92592994438723E-34,1.7347234759768E-18,0.));
#1294=CARTESIAN_POINT('',(0.,6.79385006977064E-19,-0.0058));
#1295=CARTESIAN_POINT('',(1.25920496982818E-18,8.67361737988404E-19,0.0058));
#1296=CARTESIAN_POINT('',(0.,6.79385006977064E-19,0.));
#1297=CARTESIAN_POINT('',(-1.25920496982818E-18,-0.005375,0.));
#1298=CARTESIAN_POINT('',(0.,-0.005375,0.0058));
#1299=CARTESIAN_POINT('',(0.,-0.005375,-0.0058));
#1300=CARTESIAN_POINT('',(0.,0.,0.));
#1301=CARTESIAN_POINT('',(0.,0.,0.));
#1302=CARTESIAN_POINT('',(-1.25920496982818E-18,-0.005375,0.));
#1303=CARTESIAN_POINT('',(0.,-0.005375,0.0058));
#1304=CARTESIAN_POINT('',(1.25920496982818E-18,8.67361737988404E-19,0.0058));
#1305=CARTESIAN_POINT('',(-3.94518642842649E-19,-0.0032,0.0058));
#1306=CARTESIAN_POINT('',(1.92592994438723E-34,1.7347234759768E-18,0.));
#1307=CARTESIAN_POINT('',(0.,6.79385006977064E-19,-0.0058));
#1308=CARTESIAN_POINT('',(0.,-0.005375,-0.0058));
#1309=CARTESIAN_POINT('',(5.09538755232798E-19,-0.0032,-0.0058));
#1310=CARTESIAN_POINT('',(-7.49666214595381E-19,-0.0032,0.));
#1311=CARTESIAN_POINT('',(0.0029,0.,0.));
#1312=CARTESIAN_POINT('',(-0.003,1.7347234759768E-18,-4.59242549680257E-19));
#1313=CARTESIAN_POINT('',(-0.0015,1.38331743788522E-18,-4.59242549680257E-19));
#1314=CARTESIAN_POINT('',(0.,6.79385006977064E-19,0.));
#1315=CARTESIAN_POINT('',(0.0029,-0.01075,0.));
#1316=CARTESIAN_POINT('',(-0.003,-0.01075,-3.79640507735679E-19));
#1317=CARTESIAN_POINT('',(-0.0058,-0.01075,-3.79640507735679E-19));
#1318=CARTESIAN_POINT('',(0.,-0.01075,0.));
#1319=CARTESIAN_POINT('',(-1.25920496982818E-18,-0.01075,0.0063));
#1320=CARTESIAN_POINT('',(0.,-0.01075,-0.0063));
#1321=CARTESIAN_POINT('',(-2.51840993965635E-18,-0.01075,0.));
#1322=CARTESIAN_POINT('',(-1.25920496982818E-18,-0.005375,0.));
#1323=CARTESIAN_POINT('',(-0.0062563582903049,-0.0144263279763061,-0.000822101679079705));
#1324=CARTESIAN_POINT('',(-0.00618966622656184,-0.0152501948688807,-0.00116388927899245));
#1325=CARTESIAN_POINT('',(-0.00625627943697537,-0.0160728925481712,-0.000822341204950481));
#1326=CARTESIAN_POINT('',(-0.00632185808988583,-0.0164135124232904,-1.01380209974614E-6));
#1327=CARTESIAN_POINT('',(-0.00625628803055259,-0.0160730567210947,0.000822780695903939));
#1328=CARTESIAN_POINT('',(-0.00618972334904564,-0.0152503089910087,0.00116338779740376));
#1329=CARTESIAN_POINT('',(-0.00625612128856943,-0.0144281762965752,0.000823667630681753));
#1330=CARTESIAN_POINT('',(-0.00632188002083512,-0.0140863744384576,8.71854982754868E-7));
#1331=CARTESIAN_POINT('',(-0.0062563582903049,-0.0144263279763061,-0.000822101679079705));
#1332=CARTESIAN_POINT('',(-0.00618966622656184,-0.0152501948688807,-0.00116388927899245));
#1333=CARTESIAN_POINT('',(-0.00625627943697537,-0.0160728925481712,-0.000822341204950481));
#1334=CARTESIAN_POINT('',(-0.0062118837722546,-0.01525,-0.00105));
#1335=CARTESIAN_POINT('',(0.,-0.005375,0.0063));
#1336=CARTESIAN_POINT('',(-4.62684616820587E-18,-0.01975,0.0063));
#1337=CARTESIAN_POINT('',(-4.62684616820586E-18,-0.01975,0.));
#1338=CARTESIAN_POINT('',(-3.36764119837768E-18,-0.01975,-0.0063));
#1339=CARTESIAN_POINT('',(0.,-0.005375,-0.0063));
#1340=CARTESIAN_POINT('',(0.0078,-0.02075,0.));
#1341=CARTESIAN_POINT('',(0.,-0.02075,0.));
#1342=CARTESIAN_POINT('',(-4.62684616820587E-18,-0.02075,0.0083));
#1343=CARTESIAN_POINT('',(0.,-0.02075,0.0073));
#1344=CARTESIAN_POINT('',(-4.86111686026692E-18,-0.02075,0.));
#1345=CARTESIAN_POINT('',(0.,-0.02075,-0.0083));
#1346=CARTESIAN_POINT('',(0.,-0.02075,0.));
#1347=CARTESIAN_POINT('',(-4.62684616820587E-18,-0.02075,-0.0073));
#1348=CARTESIAN_POINT('',(-4.86111686026692E-18,-0.02075,0.));
#1349=CARTESIAN_POINT('',(-1.25920496982818E-18,-0.005375,0.));
#1350=CARTESIAN_POINT('',(-0.00927043784625266,-0.0160737075755258,-0.000822125335147394));
#1351=CARTESIAN_POINT('',(-0.00922559867168246,-0.0152497953340385,-0.00116387398632186));
#1352=CARTESIAN_POINT('',(-0.0092703816595587,-0.01442711108832,-0.000822378719565176));
#1353=CARTESIAN_POINT('',(-0.00931480460976019,-0.0140865287822772,-9.25000704934045E-7));
#1354=CARTESIAN_POINT('',(-0.00927039979351638,-0.0144267747381169,0.000822608870290146));
#1355=CARTESIAN_POINT('',(-0.00922563527898628,-0.015249778329862,0.00116344028224274));
#1356=CARTESIAN_POINT('',(-0.00927027333246516,-0.0160717718189768,0.000823629566121607));
#1357=CARTESIAN_POINT('',(-0.00931482212852369,-0.0164136294711734,1.08771565802859E-6));
#1358=CARTESIAN_POINT('',(-0.00927043784625266,-0.0160737075755258,-0.000822125335147394));
#1359=CARTESIAN_POINT('',(-0.00922559867168246,-0.0152497953340385,-0.00116387398632186));
#1360=CARTESIAN_POINT('',(-0.0092703816595587,-0.01442711108832,-0.000822378719565176));
#1361=CARTESIAN_POINT('',(-0.00924053569875687,-0.01525,-0.00105));
#1362=CARTESIAN_POINT('',(0.,-0.005375,0.0093));
#1363=CARTESIAN_POINT('',(-1.25920496982818E-18,-0.01075,0.0093));
#1364=CARTESIAN_POINT('',(-4.62684616820587E-18,-0.01975,0.0093));
#1365=CARTESIAN_POINT('',(-2.51840993965635E-18,-0.01075,0.));
#1366=CARTESIAN_POINT('',(-4.22679222446691E-18,-0.01075,-0.0093));
#1367=CARTESIAN_POINT('',(0.,-0.005375,-0.0093));
#1368=CARTESIAN_POINT('',(-3.36764119837768E-18,-0.01975,-0.0093));
#1369=CARTESIAN_POINT('',(-4.62684616820587E-18,-0.01975,0.));
#1370=CARTESIAN_POINT('',(-3.94518642842649E-19,-0.0032,0.0058));
#1371=CARTESIAN_POINT('',(-0.0116,-0.0032,0.0058));
#1372=CARTESIAN_POINT('',(-0.0116,-0.0032,-0.0058));
#1373=CARTESIAN_POINT('',(-1.81510892985358E-18,-0.0032,-0.0058));
#1374=CARTESIAN_POINT('',(-8.63060026964762E-19,-0.0052,0.0058));
#1375=CARTESIAN_POINT('',(-0.0116,-0.0052,0.0058));
#1376=CARTESIAN_POINT('',(-0.0116,-0.0052,-0.0058));
#1377=CARTESIAN_POINT('',(-2.28365031397569E-18,-0.0052,-0.0058));
#1378=CARTESIAN_POINT('',(-1.48040779393073E-18,-0.00875,0.0093));
#1379=CARTESIAN_POINT('',(-0.0186,-0.00874999999999999,0.0093));
#1380=CARTESIAN_POINT('',(-0.0186,-0.00874999999999999,-0.0093));
#1381=CARTESIAN_POINT('',(-3.7582508403448E-18,-0.00875,-0.0093));
#1382=CARTESIAN_POINT('',(-1.94894917805284E-18,-0.01075,0.0093));
#1383=CARTESIAN_POINT('',(-0.0186,-0.01075,0.0093));
#1384=CARTESIAN_POINT('',(-0.0186,-0.01075,-0.0093));
#1385=CARTESIAN_POINT('',(-4.22679222446692E-18,-0.01075,-0.0093));
#1386=CARTESIAN_POINT('',(-3.94518642842649E-19,-0.0032,0.0058));
#1387=CARTESIAN_POINT('',(-8.63060026964761E-19,-0.0052,0.0058));
#1388=CARTESIAN_POINT('',(-1.48040779393072E-18,-0.00875,0.0093));
#1389=CARTESIAN_POINT('',(-1.94894917805284E-18,-0.01075,0.0093));
#1390=CARTESIAN_POINT('',(-1.81510892985358E-18,-0.0032,-0.0058));
#1391=CARTESIAN_POINT('',(-2.28365031397569E-18,-0.0052,-0.0058));
#1392=CARTESIAN_POINT('',(-3.7582508403448E-18,-0.00875,-0.0093));
#1393=CARTESIAN_POINT('',(-4.22679222446691E-18,-0.01075,-0.0093));
#1394=CARTESIAN_POINT('',(-4.62684616820587E-18,-0.01975,0.));
#1395=CARTESIAN_POINT('',(-4.62684616820587E-18,-0.01975,-0.0073));
#1396=CARTESIAN_POINT('',(-4.62684616820587E-18,-0.01975,0.0073));
#1397=CARTESIAN_POINT('',(-4.62684616820587E-18,-0.01975,0.));
#1398=CARTESIAN_POINT('',(-4.62684616820587E-18,-0.01975,-0.0083));
#1399=CARTESIAN_POINT('',(-4.62684616820587E-18,-0.01975,0.0083));
#1400=CARTESIAN_POINT('',(-0.003,0.01425,-4.59242549680257E-19));
#1401=CARTESIAN_POINT('',(-0.003,-0.00475,-4.59242549680257E-19));
#1402=CARTESIAN_POINT('',(-0.0015,-0.00475,-4.59242549680257E-19));
#1403=CARTESIAN_POINT('',(-0.003,-0.01275,-3.79640507735679E-19));
#1404=CARTESIAN_POINT('',(-0.003,-0.00475,-3.79640507735679E-19));
#1405=CARTESIAN_POINT('',(-0.0002,-0.00475,-3.79640507735679E-19));
#1406=CARTESIAN_POINT('',(-0.0125,-0.01525,6.42939569552361E-20));
#1407=CARTESIAN_POINT('',(-1.11278578729002E-18,-0.00475,0.));
#1408=CARTESIAN_POINT('',(0.,0.,0.));
#1409=MECHANICAL_DESIGN_GEOMETRIC_PRESENTATION_REPRESENTATION('',(#689),
#1412);
#1410=MECHANICAL_DESIGN_GEOMETRIC_PRESENTATION_REPRESENTATION('',(#690),
#1413);
#1411=MECHANICAL_DESIGN_GEOMETRIC_PRESENTATION_REPRESENTATION('',(#691),
#1414);
#1412=(
GEOMETRIC_REPRESENTATION_CONTEXT(3)
GLOBAL_UNCERTAINTY_ASSIGNED_CONTEXT((#1415))
GLOBAL_UNIT_ASSIGNED_CONTEXT((#1424,#1421,#1418))
REPRESENTATION_CONTEXT('Cup','TOP_LEVEL_ASSEMBLY_PART')
);
#1413=(
GEOMETRIC_REPRESENTATION_CONTEXT(3)
GLOBAL_UNCERTAINTY_ASSIGNED_CONTEXT((#1416))
GLOBAL_UNIT_ASSIGNED_CONTEXT((#1425,#1422,#1419))
REPRESENTATION_CONTEXT('CupR','TOP_LEVEL_ASSEMBLY_PART')
);
#1414=(
GEOMETRIC_REPRESENTATION_CONTEXT(3)
GLOBAL_UNCERTAINTY_ASSIGNED_CONTEXT((#1417))
GLOBAL_UNIT_ASSIGNED_CONTEXT((#1426,#1423,#1420))
REPRESENTATION_CONTEXT('Cup L','TOP_LEVEL_ASSEMBLY_PART')
);
#1415=UNCERTAINTY_MEASURE_WITH_UNIT(LENGTH_MEASURE(2.E-5),#1424,
'DISTANCE_ACCURACY_VALUE','Maximum Tolerance applied to model');
#1416=UNCERTAINTY_MEASURE_WITH_UNIT(LENGTH_MEASURE(2.E-5),#1425,
'DISTANCE_ACCURACY_VALUE','Maximum Tolerance applied to model');
#1417=UNCERTAINTY_MEASURE_WITH_UNIT(LENGTH_MEASURE(2.E-5),#1426,
'DISTANCE_ACCURACY_VALUE','Maximum Tolerance applied to model');
#1418=(
NAMED_UNIT(*)
SI_UNIT($,.STERADIAN.)
SOLID_ANGLE_UNIT()
);
#1419=(
NAMED_UNIT(*)
SI_UNIT($,.STERADIAN.)
SOLID_ANGLE_UNIT()
);
#1420=(
NAMED_UNIT(*)
SI_UNIT($,.STERADIAN.)
SOLID_ANGLE_UNIT()
);
#1421=(
NAMED_UNIT(*)
PLANE_ANGLE_UNIT()
SI_UNIT($,.RADIAN.)
);
#1422=(
NAMED_UNIT(*)
PLANE_ANGLE_UNIT()
SI_UNIT($,.RADIAN.)
);
#1423=(
NAMED_UNIT(*)
PLANE_ANGLE_UNIT()
SI_UNIT($,.RADIAN.)
);
#1424=(
LENGTH_UNIT()
NAMED_UNIT(*)
SI_UNIT($,.METRE.)
);
#1425=(
LENGTH_UNIT()
NAMED_UNIT(*)
SI_UNIT($,.METRE.)
);
#1426=(
LENGTH_UNIT()
NAMED_UNIT(*)
SI_UNIT($,.METRE.)
);
#1427=PRODUCT_DEFINITION_SHAPE('','',#1430);
#1428=PRODUCT_DEFINITION_SHAPE('','',#1431);
#1429=PRODUCT_DEFINITION_SHAPE('','',#1432);
#1430=PRODUCT_DEFINITION('','',#1436,#1433);
#1431=PRODUCT_DEFINITION('','',#1437,#1434);
#1432=PRODUCT_DEFINITION('','',#1438,#1435);
#1433=PRODUCT_DEFINITION_CONTEXT('',#1454,'design');
#1434=PRODUCT_DEFINITION_CONTEXT('',#1455,'design');
#1435=PRODUCT_DEFINITION_CONTEXT('',#1456,'design');
#1436=PRODUCT_DEFINITION_FORMATION_WITH_SPECIFIED_SOURCE('','',#1442,
 .NOT_KNOWN.);
#1437=PRODUCT_DEFINITION_FORMATION_WITH_SPECIFIED_SOURCE('','',#1443,
 .NOT_KNOWN.);
#1438=PRODUCT_DEFINITION_FORMATION_WITH_SPECIFIED_SOURCE('','',#1444,
 .NOT_KNOWN.);
#1439=PRODUCT_RELATED_PRODUCT_CATEGORY('','',(#1442));
#1440=PRODUCT_RELATED_PRODUCT_CATEGORY('','',(#1443));
#1441=PRODUCT_RELATED_PRODUCT_CATEGORY('','',(#1444));
#1442=PRODUCT('Cup','Cup','Cup',(#1448));
#1443=PRODUCT('CupR','CupR','CupR',(#1449));
#1444=PRODUCT('Cup L','Cup L','Cup L',(#1450));
#1445=PRODUCT_CATEGORY('','');
#1446=PRODUCT_CATEGORY('','');
#1447=PRODUCT_CATEGORY('','');
#1448=PRODUCT_CONTEXT('',#1454,'mechanical');
#1449=PRODUCT_CONTEXT('',#1455,'mechanical');
#1450=PRODUCT_CONTEXT('',#1456,'mechanical');
#1451=APPLICATION_PROTOCOL_DEFINITION('international standard',
'automotive_design',2010,#1454);
#1452=APPLICATION_PROTOCOL_DEFINITION('international standard',
'automotive_design',2010,#1455);
#1453=APPLICATION_PROTOCOL_DEFINITION('international standard',
'automotive_design',2010,#1456);
#1454=APPLICATION_CONTEXT(
'core data for automotive mechanical design processes');
#1455=APPLICATION_CONTEXT(
'core data for automotive mechanical design processes');
#1456=APPLICATION_CONTEXT(
'core data for automotive mechanical design processes');
ENDSEC;
END-ISO-10303-21;
