ISO-10303-21;
HEADER;
/* Generated by software containing ST-Developer
 * from STEP Tools, Inc. (www.steptools.com) 
 */
/* OPTION: using custom renumber hook */

FILE_DESCRIPTION(
/* description */ ('STEP AP214',
'CAx-IF Rec.Pracs.---User Defined Attributes---1.5---2016-08-15'),
/* implementation_level */ '2;1');

FILE_NAME(
/* name */ '6a7bfa80e5d6ddc0b13a37b7',
/* time_stamp */ '2026-08-12T04:45:53Z',
/* author */ (''),
/* organization */ (''),
/* preprocessor_version */ 'ST-DEVELOPER v20',
/* originating_system */ 'ONSHAPE BY PTC INC, 1.219',
/* authorisation */ '  ');

FILE_SCHEMA (('AUTOMOTIVE_DESIGN {1 0 10303 214 3 1 1}'));
ENDSEC;

DATA;
#10=PROPERTY_DEFINITION_REPRESENTATION(#14,#12);
#11=PROPERTY_DEFINITION_REPRESENTATION(#15,#13);
#12=REPRESENTATION('',(#16),#563);
#13=REPRESENTATION('',(#17),#563);
#14=PROPERTY_DEFINITION('pmi validation property','',#568);
#15=PROPERTY_DEFINITION('pmi validation property','',#568);
#16=VALUE_REPRESENTATION_ITEM('number of annotations',COUNT_MEASURE(0.));
#17=VALUE_REPRESENTATION_ITEM('number of views',COUNT_MEASURE(0.));
#18=SHAPE_REPRESENTATION_RELATIONSHIP('','',#355,#19);
#19=ADVANCED_BREP_SHAPE_REPRESENTATION('',(#353),#563);
#20=PLANE('',#360);
#21=PLANE('',#364);
#22=PLANE('',#368);
#23=PLANE('',#369);
#24=PLANE('',#370);
#25=PLANE('',#371);
#26=PLANE('',#372);
#27=PLANE('',#373);
#28=PLANE('',#377);
#29=PLANE('',#378);
#30=PLANE('',#379);
#31=PLANE('',#380);
#32=PLANE('',#381);
#33=LINE('',#475,#69);
#34=LINE('',#479,#70);
#35=LINE('',#481,#71);
#36=LINE('',#483,#72);
#37=LINE('',#485,#73);
#38=LINE('',#489,#74);
#39=LINE('',#493,#75);
#40=LINE('',#495,#76);
#41=LINE('',#497,#77);
#42=LINE('',#501,#78);
#43=LINE('',#505,#79);
#44=LINE('',#508,#80);
#45=LINE('',#510,#81);
#46=LINE('',#512,#82);
#47=LINE('',#514,#83);
#48=LINE('',#516,#84);
#49=LINE('',#518,#85);
#50=LINE('',#520,#86);
#51=LINE('',#522,#87);
#52=LINE('',#524,#88);
#53=LINE('',#526,#89);
#54=LINE('',#529,#90);
#55=LINE('',#531,#91);
#56=LINE('',#533,#92);
#57=LINE('',#535,#93);
#58=LINE('',#537,#94);
#59=LINE('',#539,#95);
#60=LINE('',#541,#96);
#61=LINE('',#543,#97);
#62=LINE('',#545,#98);
#63=LINE('',#552,#99);
#64=LINE('',#553,#100);
#65=LINE('',#555,#101);
#66=LINE('',#556,#102);
#67=LINE('',#558,#103);
#68=LINE('',#559,#104);
#69=VECTOR('',#388,1.);
#70=VECTOR('',#391,1.);
#71=VECTOR('',#394,1.);
#72=VECTOR('',#395,1.);
#73=VECTOR('',#396,1.);
#74=VECTOR('',#401,1.);
#75=VECTOR('',#406,1.);
#76=VECTOR('',#407,1.);
#77=VECTOR('',#408,1.);
#78=VECTOR('',#413,1.);
#79=VECTOR('',#418,1.);
#80=VECTOR('',#419,1.);
#81=VECTOR('',#420,1.);
#82=VECTOR('',#421,1.);
#83=VECTOR('',#424,1.);
#84=VECTOR('',#425,1.);
#85=VECTOR('',#426,1.);
#86=VECTOR('',#429,1.);
#87=VECTOR('',#430,1.);
#88=VECTOR('',#431,1.);
#89=VECTOR('',#434,1.);
#90=VECTOR('',#435,1.);
#91=VECTOR('',#436,1.);
#92=VECTOR('',#437,1.);
#93=VECTOR('',#440,1.);
#94=VECTOR('',#441,1.);
#95=VECTOR('',#442,1.);
#96=VECTOR('',#445,1.);
#97=VECTOR('',#446,1.);
#98=VECTOR('',#447,1.);
#99=VECTOR('',#456,1.);
#100=VECTOR('',#457,1.);
#101=VECTOR('',#460,1.);
#102=VECTOR('',#461,1.);
#103=VECTOR('',#464,1.);
#104=VECTOR('',#465,1.);
#105=ORIENTED_EDGE('',*,*,#193,.T.);
#106=ORIENTED_EDGE('',*,*,#194,.F.);
#107=ORIENTED_EDGE('',*,*,#195,.F.);
#108=ORIENTED_EDGE('',*,*,#196,.T.);
#109=ORIENTED_EDGE('',*,*,#197,.T.);
#110=ORIENTED_EDGE('',*,*,#198,.F.);
#111=ORIENTED_EDGE('',*,*,#199,.F.);
#112=ORIENTED_EDGE('',*,*,#194,.T.);
#113=ORIENTED_EDGE('',*,*,#200,.T.);
#114=ORIENTED_EDGE('',*,*,#201,.F.);
#115=ORIENTED_EDGE('',*,*,#202,.F.);
#116=ORIENTED_EDGE('',*,*,#198,.T.);
#117=ORIENTED_EDGE('',*,*,#203,.T.);
#118=ORIENTED_EDGE('',*,*,#204,.F.);
#119=ORIENTED_EDGE('',*,*,#205,.F.);
#120=ORIENTED_EDGE('',*,*,#201,.T.);
#121=ORIENTED_EDGE('',*,*,#206,.T.);
#122=ORIENTED_EDGE('',*,*,#207,.F.);
#123=ORIENTED_EDGE('',*,*,#208,.F.);
#124=ORIENTED_EDGE('',*,*,#204,.T.);
#125=ORIENTED_EDGE('',*,*,#209,.T.);
#126=ORIENTED_EDGE('',*,*,#210,.F.);
#127=ORIENTED_EDGE('',*,*,#211,.F.);
#128=ORIENTED_EDGE('',*,*,#212,.T.);
#129=ORIENTED_EDGE('',*,*,#213,.T.);
#130=ORIENTED_EDGE('',*,*,#214,.F.);
#131=ORIENTED_EDGE('',*,*,#215,.F.);
#132=ORIENTED_EDGE('',*,*,#210,.T.);
#133=ORIENTED_EDGE('',*,*,#216,.T.);
#134=ORIENTED_EDGE('',*,*,#217,.F.);
#135=ORIENTED_EDGE('',*,*,#218,.F.);
#136=ORIENTED_EDGE('',*,*,#214,.T.);
#137=ORIENTED_EDGE('',*,*,#219,.F.);
#138=ORIENTED_EDGE('',*,*,#220,.F.);
#139=ORIENTED_EDGE('',*,*,#221,.T.);
#140=ORIENTED_EDGE('',*,*,#222,.T.);
#141=ORIENTED_EDGE('',*,*,#223,.F.);
#142=ORIENTED_EDGE('',*,*,#224,.F.);
#143=ORIENTED_EDGE('',*,*,#225,.T.);
#144=ORIENTED_EDGE('',*,*,#220,.T.);
#145=ORIENTED_EDGE('',*,*,#226,.F.);
#146=ORIENTED_EDGE('',*,*,#227,.F.);
#147=ORIENTED_EDGE('',*,*,#228,.T.);
#148=ORIENTED_EDGE('',*,*,#224,.T.);
#149=ORIENTED_EDGE('',*,*,#229,.T.);
#150=ORIENTED_EDGE('',*,*,#230,.F.);
#151=ORIENTED_EDGE('',*,*,#231,.T.);
#152=ORIENTED_EDGE('',*,*,#212,.F.);
#153=ORIENTED_EDGE('',*,*,#232,.F.);
#154=ORIENTED_EDGE('',*,*,#217,.T.);
#155=ORIENTED_EDGE('',*,*,#233,.F.);
#156=ORIENTED_EDGE('',*,*,#222,.F.);
#157=ORIENTED_EDGE('',*,*,#234,.T.);
#158=ORIENTED_EDGE('',*,*,#227,.T.);
#159=ORIENTED_EDGE('',*,*,#235,.F.);
#160=ORIENTED_EDGE('',*,*,#196,.F.);
#161=ORIENTED_EDGE('',*,*,#236,.T.);
#162=ORIENTED_EDGE('',*,*,#207,.T.);
#163=ORIENTED_EDGE('',*,*,#221,.F.);
#164=ORIENTED_EDGE('',*,*,#225,.F.);
#165=ORIENTED_EDGE('',*,*,#228,.F.);
#166=ORIENTED_EDGE('',*,*,#234,.F.);
#167=ORIENTED_EDGE('',*,*,#211,.T.);
#168=ORIENTED_EDGE('',*,*,#215,.T.);
#169=ORIENTED_EDGE('',*,*,#218,.T.);
#170=ORIENTED_EDGE('',*,*,#232,.T.);
#171=ORIENTED_EDGE('',*,*,#229,.F.);
#172=ORIENTED_EDGE('',*,*,#195,.T.);
#173=ORIENTED_EDGE('',*,*,#199,.T.);
#174=ORIENTED_EDGE('',*,*,#202,.T.);
#175=ORIENTED_EDGE('',*,*,#205,.T.);
#176=ORIENTED_EDGE('',*,*,#208,.T.);
#177=ORIENTED_EDGE('',*,*,#236,.F.);
#178=ORIENTED_EDGE('',*,*,#219,.T.);
#179=ORIENTED_EDGE('',*,*,#233,.T.);
#180=ORIENTED_EDGE('',*,*,#226,.T.);
#181=ORIENTED_EDGE('',*,*,#223,.T.);
#182=ORIENTED_EDGE('',*,*,#209,.F.);
#183=ORIENTED_EDGE('',*,*,#231,.F.);
#184=ORIENTED_EDGE('',*,*,#216,.F.);
#185=ORIENTED_EDGE('',*,*,#213,.F.);
#186=ORIENTED_EDGE('',*,*,#230,.T.);
#187=ORIENTED_EDGE('',*,*,#193,.F.);
#188=ORIENTED_EDGE('',*,*,#235,.T.);
#189=ORIENTED_EDGE('',*,*,#206,.F.);
#190=ORIENTED_EDGE('',*,*,#203,.F.);
#191=ORIENTED_EDGE('',*,*,#200,.F.);
#192=ORIENTED_EDGE('',*,*,#197,.F.);
#193=EDGE_CURVE('',#237,#238,#267,.T.);
#194=EDGE_CURVE('',#239,#238,#33,.T.);
#195=EDGE_CURVE('',#240,#239,#268,.T.);
#196=EDGE_CURVE('',#240,#237,#34,.T.);
#197=EDGE_CURVE('',#238,#241,#35,.T.);
#198=EDGE_CURVE('',#242,#241,#36,.T.);
#199=EDGE_CURVE('',#239,#242,#37,.T.);
#200=EDGE_CURVE('',#241,#243,#269,.T.);
#201=EDGE_CURVE('',#244,#243,#38,.T.);
#202=EDGE_CURVE('',#242,#244,#270,.T.);
#203=EDGE_CURVE('',#243,#245,#39,.T.);
#204=EDGE_CURVE('',#246,#245,#40,.T.);
#205=EDGE_CURVE('',#244,#246,#41,.T.);
#206=EDGE_CURVE('',#245,#247,#271,.T.);
#207=EDGE_CURVE('',#248,#247,#42,.T.);
#208=EDGE_CURVE('',#246,#248,#272,.T.);
#209=EDGE_CURVE('',#249,#250,#43,.T.);
#210=EDGE_CURVE('',#251,#250,#44,.T.);
#211=EDGE_CURVE('',#252,#251,#45,.T.);
#212=EDGE_CURVE('',#252,#249,#46,.T.);
#213=EDGE_CURVE('',#250,#253,#47,.T.);
#214=EDGE_CURVE('',#254,#253,#48,.T.);
#215=EDGE_CURVE('',#251,#254,#49,.T.);
#216=EDGE_CURVE('',#253,#255,#50,.T.);
#217=EDGE_CURVE('',#256,#255,#51,.T.);
#218=EDGE_CURVE('',#254,#256,#52,.T.);
#219=EDGE_CURVE('',#257,#258,#53,.T.);
#220=EDGE_CURVE('',#259,#257,#54,.T.);
#221=EDGE_CURVE('',#259,#260,#55,.T.);
#222=EDGE_CURVE('',#260,#258,#56,.T.);
#223=EDGE_CURVE('',#261,#257,#57,.T.);
#224=EDGE_CURVE('',#262,#261,#58,.T.);
#225=EDGE_CURVE('',#262,#259,#59,.T.);
#226=EDGE_CURVE('',#263,#261,#60,.T.);
#227=EDGE_CURVE('',#264,#263,#61,.T.);
#228=EDGE_CURVE('',#264,#262,#62,.T.);
#229=EDGE_CURVE('',#265,#265,#273,.T.);
#230=EDGE_CURVE('',#266,#266,#274,.T.);
#231=EDGE_CURVE('',#255,#249,#63,.T.);
#232=EDGE_CURVE('',#256,#252,#64,.T.);
#233=EDGE_CURVE('',#258,#263,#65,.T.);
#234=EDGE_CURVE('',#260,#264,#66,.T.);
#235=EDGE_CURVE('',#237,#247,#67,.T.);
#236=EDGE_CURVE('',#240,#248,#68,.T.);
#237=VERTEX_POINT('',#473);
#238=VERTEX_POINT('',#474);
#239=VERTEX_POINT('',#476);
#240=VERTEX_POINT('',#478);
#241=VERTEX_POINT('',#482);
#242=VERTEX_POINT('',#484);
#243=VERTEX_POINT('',#488);
#244=VERTEX_POINT('',#490);
#245=VERTEX_POINT('',#494);
#246=VERTEX_POINT('',#496);
#247=VERTEX_POINT('',#500);
#248=VERTEX_POINT('',#502);
#249=VERTEX_POINT('',#506);
#250=VERTEX_POINT('',#507);
#251=VERTEX_POINT('',#509);
#252=VERTEX_POINT('',#511);
#253=VERTEX_POINT('',#515);
#254=VERTEX_POINT('',#517);
#255=VERTEX_POINT('',#521);
#256=VERTEX_POINT('',#523);
#257=VERTEX_POINT('',#527);
#258=VERTEX_POINT('',#528);
#259=VERTEX_POINT('',#530);
#260=VERTEX_POINT('',#532);
#261=VERTEX_POINT('',#536);
#262=VERTEX_POINT('',#538);
#263=VERTEX_POINT('',#542);
#264=VERTEX_POINT('',#544);
#265=VERTEX_POINT('',#548);
#266=VERTEX_POINT('',#550);
#267=CIRCLE('',#358,0.003);
#268=CIRCLE('',#359,0.003);
#269=CIRCLE('',#362,0.005);
#270=CIRCLE('',#363,0.005);
#271=CIRCLE('',#366,0.003);
#272=CIRCLE('',#367,0.003);
#273=CIRCLE('',#375,0.00175);
#274=CIRCLE('',#376,0.00175);
#275=EDGE_LOOP('',(#105,#106,#107,#108));
#276=EDGE_LOOP('',(#109,#110,#111,#112));
#277=EDGE_LOOP('',(#113,#114,#115,#116));
#278=EDGE_LOOP('',(#117,#118,#119,#120));
#279=EDGE_LOOP('',(#121,#122,#123,#124));
#280=EDGE_LOOP('',(#125,#126,#127,#128));
#281=EDGE_LOOP('',(#129,#130,#131,#132));
#282=EDGE_LOOP('',(#133,#134,#135,#136));
#283=EDGE_LOOP('',(#137,#138,#139,#140));
#284=EDGE_LOOP('',(#141,#142,#143,#144));
#285=EDGE_LOOP('',(#145,#146,#147,#148));
#286=EDGE_LOOP('',(#149));
#287=EDGE_LOOP('',(#150));
#288=EDGE_LOOP('',(#151,#152,#153,#154));
#289=EDGE_LOOP('',(#155,#156,#157,#158));
#290=EDGE_LOOP('',(#159,#160,#161,#162));
#291=EDGE_LOOP('',(#163,#164,#165,#166));
#292=EDGE_LOOP('',(#167,#168,#169,#170));
#293=EDGE_LOOP('',(#171));
#294=EDGE_LOOP('',(#172,#173,#174,#175,#176,#177));
#295=EDGE_LOOP('',(#178,#179,#180,#181));
#296=EDGE_LOOP('',(#182,#183,#184,#185));
#297=EDGE_LOOP('',(#186));
#298=EDGE_LOOP('',(#187,#188,#189,#190,#191,#192));
#299=FACE_BOUND('',#275,.T.);
#300=FACE_BOUND('',#276,.T.);
#301=FACE_BOUND('',#277,.T.);
#302=FACE_BOUND('',#278,.T.);
#303=FACE_BOUND('',#279,.T.);
#304=FACE_BOUND('',#280,.T.);
#305=FACE_BOUND('',#281,.T.);
#306=FACE_BOUND('',#282,.T.);
#307=FACE_BOUND('',#283,.T.);
#308=FACE_BOUND('',#284,.T.);
#309=FACE_BOUND('',#285,.T.);
#310=FACE_BOUND('',#286,.T.);
#311=FACE_BOUND('',#287,.T.);
#312=FACE_BOUND('',#288,.T.);
#313=FACE_BOUND('',#289,.T.);
#314=FACE_BOUND('',#290,.T.);
#315=FACE_BOUND('',#291,.T.);
#316=FACE_BOUND('',#292,.T.);
#317=FACE_BOUND('',#293,.T.);
#318=FACE_BOUND('',#294,.T.);
#319=FACE_BOUND('',#295,.T.);
#320=FACE_BOUND('',#296,.T.);
#321=FACE_BOUND('',#297,.T.);
#322=FACE_BOUND('',#298,.T.);
#323=CYLINDRICAL_SURFACE('',#357,0.003);
#324=CYLINDRICAL_SURFACE('',#361,0.005);
#325=CYLINDRICAL_SURFACE('',#365,0.003);
#326=CYLINDRICAL_SURFACE('',#374,0.00175);
#327=ADVANCED_FACE('',(#299),#323,.T.);
#328=ADVANCED_FACE('',(#300),#20,.F.);
#329=ADVANCED_FACE('',(#301),#324,.T.);
#330=ADVANCED_FACE('',(#302),#21,.F.);
#331=ADVANCED_FACE('',(#303),#325,.T.);
#332=ADVANCED_FACE('',(#304),#22,.F.);
#333=ADVANCED_FACE('',(#305),#23,.F.);
#334=ADVANCED_FACE('',(#306),#24,.F.);
#335=ADVANCED_FACE('',(#307),#25,.T.);
#336=ADVANCED_FACE('',(#308),#26,.T.);
#337=ADVANCED_FACE('',(#309),#27,.T.);
#338=ADVANCED_FACE('',(#310,#311),#326,.F.);
#339=ADVANCED_FACE('',(#312),#28,.F.);
#340=ADVANCED_FACE('',(#313),#29,.T.);
#341=ADVANCED_FACE('',(#314),#30,.T.);
#342=ADVANCED_FACE('',(#315,#316,#317,#318),#31,.T.);
#343=ADVANCED_FACE('',(#319,#320,#321,#322),#32,.F.);
#344=CLOSED_SHELL('',(#327,#328,#329,#330,#331,#332,#333,#334,#335,#336,
#337,#338,#339,#340,#341,#342,#343));
#345=STYLED_ITEM('',(#346),#353);
#346=PRESENTATION_STYLE_ASSIGNMENT((#347));
#347=SURFACE_STYLE_USAGE(.BOTH.,#348);
#348=SURFACE_SIDE_STYLE('',(#349));
#349=SURFACE_STYLE_FILL_AREA(#350);
#350=FILL_AREA_STYLE('',(#351));
#351=FILL_AREA_STYLE_COLOUR('',#352);
#352=COLOUR_RGB('',0.615686274509804,0.811764705882353,0.929411764705882);
#353=MANIFOLD_SOLID_BREP('Part 1',#344);
#354=SHAPE_DEFINITION_REPRESENTATION(#568,#355);
#355=SHAPE_REPRESENTATION('Part 1',(#356),#563);
#356=AXIS2_PLACEMENT_3D('',#470,#382,#383);
#357=AXIS2_PLACEMENT_3D('',#471,#384,#385);
#358=AXIS2_PLACEMENT_3D('',#472,#386,#387);
#359=AXIS2_PLACEMENT_3D('',#477,#389,#390);
#360=AXIS2_PLACEMENT_3D('',#480,#392,#393);
#361=AXIS2_PLACEMENT_3D('',#486,#397,#398);
#362=AXIS2_PLACEMENT_3D('',#487,#399,#400);
#363=AXIS2_PLACEMENT_3D('',#491,#402,#403);
#364=AXIS2_PLACEMENT_3D('',#492,#404,#405);
#365=AXIS2_PLACEMENT_3D('',#498,#409,#410);
#366=AXIS2_PLACEMENT_3D('',#499,#411,#412);
#367=AXIS2_PLACEMENT_3D('',#503,#414,#415);
#368=AXIS2_PLACEMENT_3D('',#504,#416,#417);
#369=AXIS2_PLACEMENT_3D('',#513,#422,#423);
#370=AXIS2_PLACEMENT_3D('',#519,#427,#428);
#371=AXIS2_PLACEMENT_3D('',#525,#432,#433);
#372=AXIS2_PLACEMENT_3D('',#534,#438,#439);
#373=AXIS2_PLACEMENT_3D('',#540,#443,#444);
#374=AXIS2_PLACEMENT_3D('',#546,#448,#449);
#375=AXIS2_PLACEMENT_3D('',#547,#450,#451);
#376=AXIS2_PLACEMENT_3D('',#549,#452,#453);
#377=AXIS2_PLACEMENT_3D('',#551,#454,#455);
#378=AXIS2_PLACEMENT_3D('',#554,#458,#459);
#379=AXIS2_PLACEMENT_3D('',#557,#462,#463);
#380=AXIS2_PLACEMENT_3D('',#560,#466,#467);
#381=AXIS2_PLACEMENT_3D('',#561,#468,#469);
#382=DIRECTION('',(0.,0.,1.));
#383=DIRECTION('',(1.,0.,0.));
#384=DIRECTION('',(0.,1.,0.));
#385=DIRECTION('',(0.,0.,1.));
#386=DIRECTION('',(0.,-1.,0.));
#387=DIRECTION('',(0.,0.,-1.));
#388=DIRECTION('',(0.,1.,0.));
#389=DIRECTION('',(0.,-1.,0.));
#390=DIRECTION('',(0.,0.,-1.));
#391=DIRECTION('',(0.,1.,0.));
#392=DIRECTION('',(0.979760962310488,0.,0.200171068669841));
#393=DIRECTION('',(0.200171068669841,0.,-0.979760962310488));
#394=DIRECTION('',(0.200171068669841,0.,-0.979760962310488));
#395=DIRECTION('',(0.,1.,0.));
#396=DIRECTION('',(0.200171068669841,0.,-0.979760962310488));
#397=DIRECTION('',(0.,1.,0.));
#398=DIRECTION('',(0.,0.,1.));
#399=DIRECTION('',(0.,-1.,0.));
#400=DIRECTION('',(0.,0.,-1.));
#401=DIRECTION('',(0.,1.,0.));
#402=DIRECTION('',(0.,-1.,0.));
#403=DIRECTION('',(0.,0.,-1.));
#404=DIRECTION('',(-0.994910728475995,0.,0.100760321373869));
#405=DIRECTION('',(0.100760321373869,0.,0.994910728475995));
#406=DIRECTION('',(0.100760321373869,0.,0.994910728475995));
#407=DIRECTION('',(0.,1.,0.));
#408=DIRECTION('',(0.100760321373869,0.,0.994910728475995));
#409=DIRECTION('',(0.,1.,0.));
#410=DIRECTION('',(0.,0.,1.));
#411=DIRECTION('',(0.,-1.,0.));
#412=DIRECTION('',(0.,0.,-1.));
#413=DIRECTION('',(0.,1.,0.));
#414=DIRECTION('',(0.,-1.,0.));
#415=DIRECTION('',(0.,0.,-1.));
#416=DIRECTION('',(0.0456608532983423,0.,-0.998956999312817));
#417=DIRECTION('',(-0.998956999312817,0.,-0.0456608532983423));
#418=DIRECTION('',(-0.998956999312817,0.,-0.0456608532983423));
#419=DIRECTION('',(0.,1.,0.));
#420=DIRECTION('',(-0.998956999312817,0.,-0.0456608532983423));
#421=DIRECTION('',(0.,1.,0.));
#422=DIRECTION('',(-0.998956999312817,0.,-0.0456608532983426));
#423=DIRECTION('',(-0.0456608532983426,0.,0.998956999312817));
#424=DIRECTION('',(-0.0456608532983426,0.,0.998956999312817));
#425=DIRECTION('',(0.,1.,0.));
#426=DIRECTION('',(-0.0456608532983426,0.,0.998956999312817));
#427=DIRECTION('',(-0.0456608532983424,0.,0.998956999312817));
#428=DIRECTION('',(0.998956999312817,0.,0.0456608532983424));
#429=DIRECTION('',(0.998956999312817,0.,0.0456608532983424));
#430=DIRECTION('',(0.,1.,0.));
#431=DIRECTION('',(0.998956999312817,0.,0.0456608532983424));
#432=DIRECTION('',(0.0456608532983425,0.,-0.998956999312817));
#433=DIRECTION('',(-0.998956999312817,0.,-0.0456608532983425));
#434=DIRECTION('',(-0.998956999312817,0.,-0.0456608532983425));
#435=DIRECTION('',(0.,1.,0.));
#436=DIRECTION('',(-0.998956999312817,0.,-0.0456608532983425));
#437=DIRECTION('',(0.,1.,0.));
#438=DIRECTION('',(-0.998956999312817,0.,-0.0456608532983425));
#439=DIRECTION('',(-0.0456608532983425,0.,0.998956999312817));
#440=DIRECTION('',(-0.0456608532983425,0.,0.998956999312817));
#441=DIRECTION('',(0.,1.,0.));
#442=DIRECTION('',(-0.0456608532983425,0.,0.998956999312817));
#443=DIRECTION('',(-0.045660853298343,0.,0.998956999312817));
#444=DIRECTION('',(0.998956999312817,0.,0.045660853298343));
#445=DIRECTION('',(0.998956999312817,0.,0.045660853298343));
#446=DIRECTION('',(0.,1.,0.));
#447=DIRECTION('',(0.998956999312817,0.,0.045660853298343));
#448=DIRECTION('',(0.,1.,0.));
#449=DIRECTION('',(0.,0.,1.));
#450=DIRECTION('',(0.,-1.,0.));
#451=DIRECTION('',(0.,0.,-1.));
#452=DIRECTION('',(0.,-1.,0.));
#453=DIRECTION('',(0.,0.,-1.));
#454=DIRECTION('',(0.998956999312817,0.,0.0456608532983426));
#455=DIRECTION('',(0.0456608532983426,0.,-0.998956999312817));
#456=DIRECTION('',(0.0456608532983426,0.,-0.998956999312817));
#457=DIRECTION('',(0.0456608532983426,0.,-0.998956999312817));
#458=DIRECTION('',(0.998956999312817,0.,0.0456608532983425));
#459=DIRECTION('',(0.0456608532983425,0.,-0.998956999312817));
#460=DIRECTION('',(0.0456608532983425,0.,-0.998956999312817));
#461=DIRECTION('',(0.0456608532983425,0.,-0.998956999312817));
#462=DIRECTION('',(0.,0.,1.));
#463=DIRECTION('',(1.,0.,0.));
#464=DIRECTION('',(1.,0.,0.));
#465=DIRECTION('',(1.,0.,0.));
#466=DIRECTION('',(0.,-1.,0.));
#467=DIRECTION('',(1.,0.,0.));
#468=DIRECTION('',(0.,-1.,0.));
#469=DIRECTION('',(1.,0.,0.));
#470=CARTESIAN_POINT('',(0.,0.,0.));
#471=CARTESIAN_POINT('',(-0.0333192448488499,-0.04,0.0329388371757898));
#472=CARTESIAN_POINT('',(-0.0333192448488499,-0.035,0.0329388371757898));
#473=CARTESIAN_POINT('',(-0.0333192448488499,-0.035,0.0359388371757898));
#474=CARTESIAN_POINT('',(-0.0362585277357814,-0.035,0.0323383239697803));
#475=CARTESIAN_POINT('',(-0.0362585277357814,-0.04,0.0323383239697803));
#476=CARTESIAN_POINT('',(-0.0362585277357814,-0.04,0.0323383239697803));
#477=CARTESIAN_POINT('',(-0.0333192448488499,-0.04,0.0329388371757898));
#478=CARTESIAN_POINT('',(-0.0333192448488499,-0.04,0.0359388371757898));
#479=CARTESIAN_POINT('',(-0.0333192448488499,-0.04,0.0359388371757898));
#480=CARTESIAN_POINT('',(-0.0340786662736685,-0.04,0.0216687343132155));
#481=CARTESIAN_POINT('',(-0.0340786662736685,-0.035,0.0216687343132155));
#482=CARTESIAN_POINT('',(-0.0318988048115556,-0.035,0.0109991446566508));
#483=CARTESIAN_POINT('',(-0.0318988048115556,-0.04,0.0109991446566508));
#484=CARTESIAN_POINT('',(-0.0318988048115556,-0.04,0.0109991446566508));
#485=CARTESIAN_POINT('',(-0.0340786662736685,-0.04,0.0216687343132155));
#486=CARTESIAN_POINT('',(-0.0270000000000031,-0.04,0.012));
#487=CARTESIAN_POINT('',(-0.0270000000000031,-0.035,0.012));
#488=CARTESIAN_POINT('',(-0.0220254463576232,-0.035,0.0114961983931307));
#489=CARTESIAN_POINT('',(-0.0220254463576232,-0.04,0.0114961983931307));
#490=CARTESIAN_POINT('',(-0.0220254463576232,-0.04,0.0114961983931307));
#491=CARTESIAN_POINT('',(-0.0270000000000031,-0.04,0.012));
#492=CARTESIAN_POINT('',(-0.0209549436548242,-0.04,0.0220663773023994));
#493=CARTESIAN_POINT('',(-0.0209549436548242,-0.035,0.0220663773023994));
#494=CARTESIAN_POINT('',(-0.0198844409520253,-0.035,0.0326365562116682));
#495=CARTESIAN_POINT('',(-0.0198844409520253,-0.04,0.0326365562116682));
#496=CARTESIAN_POINT('',(-0.0198844409520253,-0.04,0.0326365562116682));
#497=CARTESIAN_POINT('',(-0.0209549436548242,-0.04,0.0220663773023994));
#498=CARTESIAN_POINT('',(-0.0228691731374533,-0.04,0.0329388371757898));
#499=CARTESIAN_POINT('',(-0.0228691731374533,-0.035,0.0329388371757898));
#500=CARTESIAN_POINT('',(-0.0228691731374533,-0.035,0.0359388371757898));
#501=CARTESIAN_POINT('',(-0.0228691731374533,-0.04,0.0359388371757898));
#502=CARTESIAN_POINT('',(-0.0228691731374533,-0.04,0.0359388371757898));
#503=CARTESIAN_POINT('',(-0.0228691731374533,-0.04,0.0329388371757898));
#504=CARTESIAN_POINT('',(-0.0272461888524224,-0.04,0.0338115082249932));
#505=CARTESIAN_POINT('',(-0.0272461888524224,-0.035,0.0338115082249932));
#506=CARTESIAN_POINT('',(-0.0264969711029378,-0.035,0.033845753864967));
#507=CARTESIAN_POINT('',(-0.0294938421008763,-0.035,0.0337087713050719));
#508=CARTESIAN_POINT('',(-0.0294938421008763,-0.04,0.0337087713050719));
#509=CARTESIAN_POINT('',(-0.0294938421008763,-0.04,0.0337087713050719));
#510=CARTESIAN_POINT('',(-0.0272461888524224,-0.04,0.0338115082249932));
#511=CARTESIAN_POINT('',(-0.0264969711029378,-0.04,0.033845753864967));
#512=CARTESIAN_POINT('',(-0.0264969711029378,-0.04,0.033845753864967));
#513=CARTESIAN_POINT('',(-0.0295303707835149,-0.04,0.0345079369045221));
#514=CARTESIAN_POINT('',(-0.0295303707835149,-0.035,0.0345079369045221));
#515=CARTESIAN_POINT('',(-0.0295668994661536,-0.035,0.0353071025039724));
#516=CARTESIAN_POINT('',(-0.0295668994661536,-0.04,0.0353071025039724));
#517=CARTESIAN_POINT('',(-0.0295668994661536,-0.04,0.0353071025039724));
#518=CARTESIAN_POINT('',(-0.0295303707835149,-0.04,0.0345079369045221));
#519=CARTESIAN_POINT('',(-0.0280684639671844,-0.04,0.0353755937839199));
#520=CARTESIAN_POINT('',(-0.0280684639671844,-0.035,0.0353755937839199));
#521=CARTESIAN_POINT('',(-0.0265700284682151,-0.035,0.0354440850638675));
#522=CARTESIAN_POINT('',(-0.0265700284682151,-0.04,0.0354440850638675));
#523=CARTESIAN_POINT('',(-0.0265700284682151,-0.04,0.0354440850638675));
#524=CARTESIAN_POINT('',(-0.0280684639671844,-0.04,0.0353755937839199));
#525=CARTESIAN_POINT('',(-0.0279227289920215,-0.04,0.015761790957415));
#526=CARTESIAN_POINT('',(-0.0279227289920215,-0.035,0.015761790957415));
#527=CARTESIAN_POINT('',(-0.0256750757435677,-0.035,0.0158645278773362));
#528=CARTESIAN_POINT('',(-0.0286719467415061,-0.035,0.0157275453174412));
#529=CARTESIAN_POINT('',(-0.0256750757435677,-0.04,0.0158645278773362));
#530=CARTESIAN_POINT('',(-0.0256750757435677,-0.04,0.0158645278773362));
#531=CARTESIAN_POINT('',(-0.0279227289920215,-0.04,0.015761790957415));
#532=CARTESIAN_POINT('',(-0.0286719467415061,-0.04,0.0157275453174412));
#533=CARTESIAN_POINT('',(-0.0286719467415061,-0.04,0.0157275453174412));
#534=CARTESIAN_POINT('',(-0.025638547060929,-0.04,0.015065362277886));
#535=CARTESIAN_POINT('',(-0.025638547060929,-0.035,0.015065362277886));
#536=CARTESIAN_POINT('',(-0.0256020183782903,-0.035,0.0142661966784357));
#537=CARTESIAN_POINT('',(-0.0256020183782903,-0.04,0.0142661966784357));
#538=CARTESIAN_POINT('',(-0.0256020183782903,-0.04,0.0142661966784357));
#539=CARTESIAN_POINT('',(-0.025638547060929,-0.04,0.015065362277886));
#540=CARTESIAN_POINT('',(-0.0271004538772595,-0.04,0.0141977053984882));
#541=CARTESIAN_POINT('',(-0.0271004538772595,-0.035,0.0141977053984882));
#542=CARTESIAN_POINT('',(-0.0285988893762287,-0.035,0.0141292141185407));
#543=CARTESIAN_POINT('',(-0.0285988893762287,-0.04,0.0141292141185407));
#544=CARTESIAN_POINT('',(-0.0285988893762287,-0.04,0.0141292141185407));
#545=CARTESIAN_POINT('',(-0.0271004538772595,-0.04,0.0141977053984882));
#546=CARTESIAN_POINT('',(-0.0270000000000031,-0.04,0.012));
#547=CARTESIAN_POINT('',(-0.0270000000000031,-0.04,0.012));
#548=CARTESIAN_POINT('',(-0.0270000000000031,-0.04,0.01025));
#549=CARTESIAN_POINT('',(-0.0270000000000031,-0.035,0.012));
#550=CARTESIAN_POINT('',(-0.0270000000000031,-0.035,0.01025));
#551=CARTESIAN_POINT('',(-0.0265334997855765,-0.04,0.0346449194644172));
#552=CARTESIAN_POINT('',(-0.0265334997855765,-0.035,0.0346449194644172));
#553=CARTESIAN_POINT('',(-0.0265334997855765,-0.04,0.0346449194644172));
#554=CARTESIAN_POINT('',(-0.0286354180588674,-0.04,0.014928379717991));
#555=CARTESIAN_POINT('',(-0.0286354180588674,-0.035,0.014928379717991));
#556=CARTESIAN_POINT('',(-0.0286354180588674,-0.04,0.014928379717991));
#557=CARTESIAN_POINT('',(-0.0280942089931516,-0.04,0.0359388371757898));
#558=CARTESIAN_POINT('',(-0.0280942089931516,-0.035,0.0359388371757898));
#559=CARTESIAN_POINT('',(-0.0280942089931516,-0.04,0.0359388371757898));
#560=CARTESIAN_POINT('',(-0.0280942089931516,-0.04,0.021669418587895));
#561=CARTESIAN_POINT('',(-0.0280942089931516,-0.035,0.021669418587895));
#562=MECHANICAL_DESIGN_GEOMETRIC_PRESENTATION_REPRESENTATION('',(#345),
#563);
#563=(
GEOMETRIC_REPRESENTATION_CONTEXT(3)
GLOBAL_UNCERTAINTY_ASSIGNED_CONTEXT((#564))
GLOBAL_UNIT_ASSIGNED_CONTEXT((#567,#566,#565))
REPRESENTATION_CONTEXT('Part 1','TOP_LEVEL_ASSEMBLY_PART')
);
#564=UNCERTAINTY_MEASURE_WITH_UNIT(LENGTH_MEASURE(1.E-8),#567,
'DISTANCE_ACCURACY_VALUE','Maximum Tolerance applied to model');
#565=(
NAMED_UNIT(*)
SI_UNIT($,.STERADIAN.)
SOLID_ANGLE_UNIT()
);
#566=(
NAMED_UNIT(*)
PLANE_ANGLE_UNIT()
SI_UNIT($,.RADIAN.)
);
#567=(
LENGTH_UNIT()
NAMED_UNIT(*)
SI_UNIT($,.METRE.)
);
#568=PRODUCT_DEFINITION_SHAPE('','',#569);
#569=PRODUCT_DEFINITION('','',#571,#570);
#570=PRODUCT_DEFINITION_CONTEXT('',#577,'design');
#571=PRODUCT_DEFINITION_FORMATION_WITH_SPECIFIED_SOURCE('','',#573,
 .NOT_KNOWN.);
#572=PRODUCT_RELATED_PRODUCT_CATEGORY('','',(#573));
#573=PRODUCT('Part 1','Part 1','Part 1',(#575));
#574=PRODUCT_CATEGORY('','');
#575=PRODUCT_CONTEXT('',#577,'mechanical');
#576=APPLICATION_PROTOCOL_DEFINITION('international standard',
'automotive_design',2010,#577);
#577=APPLICATION_CONTEXT(
'core data for automotive mechanical design processes');
ENDSEC;
END-ISO-10303-21;
