ISO-10303-21;
HEADER;
/* Generated by software containing ST-Developer
 * from STEP Tools, Inc. (www.steptools.com) 
 */
/* OPTION: using custom renumber hook */

FILE_DESCRIPTION(
/* description */ ('STEP AP214',
'CAx-IF Rec.Pracs.---User Defined Attributes---1.5---2016-08-15'),
/* implementation_level */ '2;1');

FILE_NAME(
/* name */ '6a7bfa8be5d6ddc0b13a3800',
/* time_stamp */ '2026-08-12T04:46:04Z',
/* author */ (''),
/* organization */ (''),
/* preprocessor_version */ 'ST-DEVELOPER v20',
/* originating_system */ 'ONSHAPE BY PTC INC, 1.219',
/* authorisation */ '  ');

FILE_SCHEMA (('AUTOMOTIVE_DESIGN {1 0 10303 214 3 1 1}'));
ENDSEC;

DATA;
#10=PROPERTY_DEFINITION_REPRESENTATION(#14,#12);
#11=PROPERTY_DEFINITION_REPRESENTATION(#15,#13);
#12=REPRESENTATION('',(#16),#1019);
#13=REPRESENTATION('',(#17),#1019);
#14=PROPERTY_DEFINITION('pmi validation property','',#1024);
#15=PROPERTY_DEFINITION('pmi validation property','',#1024);
#16=VALUE_REPRESENTATION_ITEM('number of annotations',COUNT_MEASURE(0.));
#17=VALUE_REPRESENTATION_ITEM('number of views',COUNT_MEASURE(0.));
#18=SHAPE_REPRESENTATION_RELATIONSHIP('','',#571,#19);
#19=ADVANCED_BREP_SHAPE_REPRESENTATION('',(#569),#1019);
#20=(
BOUNDED_SURFACE()
B_SPLINE_SURFACE(3,2,((#979,#980,#981),(#982,#983,#984),(#985,#986,#987),
(#988,#989,#990),(#991,#992,#993),(#994,#995,#996),(#997,#998,#999),(#1000,
#1001,#1002),(#1003,#1004,#1005)),.UNSPECIFIED.,.F.,.F.,.F.)
B_SPLINE_SURFACE_WITH_KNOTS((4,1,1,1,1,1,4),(3,3),(0.0104707491187223,0.012910672255313,
0.0141306338236084,0.0153505953919037,0.016570556960199,0.0177905185284944,
0.0202304416650851),(0.,1.),.UNSPECIFIED.)
GEOMETRIC_REPRESENTATION_ITEM()
RATIONAL_B_SPLINE_SURFACE(((1.,0.789055015417035,1.),(1.,0.820178534624966,
1.),(1.,0.860018599062319,1.),(1.,0.890999068101518,1.),(1.,0.899404499638801,
1.),(1.,0.891105015669482,1.),(1.,0.860190677211036,1.),(1.,0.820130943043593,
1.),(1.,0.789058342881789,1.)))
REPRESENTATION_ITEM('')
SURFACE()
);
#21=TOROIDAL_SURFACE('',#628,0.00225,0.00075);
#22=TOROIDAL_SURFACE('',#630,0.00375,0.00075);
#23=TOROIDAL_SURFACE('',#631,0.00375,0.00075);
#24=TOROIDAL_SURFACE('',#633,0.00225,0.00075);
#25=B_SPLINE_CURVE_WITH_KNOTS('',3,(#881,#882,#883,#884,#885,#886,#887,
#888,#889,#890,#891),.UNSPECIFIED.,.T.,.F.,(1,1,1,1,1,1,1,1,1,1,1,1,1,1,
1),(-0.00704951618721531,-0.00469967745814354,-0.00234983872907177,0.,0.00234983872907177,
0.00469967745814354,0.00704951618721532,0.00939935491628709,0.0117491936453589,
0.0140990323744306,0.0164488711035024,0.0187987098325742,0.0211485485616459,
0.0234983872907177,0.0258482260197895),.UNSPECIFIED.);
#26=B_SPLINE_CURVE_WITH_KNOTS('',3,(#916,#917,#918,#919,#920,#921,#922,
#923,#924),.UNSPECIFIED.,.F.,.F.,(4,1,1,1,1,1,4),(0.,0.0024254023917149,
0.00363810358757235,0.0048508047834298,0.00606350597928725,0.0072762071751447,
0.0097016095668596),.UNSPECIFIED.);
#27=B_SPLINE_CURVE_WITH_KNOTS('',3,(#938,#939,#940,#941),.UNSPECIFIED.,
 .F.,.F.,(4,4),(0.,0.000605457587734249),.UNSPECIFIED.);
#28=B_SPLINE_CURVE_WITH_KNOTS('',3,(#945,#946,#947,#948),.UNSPECIFIED.,
 .F.,.F.,(4,4),(0.,0.000605457587734249),.UNSPECIFIED.);
#29=B_SPLINE_CURVE_WITH_KNOTS('',3,(#950,#951,#952,#953,#954,#955,#956),
 .UNSPECIFIED.,.F.,.F.,(4,1,1,1,4),(0.,0.00145694962864008,0.00291389925728016,
0.00437084888592024,0.00582779851456032),.UNSPECIFIED.);
#30=B_SPLINE_CURVE_WITH_KNOTS('',3,(#1006,#1007,#1008,#1009),
 .UNSPECIFIED.,.F.,.F.,(4,4),(0.,0.000876415037479583),.UNSPECIFIED.);
#31=B_SPLINE_CURVE_WITH_KNOTS('',3,(#1010,#1011,#1012,#1013),
 .UNSPECIFIED.,.F.,.F.,(4,4),(0.,0.000876416338448037),.UNSPECIFIED.);
#32=CYLINDRICAL_SURFACE('',#590,0.0016);
#33=CYLINDRICAL_SURFACE('',#592,0.0075);
#34=CYLINDRICAL_SURFACE('',#594,0.0016);
#35=CYLINDRICAL_SURFACE('',#598,0.0594672023809467);
#36=CYLINDRICAL_SURFACE('',#601,0.00135);
#37=CYLINDRICAL_SURFACE('',#604,0.00135);
#38=CYLINDRICAL_SURFACE('',#607,0.0602691365258185);
#39=CYLINDRICAL_SURFACE('',#609,0.0652691365258184);
#40=CYLINDRICAL_SURFACE('',#611,0.0652691365258186);
#41=CYLINDRICAL_SURFACE('',#613,0.0652691365258189);
#42=CYLINDRICAL_SURFACE('',#617,0.003);
#43=CYLINDRICAL_SURFACE('',#618,0.003);
#44=CYLINDRICAL_SURFACE('',#621,0.003);
#45=CYLINDRICAL_SURFACE('',#634,0.00075);
#46=CYLINDRICAL_SURFACE('',#635,0.005);
#47=LINE('',#804,#77);
#48=LINE('',#807,#78);
#49=LINE('',#809,#79);
#50=LINE('',#811,#80);
#51=LINE('',#813,#81);
#52=LINE('',#816,#82);
#53=LINE('',#818,#83);
#54=LINE('',#820,#84);
#55=LINE('',#831,#85);
#56=LINE('',#833,#86);
#57=LINE('',#839,#87);
#58=LINE('',#841,#88);
#59=LINE('',#845,#89);
#60=LINE('',#851,#90);
#61=LINE('',#853,#91);
#62=LINE('',#855,#92);
#63=LINE('',#857,#93);
#64=LINE('',#859,#94);
#65=LINE('',#861,#95);
#66=LINE('',#863,#96);
#67=LINE('',#865,#97);
#68=LINE('',#877,#98);
#69=LINE('',#879,#99);
#70=LINE('',#893,#100);
#71=LINE('',#897,#101);
#72=LINE('',#909,#102);
#73=LINE('',#915,#103);
#74=LINE('',#927,#104);
#75=LINE('',#931,#105);
#76=LINE('',#943,#106);
#77=VECTOR('',#644,1.);
#78=VECTOR('',#645,1.);
#79=VECTOR('',#646,1.);
#80=VECTOR('',#647,1.);
#81=VECTOR('',#650,1.);
#82=VECTOR('',#651,1.);
#83=VECTOR('',#652,1.);
#84=VECTOR('',#653,1.);
#85=VECTOR('',#666,1.);
#86=VECTOR('',#667,1.);
#87=VECTOR('',#672,1.);
#88=VECTOR('',#673,1.);
#89=VECTOR('',#676,1.);
#90=VECTOR('',#683,1.);
#91=VECTOR('',#684,1.);
#92=VECTOR('',#685,1.);
#93=VECTOR('',#688,1.);
#94=VECTOR('',#689,1.);
#95=VECTOR('',#692,1.);
#96=VECTOR('',#693,1.);
#97=VECTOR('',#694,1.);
#98=VECTOR('',#711,1.);
#99=VECTOR('',#712,1.);
#100=VECTOR('',#715,1.);
#101=VECTOR('',#720,1.);
#102=VECTOR('',#735,1.);
#103=VECTOR('',#742,1.);
#104=VECTOR('',#743,1.);
#105=VECTOR('',#748,1.);
#106=VECTOR('',#757,1.);
#107=ORIENTED_EDGE('',*,*,#245,.T.);
#108=ORIENTED_EDGE('',*,*,#246,.F.);
#109=ORIENTED_EDGE('',*,*,#247,.T.);
#110=ORIENTED_EDGE('',*,*,#248,.T.);
#111=ORIENTED_EDGE('',*,*,#249,.F.);
#112=ORIENTED_EDGE('',*,*,#250,.F.);
#113=ORIENTED_EDGE('',*,*,#251,.T.);
#114=ORIENTED_EDGE('',*,*,#252,.T.);
#115=ORIENTED_EDGE('',*,*,#253,.T.);
#116=ORIENTED_EDGE('',*,*,#254,.F.);
#117=ORIENTED_EDGE('',*,*,#255,.F.);
#118=ORIENTED_EDGE('',*,*,#252,.F.);
#119=ORIENTED_EDGE('',*,*,#256,.T.);
#120=ORIENTED_EDGE('',*,*,#257,.T.);
#121=ORIENTED_EDGE('',*,*,#258,.F.);
#122=ORIENTED_EDGE('',*,*,#248,.F.);
#123=ORIENTED_EDGE('',*,*,#259,.F.);
#124=ORIENTED_EDGE('',*,*,#260,.F.);
#125=ORIENTED_EDGE('',*,*,#261,.T.);
#126=ORIENTED_EDGE('',*,*,#262,.T.);
#127=ORIENTED_EDGE('',*,*,#263,.F.);
#128=ORIENTED_EDGE('',*,*,#264,.T.);
#129=ORIENTED_EDGE('',*,*,#265,.F.);
#130=ORIENTED_EDGE('',*,*,#266,.T.);
#131=ORIENTED_EDGE('',*,*,#267,.F.);
#132=ORIENTED_EDGE('',*,*,#268,.T.);
#133=ORIENTED_EDGE('',*,*,#269,.F.);
#134=ORIENTED_EDGE('',*,*,#270,.T.);
#135=ORIENTED_EDGE('',*,*,#271,.T.);
#136=ORIENTED_EDGE('',*,*,#263,.T.);
#137=ORIENTED_EDGE('',*,*,#272,.F.);
#138=ORIENTED_EDGE('',*,*,#273,.T.);
#139=ORIENTED_EDGE('',*,*,#259,.T.);
#140=ORIENTED_EDGE('',*,*,#247,.F.);
#141=ORIENTED_EDGE('',*,*,#274,.T.);
#142=ORIENTED_EDGE('',*,*,#275,.T.);
#143=ORIENTED_EDGE('',*,*,#276,.F.);
#144=ORIENTED_EDGE('',*,*,#266,.F.);
#145=ORIENTED_EDGE('',*,*,#277,.F.);
#146=ORIENTED_EDGE('',*,*,#254,.T.);
#147=ORIENTED_EDGE('',*,*,#278,.F.);
#148=ORIENTED_EDGE('',*,*,#253,.F.);
#149=ORIENTED_EDGE('',*,*,#267,.T.);
#150=ORIENTED_EDGE('',*,*,#276,.T.);
#151=ORIENTED_EDGE('',*,*,#279,.F.);
#152=ORIENTED_EDGE('',*,*,#255,.T.);
#153=ORIENTED_EDGE('',*,*,#280,.T.);
#154=ORIENTED_EDGE('',*,*,#273,.F.);
#155=ORIENTED_EDGE('',*,*,#281,.T.);
#156=ORIENTED_EDGE('',*,*,#282,.T.);
#157=ORIENTED_EDGE('',*,*,#260,.T.);
#158=ORIENTED_EDGE('',*,*,#283,.T.);
#159=ORIENTED_EDGE('',*,*,#284,.F.);
#160=ORIENTED_EDGE('',*,*,#285,.T.);
#161=ORIENTED_EDGE('',*,*,#274,.F.);
#162=ORIENTED_EDGE('',*,*,#265,.T.);
#163=ORIENTED_EDGE('',*,*,#286,.F.);
#164=ORIENTED_EDGE('',*,*,#284,.T.);
#165=ORIENTED_EDGE('',*,*,#264,.F.);
#166=ORIENTED_EDGE('',*,*,#271,.F.);
#167=ORIENTED_EDGE('',*,*,#287,.F.);
#168=ORIENTED_EDGE('',*,*,#288,.T.);
#169=ORIENTED_EDGE('',*,*,#289,.F.);
#170=ORIENTED_EDGE('',*,*,#290,.T.);
#171=ORIENTED_EDGE('',*,*,#291,.F.);
#172=ORIENTED_EDGE('',*,*,#292,.F.);
#173=ORIENTED_EDGE('',*,*,#249,.T.);
#174=ORIENTED_EDGE('',*,*,#258,.T.);
#175=ORIENTED_EDGE('',*,*,#293,.T.);
#176=ORIENTED_EDGE('',*,*,#291,.T.);
#177=ORIENTED_EDGE('',*,*,#257,.F.);
#178=ORIENTED_EDGE('',*,*,#294,.T.);
#179=ORIENTED_EDGE('',*,*,#295,.T.);
#180=ORIENTED_EDGE('',*,*,#296,.T.);
#181=ORIENTED_EDGE('',*,*,#297,.T.);
#182=ORIENTED_EDGE('',*,*,#269,.T.);
#183=ORIENTED_EDGE('',*,*,#262,.F.);
#184=ORIENTED_EDGE('',*,*,#298,.F.);
#185=ORIENTED_EDGE('',*,*,#299,.T.);
#186=ORIENTED_EDGE('',*,*,#298,.T.);
#187=ORIENTED_EDGE('',*,*,#261,.F.);
#188=ORIENTED_EDGE('',*,*,#282,.F.);
#189=ORIENTED_EDGE('',*,*,#300,.T.);
#190=ORIENTED_EDGE('',*,*,#301,.T.);
#191=ORIENTED_EDGE('',*,*,#302,.T.);
#192=ORIENTED_EDGE('',*,*,#303,.T.);
#193=ORIENTED_EDGE('',*,*,#300,.F.);
#194=ORIENTED_EDGE('',*,*,#304,.T.);
#195=ORIENTED_EDGE('',*,*,#305,.T.);
#196=ORIENTED_EDGE('',*,*,#245,.F.);
#197=ORIENTED_EDGE('',*,*,#287,.T.);
#198=ORIENTED_EDGE('',*,*,#305,.F.);
#199=ORIENTED_EDGE('',*,*,#306,.T.);
#200=ORIENTED_EDGE('',*,*,#283,.F.);
#201=ORIENTED_EDGE('',*,*,#289,.T.);
#202=ORIENTED_EDGE('',*,*,#306,.F.);
#203=ORIENTED_EDGE('',*,*,#307,.T.);
#204=ORIENTED_EDGE('',*,*,#290,.F.);
#205=ORIENTED_EDGE('',*,*,#308,.T.);
#206=ORIENTED_EDGE('',*,*,#288,.F.);
#207=ORIENTED_EDGE('',*,*,#307,.F.);
#208=ORIENTED_EDGE('',*,*,#309,.F.);
#209=ORIENTED_EDGE('',*,*,#268,.F.);
#210=ORIENTED_EDGE('',*,*,#309,.T.);
#211=ORIENTED_EDGE('',*,*,#280,.F.);
#212=ORIENTED_EDGE('',*,*,#310,.F.);
#213=ORIENTED_EDGE('',*,*,#310,.T.);
#214=ORIENTED_EDGE('',*,*,#308,.F.);
#215=ORIENTED_EDGE('',*,*,#304,.F.);
#216=ORIENTED_EDGE('',*,*,#303,.F.);
#217=ORIENTED_EDGE('',*,*,#311,.F.);
#218=ORIENTED_EDGE('',*,*,#295,.F.);
#219=ORIENTED_EDGE('',*,*,#312,.F.);
#220=ORIENTED_EDGE('',*,*,#301,.F.);
#221=ORIENTED_EDGE('',*,*,#311,.T.);
#222=ORIENTED_EDGE('',*,*,#302,.F.);
#223=ORIENTED_EDGE('',*,*,#312,.T.);
#224=ORIENTED_EDGE('',*,*,#296,.F.);
#225=ORIENTED_EDGE('',*,*,#313,.F.);
#226=ORIENTED_EDGE('',*,*,#294,.F.);
#227=ORIENTED_EDGE('',*,*,#256,.F.);
#228=ORIENTED_EDGE('',*,*,#251,.F.);
#229=ORIENTED_EDGE('',*,*,#277,.T.);
#230=ORIENTED_EDGE('',*,*,#279,.T.);
#231=ORIENTED_EDGE('',*,*,#293,.F.);
#232=ORIENTED_EDGE('',*,*,#313,.T.);
#233=ORIENTED_EDGE('',*,*,#250,.T.);
#234=ORIENTED_EDGE('',*,*,#278,.T.);
#235=ORIENTED_EDGE('',*,*,#275,.F.);
#236=ORIENTED_EDGE('',*,*,#285,.F.);
#237=ORIENTED_EDGE('',*,*,#286,.T.);
#238=ORIENTED_EDGE('',*,*,#270,.F.);
#239=ORIENTED_EDGE('',*,*,#297,.F.);
#240=ORIENTED_EDGE('',*,*,#299,.F.);
#241=ORIENTED_EDGE('',*,*,#281,.F.);
#242=ORIENTED_EDGE('',*,*,#272,.T.);
#243=ORIENTED_EDGE('',*,*,#246,.T.);
#244=ORIENTED_EDGE('',*,*,#292,.T.);
#245=EDGE_CURVE('',#314,#314,#366,.T.);
#246=EDGE_CURVE('',#315,#316,#47,.T.);
#247=EDGE_CURVE('',#315,#317,#48,.T.);
#248=EDGE_CURVE('',#317,#318,#49,.T.);
#249=EDGE_CURVE('',#316,#318,#50,.T.);
#250=EDGE_CURVE('',#319,#320,#51,.T.);
#251=EDGE_CURVE('',#319,#321,#52,.T.);
#252=EDGE_CURVE('',#321,#322,#53,.T.);
#253=EDGE_CURVE('',#322,#320,#54,.T.);
#254=EDGE_CURVE('',#323,#323,#367,.T.);
#255=EDGE_CURVE('',#324,#324,#368,.T.);
#256=EDGE_CURVE('',#321,#325,#369,.T.);
#257=EDGE_CURVE('',#325,#326,#370,.T.);
#258=EDGE_CURVE('',#318,#326,#371,.T.);
#259=EDGE_CURVE('',#327,#317,#55,.T.);
#260=EDGE_CURVE('',#328,#327,#56,.T.);
#261=EDGE_CURVE('',#328,#329,#372,.T.);
#262=EDGE_CURVE('',#329,#330,#373,.T.);
#263=EDGE_CURVE('',#331,#330,#57,.T.);
#264=EDGE_CURVE('',#331,#332,#58,.T.);
#265=EDGE_CURVE('',#333,#332,#374,.T.);
#266=EDGE_CURVE('',#333,#334,#59,.T.);
#267=EDGE_CURVE('',#322,#334,#375,.T.);
#268=EDGE_CURVE('',#335,#335,#376,.T.);
#269=EDGE_CURVE('',#336,#330,#60,.T.);
#270=EDGE_CURVE('',#336,#337,#61,.T.);
#271=EDGE_CURVE('',#337,#331,#62,.T.);
#272=EDGE_CURVE('',#338,#315,#63,.T.);
#273=EDGE_CURVE('',#338,#327,#64,.T.);
#274=EDGE_CURVE('',#333,#339,#65,.T.);
#275=EDGE_CURVE('',#339,#340,#66,.T.);
#276=EDGE_CURVE('',#334,#340,#67,.T.);
#277=EDGE_CURVE('',#341,#341,#377,.T.);
#278=EDGE_CURVE('',#320,#340,#378,.T.);
#279=EDGE_CURVE('',#342,#342,#379,.T.);
#280=EDGE_CURVE('',#343,#343,#380,.T.);
#281=EDGE_CURVE('',#338,#344,#68,.T.);
#282=EDGE_CURVE('',#344,#328,#69,.T.);
#283=EDGE_CURVE('',#345,#345,#25,.T.);
#284=EDGE_CURVE('',#346,#332,#70,.T.);
#285=EDGE_CURVE('',#346,#339,#381,.F.);
#286=EDGE_CURVE('',#346,#337,#71,.T.);
#287=EDGE_CURVE('',#347,#347,#382,.T.);
#288=EDGE_CURVE('',#348,#348,#383,.T.);
#289=EDGE_CURVE('',#349,#349,#384,.T.);
#290=EDGE_CURVE('',#350,#350,#385,.T.);
#291=EDGE_CURVE('',#351,#326,#72,.T.);
#292=EDGE_CURVE('',#316,#351,#386,.T.);
#293=EDGE_CURVE('',#352,#351,#387,.T.);
#294=EDGE_CURVE('',#325,#352,#73,.F.);
#295=EDGE_CURVE('',#353,#354,#26,.T.);
#296=EDGE_CURVE('',#354,#353,#74,.T.);
#297=EDGE_CURVE('',#355,#336,#388,.T.);
#298=EDGE_CURVE('',#355,#329,#75,.T.);
#299=EDGE_CURVE('',#344,#355,#389,.T.);
#300=EDGE_CURVE('',#356,#357,#390,.T.);
#301=EDGE_CURVE('',#357,#358,#27,.T.);
#302=EDGE_CURVE('',#358,#359,#76,.F.);
#303=EDGE_CURVE('',#359,#356,#28,.T.);
#304=EDGE_CURVE('',#356,#357,#29,.T.);
#305=EDGE_CURVE('',#360,#360,#391,.T.);
#306=EDGE_CURVE('',#361,#361,#392,.T.);
#307=EDGE_CURVE('',#362,#362,#393,.T.);
#308=EDGE_CURVE('',#363,#363,#394,.T.);
#309=EDGE_CURVE('',#364,#364,#395,.F.);
#310=EDGE_CURVE('',#365,#365,#396,.F.);
#311=EDGE_CURVE('',#354,#359,#30,.F.);
#312=EDGE_CURVE('',#358,#353,#31,.T.);
#313=EDGE_CURVE('',#352,#319,#397,.F.);
#314=VERTEX_POINT('',#803);
#315=VERTEX_POINT('',#805);
#316=VERTEX_POINT('',#806);
#317=VERTEX_POINT('',#808);
#318=VERTEX_POINT('',#810);
#319=VERTEX_POINT('',#814);
#320=VERTEX_POINT('',#815);
#321=VERTEX_POINT('',#817);
#322=VERTEX_POINT('',#819);
#323=VERTEX_POINT('',#823);
#324=VERTEX_POINT('',#825);
#325=VERTEX_POINT('',#827);
#326=VERTEX_POINT('',#829);
#327=VERTEX_POINT('',#832);
#328=VERTEX_POINT('',#834);
#329=VERTEX_POINT('',#836);
#330=VERTEX_POINT('',#838);
#331=VERTEX_POINT('',#840);
#332=VERTEX_POINT('',#842);
#333=VERTEX_POINT('',#844);
#334=VERTEX_POINT('',#846);
#335=VERTEX_POINT('',#850);
#336=VERTEX_POINT('',#852);
#337=VERTEX_POINT('',#854);
#338=VERTEX_POINT('',#858);
#339=VERTEX_POINT('',#862);
#340=VERTEX_POINT('',#864);
#341=VERTEX_POINT('',#868);
#342=VERTEX_POINT('',#873);
#343=VERTEX_POINT('',#876);
#344=VERTEX_POINT('',#878);
#345=VERTEX_POINT('',#892);
#346=VERTEX_POINT('',#894);
#347=VERTEX_POINT('',#900);
#348=VERTEX_POINT('',#902);
#349=VERTEX_POINT('',#905);
#350=VERTEX_POINT('',#907);
#351=VERTEX_POINT('',#910);
#352=VERTEX_POINT('',#914);
#353=VERTEX_POINT('',#925);
#354=VERTEX_POINT('',#926);
#355=VERTEX_POINT('',#930);
#356=VERTEX_POINT('',#936);
#357=VERTEX_POINT('',#937);
#358=VERTEX_POINT('',#942);
#359=VERTEX_POINT('',#944);
#360=VERTEX_POINT('',#959);
#361=VERTEX_POINT('',#963);
#362=VERTEX_POINT('',#967);
#363=VERTEX_POINT('',#970);
#364=VERTEX_POINT('',#973);
#365=VERTEX_POINT('',#977);
#366=CIRCLE('',#574,0.003);
#367=CIRCLE('',#577,0.0016);
#368=CIRCLE('',#578,0.0016);
#369=CIRCLE('',#579,0.005);
#370=CIRCLE('',#580,0.0652691365258184);
#371=CIRCLE('',#581,0.0602691365258185);
#372=CIRCLE('',#582,0.0652691365258189);
#373=CIRCLE('',#583,0.0652691365258186);
#374=CIRCLE('',#584,0.0594672023809467);
#375=CIRCLE('',#585,0.0075);
#376=CIRCLE('',#587,0.00375);
#377=CIRCLE('',#591,0.0016);
#378=CIRCLE('',#593,0.0075);
#379=CIRCLE('',#595,0.0016);
#380=CIRCLE('',#597,0.00375);
#381=CIRCLE('',#599,0.0594672023809467);
#382=CIRCLE('',#602,0.00135);
#383=CIRCLE('',#603,0.00135);
#384=CIRCLE('',#605,0.00135);
#385=CIRCLE('',#606,0.00135);
#386=CIRCLE('',#608,0.0602691365258185);
#387=CIRCLE('',#610,0.0652691365258184);
#388=CIRCLE('',#612,0.0652691365258186);
#389=CIRCLE('',#614,0.0652691365258189);
#390=CIRCLE('',#616,0.003);
#391=CIRCLE('',#619,0.003);
#392=CIRCLE('',#622,0.003);
#393=CIRCLE('',#625,0.00225);
#394=CIRCLE('',#627,0.00225);
#395=CIRCLE('',#629,0.003);
#396=CIRCLE('',#632,0.003);
#397=CIRCLE('',#636,0.005);
#398=EDGE_LOOP('',(#107));
#399=EDGE_LOOP('',(#108,#109,#110,#111));
#400=EDGE_LOOP('',(#112,#113,#114,#115));
#401=EDGE_LOOP('',(#116));
#402=EDGE_LOOP('',(#117));
#403=EDGE_LOOP('',(#118,#119,#120,#121,#122,#123,#124,#125,#126,#127,#128,
#129,#130,#131));
#404=EDGE_LOOP('',(#132));
#405=EDGE_LOOP('',(#133,#134,#135,#136));
#406=EDGE_LOOP('',(#137,#138,#139,#140));
#407=EDGE_LOOP('',(#141,#142,#143,#144));
#408=EDGE_LOOP('',(#145));
#409=EDGE_LOOP('',(#146));
#410=EDGE_LOOP('',(#147,#148,#149,#150));
#411=EDGE_LOOP('',(#151));
#412=EDGE_LOOP('',(#152));
#413=EDGE_LOOP('',(#153));
#414=EDGE_LOOP('',(#154,#155,#156,#157));
#415=EDGE_LOOP('',(#158));
#416=EDGE_LOOP('',(#159,#160,#161,#162));
#417=EDGE_LOOP('',(#163,#164,#165,#166));
#418=EDGE_LOOP('',(#167));
#419=EDGE_LOOP('',(#168));
#420=EDGE_LOOP('',(#169));
#421=EDGE_LOOP('',(#170));
#422=EDGE_LOOP('',(#171,#172,#173,#174));
#423=EDGE_LOOP('',(#175,#176,#177,#178));
#424=EDGE_LOOP('',(#179,#180));
#425=EDGE_LOOP('',(#181,#182,#183,#184));
#426=EDGE_LOOP('',(#185,#186,#187,#188));
#427=EDGE_LOOP('',(#189,#190,#191,#192));
#428=EDGE_LOOP('',(#193,#194));
#429=EDGE_LOOP('',(#195));
#430=EDGE_LOOP('',(#196));
#431=EDGE_LOOP('',(#197));
#432=EDGE_LOOP('',(#198));
#433=EDGE_LOOP('',(#199));
#434=EDGE_LOOP('',(#200));
#435=EDGE_LOOP('',(#201));
#436=EDGE_LOOP('',(#202));
#437=EDGE_LOOP('',(#203));
#438=EDGE_LOOP('',(#204));
#439=EDGE_LOOP('',(#205));
#440=EDGE_LOOP('',(#206));
#441=EDGE_LOOP('',(#207));
#442=EDGE_LOOP('',(#208));
#443=EDGE_LOOP('',(#209));
#444=EDGE_LOOP('',(#210));
#445=EDGE_LOOP('',(#211));
#446=EDGE_LOOP('',(#212));
#447=EDGE_LOOP('',(#213));
#448=EDGE_LOOP('',(#214));
#449=EDGE_LOOP('',(#215,#216,#217,#218,#219,#220));
#450=EDGE_LOOP('',(#221,#222,#223,#224));
#451=EDGE_LOOP('',(#225,#226,#227,#228));
#452=EDGE_LOOP('',(#229));
#453=EDGE_LOOP('',(#230));
#454=EDGE_LOOP('',(#231,#232,#233,#234,#235,#236,#237,#238,#239,#240,#241,
#242,#243,#244));
#455=FACE_BOUND('',#398,.T.);
#456=FACE_BOUND('',#399,.T.);
#457=FACE_BOUND('',#400,.T.);
#458=FACE_BOUND('',#401,.T.);
#459=FACE_BOUND('',#402,.T.);
#460=FACE_BOUND('',#403,.T.);
#461=FACE_BOUND('',#404,.T.);
#462=FACE_BOUND('',#405,.T.);
#463=FACE_BOUND('',#406,.T.);
#464=FACE_BOUND('',#407,.T.);
#465=FACE_BOUND('',#408,.T.);
#466=FACE_BOUND('',#409,.T.);
#467=FACE_BOUND('',#410,.T.);
#468=FACE_BOUND('',#411,.T.);
#469=FACE_BOUND('',#412,.T.);
#470=FACE_BOUND('',#413,.T.);
#471=FACE_BOUND('',#414,.T.);
#472=FACE_BOUND('',#415,.T.);
#473=FACE_BOUND('',#416,.T.);
#474=FACE_BOUND('',#417,.T.);
#475=FACE_BOUND('',#418,.T.);
#476=FACE_BOUND('',#419,.T.);
#477=FACE_BOUND('',#420,.T.);
#478=FACE_BOUND('',#421,.T.);
#479=FACE_BOUND('',#422,.T.);
#480=FACE_BOUND('',#423,.T.);
#481=FACE_BOUND('',#424,.T.);
#482=FACE_BOUND('',#425,.T.);
#483=FACE_BOUND('',#426,.T.);
#484=FACE_BOUND('',#427,.T.);
#485=FACE_BOUND('',#428,.T.);
#486=FACE_BOUND('',#429,.T.);
#487=FACE_BOUND('',#430,.T.);
#488=FACE_BOUND('',#431,.T.);
#489=FACE_BOUND('',#432,.T.);
#490=FACE_BOUND('',#433,.T.);
#491=FACE_BOUND('',#434,.T.);
#492=FACE_BOUND('',#435,.T.);
#493=FACE_BOUND('',#436,.T.);
#494=FACE_BOUND('',#437,.T.);
#495=FACE_BOUND('',#438,.T.);
#496=FACE_BOUND('',#439,.T.);
#497=FACE_BOUND('',#440,.T.);
#498=FACE_BOUND('',#441,.T.);
#499=FACE_BOUND('',#442,.T.);
#500=FACE_BOUND('',#443,.T.);
#501=FACE_BOUND('',#444,.T.);
#502=FACE_BOUND('',#445,.T.);
#503=FACE_BOUND('',#446,.T.);
#504=FACE_BOUND('',#447,.T.);
#505=FACE_BOUND('',#448,.T.);
#506=FACE_BOUND('',#449,.T.);
#507=FACE_BOUND('',#450,.T.);
#508=FACE_BOUND('',#451,.T.);
#509=FACE_BOUND('',#452,.T.);
#510=FACE_BOUND('',#453,.T.);
#511=FACE_BOUND('',#454,.T.);
#512=PLANE('',#573);
#513=PLANE('',#575);
#514=PLANE('',#576);
#515=PLANE('',#586);
#516=PLANE('',#588);
#517=PLANE('',#589);
#518=PLANE('',#596);
#519=PLANE('',#600);
#520=PLANE('',#615);
#521=PLANE('',#620);
#522=PLANE('',#623);
#523=PLANE('',#624);
#524=PLANE('',#626);
#525=PLANE('',#637);
#526=ADVANCED_FACE('',(#455,#456),#512,.F.);
#527=ADVANCED_FACE('',(#457),#513,.T.);
#528=ADVANCED_FACE('',(#458,#459,#460),#514,.T.);
#529=ADVANCED_FACE('',(#461,#462),#515,.F.);
#530=ADVANCED_FACE('',(#463),#516,.T.);
#531=ADVANCED_FACE('',(#464),#517,.F.);
#532=ADVANCED_FACE('',(#465,#466),#32,.F.);
#533=ADVANCED_FACE('',(#467),#33,.T.);
#534=ADVANCED_FACE('',(#468,#469),#34,.F.);
#535=ADVANCED_FACE('',(#470,#471),#518,.F.);
#536=ADVANCED_FACE('',(#472,#473),#35,.F.);
#537=ADVANCED_FACE('',(#474),#519,.T.);
#538=ADVANCED_FACE('',(#475,#476),#36,.F.);
#539=ADVANCED_FACE('',(#477,#478),#37,.F.);
#540=ADVANCED_FACE('',(#479),#38,.F.);
#541=ADVANCED_FACE('',(#480,#481),#39,.T.);
#542=ADVANCED_FACE('',(#482),#40,.T.);
#543=ADVANCED_FACE('',(#483),#41,.T.);
#544=ADVANCED_FACE('',(#484),#520,.T.);
#545=ADVANCED_FACE('',(#485),#42,.F.);
#546=ADVANCED_FACE('',(#486,#487),#43,.F.);
#547=ADVANCED_FACE('',(#488,#489),#521,.F.);
#548=ADVANCED_FACE('',(#490,#491),#44,.F.);
#549=ADVANCED_FACE('',(#492,#493),#522,.F.);
#550=ADVANCED_FACE('',(#494,#495),#523,.T.);
#551=ADVANCED_FACE('',(#496,#497),#524,.T.);
#552=ADVANCED_FACE('',(#498,#499),#21,.T.);
#553=ADVANCED_FACE('',(#500,#501),#22,.F.);
#554=ADVANCED_FACE('',(#502,#503),#23,.F.);
#555=ADVANCED_FACE('',(#504,#505),#24,.T.);
#556=ADVANCED_FACE('',(#506),#20,.T.);
#557=ADVANCED_FACE('',(#507),#45,.T.);
#558=ADVANCED_FACE('',(#508),#46,.T.);
#559=ADVANCED_FACE('',(#509,#510,#511),#525,.F.);
#560=CLOSED_SHELL('',(#526,#527,#528,#529,#530,#531,#532,#533,#534,#535,
#536,#537,#538,#539,#540,#541,#542,#543,#544,#545,#546,#547,#548,#549,#550,
#551,#552,#553,#554,#555,#556,#557,#558,#559));
#561=STYLED_ITEM('',(#562),#569);
#562=PRESENTATION_STYLE_ASSIGNMENT((#563));
#563=SURFACE_STYLE_USAGE(.BOTH.,#564);
#564=SURFACE_SIDE_STYLE('',(#565));
#565=SURFACE_STYLE_FILL_AREA(#566);
#566=FILL_AREA_STYLE('',(#567));
#567=FILL_AREA_STYLE_COLOUR('',#568);
#568=COLOUR_RGB('',0.615686274509804,0.811764705882353,0.929411764705882);
#569=MANIFOLD_SOLID_BREP('Mount',#560);
#570=SHAPE_DEFINITION_REPRESENTATION(#1024,#571);
#571=SHAPE_REPRESENTATION('Mount',(#572),#1019);
#572=AXIS2_PLACEMENT_3D('',#800,#638,#639);
#573=AXIS2_PLACEMENT_3D('',#801,#640,#641);
#574=AXIS2_PLACEMENT_3D('',#802,#642,#643);
#575=AXIS2_PLACEMENT_3D('',#812,#648,#649);
#576=AXIS2_PLACEMENT_3D('',#821,#654,#655);
#577=AXIS2_PLACEMENT_3D('',#822,#656,#657);
#578=AXIS2_PLACEMENT_3D('',#824,#658,#659);
#579=AXIS2_PLACEMENT_3D('',#826,#660,#661);
#580=AXIS2_PLACEMENT_3D('',#828,#662,#663);
#581=AXIS2_PLACEMENT_3D('',#830,#664,#665);
#582=AXIS2_PLACEMENT_3D('',#835,#668,#669);
#583=AXIS2_PLACEMENT_3D('',#837,#670,#671);
#584=AXIS2_PLACEMENT_3D('',#843,#674,#675);
#585=AXIS2_PLACEMENT_3D('',#847,#677,#678);
#586=AXIS2_PLACEMENT_3D('',#848,#679,#680);
#587=AXIS2_PLACEMENT_3D('',#849,#681,#682);
#588=AXIS2_PLACEMENT_3D('',#856,#686,#687);
#589=AXIS2_PLACEMENT_3D('',#860,#690,#691);
#590=AXIS2_PLACEMENT_3D('',#866,#695,#696);
#591=AXIS2_PLACEMENT_3D('',#867,#697,#698);
#592=AXIS2_PLACEMENT_3D('',#869,#699,#700);
#593=AXIS2_PLACEMENT_3D('',#870,#701,#702);
#594=AXIS2_PLACEMENT_3D('',#871,#703,#704);
#595=AXIS2_PLACEMENT_3D('',#872,#705,#706);
#596=AXIS2_PLACEMENT_3D('',#874,#707,#708);
#597=AXIS2_PLACEMENT_3D('',#875,#709,#710);
#598=AXIS2_PLACEMENT_3D('',#880,#713,#714);
#599=AXIS2_PLACEMENT_3D('',#895,#716,#717);
#600=AXIS2_PLACEMENT_3D('',#896,#718,#719);
#601=AXIS2_PLACEMENT_3D('',#898,#721,#722);
#602=AXIS2_PLACEMENT_3D('',#899,#723,#724);
#603=AXIS2_PLACEMENT_3D('',#901,#725,#726);
#604=AXIS2_PLACEMENT_3D('',#903,#727,#728);
#605=AXIS2_PLACEMENT_3D('',#904,#729,#730);
#606=AXIS2_PLACEMENT_3D('',#906,#731,#732);
#607=AXIS2_PLACEMENT_3D('',#908,#733,#734);
#608=AXIS2_PLACEMENT_3D('',#911,#736,#737);
#609=AXIS2_PLACEMENT_3D('',#912,#738,#739);
#610=AXIS2_PLACEMENT_3D('',#913,#740,#741);
#611=AXIS2_PLACEMENT_3D('',#928,#744,#745);
#612=AXIS2_PLACEMENT_3D('',#929,#746,#747);
#613=AXIS2_PLACEMENT_3D('',#932,#749,#750);
#614=AXIS2_PLACEMENT_3D('',#933,#751,#752);
#615=AXIS2_PLACEMENT_3D('',#934,#753,#754);
#616=AXIS2_PLACEMENT_3D('',#935,#755,#756);
#617=AXIS2_PLACEMENT_3D('',#949,#758,#759);
#618=AXIS2_PLACEMENT_3D('',#957,#760,#761);
#619=AXIS2_PLACEMENT_3D('',#958,#762,#763);
#620=AXIS2_PLACEMENT_3D('',#960,#764,#765);
#621=AXIS2_PLACEMENT_3D('',#961,#766,#767);
#622=AXIS2_PLACEMENT_3D('',#962,#768,#769);
#623=AXIS2_PLACEMENT_3D('',#964,#770,#771);
#624=AXIS2_PLACEMENT_3D('',#965,#772,#773);
#625=AXIS2_PLACEMENT_3D('',#966,#774,#775);
#626=AXIS2_PLACEMENT_3D('',#968,#776,#777);
#627=AXIS2_PLACEMENT_3D('',#969,#778,#779);
#628=AXIS2_PLACEMENT_3D('',#971,#780,#781);
#629=AXIS2_PLACEMENT_3D('',#972,#782,#783);
#630=AXIS2_PLACEMENT_3D('',#974,#784,#785);
#631=AXIS2_PLACEMENT_3D('',#975,#786,#787);
#632=AXIS2_PLACEMENT_3D('',#976,#788,#789);
#633=AXIS2_PLACEMENT_3D('',#978,#790,#791);
#634=AXIS2_PLACEMENT_3D('',#1014,#792,#793);
#635=AXIS2_PLACEMENT_3D('',#1015,#794,#795);
#636=AXIS2_PLACEMENT_3D('',#1016,#796,#797);
#637=AXIS2_PLACEMENT_3D('',#1017,#798,#799);
#638=DIRECTION('',(0.,0.,1.));
#639=DIRECTION('',(1.,0.,0.));
#640=DIRECTION('',(1.,0.,0.));
#641=DIRECTION('',(0.,0.,-1.));
#642=DIRECTION('',(1.,0.,0.));
#643=DIRECTION('',(0.,0.,-1.));
#644=DIRECTION('',(0.,0.,1.));
#645=DIRECTION('',(0.,-1.,0.));
#646=DIRECTION('',(0.,0.,1.));
#647=DIRECTION('',(0.,-1.,0.));
#648=DIRECTION('',(6.1036566747332E-16,0.,-1.));
#649=DIRECTION('',(-1.,0.,-6.1036566747332E-16));
#650=DIRECTION('',(-1.,0.,-6.1036566747332E-16));
#651=DIRECTION('',(0.,-1.,0.));
#652=DIRECTION('',(-1.,0.,-6.1036566747332E-16));
#653=DIRECTION('',(0.,1.,0.));
#654=DIRECTION('',(0.,-1.,0.));
#655=DIRECTION('',(1.,0.,0.));
#656=DIRECTION('',(0.,-1.,0.));
#657=DIRECTION('',(0.,0.,-1.));
#658=DIRECTION('',(0.,-1.,0.));
#659=DIRECTION('',(0.,0.,-1.));
#660=DIRECTION('',(0.,-1.,0.));
#661=DIRECTION('',(0.,0.,-1.));
#662=DIRECTION('',(0.,-1.,0.));
#663=DIRECTION('',(0.,0.,-1.));
#664=DIRECTION('',(0.,-1.,0.));
#665=DIRECTION('',(0.,0.,-1.));
#666=DIRECTION('',(-1.,0.,-6.1036566747332E-16));
#667=DIRECTION('',(0.,0.,-1.));
#668=DIRECTION('',(0.,-1.,0.));
#669=DIRECTION('',(0.,0.,-1.));
#670=DIRECTION('',(0.,-1.,0.));
#671=DIRECTION('',(0.,0.,-1.));
#672=DIRECTION('',(0.,0.,-1.));
#673=DIRECTION('',(-1.,0.,0.));
#674=DIRECTION('',(0.,-1.,0.));
#675=DIRECTION('',(0.,0.,-1.));
#676=DIRECTION('',(-1.,0.,-6.42490176287706E-16));
#677=DIRECTION('',(0.,1.,0.));
#678=DIRECTION('',(0.,0.,-1.));
#679=DIRECTION('',(-1.,0.,0.));
#680=DIRECTION('',(0.,0.,1.));
#681=DIRECTION('',(-1.,0.,0.));
#682=DIRECTION('',(0.,0.,1.));
#683=DIRECTION('',(0.,-1.,0.));
#684=DIRECTION('',(0.,0.,1.));
#685=DIRECTION('',(0.,-1.,0.));
#686=DIRECTION('',(6.1036566747332E-16,0.,-1.));
#687=DIRECTION('',(-1.,0.,-6.1036566747332E-16));
#688=DIRECTION('',(-1.,0.,-6.1036566747332E-16));
#689=DIRECTION('',(0.,-1.,0.));
#690=DIRECTION('',(6.42490176287706E-16,0.,-1.));
#691=DIRECTION('',(-1.,0.,-6.42490176287706E-16));
#692=DIRECTION('',(0.,1.,0.));
#693=DIRECTION('',(-1.,0.,-6.42490176287706E-16));
#694=DIRECTION('',(0.,1.,0.));
#695=DIRECTION('',(0.,1.,0.));
#696=DIRECTION('',(0.,0.,1.));
#697=DIRECTION('',(0.,-1.,0.));
#698=DIRECTION('',(0.,0.,-1.));
#699=DIRECTION('',(0.,1.,0.));
#700=DIRECTION('',(0.,0.,1.));
#701=DIRECTION('',(0.,1.,0.));
#702=DIRECTION('',(0.,0.,-1.));
#703=DIRECTION('',(0.,1.,0.));
#704=DIRECTION('',(0.,0.,1.));
#705=DIRECTION('',(0.,-1.,0.));
#706=DIRECTION('',(0.,0.,-1.));
#707=DIRECTION('',(-1.,0.,0.));
#708=DIRECTION('',(0.,0.,1.));
#709=DIRECTION('',(-1.,0.,0.));
#710=DIRECTION('',(0.,0.,1.));
#711=DIRECTION('',(0.,0.,1.));
#712=DIRECTION('',(0.,-1.,0.));
#713=DIRECTION('',(0.,-1.,0.));
#714=DIRECTION('',(0.,0.,-1.));
#715=DIRECTION('',(0.,-1.,0.));
#716=DIRECTION('',(0.,-1.,0.));
#717=DIRECTION('',(0.,0.,-1.));
#718=DIRECTION('',(0.,0.,1.));
#719=DIRECTION('',(1.,0.,0.));
#720=DIRECTION('',(1.,0.,0.));
#721=DIRECTION('',(1.,0.,0.));
#722=DIRECTION('',(0.,0.,-1.));
#723=DIRECTION('',(1.,0.,0.));
#724=DIRECTION('',(0.,0.,-1.));
#725=DIRECTION('',(1.,0.,0.));
#726=DIRECTION('',(0.,0.,-1.));
#727=DIRECTION('',(1.,0.,0.));
#728=DIRECTION('',(0.,0.,-1.));
#729=DIRECTION('',(1.,0.,0.));
#730=DIRECTION('',(0.,0.,-1.));
#731=DIRECTION('',(1.,0.,0.));
#732=DIRECTION('',(0.,0.,-1.));
#733=DIRECTION('',(0.,-1.,0.));
#734=DIRECTION('',(0.,0.,-1.));
#735=DIRECTION('',(0.,-1.,0.));
#736=DIRECTION('',(0.,-1.,0.));
#737=DIRECTION('',(0.,0.,-1.));
#738=DIRECTION('',(0.,-1.,0.));
#739=DIRECTION('',(0.,0.,-1.));
#740=DIRECTION('',(0.,-1.,0.));
#741=DIRECTION('',(0.,0.,-1.));
#742=DIRECTION('',(0.,-1.,0.));
#743=DIRECTION('',(0.,-1.,0.));
#744=DIRECTION('',(0.,-1.,0.));
#745=DIRECTION('',(0.,0.,-1.));
#746=DIRECTION('',(0.,-1.,0.));
#747=DIRECTION('',(0.,0.,-1.));
#748=DIRECTION('',(0.,-1.,0.));
#749=DIRECTION('',(0.,-1.,0.));
#750=DIRECTION('',(0.,0.,-1.));
#751=DIRECTION('',(0.,-1.,0.));
#752=DIRECTION('',(0.,0.,-1.));
#753=DIRECTION('',(1.,0.,0.));
#754=DIRECTION('',(0.,1.,0.));
#755=DIRECTION('',(1.,0.,0.));
#756=DIRECTION('',(0.,0.,-1.));
#757=DIRECTION('',(0.,-1.,0.));
#758=DIRECTION('',(1.,0.,0.));
#759=DIRECTION('',(0.,0.,-1.));
#760=DIRECTION('',(1.,0.,0.));
#761=DIRECTION('',(0.,0.,-1.));
#762=DIRECTION('',(1.,0.,0.));
#763=DIRECTION('',(0.,0.,-1.));
#764=DIRECTION('',(1.,0.,0.));
#765=DIRECTION('',(0.,1.,0.));
#766=DIRECTION('',(1.,0.,0.));
#767=DIRECTION('',(0.,0.,-1.));
#768=DIRECTION('',(1.,0.,0.));
#769=DIRECTION('',(0.,0.,-1.));
#770=DIRECTION('',(1.,0.,0.));
#771=DIRECTION('',(0.,1.,0.));
#772=DIRECTION('',(1.,0.,0.));
#773=DIRECTION('',(0.,1.,0.));
#774=DIRECTION('',(1.,0.,0.));
#775=DIRECTION('',(0.,0.,-1.));
#776=DIRECTION('',(1.,0.,0.));
#777=DIRECTION('',(0.,1.,0.));
#778=DIRECTION('',(1.,0.,0.));
#779=DIRECTION('',(0.,0.,-1.));
#780=DIRECTION('',(1.,0.,0.));
#781=DIRECTION('',(0.,0.,-1.));
#782=DIRECTION('',(1.,0.,0.));
#783=DIRECTION('',(0.,0.,-1.));
#784=DIRECTION('',(-1.,0.,0.));
#785=DIRECTION('',(0.,0.,1.));
#786=DIRECTION('',(-1.,0.,0.));
#787=DIRECTION('',(0.,0.,1.));
#788=DIRECTION('',(-1.,0.,0.));
#789=DIRECTION('',(0.,0.,1.));
#790=DIRECTION('',(1.,0.,0.));
#791=DIRECTION('',(0.,0.,-1.));
#792=DIRECTION('',(0.,-1.,0.));
#793=DIRECTION('',(0.,0.,-1.));
#794=DIRECTION('',(0.,-1.,0.));
#795=DIRECTION('',(0.,0.,-1.));
#796=DIRECTION('',(0.,-1.,0.));
#797=DIRECTION('',(0.,0.,-1.));
#798=DIRECTION('',(0.,-1.,0.));
#799=DIRECTION('',(1.,0.,0.));
#800=CARTESIAN_POINT('',(0.,0.,0.));
#801=CARTESIAN_POINT('',(0.048,-0.015,0.009925));
#802=CARTESIAN_POINT('',(0.048,-0.029,0.0105));
#803=CARTESIAN_POINT('',(0.048,-0.029,0.0075));
#804=CARTESIAN_POINT('',(0.048,-0.02,0.009925));
#805=CARTESIAN_POINT('',(0.048,-0.02,0.00450000000000007));
#806=CARTESIAN_POINT('',(0.048,-0.02,0.01535));
#807=CARTESIAN_POINT('',(0.048,-0.015,0.00450000000000007));
#808=CARTESIAN_POINT('',(0.048,-0.04,0.00450000000000007));
#809=CARTESIAN_POINT('',(0.048,-0.04,0.009925));
#810=CARTESIAN_POINT('',(0.048,-0.04,0.01535));
#811=CARTESIAN_POINT('',(0.048,-0.015,0.01535));
#812=CARTESIAN_POINT('',(-3.13291059761412E-15,-0.04,0.0045));
#813=CARTESIAN_POINT('',(-3.13291059761412E-15,-0.02,0.0045));
#814=CARTESIAN_POINT('',(0.0250680218807611,-0.02,0.00450000000000006));
#815=CARTESIAN_POINT('',(-0.0270000000000031,-0.02,0.0045));
#816=CARTESIAN_POINT('',(0.0250680218807611,-0.04,0.00450000000000006));
#817=CARTESIAN_POINT('',(0.0250680218807611,-0.04,0.00450000000000006));
#818=CARTESIAN_POINT('',(-3.13291059761412E-15,-0.04,0.0045));
#819=CARTESIAN_POINT('',(-0.0270000000000031,-0.04,0.0045));
#820=CARTESIAN_POINT('',(-0.0270000000000031,-0.04,0.0045));
#821=CARTESIAN_POINT('',(-3.13638004456607E-15,-0.04,0.012));
#822=CARTESIAN_POINT('',(0.0269999999999969,-0.04,0.012));
#823=CARTESIAN_POINT('',(0.0269999999999969,-0.04,0.0104));
#824=CARTESIAN_POINT('',(-0.0270000000000031,-0.04,0.012));
#825=CARTESIAN_POINT('',(-0.0270000000000031,-0.04,0.0104));
#826=CARTESIAN_POINT('',(0.025068021880761,-0.04,0.0095));
#827=CARTESIAN_POINT('',(0.0284877473260243,-0.04,0.00585233254270365));
#828=CARTESIAN_POINT('',(-0.016152758067516,-0.04,0.0534683535969164));
#829=CARTESIAN_POINT('',(0.0455770383934974,-0.04,0.0322671175077686));
#830=CARTESIAN_POINT('',(-0.0122691365258185,-0.04,0.01535));
#831=CARTESIAN_POINT('',(-3.13291059761412E-15,-0.04,0.0045));
#832=CARTESIAN_POINT('',(0.053,-0.04,0.00450000000000006));
#833=CARTESIAN_POINT('',(0.053,-0.04,0.034675));
#834=CARTESIAN_POINT('',(0.053,-0.04,0.01535));
#835=CARTESIAN_POINT('',(-0.0122691365258189,-0.04,0.01535));
#836=CARTESIAN_POINT('',(0.0485170925796949,-0.04,0.0391217171015888));
#837=CARTESIAN_POINT('',(-0.0114672023809468,-0.04,0.06485));
#838=CARTESIAN_POINT('',(0.053,-0.04,0.05465));
#839=CARTESIAN_POINT('',(0.053,-0.04,0.034675));
#840=CARTESIAN_POINT('',(0.053,-0.04,0.06485));
#841=CARTESIAN_POINT('',(0.0505,-0.04,0.06485));
#842=CARTESIAN_POINT('',(0.048,-0.04,0.06485));
#843=CARTESIAN_POINT('',(-0.0114672023809467,-0.04,0.06485));
#844=CARTESIAN_POINT('',(0.0269999999999969,-0.04,0.0195));
#845=CARTESIAN_POINT('',(-3.13984949151802E-15,-0.04,0.0195));
#846=CARTESIAN_POINT('',(-0.0270000000000031,-0.04,0.0195));
#847=CARTESIAN_POINT('',(-0.0270000000000031,-0.04,0.012));
#848=CARTESIAN_POINT('',(0.053,-0.014998,0.034675));
#849=CARTESIAN_POINT('',(0.053,-0.029,0.0595));
#850=CARTESIAN_POINT('',(0.053,-0.029,0.06325));
#851=CARTESIAN_POINT('',(0.053,-0.015,0.05465));
#852=CARTESIAN_POINT('',(0.053,-0.02,0.05465));
#853=CARTESIAN_POINT('',(0.053,-0.02,0.034675));
#854=CARTESIAN_POINT('',(0.053,-0.02,0.06485));
#855=CARTESIAN_POINT('',(0.053,-0.014998,0.06485));
#856=CARTESIAN_POINT('',(-3.13291059761412E-15,-0.04,0.0045));
#857=CARTESIAN_POINT('',(-3.13291059761412E-15,-0.02,0.0045));
#858=CARTESIAN_POINT('',(0.053,-0.02,0.00450000000000006));
#859=CARTESIAN_POINT('',(0.053,-0.014998,0.00450000000000006));
#860=CARTESIAN_POINT('',(-3.13984949151802E-15,-0.04,0.0195));
#861=CARTESIAN_POINT('',(0.0269999999999969,-0.04,0.0195));
#862=CARTESIAN_POINT('',(0.0269999999999969,-0.02,0.0195));
#863=CARTESIAN_POINT('',(-3.13984949151802E-15,-0.02,0.0195));
#864=CARTESIAN_POINT('',(-0.0270000000000031,-0.02,0.0195));
#865=CARTESIAN_POINT('',(-0.0270000000000031,-0.04,0.0195));
#866=CARTESIAN_POINT('',(0.0269999999999969,-0.04,0.012));
#867=CARTESIAN_POINT('',(0.0269999999999969,-0.02,0.012));
#868=CARTESIAN_POINT('',(0.0269999999999969,-0.02,0.0104));
#869=CARTESIAN_POINT('',(-0.0270000000000031,-0.04,0.012));
#870=CARTESIAN_POINT('',(-0.0270000000000031,-0.02,0.012));
#871=CARTESIAN_POINT('',(-0.0270000000000031,-0.04,0.012));
#872=CARTESIAN_POINT('',(-0.0270000000000031,-0.02,0.012));
#873=CARTESIAN_POINT('',(-0.0270000000000031,-0.02,0.0104));
#874=CARTESIAN_POINT('',(0.053,-0.014998,0.034675));
#875=CARTESIAN_POINT('',(0.053,-0.029,0.0105));
#876=CARTESIAN_POINT('',(0.053,-0.029,0.01425));
#877=CARTESIAN_POINT('',(0.053,-0.02,0.034675));
#878=CARTESIAN_POINT('',(0.053,-0.02,0.01535));
#879=CARTESIAN_POINT('',(0.053,-0.015,0.01535));
#880=CARTESIAN_POINT('',(-0.0114672023809467,-0.014998,0.06485));
#881=CARTESIAN_POINT('',(0.0475088073999067,-0.0313552293059863,0.0571546546280948));
#882=CARTESIAN_POINT('',(0.0473619085340609,-0.0289995070690052,0.0561728286341306));
#883=CARTESIAN_POINT('',(0.0475086893841801,-0.0266467424179927,0.0571540308353826));
#884=CARTESIAN_POINT('',(0.0477770853732059,-0.0256777849811502,0.0594909469823853));
#885=CARTESIAN_POINT('',(0.0479328361876962,-0.0266421536202162,0.0618461998530917));
#886=CARTESIAN_POINT('',(0.0479638736124923,-0.0289996402234332,0.0628260840361281));
#887=CARTESIAN_POINT('',(0.0479329615232711,-0.031353350799904,0.0618494630240487));
#888=CARTESIAN_POINT('',(0.047777569675454,-0.0323228539967134,0.05949600557011));
#889=CARTESIAN_POINT('',(0.0475088073999067,-0.0313552293059863,0.0571546546280948));
#890=CARTESIAN_POINT('',(0.0473619085340609,-0.0289995070690052,0.0561728286341306));
#891=CARTESIAN_POINT('',(0.0475086893841801,-0.0266467424179927,0.0571540308353826));
#892=CARTESIAN_POINT('',(0.0474108551533884,-0.029,0.0565));
#893=CARTESIAN_POINT('',(0.048,-0.014998,0.06485));
#894=CARTESIAN_POINT('',(0.048,-0.02,0.06485));
#895=CARTESIAN_POINT('',(-0.0114672023809467,-0.02,0.06485));
#896=CARTESIAN_POINT('',(0.0505,-0.014998,0.06485));
#897=CARTESIAN_POINT('',(0.0505,-0.02,0.06485));
#898=CARTESIAN_POINT('',(0.05,-0.029,0.0105));
#899=CARTESIAN_POINT('',(0.05,-0.029,0.0105));
#900=CARTESIAN_POINT('',(0.05,-0.029,0.00915));
#901=CARTESIAN_POINT('',(0.0545,-0.029,0.0105));
#902=CARTESIAN_POINT('',(0.0545,-0.029,0.00915));
#903=CARTESIAN_POINT('',(0.05,-0.029,0.0595));
#904=CARTESIAN_POINT('',(0.05,-0.029,0.0595));
#905=CARTESIAN_POINT('',(0.05,-0.029,0.05815));
#906=CARTESIAN_POINT('',(0.0545,-0.029,0.0595));
#907=CARTESIAN_POINT('',(0.0545,-0.029,0.05815));
#908=CARTESIAN_POINT('',(-0.0122691365258185,-0.015,0.01535));
#909=CARTESIAN_POINT('',(0.0455770383934974,-0.015,0.0322671175077686));
#910=CARTESIAN_POINT('',(0.0455770383934974,-0.02,0.0322671175077686));
#911=CARTESIAN_POINT('',(-0.0122691365258185,-0.02,0.01535));
#912=CARTESIAN_POINT('',(-0.016152758067516,-0.015,0.0534683535969164));
#913=CARTESIAN_POINT('',(-0.016152758067516,-0.02,0.0534683535969164));
#914=CARTESIAN_POINT('',(0.0284877473260243,-0.02,0.00585233254270365));
#915=CARTESIAN_POINT('',(0.0284877473260243,-0.015,0.00585233254270365));
#916=CARTESIAN_POINT('',(0.0338242802917985,-0.0324497315537966,0.011487931735559));
#917=CARTESIAN_POINT('',(0.0343223598332261,-0.0321999094854897,0.0120808876717839));
#918=CARTESIAN_POINT('',(0.0350033310333696,-0.03158064017962,0.0129265639829276));
#919=CARTESIAN_POINT('',(0.0355685491873993,-0.0302199266597632,0.0136558412689292));
#920=CARTESIAN_POINT('',(0.0357262105732532,-0.0290003287986643,0.0138625388635342));
#921=CARTESIAN_POINT('',(0.0355706965535842,-0.0277900479936173,0.0136586477597738));
#922=CARTESIAN_POINT('',(0.0350065632492072,-0.026421316300435,0.0129306232200964));
#923=CARTESIAN_POINT('',(0.0343226700725332,-0.0258002461214342,0.0120812570068469));
#924=CARTESIAN_POINT('',(0.0338242802917985,-0.0255502684462032,0.011487931735559));
#925=CARTESIAN_POINT('',(0.0338242802917985,-0.0324497315537966,0.011487931735559));
#926=CARTESIAN_POINT('',(0.0338242802917985,-0.0255502684462032,0.011487931735559));
#927=CARTESIAN_POINT('',(0.0338242802917985,-0.015,0.011487931735559));
#928=CARTESIAN_POINT('',(-0.0114672023809468,-0.015,0.06485));
#929=CARTESIAN_POINT('',(-0.0114672023809468,-0.02,0.06485));
#930=CARTESIAN_POINT('',(0.0485170925796949,-0.02,0.0391217171015888));
#931=CARTESIAN_POINT('',(0.0485170925796949,-0.015,0.0391217171015888));
#932=CARTESIAN_POINT('',(-0.0122691365258189,-0.015,0.01535));
#933=CARTESIAN_POINT('',(-0.0122691365258189,-0.02,0.01535));
#934=CARTESIAN_POINT('',(0.034,-0.01,0.034675));
#935=CARTESIAN_POINT('',(0.034,-0.029,0.0105));
#936=CARTESIAN_POINT('',(0.034,-0.0266815983483102,0.0124039468956465));
#937=CARTESIAN_POINT('',(0.034,-0.0313184016516897,0.0124039468956465));
#938=CARTESIAN_POINT('',(0.034,-0.0313184016516897,0.0124039468956465));
#939=CARTESIAN_POINT('',(0.034,-0.0314469491503732,0.0122474169346745));
#940=CARTESIAN_POINT('',(0.034,-0.0315837919362969,0.0120989704640049));
#941=CARTESIAN_POINT('',(0.034,-0.0317409533523974,0.0119703238441682));
#942=CARTESIAN_POINT('',(0.034,-0.0317409533524017,0.0119703238441717));
#943=CARTESIAN_POINT('',(0.034,-0.01,0.0119703238441717));
#944=CARTESIAN_POINT('',(0.034,-0.0262590466475981,0.0119703238441717));
#945=CARTESIAN_POINT('',(0.034,-0.0262590466475981,0.0119703238441717));
#946=CARTESIAN_POINT('',(0.034,-0.0264162080636988,0.012098970464008));
#947=CARTESIAN_POINT('',(0.034,-0.0265530508496259,0.0122474169346753));
#948=CARTESIAN_POINT('',(0.034,-0.0266815983483095,0.0124039468956474));
#949=CARTESIAN_POINT('',(0.034,-0.029,0.0105));
#950=CARTESIAN_POINT('',(0.034,-0.0266815983483102,0.0124039468956465));
#951=CARTESIAN_POINT('',(0.0343010192169575,-0.0269259656188421,0.0127015084951405));
#952=CARTESIAN_POINT('',(0.0348381548491576,-0.0275575089650177,0.0132472590803339));
#953=CARTESIAN_POINT('',(0.0351990972054156,-0.0290004968739399,0.013626839159336));
#954=CARTESIAN_POINT('',(0.0348363334945265,-0.0304459896160672,0.0132453834462932));
#955=CARTESIAN_POINT('',(0.0343008167138369,-0.0310741987731038,0.0127013083180452));
#956=CARTESIAN_POINT('',(0.034,-0.0313184016516897,0.0124039468956465));
#957=CARTESIAN_POINT('',(0.034,-0.029,0.0105));
#958=CARTESIAN_POINT('',(0.05,-0.029,0.0105));
#959=CARTESIAN_POINT('',(0.05,-0.029,0.0075));
#960=CARTESIAN_POINT('',(0.05,-0.01,0.034675));
#961=CARTESIAN_POINT('',(0.034,-0.029,0.0595));
#962=CARTESIAN_POINT('',(0.05,-0.029,0.0595));
#963=CARTESIAN_POINT('',(0.05,-0.029,0.0565));
#964=CARTESIAN_POINT('',(0.05,-0.01,0.034675));
#965=CARTESIAN_POINT('',(0.0545,-0.01,0.034675));
#966=CARTESIAN_POINT('',(0.0545,-0.029,0.0595));
#967=CARTESIAN_POINT('',(0.0545,-0.029,0.05725));
#968=CARTESIAN_POINT('',(0.0545,-0.01,0.034675));
#969=CARTESIAN_POINT('',(0.0545,-0.029,0.0105));
#970=CARTESIAN_POINT('',(0.0545,-0.029,0.00825));
#971=CARTESIAN_POINT('',(0.05375,-0.029,0.0595));
#972=CARTESIAN_POINT('',(0.05375,-0.029,0.0595));
#973=CARTESIAN_POINT('',(0.05375,-0.029,0.0565));
#974=CARTESIAN_POINT('',(0.05375,-0.029,0.0595));
#975=CARTESIAN_POINT('',(0.05375,-0.029,0.0105));
#976=CARTESIAN_POINT('',(0.05375,-0.029,0.0105));
#977=CARTESIAN_POINT('',(0.05375,-0.029,0.0135));
#978=CARTESIAN_POINT('',(0.05375,-0.029,0.0105));
#979=CARTESIAN_POINT('',(0.0332146166403694,-0.031773894217389,0.0116425895460471));
#980=CARTESIAN_POINT('',(0.0336754757585979,-0.0319104573579756,0.0113110516746459));
#981=CARTESIAN_POINT('',(0.033788485619786,-0.0324673677717362,0.0114453555864051));
#982=CARTESIAN_POINT('',(0.0337131915919619,-0.031578643285996,0.012116605286349));
#983=CARTESIAN_POINT('',(0.0341246322220312,-0.0317556343668076,0.0118416932197382));
#984=CARTESIAN_POINT('',(0.0342928562356316,-0.0322233041112997,0.0120447629830015));
#985=CARTESIAN_POINT('',(0.0344033947322512,-0.0310824248693084,0.012801473133165));
#986=CARTESIAN_POINT('',(0.0347877633280256,-0.0312789796047707,0.0126550065142486));
#987=CARTESIAN_POINT('',(0.0349910826126629,-0.0316030310857854,0.0129107993122031));
#988=CARTESIAN_POINT('',(0.0349725871063673,-0.0299838892195482,0.0133889414277062));
#989=CARTESIAN_POINT('',(0.0353452955625068,-0.030082962176158,0.0133659458472477));
#990=CARTESIAN_POINT('',(0.0355668915398567,-0.0302298615245838,0.013653670931401));
#991=CARTESIAN_POINT('',(0.0351309274565809,-0.0290000529648018,0.0135550074020095));
#992=CARTESIAN_POINT('',(0.035499692378114,-0.0290001007874857,0.0135657785004835));
#993=CARTESIAN_POINT('',(0.0357270725107978,-0.0290000662060081,0.013863666432906));
#994=CARTESIAN_POINT('',(0.0349745794242305,-0.0280236778241325,0.0133910272833856));
#995=CARTESIAN_POINT('',(0.0353472514079381,-0.0279253264877997,0.0133684716368952));
#996=CARTESIAN_POINT('',(0.0355689070173333,-0.0277795972799933,0.013656308559688));
#997=CARTESIAN_POINT('',(0.0344063983044722,-0.0269187139857065,0.0128044732209135));
#998=CARTESIAN_POINT('',(0.0347905553926037,-0.0267218865842999,0.0126584587544883));
#999=CARTESIAN_POINT('',(0.0349941210997953,-0.0263983924831014,0.0129145930148237));
#1000=CARTESIAN_POINT('',(0.033712431586025,-0.0264210697032352,0.0121158839498728));
#1001=CARTESIAN_POINT('',(0.0341239778872208,-0.0262441519939659,0.0118409214428291));
#1002=CARTESIAN_POINT('',(0.0342920873949844,-0.0257763371247191,0.0120438508312333));
#1003=CARTESIAN_POINT('',(0.0332146699439343,-0.0262261266578159,0.0116426402240076));
#1004=CARTESIAN_POINT('',(0.033675525672879,-0.0260895598480028,0.0113111106443479));
#1005=CARTESIAN_POINT('',(0.033788539542976,-0.0255326583222698,0.0114454196702355));
#1006=CARTESIAN_POINT('',(0.034,-0.0262590466475981,0.0119703238441717));
#1007=CARTESIAN_POINT('',(0.034,-0.0260297819098117,0.0117826560673364));
#1008=CARTESIAN_POINT('',(0.0339351434537153,-0.0257861399571205,0.0116199126030702));
#1009=CARTESIAN_POINT('',(0.0338242802917984,-0.0255502684462032,0.0114879317355589));
#1010=CARTESIAN_POINT('',(0.034,-0.0317409533524017,0.0119703238441717));
#1011=CARTESIAN_POINT('',(0.034,-0.0319702172367744,0.0117826567659099));
#1012=CARTESIAN_POINT('',(0.0339351436182497,-0.032213859692709,0.0116199127989459));
#1013=CARTESIAN_POINT('',(0.0338242802917985,-0.0324497315537966,0.011487931735559));
#1014=CARTESIAN_POINT('',(0.03325,-0.015,0.0119703238441717));
#1015=CARTESIAN_POINT('',(0.025068021880761,-0.015,0.0095));
#1016=CARTESIAN_POINT('',(0.025068021880761,-0.02,0.0095));
#1017=CARTESIAN_POINT('',(-3.13638004456607E-15,-0.02,0.012));
#1018=MECHANICAL_DESIGN_GEOMETRIC_PRESENTATION_REPRESENTATION('',(#561),
#1019);
#1019=(
GEOMETRIC_REPRESENTATION_CONTEXT(3)
GLOBAL_UNCERTAINTY_ASSIGNED_CONTEXT((#1020))
GLOBAL_UNIT_ASSIGNED_CONTEXT((#1023,#1022,#1021))
REPRESENTATION_CONTEXT('Mount','TOP_LEVEL_ASSEMBLY_PART')
);
#1020=UNCERTAINTY_MEASURE_WITH_UNIT(LENGTH_MEASURE(2.E-5),#1023,
'DISTANCE_ACCURACY_VALUE','Maximum Tolerance applied to model');
#1021=(
NAMED_UNIT(*)
SI_UNIT($,.STERADIAN.)
SOLID_ANGLE_UNIT()
);
#1022=(
NAMED_UNIT(*)
PLANE_ANGLE_UNIT()
SI_UNIT($,.RADIAN.)
);
#1023=(
LENGTH_UNIT()
NAMED_UNIT(*)
SI_UNIT($,.METRE.)
);
#1024=PRODUCT_DEFINITION_SHAPE('','',#1025);
#1025=PRODUCT_DEFINITION('','',#1027,#1026);
#1026=PRODUCT_DEFINITION_CONTEXT('',#1033,'design');
#1027=PRODUCT_DEFINITION_FORMATION_WITH_SPECIFIED_SOURCE('','',#1029,
 .NOT_KNOWN.);
#1028=PRODUCT_RELATED_PRODUCT_CATEGORY('','',(#1029));
#1029=PRODUCT('Mount','Mount','Mount',(#1031));
#1030=PRODUCT_CATEGORY('','');
#1031=PRODUCT_CONTEXT('',#1033,'mechanical');
#1032=APPLICATION_PROTOCOL_DEFINITION('international standard',
'automotive_design',2010,#1033);
#1033=APPLICATION_CONTEXT(
'core data for automotive mechanical design processes');
ENDSEC;
END-ISO-10303-21;
