ISO-10303-21;
HEADER;
/* Generated by software containing ST-Developer
 * from STEP Tools, Inc. (www.steptools.com) 
 */
/* OPTION: using custom renumber hook */

FILE_DESCRIPTION(
/* description */ ('STEP AP214',
'CAx-IF Rec.Pracs.---User Defined Attributes---1.5---2016-08-15'),
/* implementation_level */ '2;1');

FILE_NAME(
/* name */ '6a7bf8d27fc1e53ddff646f5',
/* time_stamp */ '2026-08-12T04:38:43Z',
/* author */ (''),
/* organization */ (''),
/* preprocessor_version */ 'ST-DEVELOPER v20',
/* originating_system */ 'ONSHAPE BY PTC INC, 1.219',
/* authorisation */ '  ');

FILE_SCHEMA (('AUTOMOTIVE_DESIGN {1 0 10303 214 3 1 1}'));
ENDSEC;

DATA;
#10=PROPERTY_DEFINITION_REPRESENTATION(#14,#12);
#11=PROPERTY_DEFINITION_REPRESENTATION(#15,#13);
#12=REPRESENTATION('',(#16),#568);
#13=REPRESENTATION('',(#17),#568);
#14=PROPERTY_DEFINITION('pmi validation property','',#573);
#15=PROPERTY_DEFINITION('pmi validation property','',#573);
#16=VALUE_REPRESENTATION_ITEM('number of annotations',COUNT_MEASURE(0.));
#17=VALUE_REPRESENTATION_ITEM('number of views',COUNT_MEASURE(0.));
#18=SHAPE_REPRESENTATION_RELATIONSHIP('','',#296,#19);
#19=ADVANCED_BREP_SHAPE_REPRESENTATION('',(#294),#568);
#20=CONICAL_SURFACE('',#323,0.00105,0.785398163397448);
#21=CONICAL_SURFACE('',#328,0.006175,0.785398163397448);
#22=B_SPLINE_SURFACE_WITH_KNOTS('',1,3,((#525,#526,#527,#528,#529,#530,
#531,#532,#533,#534,#535,#536,#537,#538,#539,#540,#541,#542),(#543,#544,
#545,#546,#547,#548,#549,#550,#551,#552,#553,#554,#555,#556,#557,#558,#559,
#560)),.RULED_SURF.,.F.,.T.,.F.,(2,2),(2,2,2,2,2,2,2,2,2,2,2),(0.,1.),(-0.0172750413946937,
-0.01534624308928,-0.0134174447838662,-0.0114886464784525,-0.00955984817303878,
-0.00763104986762505,-0.00570225156221132,-0.00377345325679758,-0.00184465495138385,
8.41433540298784E-5,0.00201294165944361),.UNSPECIFIED.);
#23=B_SPLINE_CURVE_WITH_KNOTS('',3,(#456,#457,#458,#459,#460,#461,#462,
#463,#464,#465,#466,#467,#468,#469,#470,#471,#472,#473,#474),
 .UNSPECIFIED.,.T.,.F.,(1,1,1,1,1,1,1,1,1,1,1,1,1,1,1,1,1,1,1,1,1,1,1),
(-0.190789473684211,-0.128289473684211,-0.0657894736842105,0.,0.059375,
0.12171875,0.1842109375,0.246710546875,0.30921052734375,0.371710526367187,
0.434210526318359,0.496710526315918,0.559210526315796,0.62171052631579,
0.684210526315789,0.746710526315789,0.809210526315789,0.871710526315789,
0.934210526315789,1.,1.059375,1.12171875,1.1842109375),.UNSPECIFIED.);
#24=B_SPLINE_CURVE_WITH_KNOTS('',3,(#476,#477,#478,#479,#480,#481,#482,
#483,#484,#485,#486),.UNSPECIFIED.,.T.,.F.,(1,1,1,1,1,1,1,1,1,1,1,1,1,1,
1),(-0.00246625937236255,-0.00164417291490837,-0.000822086457454184,9.6535765445372E-21,
0.000822086457454185,0.00164417291490837,0.00246625937236255,0.00328834582981674,
0.00411043228727092,0.00493251874472511,0.00575460520217929,0.00657669165963348,
0.00739877811708766,0.00822086457454185,0.00904295103199603),
 .UNSPECIFIED.);
#25=B_SPLINE_CURVE_WITH_KNOTS('',3,(#502,#503,#504,#505,#506,#507,#508,
#509,#510,#511,#512,#513,#514,#515,#516,#517,#518,#519,#520),
 .UNSPECIFIED.,.T.,.F.,(1,1,1,1,1,1,1,1,1,1,1,1,1,1,1,1,1,1,1,1,1,1,1),
(-0.194078947314453,-0.131578947363281,-0.0657894736816407,0.,0.059375,
0.11875,0.18109375,0.2434375,0.3059296875,0.368421875,0.430921484375,0.49342109375,
0.55592107421875,0.6184210546875,0.680921053710937,0.743421052734375,0.805921052685547,
0.868421052636719,0.934210526318359,1.,1.059375,1.11875,1.18109375),
 .UNSPECIFIED.);
#26=CYLINDRICAL_SURFACE('',#308,0.006175);
#27=CYLINDRICAL_SURFACE('',#320,0.00105);
#28=CYLINDRICAL_SURFACE('',#321,0.00105);
#29=CYLINDRICAL_SURFACE('',#324,0.006);
#30=CYLINDRICAL_SURFACE('',#325,0.006);
#31=CYLINDRICAL_SURFACE('',#326,0.006);
#32=CYLINDRICAL_SURFACE('',#327,0.006);
#33=CIRCLE('',#302,0.00205);
#34=CIRCLE('',#304,0.006);
#35=CIRCLE('',#305,0.006);
#36=CIRCLE('',#306,0.006);
#37=CIRCLE('',#307,0.006);
#38=CIRCLE('',#309,0.006175);
#39=CIRCLE('',#310,0.006175);
#40=CIRCLE('',#312,0.008175);
#41=CIRCLE('',#313,0.006);
#42=CIRCLE('',#314,0.006);
#43=CIRCLE('',#315,0.006);
#44=CIRCLE('',#316,0.006);
#45=CIRCLE('',#319,0.00105);
#46=CIRCLE('',#322,0.00105);
#47=ORIENTED_EDGE('',*,*,#113,.T.);
#48=ORIENTED_EDGE('',*,*,#114,.T.);
#49=ORIENTED_EDGE('',*,*,#115,.F.);
#50=ORIENTED_EDGE('',*,*,#116,.T.);
#51=ORIENTED_EDGE('',*,*,#117,.F.);
#52=ORIENTED_EDGE('',*,*,#118,.T.);
#53=ORIENTED_EDGE('',*,*,#119,.T.);
#54=ORIENTED_EDGE('',*,*,#120,.T.);
#55=ORIENTED_EDGE('',*,*,#121,.T.);
#56=ORIENTED_EDGE('',*,*,#122,.T.);
#57=ORIENTED_EDGE('',*,*,#123,.F.);
#58=ORIENTED_EDGE('',*,*,#124,.T.);
#59=ORIENTED_EDGE('',*,*,#125,.T.);
#60=ORIENTED_EDGE('',*,*,#126,.T.);
#61=ORIENTED_EDGE('',*,*,#127,.T.);
#62=ORIENTED_EDGE('',*,*,#128,.F.);
#63=ORIENTED_EDGE('',*,*,#129,.T.);
#64=ORIENTED_EDGE('',*,*,#119,.F.);
#65=ORIENTED_EDGE('',*,*,#130,.T.);
#66=ORIENTED_EDGE('',*,*,#113,.F.);
#67=ORIENTED_EDGE('',*,*,#131,.T.);
#68=ORIENTED_EDGE('',*,*,#126,.F.);
#69=ORIENTED_EDGE('',*,*,#132,.T.);
#70=ORIENTED_EDGE('',*,*,#123,.T.);
#71=ORIENTED_EDGE('',*,*,#133,.T.);
#72=ORIENTED_EDGE('',*,*,#134,.T.);
#73=ORIENTED_EDGE('',*,*,#135,.T.);
#74=ORIENTED_EDGE('',*,*,#136,.F.);
#75=ORIENTED_EDGE('',*,*,#137,.F.);
#76=ORIENTED_EDGE('',*,*,#138,.T.);
#77=ORIENTED_EDGE('',*,*,#115,.T.);
#78=ORIENTED_EDGE('',*,*,#139,.T.);
#79=ORIENTED_EDGE('',*,*,#117,.T.);
#80=ORIENTED_EDGE('',*,*,#140,.T.);
#81=ORIENTED_EDGE('',*,*,#121,.F.);
#82=ORIENTED_EDGE('',*,*,#141,.T.);
#83=ORIENTED_EDGE('',*,*,#128,.T.);
#84=ORIENTED_EDGE('',*,*,#142,.T.);
#85=ORIENTED_EDGE('',*,*,#137,.T.);
#86=ORIENTED_EDGE('',*,*,#143,.T.);
#87=ORIENTED_EDGE('',*,*,#144,.T.);
#88=ORIENTED_EDGE('',*,*,#143,.F.);
#89=ORIENTED_EDGE('',*,*,#145,.T.);
#90=ORIENTED_EDGE('',*,*,#136,.T.);
#91=ORIENTED_EDGE('',*,*,#135,.F.);
#92=ORIENTED_EDGE('',*,*,#144,.F.);
#93=ORIENTED_EDGE('',*,*,#125,.F.);
#94=ORIENTED_EDGE('',*,*,#145,.F.);
#95=ORIENTED_EDGE('',*,*,#130,.F.);
#96=ORIENTED_EDGE('',*,*,#118,.F.);
#97=ORIENTED_EDGE('',*,*,#139,.F.);
#98=ORIENTED_EDGE('',*,*,#114,.F.);
#99=ORIENTED_EDGE('',*,*,#131,.F.);
#100=ORIENTED_EDGE('',*,*,#116,.F.);
#101=ORIENTED_EDGE('',*,*,#142,.F.);
#102=ORIENTED_EDGE('',*,*,#127,.F.);
#103=ORIENTED_EDGE('',*,*,#133,.F.);
#104=ORIENTED_EDGE('',*,*,#122,.F.);
#105=ORIENTED_EDGE('',*,*,#140,.F.);
#106=ORIENTED_EDGE('',*,*,#120,.F.);
#107=ORIENTED_EDGE('',*,*,#132,.F.);
#108=ORIENTED_EDGE('',*,*,#129,.F.);
#109=ORIENTED_EDGE('',*,*,#141,.F.);
#110=ORIENTED_EDGE('',*,*,#124,.F.);
#111=ORIENTED_EDGE('',*,*,#138,.F.);
#112=ORIENTED_EDGE('',*,*,#134,.F.);
#113=EDGE_CURVE('',#146,#147,#171,.T.);
#114=EDGE_CURVE('',#147,#148,#172,.T.);
#115=EDGE_CURVE('',#149,#148,#173,.T.);
#116=EDGE_CURVE('',#149,#146,#174,.F.);
#117=EDGE_CURVE('',#150,#151,#175,.T.);
#118=EDGE_CURVE('',#150,#152,#176,.F.);
#119=EDGE_CURVE('',#152,#153,#177,.T.);
#120=EDGE_CURVE('',#153,#151,#178,.T.);
#121=EDGE_CURVE('',#154,#155,#179,.T.);
#122=EDGE_CURVE('',#155,#156,#180,.F.);
#123=EDGE_CURVE('',#157,#156,#181,.T.);
#124=EDGE_CURVE('',#157,#154,#182,.T.);
#125=EDGE_CURVE('',#158,#158,#33,.F.);
#126=EDGE_CURVE('',#159,#160,#183,.T.);
#127=EDGE_CURVE('',#160,#161,#184,.T.);
#128=EDGE_CURVE('',#162,#161,#185,.T.);
#129=EDGE_CURVE('',#162,#159,#186,.F.);
#130=EDGE_CURVE('',#152,#147,#34,.F.);
#131=EDGE_CURVE('',#146,#160,#35,.F.);
#132=EDGE_CURVE('',#159,#157,#36,.F.);
#133=EDGE_CURVE('',#156,#153,#37,.F.);
#134=EDGE_CURVE('',#163,#163,#38,.T.);
#135=EDGE_CURVE('',#164,#164,#23,.T.);
#136=EDGE_CURVE('',#165,#165,#24,.T.);
#137=EDGE_CURVE('',#166,#166,#39,.T.);
#138=EDGE_CURVE('',#167,#167,#40,.F.);
#139=EDGE_CURVE('',#148,#150,#41,.T.);
#140=EDGE_CURVE('',#151,#155,#42,.T.);
#141=EDGE_CURVE('',#154,#162,#43,.T.);
#142=EDGE_CURVE('',#161,#149,#44,.T.);
#143=EDGE_CURVE('',#168,#168,#45,.T.);
#144=EDGE_CURVE('',#169,#169,#25,.T.);
#145=EDGE_CURVE('',#170,#170,#46,.T.);
#146=VERTEX_POINT('',#412);
#147=VERTEX_POINT('',#413);
#148=VERTEX_POINT('',#415);
#149=VERTEX_POINT('',#417);
#150=VERTEX_POINT('',#421);
#151=VERTEX_POINT('',#422);
#152=VERTEX_POINT('',#424);
#153=VERTEX_POINT('',#426);
#154=VERTEX_POINT('',#430);
#155=VERTEX_POINT('',#431);
#156=VERTEX_POINT('',#433);
#157=VERTEX_POINT('',#435);
#158=VERTEX_POINT('',#439);
#159=VERTEX_POINT('',#441);
#160=VERTEX_POINT('',#442);
#161=VERTEX_POINT('',#444);
#162=VERTEX_POINT('',#446);
#163=VERTEX_POINT('',#455);
#164=VERTEX_POINT('',#475);
#165=VERTEX_POINT('',#487);
#166=VERTEX_POINT('',#489);
#167=VERTEX_POINT('',#492);
#168=VERTEX_POINT('',#500);
#169=VERTEX_POINT('',#521);
#170=VERTEX_POINT('',#524);
#171=LINE('',#411,#187);
#172=LINE('',#414,#188);
#173=LINE('',#416,#189);
#174=LINE('',#418,#190);
#175=LINE('',#420,#191);
#176=LINE('',#423,#192);
#177=LINE('',#425,#193);
#178=LINE('',#427,#194);
#179=LINE('',#429,#195);
#180=LINE('',#432,#196);
#181=LINE('',#434,#197);
#182=LINE('',#436,#198);
#183=LINE('',#440,#199);
#184=LINE('',#443,#200);
#185=LINE('',#445,#201);
#186=LINE('',#447,#202);
#187=VECTOR('',#333,1.);
#188=VECTOR('',#334,1.);
#189=VECTOR('',#335,1.);
#190=VECTOR('',#336,1.);
#191=VECTOR('',#339,1.);
#192=VECTOR('',#340,1.);
#193=VECTOR('',#341,1.);
#194=VECTOR('',#342,1.);
#195=VECTOR('',#345,1.);
#196=VECTOR('',#346,1.);
#197=VECTOR('',#347,1.);
#198=VECTOR('',#348,1.);
#199=VECTOR('',#353,1.);
#200=VECTOR('',#354,1.);
#201=VECTOR('',#355,1.);
#202=VECTOR('',#356,1.);
#203=EDGE_LOOP('',(#47,#48,#49,#50));
#204=EDGE_LOOP('',(#51,#52,#53,#54));
#205=EDGE_LOOP('',(#55,#56,#57,#58));
#206=EDGE_LOOP('',(#59));
#207=EDGE_LOOP('',(#60,#61,#62,#63));
#208=EDGE_LOOP('',(#64,#65,#66,#67,#68,#69,#70,#71));
#209=EDGE_LOOP('',(#72));
#210=EDGE_LOOP('',(#73));
#211=EDGE_LOOP('',(#74));
#212=EDGE_LOOP('',(#75));
#213=EDGE_LOOP('',(#76));
#214=EDGE_LOOP('',(#77,#78,#79,#80,#81,#82,#83,#84));
#215=EDGE_LOOP('',(#85));
#216=EDGE_LOOP('',(#86));
#217=EDGE_LOOP('',(#87));
#218=EDGE_LOOP('',(#88));
#219=EDGE_LOOP('',(#89));
#220=EDGE_LOOP('',(#90));
#221=EDGE_LOOP('',(#91));
#222=EDGE_LOOP('',(#92));
#223=EDGE_LOOP('',(#93));
#224=EDGE_LOOP('',(#94));
#225=EDGE_LOOP('',(#95,#96,#97,#98));
#226=EDGE_LOOP('',(#99,#100,#101,#102));
#227=EDGE_LOOP('',(#103,#104,#105,#106));
#228=EDGE_LOOP('',(#107,#108,#109,#110));
#229=EDGE_LOOP('',(#111));
#230=EDGE_LOOP('',(#112));
#231=FACE_BOUND('',#203,.T.);
#232=FACE_BOUND('',#204,.T.);
#233=FACE_BOUND('',#205,.T.);
#234=FACE_BOUND('',#206,.T.);
#235=FACE_BOUND('',#207,.T.);
#236=FACE_BOUND('',#208,.T.);
#237=FACE_BOUND('',#209,.T.);
#238=FACE_BOUND('',#210,.T.);
#239=FACE_BOUND('',#211,.T.);
#240=FACE_BOUND('',#212,.T.);
#241=FACE_BOUND('',#213,.T.);
#242=FACE_BOUND('',#214,.T.);
#243=FACE_BOUND('',#215,.T.);
#244=FACE_BOUND('',#216,.T.);
#245=FACE_BOUND('',#217,.T.);
#246=FACE_BOUND('',#218,.T.);
#247=FACE_BOUND('',#219,.T.);
#248=FACE_BOUND('',#220,.T.);
#249=FACE_BOUND('',#221,.T.);
#250=FACE_BOUND('',#222,.T.);
#251=FACE_BOUND('',#223,.T.);
#252=FACE_BOUND('',#224,.T.);
#253=FACE_BOUND('',#225,.T.);
#254=FACE_BOUND('',#226,.T.);
#255=FACE_BOUND('',#227,.T.);
#256=FACE_BOUND('',#228,.T.);
#257=FACE_BOUND('',#229,.T.);
#258=FACE_BOUND('',#230,.T.);
#259=PLANE('',#298);
#260=PLANE('',#299);
#261=PLANE('',#300);
#262=PLANE('',#301);
#263=PLANE('',#303);
#264=PLANE('',#311);
#265=PLANE('',#317);
#266=PLANE('',#318);
#267=ADVANCED_FACE('',(#231),#259,.T.);
#268=ADVANCED_FACE('',(#232),#260,.T.);
#269=ADVANCED_FACE('',(#233),#261,.F.);
#270=ADVANCED_FACE('',(#234,#235),#262,.T.);
#271=ADVANCED_FACE('',(#236),#263,.F.);
#272=ADVANCED_FACE('',(#237,#238,#239,#240),#26,.F.);
#273=ADVANCED_FACE('',(#241,#242),#264,.T.);
#274=ADVANCED_FACE('',(#243),#265,.T.);
#275=ADVANCED_FACE('',(#244),#266,.T.);
#276=ADVANCED_FACE('',(#245,#246),#27,.F.);
#277=ADVANCED_FACE('',(#247,#248),#28,.F.);
#278=ADVANCED_FACE('',(#249,#250),#22,.T.);
#279=ADVANCED_FACE('',(#251,#252),#20,.F.);
#280=ADVANCED_FACE('',(#253),#29,.T.);
#281=ADVANCED_FACE('',(#254),#30,.T.);
#282=ADVANCED_FACE('',(#255),#31,.T.);
#283=ADVANCED_FACE('',(#256),#32,.T.);
#284=ADVANCED_FACE('',(#257,#258),#21,.F.);
#285=CLOSED_SHELL('',(#267,#268,#269,#270,#271,#272,#273,#274,#275,#276,
#277,#278,#279,#280,#281,#282,#283,#284));
#286=STYLED_ITEM('',(#287),#294);
#287=PRESENTATION_STYLE_ASSIGNMENT((#288));
#288=SURFACE_STYLE_USAGE(.BOTH.,#289);
#289=SURFACE_SIDE_STYLE('',(#290));
#290=SURFACE_STYLE_FILL_AREA(#291);
#291=FILL_AREA_STYLE('',(#292));
#292=FILL_AREA_STYLE_COLOUR('',#293);
#293=COLOUR_RGB('',0.615686274509804,0.811764705882353,0.929411764705882);
#294=MANIFOLD_SOLID_BREP('Part 1',#285);
#295=SHAPE_DEFINITION_REPRESENTATION(#573,#296);
#296=SHAPE_REPRESENTATION('Part 1',(#297),#568);
#297=AXIS2_PLACEMENT_3D('',#409,#329,#330);
#298=AXIS2_PLACEMENT_3D('',#410,#331,#332);
#299=AXIS2_PLACEMENT_3D('',#419,#337,#338);
#300=AXIS2_PLACEMENT_3D('',#428,#343,#344);
#301=AXIS2_PLACEMENT_3D('',#437,#349,#350);
#302=AXIS2_PLACEMENT_3D('',#438,#351,#352);
#303=AXIS2_PLACEMENT_3D('',#448,#357,#358);
#304=AXIS2_PLACEMENT_3D('',#449,#359,#360);
#305=AXIS2_PLACEMENT_3D('',#450,#361,#362);
#306=AXIS2_PLACEMENT_3D('',#451,#363,#364);
#307=AXIS2_PLACEMENT_3D('',#452,#365,#366);
#308=AXIS2_PLACEMENT_3D('',#453,#367,#368);
#309=AXIS2_PLACEMENT_3D('',#454,#369,#370);
#310=AXIS2_PLACEMENT_3D('',#488,#371,#372);
#311=AXIS2_PLACEMENT_3D('',#490,#373,#374);
#312=AXIS2_PLACEMENT_3D('',#491,#375,#376);
#313=AXIS2_PLACEMENT_3D('',#493,#377,#378);
#314=AXIS2_PLACEMENT_3D('',#494,#379,#380);
#315=AXIS2_PLACEMENT_3D('',#495,#381,#382);
#316=AXIS2_PLACEMENT_3D('',#496,#383,#384);
#317=AXIS2_PLACEMENT_3D('',#497,#385,#386);
#318=AXIS2_PLACEMENT_3D('',#498,#387,#388);
#319=AXIS2_PLACEMENT_3D('',#499,#389,#390);
#320=AXIS2_PLACEMENT_3D('',#501,#391,#392);
#321=AXIS2_PLACEMENT_3D('',#522,#393,#394);
#322=AXIS2_PLACEMENT_3D('',#523,#395,#396);
#323=AXIS2_PLACEMENT_3D('',#561,#397,#398);
#324=AXIS2_PLACEMENT_3D('',#562,#399,#400);
#325=AXIS2_PLACEMENT_3D('',#563,#401,#402);
#326=AXIS2_PLACEMENT_3D('',#564,#403,#404);
#327=AXIS2_PLACEMENT_3D('',#565,#405,#406);
#328=AXIS2_PLACEMENT_3D('',#566,#407,#408);
#329=DIRECTION('',(0.,0.,1.));
#330=DIRECTION('',(1.,0.,0.));
#331=DIRECTION('',(-1.,0.,-2.77555756156289E-16));
#332=DIRECTION('',(-2.77555756156289E-16,0.,1.));
#333=DIRECTION('',(2.77555756156289E-16,0.,-1.));
#334=DIRECTION('',(0.,-1.,0.));
#335=DIRECTION('',(2.77555756156289E-16,0.,-1.));
#336=DIRECTION('',(0.,-1.,0.));
#337=DIRECTION('',(0.,0.,-1.));
#338=DIRECTION('',(-1.,0.,0.));
#339=DIRECTION('',(1.,0.,0.));
#340=DIRECTION('',(0.,-1.,0.));
#341=DIRECTION('',(1.,0.,0.));
#342=DIRECTION('',(0.,-1.,0.));
#343=DIRECTION('',(-1.,0.,-2.77555756156289E-16));
#344=DIRECTION('',(-2.77555756156289E-16,0.,1.));
#345=DIRECTION('',(2.77555756156289E-16,0.,-1.));
#346=DIRECTION('',(0.,-1.,0.));
#347=DIRECTION('',(2.77555756156289E-16,0.,-1.));
#348=DIRECTION('',(0.,-1.,0.));
#349=DIRECTION('',(-1.3010426069826E-16,0.,1.));
#350=DIRECTION('',(1.,0.,1.3010426069826E-16));
#351=DIRECTION('',(-1.3010426069826E-16,0.,1.));
#352=DIRECTION('',(1.,0.,1.3010426069826E-16));
#353=DIRECTION('',(-1.,0.,-1.3010426069826E-16));
#354=DIRECTION('',(0.,-1.,0.));
#355=DIRECTION('',(-1.,0.,-1.3010426069826E-16));
#356=DIRECTION('',(0.,-1.,0.));
#357=DIRECTION('',(0.,-1.,0.));
#358=DIRECTION('',(1.,0.,0.));
#359=DIRECTION('',(0.,-1.,0.));
#360=DIRECTION('',(0.,0.,-1.));
#361=DIRECTION('',(0.,-1.,0.));
#362=DIRECTION('',(0.,0.,-1.));
#363=DIRECTION('',(0.,-1.,0.));
#364=DIRECTION('',(0.,0.,-1.));
#365=DIRECTION('',(0.,-1.,0.));
#366=DIRECTION('',(0.,0.,-1.));
#367=DIRECTION('',(0.,1.,0.));
#368=DIRECTION('',(0.,0.,1.));
#369=DIRECTION('',(0.,-1.,0.));
#370=DIRECTION('',(0.,0.,-1.));
#371=DIRECTION('',(0.,-1.,0.));
#372=DIRECTION('',(0.,0.,-1.));
#373=DIRECTION('',(0.,-1.,0.));
#374=DIRECTION('',(1.,0.,0.));
#375=DIRECTION('',(0.,-1.,0.));
#376=DIRECTION('',(0.,0.,-1.));
#377=DIRECTION('',(0.,-1.,0.));
#378=DIRECTION('',(0.,0.,-1.));
#379=DIRECTION('',(0.,-1.,0.));
#380=DIRECTION('',(0.,0.,-1.));
#381=DIRECTION('',(0.,-1.,0.));
#382=DIRECTION('',(0.,0.,-1.));
#383=DIRECTION('',(0.,-1.,0.));
#384=DIRECTION('',(0.,0.,-1.));
#385=DIRECTION('',(0.,-1.,0.));
#386=DIRECTION('',(1.,0.,0.));
#387=DIRECTION('',(-1.3010426069826E-16,0.,1.));
#388=DIRECTION('',(1.,0.,1.3010426069826E-16));
#389=DIRECTION('',(-1.3010426069826E-16,0.,1.));
#390=DIRECTION('',(1.,0.,1.3010426069826E-16));
#391=DIRECTION('',(-1.3010426069826E-16,0.,1.));
#392=DIRECTION('',(1.,0.,1.3010426069826E-16));
#393=DIRECTION('',(-1.3010426069826E-16,0.,1.));
#394=DIRECTION('',(1.,0.,1.3010426069826E-16));
#395=DIRECTION('',(-1.3010426069826E-16,0.,1.));
#396=DIRECTION('',(1.,0.,1.3010426069826E-16));
#397=DIRECTION('',(-1.3010426069826E-16,0.,1.));
#398=DIRECTION('',(1.,0.,1.3010426069826E-16));
#399=DIRECTION('',(0.,-1.,0.));
#400=DIRECTION('',(0.,0.,-1.));
#401=DIRECTION('',(0.,-1.,0.));
#402=DIRECTION('',(0.,0.,-1.));
#403=DIRECTION('',(0.,1.,0.));
#404=DIRECTION('',(0.,0.,1.));
#405=DIRECTION('',(0.,1.,0.));
#406=DIRECTION('',(0.,0.,1.));
#407=DIRECTION('',(0.,-1.,0.));
#408=DIRECTION('',(0.,0.,-1.));
#409=CARTESIAN_POINT('',(0.,0.,0.));
#410=CARTESIAN_POINT('',(-0.02,0.015,8.67361737988404E-19));
#411=CARTESIAN_POINT('',(-0.02,0.015,8.67361737988404E-19));
#412=CARTESIAN_POINT('',(-0.02,0.015,0.0065));
#413=CARTESIAN_POINT('',(-0.02,0.015,-0.0165));
#414=CARTESIAN_POINT('',(-0.02,0.015,-0.0165));
#415=CARTESIAN_POINT('',(-0.02,-0.03,-0.0165));
#416=CARTESIAN_POINT('',(-0.02,-0.03,8.67361737988404E-19));
#417=CARTESIAN_POINT('',(-0.02,-0.03,0.0065));
#418=CARTESIAN_POINT('',(-0.02,0.015,0.0065));
#419=CARTESIAN_POINT('',(5.20417042793042E-18,0.015,-0.0225));
#420=CARTESIAN_POINT('',(5.20417042793042E-18,-0.03,-0.0225));
#421=CARTESIAN_POINT('',(-0.014,-0.03,-0.0225));
#422=CARTESIAN_POINT('',(0.014,-0.03,-0.0225));
#423=CARTESIAN_POINT('',(-0.014,0.015,-0.0225));
#424=CARTESIAN_POINT('',(-0.014,0.015,-0.0225));
#425=CARTESIAN_POINT('',(5.20417042793042E-18,0.015,-0.0225));
#426=CARTESIAN_POINT('',(0.014,0.015,-0.0225));
#427=CARTESIAN_POINT('',(0.014,-0.03,-0.0225));
#428=CARTESIAN_POINT('',(0.02,0.015,5.20417042793042E-18));
#429=CARTESIAN_POINT('',(0.02,-0.03,5.20417042793042E-18));
#430=CARTESIAN_POINT('',(0.02,-0.03,0.0065));
#431=CARTESIAN_POINT('',(0.02,-0.03,-0.0165));
#432=CARTESIAN_POINT('',(0.02,0.015,-0.0165));
#433=CARTESIAN_POINT('',(0.02,0.015,-0.0165));
#434=CARTESIAN_POINT('',(0.02,0.015,5.20417042793042E-18));
#435=CARTESIAN_POINT('',(0.02,0.015,0.0065));
#436=CARTESIAN_POINT('',(0.02,-0.03,0.0065));
#437=CARTESIAN_POINT('',(-3.46944695195361E-18,0.015,0.0125));
#438=CARTESIAN_POINT('',(-1.3010426069826E-18,-0.0045,0.0125));
#439=CARTESIAN_POINT('',(0.00205,-0.0045,0.0125));
#440=CARTESIAN_POINT('',(-3.46944695195361E-18,0.015,0.0125));
#441=CARTESIAN_POINT('',(0.014,0.015,0.0125));
#442=CARTESIAN_POINT('',(-0.014,0.015,0.0125));
#443=CARTESIAN_POINT('',(-0.014,0.015,0.0125));
#444=CARTESIAN_POINT('',(-0.014,-0.03,0.0125));
#445=CARTESIAN_POINT('',(-3.46944695195361E-18,-0.03,0.0125));
#446=CARTESIAN_POINT('',(0.014,-0.03,0.0125));
#447=CARTESIAN_POINT('',(0.014,0.015,0.0125));
#448=CARTESIAN_POINT('',(3.46944695195361E-18,0.015,-0.005));
#449=CARTESIAN_POINT('',(-0.014,0.015,-0.0165));
#450=CARTESIAN_POINT('',(-0.014,0.015,0.0065));
#451=CARTESIAN_POINT('',(0.014,0.015,0.0065));
#452=CARTESIAN_POINT('',(0.014,0.015,-0.0165));
#453=CARTESIAN_POINT('',(1.61086973506946E-18,-0.03,-6.07153216591882E-18));
#454=CARTESIAN_POINT('',(1.61086973506946E-18,-0.028,-6.07153216591882E-18));
#455=CARTESIAN_POINT('',(1.61086973506946E-18,-0.028,-0.00617500000000001));
#456=CARTESIAN_POINT('',(0.00189830215808478,-0.00349880471867327,-0.00587905576837968));
#457=CARTESIAN_POINT('',(0.00207355649033611,-0.00446773774487431,-0.00581599013717488));
#458=CARTESIAN_POINT('',(0.00191728271877225,-0.00543122031104579,-0.00587207829136024));
#459=CARTESIAN_POINT('',(0.00149380091593756,-0.00624212885828608,-0.006000473167607));
#460=CARTESIAN_POINT('',(0.000837623024703576,-0.00679528825539672,-0.00613321339521451));
#461=CARTESIAN_POINT('',(4.40445677892724E-5,-0.00701680153126394,-0.00619281223824312));
#462=CARTESIAN_POINT('',(-0.000753995883802665,-0.00683734705971627,-0.00614462886029899));
#463=CARTESIAN_POINT('',(-0.0014355529050001,-0.00631311444005612,-0.00601557926154974));
#464=CARTESIAN_POINT('',(-0.00189107057696519,-0.00551607200437544,-0.00588122482306495));
#465=CARTESIAN_POINT('',(-0.00207295269990837,-0.00455229371506415,-0.00581621625554373));
#466=CARTESIAN_POINT('',(-0.00192508589857205,-0.00358475697113283,-0.00586961560907538));
#467=CARTESIAN_POINT('',(-0.00149435193724267,-0.00275793782239106,-0.00600040033246852));
#468=CARTESIAN_POINT('',(-0.000836479223638749,-0.00220425224679005,-0.00613340572476914));
#469=CARTESIAN_POINT('',(-4.26477601685991E-5,-0.00198352000349339,-0.006192801101031));
#470=CARTESIAN_POINT('',(0.000754369191762384,-0.00216194190603571,-0.00614452808197399));
#471=CARTESIAN_POINT('',(0.00143495647840686,-0.00268587089613787,-0.0060157185448451));
#472=CARTESIAN_POINT('',(0.00189830215808478,-0.00349880471867327,-0.00587905576837968));
#473=CARTESIAN_POINT('',(0.00207355649033611,-0.00446773774487431,-0.00581599013717488));
#474=CARTESIAN_POINT('',(0.00191728271877225,-0.00543122031104579,-0.00587207829136024));
#475=CARTESIAN_POINT('',(0.00201843279604971,-0.0045,-0.00583579934951769));
#476=CARTESIAN_POINT('',(0.000823690452101553,-0.00532208010291093,0.0061302558164879));
#477=CARTESIAN_POINT('',(-1.94071811685876E-7,-0.00566390089206332,0.00619735206252511));
#478=CARTESIAN_POINT('',(-0.0008229141648548,-0.00532231632883579,0.00613033593341168));
#479=CARTESIAN_POINT('',(-0.00116350496357711,-0.00450102346443528,0.00606244482823975));
#480=CARTESIAN_POINT('',(-0.000823064931277773,-0.00367722635602205,0.0061303286460889));
#481=CARTESIAN_POINT('',(-3.14469699628584E-7,-0.00333660521016084,0.00619729357034925));
#482=CARTESIAN_POINT('',(0.000821849877004457,-0.00367635328868365,0.00613049698998506));
#483=CARTESIAN_POINT('',(0.00116361441987992,-0.00449913937137791,0.006062422812125));
#484=CARTESIAN_POINT('',(0.000823690452101553,-0.00532208010291093,0.0061302558164879));
#485=CARTESIAN_POINT('',(-1.94071811685876E-7,-0.00566390089206332,0.00619735206252511));
#486=CARTESIAN_POINT('',(-0.0008229141648548,-0.00532231632883579,0.00613033593341168));
#487=CARTESIAN_POINT('',(1.62080604656526E-18,-0.00555,0.006175));
#488=CARTESIAN_POINT('',(1.61086973506946E-18,0.,-6.07153216591882E-18));
#489=CARTESIAN_POINT('',(1.61086973506946E-18,0.,-0.00617500000000001));
#490=CARTESIAN_POINT('',(3.46944695195361E-18,-0.03,-0.005));
#491=CARTESIAN_POINT('',(1.61086973506946E-18,-0.03,-6.07153216591882E-18));
#492=CARTESIAN_POINT('',(1.61086973506946E-18,-0.03,-0.00817500000000001));
#493=CARTESIAN_POINT('',(-0.014,-0.03,-0.0165));
#494=CARTESIAN_POINT('',(0.014,-0.03,-0.0165));
#495=CARTESIAN_POINT('',(0.014,-0.03,0.0065));
#496=CARTESIAN_POINT('',(-0.014,-0.03,0.0065));
#497=CARTESIAN_POINT('',(3.46944695195361E-18,0.,-0.005));
#498=CARTESIAN_POINT('',(-1.84314369322536E-18,-0.0075,-0.0125));
#499=CARTESIAN_POINT('',(1.95156391047391E-18,-0.0045,-0.0125));
#500=CARTESIAN_POINT('',(0.00105,-0.0045,-0.0125));
#501=CARTESIAN_POINT('',(1.95156391047391E-18,-0.0045,-0.0125));
#502=CARTESIAN_POINT('',(0.00102521876647734,-0.00485073703008583,-0.00711660701056634));
#503=CARTESIAN_POINT('',(0.00106185501274808,-0.00451060702447853,-0.00707020819171421));
#504=CARTESIAN_POINT('',(0.00102742864816443,-0.00418627067691763,-0.00711301673610883));
#505=CARTESIAN_POINT('',(0.000804941480786631,-0.00376319726621604,-0.00727258172998732));
#506=CARTESIAN_POINT('',(0.000384803072157879,-0.0034907860156902,-0.00745774406554559));
#507=CARTESIAN_POINT('',(2.86263243345416E-5,-0.0034360091407496,-0.00751106048567175));
#508=CARTESIAN_POINT('',(-0.000299886598898242,-0.00346833242104411,-0.00747609673875384));
#509=CARTESIAN_POINT('',(-0.000727530073876786,-0.00368345470402917,-0.00732168549188809));
#510=CARTESIAN_POINT('',(-0.00101439825402942,-0.00412405070211381,-0.00712518522526467));
#511=CARTESIAN_POINT('',(-0.00106167446644987,-0.00447406732823713,-0.00707079448615233));
#512=CARTESIAN_POINT('',(-0.00103598833796218,-0.00478803590845688,-0.00710558369718684));
#513=CARTESIAN_POINT('',(-0.000814761336751312,-0.00522983753272688,-0.00726777278183687));
#514=CARTESIAN_POINT('',(-0.00038584566516181,-0.00550917280734767,-0.00745761853981338));
#515=CARTESIAN_POINT('',(-2.81651426555402E-5,-0.00556403971810667,-0.00751100711308783));
#516=CARTESIAN_POINT('',(0.000300027638693938,-0.00553154105569211,-0.00747632322854002));
#517=CARTESIAN_POINT('',(0.000735882185183794,-0.00531258494865251,-0.00731833280827528));
#518=CARTESIAN_POINT('',(0.00102521876647734,-0.00485073703008583,-0.00711660701056634));
#519=CARTESIAN_POINT('',(0.00106185501274808,-0.00451060702447853,-0.00707020819171421));
#520=CARTESIAN_POINT('',(0.00102742864816443,-0.00418627067691763,-0.00711301673610883));
#521=CARTESIAN_POINT('',(0.00105,-0.0045,-0.00708507392459428));
#522=CARTESIAN_POINT('',(1.95156391047391E-18,-0.0045,-0.0125));
#523=CARTESIAN_POINT('',(-1.17093834628434E-18,-0.0045,0.0115));
#524=CARTESIAN_POINT('',(0.00105,-0.0045,0.0115));
#525=CARTESIAN_POINT('',(0.00105025601759573,-0.00477785388047588,-0.00708490498845744));
#526=CARTESIAN_POINT('',(0.00104974398240427,-0.00422214611952412,-0.00708524286073111));
#527=CARTESIAN_POINT('',(0.000935187795948367,-0.00395068078846042,-0.00718499752576889));
#528=CARTESIAN_POINT('',(0.000549590904471745,-0.00356424944523944,-0.00740285855519546));
#529=CARTESIAN_POINT('',(0.000277402841866724,-0.00344979917234394,-0.00749703044324037));
#530=CARTESIAN_POINT('',(-0.000277676341303152,-0.00345020084546605,-0.00749674464203267));
#531=CARTESIAN_POINT('',(-0.000549408207819264,-0.00356439661532996,-0.00740280344169867));
#532=CARTESIAN_POINT('',(-0.00093552406618025,-0.00395068717772951,-0.00718496749634346));
#533=CARTESIAN_POINT('',(-0.00104995788573679,-0.00422229763110967,-0.00708507068792408));
#534=CARTESIAN_POINT('',(-0.00105004194737234,-0.00477853959145203,-0.00708507729597933));
#535=CARTESIAN_POINT('',(-0.000935727412877373,-0.00504930361201809,-0.00718487918103291));
#536=CARTESIAN_POINT('',(-0.000549591176054962,-0.0054352261752789,-0.00740267753852401));
#537=CARTESIAN_POINT('',(-0.000277071858612305,-0.00555008946121123,-0.00749697006376738));
#538=CARTESIAN_POINT('',(0.000278598233845591,-0.00554990998406934,-0.00749680461191754));
#539=CARTESIAN_POINT('',(0.000549807678207941,-0.00543515856311442,-0.00740268951738384));
#540=CARTESIAN_POINT('',(0.000935387960797211,-0.00504949422925156,-0.00718493538647586));
#541=CARTESIAN_POINT('',(0.00105025601759573,-0.00477785388047588,-0.00708490498845744));
#542=CARTESIAN_POINT('',(0.00104974398240427,-0.00422214611952412,-0.00708524286073111));
#543=CARTESIAN_POINT('',(0.00201892492159105,-0.00514843521435246,-0.00583566020707615));
#544=CARTESIAN_POINT('',(0.00201794067050837,-0.00385156478564754,-0.00583593849195922));
#545=CARTESIAN_POINT('',(0.00179772755187061,-0.0032179831459467,-0.00591810388821288));
#546=CARTESIAN_POINT('',(0.00105648770889512,-0.00231611798491909,-0.00609755070257877));
#547=CARTESIAN_POINT('',(0.000533238028380462,-0.0020490108816119,-0.00617511769407573));
#548=CARTESIAN_POINT('',(-0.000533763780982545,-0.00204994828608608,-0.00617488229473336));
#549=CARTESIAN_POINT('',(-0.0010561365310603,-0.00231646148314222,-0.00609750530132083));
#550=CARTESIAN_POINT('',(-0.00179837394679997,-0.00321799802900835,-0.00591807915936131));
#551=CARTESIAN_POINT('',(-0.00201835184258238,-0.00385191823593207,-0.00583579668367058));
#552=CARTESIAN_POINT('',(-0.00201851342869989,-0.00515003569835146,-0.00583580212632608));
#553=CARTESIAN_POINT('',(-0.00179876488972157,-0.00578198042009452,-0.00591800640509788));
#554=CARTESIAN_POINT('',(-0.00105648820788157,-0.00668265823038946,-0.00609740160914067));
#555=CARTESIAN_POINT('',(-0.000532602966865623,-0.00695072921744998,-0.00617506796284549));
#556=CARTESIAN_POINT('',(0.000535537143846517,-0.0069503103617972,-0.00617493168859603));
#557=CARTESIAN_POINT('',(0.0010569042957711,-0.00668250055421573,-0.00609741149957952));
#558=CARTESIAN_POINT('',(0.0017981124531032,-0.00578242516906387,-0.00591805267637505));
#559=CARTESIAN_POINT('',(0.00201892492159105,-0.00514843521435246,-0.00583566020707615));
#560=CARTESIAN_POINT('',(0.00201794067050837,-0.00385156478564754,-0.00583593849195922));
#561=CARTESIAN_POINT('',(-1.17093834628434E-18,-0.0045,0.0115));
#562=CARTESIAN_POINT('',(-0.014,0.015,-0.0165));
#563=CARTESIAN_POINT('',(-0.014,0.015,0.0065));
#564=CARTESIAN_POINT('',(0.014,0.015,-0.0165));
#565=CARTESIAN_POINT('',(0.014,0.015,0.0065));
#566=CARTESIAN_POINT('',(1.61086973506946E-18,-0.028,-6.07153216591882E-18));
#567=MECHANICAL_DESIGN_GEOMETRIC_PRESENTATION_REPRESENTATION('',(#286),
#568);
#568=(
GEOMETRIC_REPRESENTATION_CONTEXT(3)
GLOBAL_UNCERTAINTY_ASSIGNED_CONTEXT((#569))
GLOBAL_UNIT_ASSIGNED_CONTEXT((#572,#571,#570))
REPRESENTATION_CONTEXT('Part 1','TOP_LEVEL_ASSEMBLY_PART')
);
#569=UNCERTAINTY_MEASURE_WITH_UNIT(LENGTH_MEASURE(2.E-5),#572,
'DISTANCE_ACCURACY_VALUE','Maximum Tolerance applied to model');
#570=(
NAMED_UNIT(*)
SI_UNIT($,.STERADIAN.)
SOLID_ANGLE_UNIT()
);
#571=(
NAMED_UNIT(*)
PLANE_ANGLE_UNIT()
SI_UNIT($,.RADIAN.)
);
#572=(
LENGTH_UNIT()
NAMED_UNIT(*)
SI_UNIT($,.METRE.)
);
#573=PRODUCT_DEFINITION_SHAPE('','',#574);
#574=PRODUCT_DEFINITION('','',#576,#575);
#575=PRODUCT_DEFINITION_CONTEXT('',#582,'design');
#576=PRODUCT_DEFINITION_FORMATION_WITH_SPECIFIED_SOURCE('','',#578,
 .NOT_KNOWN.);
#577=PRODUCT_RELATED_PRODUCT_CATEGORY('','',(#578));
#578=PRODUCT('Part 1','Part 1','Part 1',(#580));
#579=PRODUCT_CATEGORY('','');
#580=PRODUCT_CONTEXT('',#582,'mechanical');
#581=APPLICATION_PROTOCOL_DEFINITION('international standard',
'automotive_design',2010,#582);
#582=APPLICATION_CONTEXT(
'core data for automotive mechanical design processes');
ENDSEC;
END-ISO-10303-21;
