ISO-10303-21;
HEADER;
/* Generated by software containing ST-Developer
 * from STEP Tools, Inc. (www.steptools.com) 
 */
/* OPTION: using custom renumber hook */

FILE_DESCRIPTION(
/* description */ ('STEP AP214',
'CAx-IF Rec.Pracs.---User Defined Attributes---1.5---2016-08-15'),
/* implementation_level */ '2;1');

FILE_NAME(
/* name */ '6a7bf8db7fc1e53ddff6470c',
/* time_stamp */ '2026-08-12T04:38:52Z',
/* author */ (''),
/* organization */ (''),
/* preprocessor_version */ 'ST-DEVELOPER v20',
/* originating_system */ 'ONSHAPE BY PTC INC, 1.219',
/* authorisation */ '  ');

FILE_SCHEMA (('AUTOMOTIVE_DESIGN {1 0 10303 214 3 1 1}'));
ENDSEC;

DATA;
#10=PROPERTY_DEFINITION_REPRESENTATION(#14,#12);
#11=PROPERTY_DEFINITION_REPRESENTATION(#15,#13);
#12=REPRESENTATION('',(#16),#907);
#13=REPRESENTATION('',(#17),#907);
#14=PROPERTY_DEFINITION('pmi validation property','',#912);
#15=PROPERTY_DEFINITION('pmi validation property','',#912);
#16=VALUE_REPRESENTATION_ITEM('number of annotations',COUNT_MEASURE(0.));
#17=VALUE_REPRESENTATION_ITEM('number of views',COUNT_MEASURE(0.));
#18=SHAPE_REPRESENTATION_RELATIONSHIP('','',#559,#19);
#19=ADVANCED_BREP_SHAPE_REPRESENTATION('',(#557),#907);
#20=CYLINDRICAL_SURFACE('',#573,0.0061);
#21=CYLINDRICAL_SURFACE('',#581,0.0061);
#22=CYLINDRICAL_SURFACE('',#588,0.003);
#23=CYLINDRICAL_SURFACE('',#590,0.003);
#24=CYLINDRICAL_SURFACE('',#592,0.003);
#25=CYLINDRICAL_SURFACE('',#594,0.003);
#26=CIRCLE('',#565,0.003);
#27=CIRCLE('',#567,0.0061);
#28=CIRCLE('',#569,0.003);
#29=CIRCLE('',#570,0.003);
#30=CIRCLE('',#572,0.0061);
#31=CIRCLE('',#574,0.0061);
#32=CIRCLE('',#575,0.0061);
#33=CIRCLE('',#580,0.0061);
#34=CIRCLE('',#582,0.0061);
#35=CIRCLE('',#587,0.003);
#36=CIRCLE('',#589,0.003);
#37=CIRCLE('',#591,0.003);
#38=CIRCLE('',#593,0.003);
#39=CIRCLE('',#595,0.003);
#40=ORIENTED_EDGE('',*,*,#192,.F.);
#41=ORIENTED_EDGE('',*,*,#193,.T.);
#42=ORIENTED_EDGE('',*,*,#194,.T.);
#43=ORIENTED_EDGE('',*,*,#195,.T.);
#44=ORIENTED_EDGE('',*,*,#196,.T.);
#45=ORIENTED_EDGE('',*,*,#197,.F.);
#46=ORIENTED_EDGE('',*,*,#198,.T.);
#47=ORIENTED_EDGE('',*,*,#199,.T.);
#48=ORIENTED_EDGE('',*,*,#200,.F.);
#49=ORIENTED_EDGE('',*,*,#201,.T.);
#50=ORIENTED_EDGE('',*,*,#202,.T.);
#51=ORIENTED_EDGE('',*,*,#203,.T.);
#52=ORIENTED_EDGE('',*,*,#204,.T.);
#53=ORIENTED_EDGE('',*,*,#205,.T.);
#54=ORIENTED_EDGE('',*,*,#206,.T.);
#55=ORIENTED_EDGE('',*,*,#207,.T.);
#56=ORIENTED_EDGE('',*,*,#208,.T.);
#57=ORIENTED_EDGE('',*,*,#209,.F.);
#58=ORIENTED_EDGE('',*,*,#210,.T.);
#59=ORIENTED_EDGE('',*,*,#211,.F.);
#60=ORIENTED_EDGE('',*,*,#212,.T.);
#61=ORIENTED_EDGE('',*,*,#213,.T.);
#62=ORIENTED_EDGE('',*,*,#214,.T.);
#63=ORIENTED_EDGE('',*,*,#215,.F.);
#64=ORIENTED_EDGE('',*,*,#216,.F.);
#65=ORIENTED_EDGE('',*,*,#217,.T.);
#66=ORIENTED_EDGE('',*,*,#205,.F.);
#67=ORIENTED_EDGE('',*,*,#218,.T.);
#68=ORIENTED_EDGE('',*,*,#219,.F.);
#69=ORIENTED_EDGE('',*,*,#220,.F.);
#70=ORIENTED_EDGE('',*,*,#221,.T.);
#71=ORIENTED_EDGE('',*,*,#222,.T.);
#72=ORIENTED_EDGE('',*,*,#209,.T.);
#73=ORIENTED_EDGE('',*,*,#223,.T.);
#74=ORIENTED_EDGE('',*,*,#224,.F.);
#75=ORIENTED_EDGE('',*,*,#225,.T.);
#76=ORIENTED_EDGE('',*,*,#226,.T.);
#77=ORIENTED_EDGE('',*,*,#194,.F.);
#78=ORIENTED_EDGE('',*,*,#227,.T.);
#79=ORIENTED_EDGE('',*,*,#215,.T.);
#80=ORIENTED_EDGE('',*,*,#228,.T.);
#81=ORIENTED_EDGE('',*,*,#211,.T.);
#82=ORIENTED_EDGE('',*,*,#229,.T.);
#83=ORIENTED_EDGE('',*,*,#230,.F.);
#84=ORIENTED_EDGE('',*,*,#231,.F.);
#85=ORIENTED_EDGE('',*,*,#232,.T.);
#86=ORIENTED_EDGE('',*,*,#233,.F.);
#87=ORIENTED_EDGE('',*,*,#207,.F.);
#88=ORIENTED_EDGE('',*,*,#234,.T.);
#89=ORIENTED_EDGE('',*,*,#232,.F.);
#90=ORIENTED_EDGE('',*,*,#235,.T.);
#91=ORIENTED_EDGE('',*,*,#236,.T.);
#92=ORIENTED_EDGE('',*,*,#237,.F.);
#93=ORIENTED_EDGE('',*,*,#238,.F.);
#94=ORIENTED_EDGE('',*,*,#239,.F.);
#95=ORIENTED_EDGE('',*,*,#240,.T.);
#96=ORIENTED_EDGE('',*,*,#241,.T.);
#97=ORIENTED_EDGE('',*,*,#242,.F.);
#98=ORIENTED_EDGE('',*,*,#236,.F.);
#99=ORIENTED_EDGE('',*,*,#243,.T.);
#100=ORIENTED_EDGE('',*,*,#219,.T.);
#101=ORIENTED_EDGE('',*,*,#244,.T.);
#102=ORIENTED_EDGE('',*,*,#217,.F.);
#103=ORIENTED_EDGE('',*,*,#245,.T.);
#104=ORIENTED_EDGE('',*,*,#234,.F.);
#105=ORIENTED_EDGE('',*,*,#206,.F.);
#106=ORIENTED_EDGE('',*,*,#222,.F.);
#107=ORIENTED_EDGE('',*,*,#246,.T.);
#108=ORIENTED_EDGE('',*,*,#229,.F.);
#109=ORIENTED_EDGE('',*,*,#210,.F.);
#110=ORIENTED_EDGE('',*,*,#247,.F.);
#111=ORIENTED_EDGE('',*,*,#248,.F.);
#112=ORIENTED_EDGE('',*,*,#249,.T.);
#113=ORIENTED_EDGE('',*,*,#196,.F.);
#114=ORIENTED_EDGE('',*,*,#250,.T.);
#115=ORIENTED_EDGE('',*,*,#251,.F.);
#116=ORIENTED_EDGE('',*,*,#252,.T.);
#117=ORIENTED_EDGE('',*,*,#220,.T.);
#118=ORIENTED_EDGE('',*,*,#248,.T.);
#119=ORIENTED_EDGE('',*,*,#253,.F.);
#120=ORIENTED_EDGE('',*,*,#251,.T.);
#121=ORIENTED_EDGE('',*,*,#254,.T.);
#122=ORIENTED_EDGE('',*,*,#224,.T.);
#123=ORIENTED_EDGE('',*,*,#255,.F.);
#124=ORIENTED_EDGE('',*,*,#223,.F.);
#125=ORIENTED_EDGE('',*,*,#208,.F.);
#126=ORIENTED_EDGE('',*,*,#233,.T.);
#127=ORIENTED_EDGE('',*,*,#256,.T.);
#128=ORIENTED_EDGE('',*,*,#197,.T.);
#129=ORIENTED_EDGE('',*,*,#249,.F.);
#130=ORIENTED_EDGE('',*,*,#238,.T.);
#131=ORIENTED_EDGE('',*,*,#257,.T.);
#132=ORIENTED_EDGE('',*,*,#258,.T.);
#133=ORIENTED_EDGE('',*,*,#198,.F.);
#134=ORIENTED_EDGE('',*,*,#256,.F.);
#135=ORIENTED_EDGE('',*,*,#259,.T.);
#136=ORIENTED_EDGE('',*,*,#260,.T.);
#137=ORIENTED_EDGE('',*,*,#241,.F.);
#138=ORIENTED_EDGE('',*,*,#261,.T.);
#139=ORIENTED_EDGE('',*,*,#200,.T.);
#140=ORIENTED_EDGE('',*,*,#262,.F.);
#141=ORIENTED_EDGE('',*,*,#202,.F.);
#142=ORIENTED_EDGE('',*,*,#228,.F.);
#143=ORIENTED_EDGE('',*,*,#214,.F.);
#144=ORIENTED_EDGE('',*,*,#263,.F.);
#145=ORIENTED_EDGE('',*,*,#212,.F.);
#146=ORIENTED_EDGE('',*,*,#227,.F.);
#147=ORIENTED_EDGE('',*,*,#193,.F.);
#148=ORIENTED_EDGE('',*,*,#264,.F.);
#149=ORIENTED_EDGE('',*,*,#201,.F.);
#150=ORIENTED_EDGE('',*,*,#261,.F.);
#151=ORIENTED_EDGE('',*,*,#240,.F.);
#152=ORIENTED_EDGE('',*,*,#265,.F.);
#153=ORIENTED_EDGE('',*,*,#244,.F.);
#154=ORIENTED_EDGE('',*,*,#218,.F.);
#155=ORIENTED_EDGE('',*,*,#204,.F.);
#156=ORIENTED_EDGE('',*,*,#266,.F.);
#157=ORIENTED_EDGE('',*,*,#259,.F.);
#158=ORIENTED_EDGE('',*,*,#199,.F.);
#159=ORIENTED_EDGE('',*,*,#258,.F.);
#160=ORIENTED_EDGE('',*,*,#267,.F.);
#161=ORIENTED_EDGE('',*,*,#250,.F.);
#162=ORIENTED_EDGE('',*,*,#195,.F.);
#163=ORIENTED_EDGE('',*,*,#226,.F.);
#164=ORIENTED_EDGE('',*,*,#247,.T.);
#165=ORIENTED_EDGE('',*,*,#267,.T.);
#166=ORIENTED_EDGE('',*,*,#225,.F.);
#167=ORIENTED_EDGE('',*,*,#254,.F.);
#168=ORIENTED_EDGE('',*,*,#253,.T.);
#169=ORIENTED_EDGE('',*,*,#252,.F.);
#170=ORIENTED_EDGE('',*,*,#255,.T.);
#171=ORIENTED_EDGE('',*,*,#230,.T.);
#172=ORIENTED_EDGE('',*,*,#246,.F.);
#173=ORIENTED_EDGE('',*,*,#221,.F.);
#174=ORIENTED_EDGE('',*,*,#237,.T.);
#175=ORIENTED_EDGE('',*,*,#242,.T.);
#176=ORIENTED_EDGE('',*,*,#260,.F.);
#177=ORIENTED_EDGE('',*,*,#266,.T.);
#178=ORIENTED_EDGE('',*,*,#257,.F.);
#179=ORIENTED_EDGE('',*,*,#231,.T.);
#180=ORIENTED_EDGE('',*,*,#245,.F.);
#181=ORIENTED_EDGE('',*,*,#216,.T.);
#182=ORIENTED_EDGE('',*,*,#243,.F.);
#183=ORIENTED_EDGE('',*,*,#235,.F.);
#184=ORIENTED_EDGE('',*,*,#203,.F.);
#185=ORIENTED_EDGE('',*,*,#262,.T.);
#186=ORIENTED_EDGE('',*,*,#213,.F.);
#187=ORIENTED_EDGE('',*,*,#263,.T.);
#188=ORIENTED_EDGE('',*,*,#192,.T.);
#189=ORIENTED_EDGE('',*,*,#264,.T.);
#190=ORIENTED_EDGE('',*,*,#239,.T.);
#191=ORIENTED_EDGE('',*,*,#265,.T.);
#192=EDGE_CURVE('',#268,#269,#318,.T.);
#193=EDGE_CURVE('',#268,#270,#319,.F.);
#194=EDGE_CURVE('',#270,#271,#320,.T.);
#195=EDGE_CURVE('',#271,#272,#321,.F.);
#196=EDGE_CURVE('',#272,#273,#322,.T.);
#197=EDGE_CURVE('',#274,#273,#323,.T.);
#198=EDGE_CURVE('',#274,#275,#324,.T.);
#199=EDGE_CURVE('',#275,#276,#325,.F.);
#200=EDGE_CURVE('',#277,#276,#326,.T.);
#201=EDGE_CURVE('',#277,#269,#327,.F.);
#202=EDGE_CURVE('',#278,#279,#328,.T.);
#203=EDGE_CURVE('',#279,#280,#329,.T.);
#204=EDGE_CURVE('',#280,#281,#330,.F.);
#205=EDGE_CURVE('',#281,#282,#331,.T.);
#206=EDGE_CURVE('',#282,#283,#332,.F.);
#207=EDGE_CURVE('',#283,#284,#333,.T.);
#208=EDGE_CURVE('',#284,#285,#334,.T.);
#209=EDGE_CURVE('',#286,#285,#335,.T.);
#210=EDGE_CURVE('',#286,#287,#336,.F.);
#211=EDGE_CURVE('',#278,#287,#337,.T.);
#212=EDGE_CURVE('',#288,#289,#338,.T.);
#213=EDGE_CURVE('',#289,#290,#339,.T.);
#214=EDGE_CURVE('',#290,#291,#340,.F.);
#215=EDGE_CURVE('',#288,#291,#341,.T.);
#216=EDGE_CURVE('',#292,#293,#342,.T.);
#217=EDGE_CURVE('',#292,#282,#343,.T.);
#218=EDGE_CURVE('',#281,#294,#26,.F.);
#219=EDGE_CURVE('',#293,#294,#344,.T.);
#220=EDGE_CURVE('',#295,#296,#27,.T.);
#221=EDGE_CURVE('',#295,#297,#345,.T.);
#222=EDGE_CURVE('',#297,#286,#346,.T.);
#223=EDGE_CURVE('',#285,#296,#347,.T.);
#224=EDGE_CURVE('',#298,#299,#348,.T.);
#225=EDGE_CURVE('',#298,#300,#349,.T.);
#226=EDGE_CURVE('',#300,#271,#350,.T.);
#227=EDGE_CURVE('',#270,#288,#28,.T.);
#228=EDGE_CURVE('',#291,#278,#29,.T.);
#229=EDGE_CURVE('',#287,#301,#351,.T.);
#230=EDGE_CURVE('',#299,#301,#352,.T.);
#231=EDGE_CURVE('',#302,#303,#353,.T.);
#232=EDGE_CURVE('',#302,#304,#30,.T.);
#233=EDGE_CURVE('',#284,#304,#354,.T.);
#234=EDGE_CURVE('',#283,#303,#355,.T.);
#235=EDGE_CURVE('',#302,#305,#356,.T.);
#236=EDGE_CURVE('',#305,#306,#31,.T.);
#237=EDGE_CURVE('',#307,#306,#357,.T.);
#238=EDGE_CURVE('',#304,#307,#32,.T.);
#239=EDGE_CURVE('',#308,#309,#358,.T.);
#240=EDGE_CURVE('',#308,#310,#359,.T.);
#241=EDGE_CURVE('',#310,#311,#360,.T.);
#242=EDGE_CURVE('',#306,#311,#361,.T.);
#243=EDGE_CURVE('',#305,#293,#362,.T.);
#244=EDGE_CURVE('',#294,#309,#363,.T.);
#245=EDGE_CURVE('',#292,#303,#364,.F.);
#246=EDGE_CURVE('',#297,#301,#365,.F.);
#247=EDGE_CURVE('',#312,#313,#366,.T.);
#248=EDGE_CURVE('',#296,#312,#33,.T.);
#249=EDGE_CURVE('',#296,#273,#367,.T.);
#250=EDGE_CURVE('',#272,#313,#368,.T.);
#251=EDGE_CURVE('',#314,#315,#34,.T.);
#252=EDGE_CURVE('',#314,#295,#369,.T.);
#253=EDGE_CURVE('',#315,#312,#370,.T.);
#254=EDGE_CURVE('',#315,#298,#371,.T.);
#255=EDGE_CURVE('',#314,#299,#372,.T.);
#256=EDGE_CURVE('',#304,#274,#373,.T.);
#257=EDGE_CURVE('',#307,#316,#374,.T.);
#258=EDGE_CURVE('',#316,#275,#375,.T.);
#259=EDGE_CURVE('',#276,#317,#376,.T.);
#260=EDGE_CURVE('',#317,#311,#377,.T.);
#261=EDGE_CURVE('',#310,#277,#35,.F.);
#262=EDGE_CURVE('',#279,#290,#36,.F.);
#263=EDGE_CURVE('',#289,#268,#37,.F.);
#264=EDGE_CURVE('',#269,#308,#38,.F.);
#265=EDGE_CURVE('',#309,#280,#39,.F.);
#266=EDGE_CURVE('',#317,#316,#378,.F.);
#267=EDGE_CURVE('',#313,#300,#379,.F.);
#268=VERTEX_POINT('',#754);
#269=VERTEX_POINT('',#755);
#270=VERTEX_POINT('',#757);
#271=VERTEX_POINT('',#759);
#272=VERTEX_POINT('',#761);
#273=VERTEX_POINT('',#763);
#274=VERTEX_POINT('',#765);
#275=VERTEX_POINT('',#767);
#276=VERTEX_POINT('',#769);
#277=VERTEX_POINT('',#771);
#278=VERTEX_POINT('',#775);
#279=VERTEX_POINT('',#776);
#280=VERTEX_POINT('',#778);
#281=VERTEX_POINT('',#780);
#282=VERTEX_POINT('',#782);
#283=VERTEX_POINT('',#784);
#284=VERTEX_POINT('',#786);
#285=VERTEX_POINT('',#788);
#286=VERTEX_POINT('',#790);
#287=VERTEX_POINT('',#792);
#288=VERTEX_POINT('',#796);
#289=VERTEX_POINT('',#797);
#290=VERTEX_POINT('',#799);
#291=VERTEX_POINT('',#801);
#292=VERTEX_POINT('',#805);
#293=VERTEX_POINT('',#806);
#294=VERTEX_POINT('',#809);
#295=VERTEX_POINT('',#813);
#296=VERTEX_POINT('',#814);
#297=VERTEX_POINT('',#816);
#298=VERTEX_POINT('',#821);
#299=VERTEX_POINT('',#822);
#300=VERTEX_POINT('',#824);
#301=VERTEX_POINT('',#829);
#302=VERTEX_POINT('',#833);
#303=VERTEX_POINT('',#834);
#304=VERTEX_POINT('',#836);
#305=VERTEX_POINT('',#841);
#306=VERTEX_POINT('',#843);
#307=VERTEX_POINT('',#845);
#308=VERTEX_POINT('',#849);
#309=VERTEX_POINT('',#850);
#310=VERTEX_POINT('',#852);
#311=VERTEX_POINT('',#854);
#312=VERTEX_POINT('',#864);
#313=VERTEX_POINT('',#865);
#314=VERTEX_POINT('',#871);
#315=VERTEX_POINT('',#872);
#316=VERTEX_POINT('',#882);
#317=VERTEX_POINT('',#886);
#318=LINE('',#753,#380);
#319=LINE('',#756,#381);
#320=LINE('',#758,#382);
#321=LINE('',#760,#383);
#322=LINE('',#762,#384);
#323=LINE('',#764,#385);
#324=LINE('',#766,#386);
#325=LINE('',#768,#387);
#326=LINE('',#770,#388);
#327=LINE('',#772,#389);
#328=LINE('',#774,#390);
#329=LINE('',#777,#391);
#330=LINE('',#779,#392);
#331=LINE('',#781,#393);
#332=LINE('',#783,#394);
#333=LINE('',#785,#395);
#334=LINE('',#787,#396);
#335=LINE('',#789,#397);
#336=LINE('',#791,#398);
#337=LINE('',#793,#399);
#338=LINE('',#795,#400);
#339=LINE('',#798,#401);
#340=LINE('',#800,#402);
#341=LINE('',#802,#403);
#342=LINE('',#804,#404);
#343=LINE('',#807,#405);
#344=LINE('',#810,#406);
#345=LINE('',#815,#407);
#346=LINE('',#817,#408);
#347=LINE('',#818,#409);
#348=LINE('',#820,#410);
#349=LINE('',#823,#411);
#350=LINE('',#825,#412);
#351=LINE('',#828,#413);
#352=LINE('',#830,#414);
#353=LINE('',#832,#415);
#354=LINE('',#837,#416);
#355=LINE('',#838,#417);
#356=LINE('',#840,#418);
#357=LINE('',#844,#419);
#358=LINE('',#848,#420);
#359=LINE('',#851,#421);
#360=LINE('',#853,#422);
#361=LINE('',#855,#423);
#362=LINE('',#856,#424);
#363=LINE('',#857,#425);
#364=LINE('',#859,#426);
#365=LINE('',#861,#427);
#366=LINE('',#863,#428);
#367=LINE('',#867,#429);
#368=LINE('',#868,#430);
#369=LINE('',#873,#431);
#370=LINE('',#874,#432);
#371=LINE('',#876,#433);
#372=LINE('',#877,#434);
#373=LINE('',#879,#435);
#374=LINE('',#881,#436);
#375=LINE('',#883,#437);
#376=LINE('',#885,#438);
#377=LINE('',#887,#439);
#378=LINE('',#898,#440);
#379=LINE('',#900,#441);
#380=VECTOR('',#607,1.);
#381=VECTOR('',#608,1.);
#382=VECTOR('',#609,1.);
#383=VECTOR('',#610,1.);
#384=VECTOR('',#611,1.);
#385=VECTOR('',#612,1.);
#386=VECTOR('',#613,1.);
#387=VECTOR('',#614,1.);
#388=VECTOR('',#615,1.);
#389=VECTOR('',#616,1.);
#390=VECTOR('',#619,1.);
#391=VECTOR('',#620,1.);
#392=VECTOR('',#621,1.);
#393=VECTOR('',#622,1.);
#394=VECTOR('',#623,1.);
#395=VECTOR('',#624,1.);
#396=VECTOR('',#625,1.);
#397=VECTOR('',#626,1.);
#398=VECTOR('',#627,1.);
#399=VECTOR('',#628,1.);
#400=VECTOR('',#631,1.);
#401=VECTOR('',#632,1.);
#402=VECTOR('',#633,1.);
#403=VECTOR('',#634,1.);
#404=VECTOR('',#637,1.);
#405=VECTOR('',#638,1.);
#406=VECTOR('',#641,1.);
#407=VECTOR('',#646,1.);
#408=VECTOR('',#647,1.);
#409=VECTOR('',#648,1.);
#410=VECTOR('',#651,1.);
#411=VECTOR('',#652,1.);
#412=VECTOR('',#653,1.);
#413=VECTOR('',#658,1.);
#414=VECTOR('',#659,1.);
#415=VECTOR('',#662,1.);
#416=VECTOR('',#665,1.);
#417=VECTOR('',#666,1.);
#418=VECTOR('',#669,1.);
#419=VECTOR('',#672,1.);
#420=VECTOR('',#677,1.);
#421=VECTOR('',#678,1.);
#422=VECTOR('',#679,1.);
#423=VECTOR('',#680,1.);
#424=VECTOR('',#681,1.);
#425=VECTOR('',#682,1.);
#426=VECTOR('',#685,1.);
#427=VECTOR('',#688,1.);
#428=VECTOR('',#691,1.);
#429=VECTOR('',#694,1.);
#430=VECTOR('',#695,1.);
#431=VECTOR('',#700,1.);
#432=VECTOR('',#701,1.);
#433=VECTOR('',#704,1.);
#434=VECTOR('',#705,1.);
#435=VECTOR('',#708,1.);
#436=VECTOR('',#711,1.);
#437=VECTOR('',#712,1.);
#438=VECTOR('',#715,1.);
#439=VECTOR('',#716,1.);
#440=VECTOR('',#737,1.);
#441=VECTOR('',#740,1.);
#442=EDGE_LOOP('',(#40,#41,#42,#43,#44,#45,#46,#47,#48,#49));
#443=EDGE_LOOP('',(#50,#51,#52,#53,#54,#55,#56,#57,#58,#59));
#444=EDGE_LOOP('',(#60,#61,#62,#63));
#445=EDGE_LOOP('',(#64,#65,#66,#67,#68));
#446=EDGE_LOOP('',(#69,#70,#71,#72,#73));
#447=EDGE_LOOP('',(#74,#75,#76,#77,#78,#79,#80,#81,#82,#83));
#448=EDGE_LOOP('',(#84,#85,#86,#87,#88));
#449=EDGE_LOOP('',(#89,#90,#91,#92,#93));
#450=EDGE_LOOP('',(#94,#95,#96,#97,#98,#99,#100,#101));
#451=EDGE_LOOP('',(#102,#103,#104,#105));
#452=EDGE_LOOP('',(#106,#107,#108,#109));
#453=EDGE_LOOP('',(#110,#111,#112,#113,#114));
#454=EDGE_LOOP('',(#115,#116,#117,#118,#119));
#455=EDGE_LOOP('',(#120,#121,#122,#123));
#456=EDGE_LOOP('',(#124,#125,#126,#127,#128,#129));
#457=EDGE_LOOP('',(#130,#131,#132,#133,#134));
#458=EDGE_LOOP('',(#135,#136,#137,#138,#139));
#459=EDGE_LOOP('',(#140,#141,#142,#143));
#460=EDGE_LOOP('',(#144,#145,#146,#147));
#461=EDGE_LOOP('',(#148,#149,#150,#151));
#462=EDGE_LOOP('',(#152,#153,#154,#155));
#463=EDGE_LOOP('',(#156,#157,#158,#159));
#464=EDGE_LOOP('',(#160,#161,#162,#163));
#465=EDGE_LOOP('',(#164,#165,#166,#167,#168));
#466=EDGE_LOOP('',(#169,#170,#171,#172,#173));
#467=EDGE_LOOP('',(#174,#175,#176,#177,#178));
#468=EDGE_LOOP('',(#179,#180,#181,#182,#183));
#469=EDGE_LOOP('',(#184,#185,#186,#187,#188,#189,#190,#191));
#470=FACE_BOUND('',#442,.T.);
#471=FACE_BOUND('',#443,.T.);
#472=FACE_BOUND('',#444,.T.);
#473=FACE_BOUND('',#445,.T.);
#474=FACE_BOUND('',#446,.T.);
#475=FACE_BOUND('',#447,.T.);
#476=FACE_BOUND('',#448,.T.);
#477=FACE_BOUND('',#449,.T.);
#478=FACE_BOUND('',#450,.T.);
#479=FACE_BOUND('',#451,.T.);
#480=FACE_BOUND('',#452,.T.);
#481=FACE_BOUND('',#453,.T.);
#482=FACE_BOUND('',#454,.T.);
#483=FACE_BOUND('',#455,.T.);
#484=FACE_BOUND('',#456,.T.);
#485=FACE_BOUND('',#457,.T.);
#486=FACE_BOUND('',#458,.T.);
#487=FACE_BOUND('',#459,.T.);
#488=FACE_BOUND('',#460,.T.);
#489=FACE_BOUND('',#461,.T.);
#490=FACE_BOUND('',#462,.T.);
#491=FACE_BOUND('',#463,.T.);
#492=FACE_BOUND('',#464,.T.);
#493=FACE_BOUND('',#465,.T.);
#494=FACE_BOUND('',#466,.T.);
#495=FACE_BOUND('',#467,.T.);
#496=FACE_BOUND('',#468,.T.);
#497=FACE_BOUND('',#469,.T.);
#498=PLANE('',#561);
#499=PLANE('',#562);
#500=PLANE('',#563);
#501=PLANE('',#564);
#502=PLANE('',#566);
#503=PLANE('',#568);
#504=PLANE('',#571);
#505=PLANE('',#576);
#506=PLANE('',#577);
#507=PLANE('',#578);
#508=PLANE('',#579);
#509=PLANE('',#583);
#510=PLANE('',#584);
#511=PLANE('',#585);
#512=PLANE('',#586);
#513=PLANE('',#596);
#514=PLANE('',#597);
#515=PLANE('',#598);
#516=PLANE('',#599);
#517=PLANE('',#600);
#518=PLANE('',#601);
#519=PLANE('',#602);
#520=ADVANCED_FACE('',(#470),#498,.F.);
#521=ADVANCED_FACE('',(#471),#499,.T.);
#522=ADVANCED_FACE('',(#472),#500,.T.);
#523=ADVANCED_FACE('',(#473),#501,.F.);
#524=ADVANCED_FACE('',(#474),#502,.T.);
#525=ADVANCED_FACE('',(#475),#503,.T.);
#526=ADVANCED_FACE('',(#476),#504,.F.);
#527=ADVANCED_FACE('',(#477),#20,.F.);
#528=ADVANCED_FACE('',(#478),#505,.T.);
#529=ADVANCED_FACE('',(#479),#506,.F.);
#530=ADVANCED_FACE('',(#480),#507,.F.);
#531=ADVANCED_FACE('',(#481),#508,.T.);
#532=ADVANCED_FACE('',(#482),#21,.F.);
#533=ADVANCED_FACE('',(#483),#509,.F.);
#534=ADVANCED_FACE('',(#484),#510,.T.);
#535=ADVANCED_FACE('',(#485),#511,.F.);
#536=ADVANCED_FACE('',(#486),#512,.F.);
#537=ADVANCED_FACE('',(#487),#22,.T.);
#538=ADVANCED_FACE('',(#488),#23,.T.);
#539=ADVANCED_FACE('',(#489),#24,.T.);
#540=ADVANCED_FACE('',(#490),#25,.T.);
#541=ADVANCED_FACE('',(#491),#513,.F.);
#542=ADVANCED_FACE('',(#492),#514,.F.);
#543=ADVANCED_FACE('',(#493),#515,.F.);
#544=ADVANCED_FACE('',(#494),#516,.T.);
#545=ADVANCED_FACE('',(#495),#517,.F.);
#546=ADVANCED_FACE('',(#496),#518,.T.);
#547=ADVANCED_FACE('',(#497),#519,.F.);
#548=CLOSED_SHELL('',(#520,#521,#522,#523,#524,#525,#526,#527,#528,#529,
#530,#531,#532,#533,#534,#535,#536,#537,#538,#539,#540,#541,#542,#543,#544,
#545,#546,#547));
#549=STYLED_ITEM('',(#550),#557);
#550=PRESENTATION_STYLE_ASSIGNMENT((#551));
#551=SURFACE_STYLE_USAGE(.BOTH.,#552);
#552=SURFACE_SIDE_STYLE('',(#553));
#553=SURFACE_STYLE_FILL_AREA(#554);
#554=FILL_AREA_STYLE('',(#555));
#555=FILL_AREA_STYLE_COLOUR('',#556);
#556=COLOUR_RGB('',0.615686274509804,0.811764705882353,0.929411764705882);
#557=MANIFOLD_SOLID_BREP('Part 1',#548);
#558=SHAPE_DEFINITION_REPRESENTATION(#912,#559);
#559=SHAPE_REPRESENTATION('Part 1',(#560),#907);
#560=AXIS2_PLACEMENT_3D('',#751,#603,#604);
#561=AXIS2_PLACEMENT_3D('',#752,#605,#606);
#562=AXIS2_PLACEMENT_3D('',#773,#617,#618);
#563=AXIS2_PLACEMENT_3D('',#794,#629,#630);
#564=AXIS2_PLACEMENT_3D('',#803,#635,#636);
#565=AXIS2_PLACEMENT_3D('',#808,#639,#640);
#566=AXIS2_PLACEMENT_3D('',#811,#642,#643);
#567=AXIS2_PLACEMENT_3D('',#812,#644,#645);
#568=AXIS2_PLACEMENT_3D('',#819,#649,#650);
#569=AXIS2_PLACEMENT_3D('',#826,#654,#655);
#570=AXIS2_PLACEMENT_3D('',#827,#656,#657);
#571=AXIS2_PLACEMENT_3D('',#831,#660,#661);
#572=AXIS2_PLACEMENT_3D('',#835,#663,#664);
#573=AXIS2_PLACEMENT_3D('',#839,#667,#668);
#574=AXIS2_PLACEMENT_3D('',#842,#670,#671);
#575=AXIS2_PLACEMENT_3D('',#846,#673,#674);
#576=AXIS2_PLACEMENT_3D('',#847,#675,#676);
#577=AXIS2_PLACEMENT_3D('',#858,#683,#684);
#578=AXIS2_PLACEMENT_3D('',#860,#686,#687);
#579=AXIS2_PLACEMENT_3D('',#862,#689,#690);
#580=AXIS2_PLACEMENT_3D('',#866,#692,#693);
#581=AXIS2_PLACEMENT_3D('',#869,#696,#697);
#582=AXIS2_PLACEMENT_3D('',#870,#698,#699);
#583=AXIS2_PLACEMENT_3D('',#875,#702,#703);
#584=AXIS2_PLACEMENT_3D('',#878,#706,#707);
#585=AXIS2_PLACEMENT_3D('',#880,#709,#710);
#586=AXIS2_PLACEMENT_3D('',#884,#713,#714);
#587=AXIS2_PLACEMENT_3D('',#888,#717,#718);
#588=AXIS2_PLACEMENT_3D('',#889,#719,#720);
#589=AXIS2_PLACEMENT_3D('',#890,#721,#722);
#590=AXIS2_PLACEMENT_3D('',#891,#723,#724);
#591=AXIS2_PLACEMENT_3D('',#892,#725,#726);
#592=AXIS2_PLACEMENT_3D('',#893,#727,#728);
#593=AXIS2_PLACEMENT_3D('',#894,#729,#730);
#594=AXIS2_PLACEMENT_3D('',#895,#731,#732);
#595=AXIS2_PLACEMENT_3D('',#896,#733,#734);
#596=AXIS2_PLACEMENT_3D('',#897,#735,#736);
#597=AXIS2_PLACEMENT_3D('',#899,#738,#739);
#598=AXIS2_PLACEMENT_3D('',#901,#741,#742);
#599=AXIS2_PLACEMENT_3D('',#902,#743,#744);
#600=AXIS2_PLACEMENT_3D('',#903,#745,#746);
#601=AXIS2_PLACEMENT_3D('',#904,#747,#748);
#602=AXIS2_PLACEMENT_3D('',#905,#749,#750);
#603=DIRECTION('',(0.,0.,1.));
#604=DIRECTION('',(1.,0.,0.));
#605=DIRECTION('',(-1.,0.,2.16840434497101E-16));
#606=DIRECTION('',(2.16840434497101E-16,0.,1.));
#607=DIRECTION('',(0.,-1.,0.));
#608=DIRECTION('',(-2.16840434497101E-16,0.,-1.));
#609=DIRECTION('',(0.,-1.,0.));
#610=DIRECTION('',(1.53329341668337E-16,0.707106781186548,0.707106781186547));
#611=DIRECTION('',(-2.16840434497101E-16,0.,-1.));
#612=DIRECTION('',(0.,1.,0.));
#613=DIRECTION('',(2.15493599500224E-16,0.,1.));
#614=DIRECTION('',(-1.53329341668337E-16,0.707106781186548,-0.707106781186548));
#615=DIRECTION('',(0.,1.,0.));
#616=DIRECTION('',(2.16840434497101E-16,0.,1.));
#617=DIRECTION('',(-1.,0.,2.16840434497101E-16));
#618=DIRECTION('',(2.16840434497101E-16,0.,1.));
#619=DIRECTION('',(-2.16840434497101E-16,0.,-1.));
#620=DIRECTION('',(0.,-1.,0.));
#621=DIRECTION('',(-2.16840434497101E-16,0.,-1.));
#622=DIRECTION('',(0.,1.,0.));
#623=DIRECTION('',(1.53329341668337E-16,-0.707106781186548,0.707106781186548));
#624=DIRECTION('',(-2.15493599500224E-16,0.,-1.));
#625=DIRECTION('',(0.,1.,0.));
#626=DIRECTION('',(-2.16840434497101E-16,0.,-1.));
#627=DIRECTION('',(-1.53329341668337E-16,-0.707106781186548,-0.707106781186547));
#628=DIRECTION('',(0.,-1.,0.));
#629=DIRECTION('',(0.,1.,0.));
#630=DIRECTION('',(-1.,0.,0.));
#631=DIRECTION('',(-2.16840434497101E-16,0.,-1.));
#632=DIRECTION('',(-1.,0.,2.31296463463574E-16));
#633=DIRECTION('',(-2.16840434497101E-16,0.,-1.));
#634=DIRECTION('',(-1.,0.,1.15648231731787E-16));
#635=DIRECTION('',(-1.15648231731787E-16,0.,-1.));
#636=DIRECTION('',(-1.,0.,1.15648231731787E-16));
#637=DIRECTION('',(0.,-1.,0.));
#638=DIRECTION('',(-1.,0.,1.15648231731787E-16));
#639=DIRECTION('',(-1.15648231731787E-16,0.,-1.));
#640=DIRECTION('',(-1.,0.,1.15648231731787E-16));
#641=DIRECTION('',(-1.,0.,1.15648231731787E-16));
#642=DIRECTION('',(0.,-1.,0.));
#643=DIRECTION('',(1.,0.,0.));
#644=DIRECTION('',(0.,-1.,0.));
#645=DIRECTION('',(0.,0.,-1.));
#646=DIRECTION('',(0.,0.,1.));
#647=DIRECTION('',(-1.,0.,1.15648231731787E-16));
#648=DIRECTION('',(1.,0.,0.));
#649=DIRECTION('',(1.15648231731787E-16,0.,1.));
#650=DIRECTION('',(1.,0.,-1.15648231731787E-16));
#651=DIRECTION('',(-1.,0.,1.15648231731787E-16));
#652=DIRECTION('',(0.,-1.,0.));
#653=DIRECTION('',(1.,0.,-1.15648231731787E-16));
#654=DIRECTION('',(1.15648231731787E-16,0.,1.));
#655=DIRECTION('',(1.,0.,-1.15648231731787E-16));
#656=DIRECTION('',(1.15648231731787E-16,0.,1.));
#657=DIRECTION('',(1.,0.,-1.15648231731787E-16));
#658=DIRECTION('',(1.,0.,-1.15648231731787E-16));
#659=DIRECTION('',(0.,-1.,0.));
#660=DIRECTION('',(0.,-1.,0.));
#661=DIRECTION('',(1.,0.,0.));
#662=DIRECTION('',(0.,0.,1.));
#663=DIRECTION('',(0.,-1.,0.));
#664=DIRECTION('',(0.,0.,-1.));
#665=DIRECTION('',(1.,0.,0.));
#666=DIRECTION('',(1.,0.,-1.15648231731787E-16));
#667=DIRECTION('',(0.,1.,0.));
#668=DIRECTION('',(0.,0.,1.));
#669=DIRECTION('',(0.,-1.,0.));
#670=DIRECTION('',(0.,-1.,0.));
#671=DIRECTION('',(0.,0.,-1.));
#672=DIRECTION('',(0.,-1.,0.));
#673=DIRECTION('',(0.,-1.,0.));
#674=DIRECTION('',(0.,0.,-1.));
#675=DIRECTION('',(0.,-1.,0.));
#676=DIRECTION('',(1.,0.,0.));
#677=DIRECTION('',(-1.,0.,2.31296463463574E-16));
#678=DIRECTION('',(2.16840434497101E-16,0.,1.));
#679=DIRECTION('',(-1.,0.,1.15648231731787E-16));
#680=DIRECTION('',(0.,0.,1.));
#681=DIRECTION('',(0.,0.,1.));
#682=DIRECTION('',(-2.16840434497101E-16,0.,-1.));
#683=DIRECTION('',(-8.177564888978E-17,-0.707106781186548,-0.707106781186548));
#684=DIRECTION('',(-1.,0.,1.15648231731787E-16));
#685=DIRECTION('',(0.,-0.707106781186548,0.707106781186548));
#686=DIRECTION('',(-8.177564888978E-17,0.707106781186547,-0.707106781186548));
#687=DIRECTION('',(-1.,0.,1.15648231731787E-16));
#688=DIRECTION('',(0.,-0.707106781186548,-0.707106781186547));
#689=DIRECTION('',(0.,-1.,0.));
#690=DIRECTION('',(1.,0.,0.));
#691=DIRECTION('',(0.,0.,1.));
#692=DIRECTION('',(0.,-1.,0.));
#693=DIRECTION('',(0.,0.,-1.));
#694=DIRECTION('',(1.,0.,0.));
#695=DIRECTION('',(-1.,0.,1.15648231731787E-16));
#696=DIRECTION('',(0.,-1.,0.));
#697=DIRECTION('',(0.,0.,-1.));
#698=DIRECTION('',(0.,-1.,0.));
#699=DIRECTION('',(0.,0.,-1.));
#700=DIRECTION('',(0.,-1.,0.));
#701=DIRECTION('',(0.,-1.,0.));
#702=DIRECTION('',(0.,1.,0.));
#703=DIRECTION('',(-1.,0.,0.));
#704=DIRECTION('',(0.,0.,1.));
#705=DIRECTION('',(0.,0.,1.));
#706=DIRECTION('',(0.,0.,1.));
#707=DIRECTION('',(1.,0.,0.));
#708=DIRECTION('',(1.,0.,0.));
#709=DIRECTION('',(0.,-1.,0.));
#710=DIRECTION('',(1.,0.,0.));
#711=DIRECTION('',(0.,0.,1.));
#712=DIRECTION('',(1.,0.,-1.15648231731787E-16));
#713=DIRECTION('',(-1.15648231731787E-16,0.,-1.));
#714=DIRECTION('',(-1.,0.,1.15648231731787E-16));
#715=DIRECTION('',(-1.,0.,1.15648231731787E-16));
#716=DIRECTION('',(0.,-1.,0.));
#717=DIRECTION('',(-1.15648231731787E-16,0.,-1.));
#718=DIRECTION('',(-1.,0.,1.15648231731787E-16));
#719=DIRECTION('',(-2.16840434497101E-16,0.,-1.));
#720=DIRECTION('',(-1.,0.,2.16840434497101E-16));
#721=DIRECTION('',(2.31296463463574E-16,0.,1.));
#722=DIRECTION('',(1.,0.,-2.31296463463574E-16));
#723=DIRECTION('',(2.16840434497101E-16,0.,1.));
#724=DIRECTION('',(1.,0.,-2.16840434497101E-16));
#725=DIRECTION('',(2.31296463463574E-16,0.,1.));
#726=DIRECTION('',(1.,0.,-2.31296463463574E-16));
#727=DIRECTION('',(-2.16840434497101E-16,0.,-1.));
#728=DIRECTION('',(-1.,0.,2.16840434497101E-16));
#729=DIRECTION('',(2.31296463463574E-16,0.,1.));
#730=DIRECTION('',(1.,0.,-2.31296463463574E-16));
#731=DIRECTION('',(-2.16840434497101E-16,0.,-1.));
#732=DIRECTION('',(-1.,0.,2.16840434497101E-16));
#733=DIRECTION('',(2.31296463463574E-16,0.,1.));
#734=DIRECTION('',(1.,0.,-2.31296463463574E-16));
#735=DIRECTION('',(-8.177564888978E-17,-0.707106781186548,-0.707106781186548));
#736=DIRECTION('',(-1.,0.,1.15648231731787E-16));
#737=DIRECTION('',(0.,-0.707106781186548,0.707106781186548));
#738=DIRECTION('',(-8.177564888978E-17,0.707106781186547,-0.707106781186548));
#739=DIRECTION('',(-1.,0.,1.15648231731787E-16));
#740=DIRECTION('',(0.,-0.707106781186548,-0.707106781186547));
#741=DIRECTION('',(1.,0.,0.));
#742=DIRECTION('',(0.,0.,-1.));
#743=DIRECTION('',(1.,0.,0.));
#744=DIRECTION('',(0.,0.,-1.));
#745=DIRECTION('',(1.,0.,0.));
#746=DIRECTION('',(0.,0.,-1.));
#747=DIRECTION('',(1.,0.,0.));
#748=DIRECTION('',(0.,0.,-1.));
#749=DIRECTION('',(2.31296463463574E-16,0.,1.));
#750=DIRECTION('',(1.,0.,-2.31296463463574E-16));
#751=CARTESIAN_POINT('',(0.,0.,0.));
#752=CARTESIAN_POINT('',(0.015,0.06,-0.01));
#753=CARTESIAN_POINT('',(0.015,0.06,-0.013));
#754=CARTESIAN_POINT('',(0.015,0.062,-0.013));
#755=CARTESIAN_POINT('',(0.015,-0.0084,-0.013));
#756=CARTESIAN_POINT('',(0.015,0.062,0.01));
#757=CARTESIAN_POINT('',(0.015,0.062,0.01));
#758=CARTESIAN_POINT('',(0.015,0.06,0.01));
#759=CARTESIAN_POINT('',(0.015,0.001,0.01));
#760=CARTESIAN_POINT('',(0.015,-7.58941520739853E-19,0.009));
#761=CARTESIAN_POINT('',(0.015,0.,0.009));
#762=CARTESIAN_POINT('',(0.015,0.,-0.01));
#763=CARTESIAN_POINT('',(0.015,0.,-0.0061));
#764=CARTESIAN_POINT('',(0.015,-0.0014,-0.0061));
#765=CARTESIAN_POINT('',(0.015,-0.0014,-0.0061));
#766=CARTESIAN_POINT('',(0.015,-0.0014,0.00195));
#767=CARTESIAN_POINT('',(0.015,-0.0014,0.009));
#768=CARTESIAN_POINT('',(0.015,-0.0024,0.01));
#769=CARTESIAN_POINT('',(0.015,-0.0024,0.01));
#770=CARTESIAN_POINT('',(0.015,-0.0114,0.01));
#771=CARTESIAN_POINT('',(0.015,-0.0084,0.01));
#772=CARTESIAN_POINT('',(0.015,-0.0084,-0.03));
#773=CARTESIAN_POINT('',(-0.015,0.06,-0.01));
#774=CARTESIAN_POINT('',(-0.015,0.062,-0.01));
#775=CARTESIAN_POINT('',(-0.015,0.062,0.01));
#776=CARTESIAN_POINT('',(-0.015,0.062,-0.013));
#777=CARTESIAN_POINT('',(-0.015,0.06,-0.013));
#778=CARTESIAN_POINT('',(-0.015,-0.0084,-0.013));
#779=CARTESIAN_POINT('',(-0.015,-0.0084,-0.01));
#780=CARTESIAN_POINT('',(-0.015,-0.0084,0.01));
#781=CARTESIAN_POINT('',(-0.015,-0.0114,0.01));
#782=CARTESIAN_POINT('',(-0.015,-0.0024,0.01));
#783=CARTESIAN_POINT('',(-0.015,0.0388,-0.0312));
#784=CARTESIAN_POINT('',(-0.015,-0.0014,0.009));
#785=CARTESIAN_POINT('',(-0.015,-0.0014,0.00195));
#786=CARTESIAN_POINT('',(-0.015,-0.0014,-0.0061));
#787=CARTESIAN_POINT('',(-0.015,-0.0014,-0.0061));
#788=CARTESIAN_POINT('',(-0.015,0.,-0.0061));
#789=CARTESIAN_POINT('',(-0.015,0.,-0.01));
#790=CARTESIAN_POINT('',(-0.015,0.,0.009));
#791=CARTESIAN_POINT('',(-0.015,0.0205,0.0295));
#792=CARTESIAN_POINT('',(-0.015,0.001,0.01));
#793=CARTESIAN_POINT('',(-0.015,0.06,0.01));
#794=CARTESIAN_POINT('',(0.,0.065,-0.01));
#795=CARTESIAN_POINT('',(0.012,0.065,-0.03));
#796=CARTESIAN_POINT('',(0.012,0.065,0.01));
#797=CARTESIAN_POINT('',(0.012,0.065,-0.013));
#798=CARTESIAN_POINT('',(-1.27213054904966E-18,0.065,-0.013));
#799=CARTESIAN_POINT('',(-0.012,0.065,-0.013));
#800=CARTESIAN_POINT('',(-0.012,0.065,-0.01));
#801=CARTESIAN_POINT('',(-0.012,0.065,0.01));
#802=CARTESIAN_POINT('',(5.20417042793042E-18,0.065,0.01));
#803=CARTESIAN_POINT('',(5.20417042793042E-18,-0.0114,0.01));
#804=CARTESIAN_POINT('',(-0.002,0.06,0.01));
#805=CARTESIAN_POINT('',(-0.002,-0.0024,0.01));
#806=CARTESIAN_POINT('',(-0.002,-0.0114,0.01));
#807=CARTESIAN_POINT('',(5.20417042793042E-18,-0.0024,0.01));
#808=CARTESIAN_POINT('',(-0.012,-0.0084,0.01));
#809=CARTESIAN_POINT('',(-0.012,-0.0114,0.01));
#810=CARTESIAN_POINT('',(5.20417042793042E-18,-0.0114,0.01));
#811=CARTESIAN_POINT('',(0.,0.,-0.01));
#812=CARTESIAN_POINT('',(0.,0.,3.73517273739942E-19));
#813=CARTESIAN_POINT('',(-0.002,1.38777878078145E-17,0.00576281181368956));
#814=CARTESIAN_POINT('',(0.,0.,-0.0061));
#815=CARTESIAN_POINT('',(-0.002,0.,-0.01));
#816=CARTESIAN_POINT('',(-0.002,-5.49033801002555E-24,0.009));
#817=CARTESIAN_POINT('',(2.19731640290395E-18,0.,0.009));
#818=CARTESIAN_POINT('',(1.7347234759768E-18,0.,-0.0061));
#819=CARTESIAN_POINT('',(5.20417042793042E-18,0.06,0.01));
#820=CARTESIAN_POINT('',(5.20417042793042E-18,0.06,0.01));
#821=CARTESIAN_POINT('',(0.002,0.06,0.01));
#822=CARTESIAN_POINT('',(-0.002,0.06,0.01));
#823=CARTESIAN_POINT('',(0.002,0.06,0.01));
#824=CARTESIAN_POINT('',(0.002,0.00100000000000002,0.01));
#825=CARTESIAN_POINT('',(5.20417042793042E-18,0.001,0.01));
#826=CARTESIAN_POINT('',(0.012,0.062,0.01));
#827=CARTESIAN_POINT('',(-0.012,0.062,0.01));
#828=CARTESIAN_POINT('',(5.20417042793042E-18,0.001,0.01));
#829=CARTESIAN_POINT('',(-0.002,0.00100000000000002,0.01));
#830=CARTESIAN_POINT('',(-0.002,0.06,0.01));
#831=CARTESIAN_POINT('',(0.,-0.0014,-0.01));
#832=CARTESIAN_POINT('',(-0.002,-0.0014,-0.01));
#833=CARTESIAN_POINT('',(-0.002,-0.00139999999999998,0.00576281181368956));
#834=CARTESIAN_POINT('',(-0.002,-0.0014,0.009));
#835=CARTESIAN_POINT('',(-3.73517273739942E-19,-0.0014,0.));
#836=CARTESIAN_POINT('',(-3.73517273739942E-19,-0.0014,-0.0061));
#837=CARTESIAN_POINT('',(1.7347234759768E-18,-0.0014,-0.0061));
#838=CARTESIAN_POINT('',(2.19731640290395E-18,-0.0014,0.009));
#839=CARTESIAN_POINT('',(-3.73517273739942E-19,-0.0114,0.));
#840=CARTESIAN_POINT('',(-0.002,0.06,0.00576281181368956));
#841=CARTESIAN_POINT('',(-0.002,-0.0114,0.00576281181368956));
#842=CARTESIAN_POINT('',(-3.73517273739942E-19,-0.0114,0.));
#843=CARTESIAN_POINT('',(0.002,-0.0114,0.00576281181368956));
#844=CARTESIAN_POINT('',(0.002,0.06,0.00576281181368956));
#845=CARTESIAN_POINT('',(0.002,-0.00139999999999998,0.00576281181368956));
#846=CARTESIAN_POINT('',(-3.73517273739942E-19,-0.0014,0.));
#847=CARTESIAN_POINT('',(0.,-0.0114,-0.01));
#848=CARTESIAN_POINT('',(-1.27213054904966E-18,-0.0114,-0.013));
#849=CARTESIAN_POINT('',(0.012,-0.0114,-0.013));
#850=CARTESIAN_POINT('',(-0.012,-0.0114,-0.013));
#851=CARTESIAN_POINT('',(0.012,-0.0114,0.01));
#852=CARTESIAN_POINT('',(0.012,-0.0114,0.01));
#853=CARTESIAN_POINT('',(5.20417042793042E-18,-0.0114,0.01));
#854=CARTESIAN_POINT('',(0.002,-0.0114,0.01));
#855=CARTESIAN_POINT('',(0.002,-0.0114,0.00788140590684478));
#856=CARTESIAN_POINT('',(-0.002,-0.0114,0.00788140590684478));
#857=CARTESIAN_POINT('',(-0.012,-0.0114,-0.01));
#858=CARTESIAN_POINT('',(5.20417042793042E-18,-0.0024,0.01));
#859=CARTESIAN_POINT('',(-0.002,-0.0024,0.01));
#860=CARTESIAN_POINT('',(2.19731640290395E-18,0.,0.009));
#861=CARTESIAN_POINT('',(-0.002,-1.15648231731787E-19,0.009));
#862=CARTESIAN_POINT('',(0.,0.,-0.01));
#863=CARTESIAN_POINT('',(0.002,0.,-0.01));
#864=CARTESIAN_POINT('',(0.002,1.38777878078145E-17,0.00576281181368956));
#865=CARTESIAN_POINT('',(0.002,0.,0.009));
#866=CARTESIAN_POINT('',(0.,0.,3.73517273739942E-19));
#867=CARTESIAN_POINT('',(1.7347234759768E-18,0.,-0.0061));
#868=CARTESIAN_POINT('',(2.19731640290395E-18,0.,0.009));
#869=CARTESIAN_POINT('',(0.,0.06,3.73517273739942E-19));
#870=CARTESIAN_POINT('',(0.,0.06,3.73517273739942E-19));
#871=CARTESIAN_POINT('',(-0.002,0.06,0.00576281181368956));
#872=CARTESIAN_POINT('',(0.002,0.06,0.00576281181368956));
#873=CARTESIAN_POINT('',(-0.002,0.06,0.00576281181368956));
#874=CARTESIAN_POINT('',(0.002,0.06,0.00576281181368956));
#875=CARTESIAN_POINT('',(0.,0.06,-0.01));
#876=CARTESIAN_POINT('',(0.002,0.06,0.00788140590684478));
#877=CARTESIAN_POINT('',(-0.002,0.06,0.00788140590684478));
#878=CARTESIAN_POINT('',(1.7347234759768E-18,-0.0014,-0.0061));
#879=CARTESIAN_POINT('',(1.7347234759768E-18,-0.0014,-0.0061));
#880=CARTESIAN_POINT('',(0.,-0.0014,-0.01));
#881=CARTESIAN_POINT('',(0.002,-0.0014,-0.01));
#882=CARTESIAN_POINT('',(0.002,-0.0014,0.009));
#883=CARTESIAN_POINT('',(2.19731640290395E-18,-0.0014,0.009));
#884=CARTESIAN_POINT('',(5.20417042793042E-18,-0.0114,0.01));
#885=CARTESIAN_POINT('',(5.20417042793042E-18,-0.0024,0.01));
#886=CARTESIAN_POINT('',(0.002,-0.0024,0.01));
#887=CARTESIAN_POINT('',(0.002,0.06,0.01));
#888=CARTESIAN_POINT('',(0.012,-0.0084,0.01));
#889=CARTESIAN_POINT('',(-0.012,0.062,-0.01));
#890=CARTESIAN_POINT('',(-0.012,0.062,-0.013));
#891=CARTESIAN_POINT('',(0.012,0.062,-0.01));
#892=CARTESIAN_POINT('',(0.012,0.062,-0.013));
#893=CARTESIAN_POINT('',(0.012,-0.0084,-0.01));
#894=CARTESIAN_POINT('',(0.012,-0.0084,-0.013));
#895=CARTESIAN_POINT('',(-0.012,-0.0084,-0.01));
#896=CARTESIAN_POINT('',(-0.012,-0.0084,-0.013));
#897=CARTESIAN_POINT('',(5.20417042793042E-18,-0.0024,0.01));
#898=CARTESIAN_POINT('',(0.002,-0.0024,0.01));
#899=CARTESIAN_POINT('',(2.19731640290395E-18,0.,0.009));
#900=CARTESIAN_POINT('',(0.002,1.15648231731787E-19,0.009));
#901=CARTESIAN_POINT('',(0.002,0.06,0.00788140590684478));
#902=CARTESIAN_POINT('',(-0.002,0.06,0.00788140590684478));
#903=CARTESIAN_POINT('',(0.002,0.06,0.00788140590684478));
#904=CARTESIAN_POINT('',(-0.002,0.06,0.00788140590684478));
#905=CARTESIAN_POINT('',(-1.27213054904966E-18,0.06,-0.013));
#906=MECHANICAL_DESIGN_GEOMETRIC_PRESENTATION_REPRESENTATION('',(#549),
#907);
#907=(
GEOMETRIC_REPRESENTATION_CONTEXT(3)
GLOBAL_UNCERTAINTY_ASSIGNED_CONTEXT((#908))
GLOBAL_UNIT_ASSIGNED_CONTEXT((#911,#910,#909))
REPRESENTATION_CONTEXT('Part 1','TOP_LEVEL_ASSEMBLY_PART')
);
#908=UNCERTAINTY_MEASURE_WITH_UNIT(LENGTH_MEASURE(1.E-8),#911,
'DISTANCE_ACCURACY_VALUE','Maximum Tolerance applied to model');
#909=(
NAMED_UNIT(*)
SI_UNIT($,.STERADIAN.)
SOLID_ANGLE_UNIT()
);
#910=(
NAMED_UNIT(*)
PLANE_ANGLE_UNIT()
SI_UNIT($,.RADIAN.)
);
#911=(
LENGTH_UNIT()
NAMED_UNIT(*)
SI_UNIT($,.METRE.)
);
#912=PRODUCT_DEFINITION_SHAPE('','',#913);
#913=PRODUCT_DEFINITION('','',#915,#914);
#914=PRODUCT_DEFINITION_CONTEXT('',#921,'design');
#915=PRODUCT_DEFINITION_FORMATION_WITH_SPECIFIED_SOURCE('','',#917,
 .NOT_KNOWN.);
#916=PRODUCT_RELATED_PRODUCT_CATEGORY('','',(#917));
#917=PRODUCT('Part 1','Part 1','Part 1',(#919));
#918=PRODUCT_CATEGORY('','');
#919=PRODUCT_CONTEXT('',#921,'mechanical');
#920=APPLICATION_PROTOCOL_DEFINITION('international standard',
'automotive_design',2010,#921);
#921=APPLICATION_CONTEXT(
'core data for automotive mechanical design processes');
ENDSEC;
END-ISO-10303-21;
