ISO-10303-21;
HEADER;
/* Generated by software containing ST-Developer
 * from STEP Tools, Inc. (www.steptools.com) 
 */
/* OPTION: using custom renumber hook */

FILE_DESCRIPTION(
/* description */ ('STEP AP214',
'CAx-IF Rec.Pracs.---User Defined Attributes---1.5---2016-08-15'),
/* implementation_level */ '2;1');

FILE_NAME(
/* name */ '6a7bf8cb7fc1e53ddff646ea',
/* time_stamp */ '2026-08-12T04:38:37Z',
/* author */ (''),
/* organization */ (''),
/* preprocessor_version */ 'ST-DEVELOPER v20',
/* originating_system */ 'ONSHAPE BY PTC INC, 1.219',
/* authorisation */ '  ');

FILE_SCHEMA (('AUTOMOTIVE_DESIGN {1 0 10303 214 3 1 1}'));
ENDSEC;

DATA;
#10=PROPERTY_DEFINITION_REPRESENTATION(#14,#12);
#11=PROPERTY_DEFINITION_REPRESENTATION(#15,#13);
#12=REPRESENTATION('',(#16),#1367);
#13=REPRESENTATION('',(#17),#1367);
#14=PROPERTY_DEFINITION('pmi validation property','',#1372);
#15=PROPERTY_DEFINITION('pmi validation property','',#1372);
#16=VALUE_REPRESENTATION_ITEM('number of annotations',COUNT_MEASURE(0.));
#17=VALUE_REPRESENTATION_ITEM('number of views',COUNT_MEASURE(0.));
#18=SHAPE_REPRESENTATION_RELATIONSHIP('','',#839,#19);
#19=ADVANCED_BREP_SHAPE_REPRESENTATION('',(#837),#1367);
#20=CONICAL_SURFACE('',#892,0.0026,0.785398163397454);
#21=CONICAL_SURFACE('',#896,0.0026,0.785398163397452);
#22=TOROIDAL_SURFACE('',#884,0.005,0.002);
#23=TOROIDAL_SURFACE('',#888,0.005,0.002);
#24=CYLINDRICAL_SURFACE('',#876,0.003);
#25=CYLINDRICAL_SURFACE('',#878,0.003);
#26=CYLINDRICAL_SURFACE('',#880,0.003);
#27=CYLINDRICAL_SURFACE('',#882,0.003);
#28=CYLINDRICAL_SURFACE('',#886,0.002);
#29=CYLINDRICAL_SURFACE('',#889,0.003);
#30=CYLINDRICAL_SURFACE('',#890,0.003);
#31=CYLINDRICAL_SURFACE('',#891,0.003);
#32=B_SPLINE_CURVE_WITH_KNOTS('',3,(#1160,#1161,#1162,#1163),
 .UNSPECIFIED.,.F.,.F.,(4,4),(0.00209888885182257,0.00456133524068472),
 .UNSPECIFIED.);
#33=B_SPLINE_CURVE_WITH_KNOTS('',3,(#1183,#1184,#1185,#1186),
 .UNSPECIFIED.,.F.,.F.,(4,4),(0.00209888885182257,0.00456133524068472),
 .UNSPECIFIED.);
#34=B_SPLINE_CURVE_WITH_KNOTS('',3,(#1333,#1334,#1335,#1336,#1337,#1338),
 .UNSPECIFIED.,.F.,.F.,(4,1,1,4),(2.6432495062873E-15,0.0011921503236239,
0.00238430064724515,0.00476860129448766),.UNSPECIFIED.);
#35=B_SPLINE_CURVE_WITH_KNOTS('',3,(#1343,#1344,#1345,#1346,#1347,#1348),
 .UNSPECIFIED.,.F.,.F.,(4,1,1,4),(0.,0.00238279721728073,0.0035741958259211,
0.00476559443456146),.UNSPECIFIED.);
#36=CIRCLE('',#843,0.003);
#37=CIRCLE('',#844,0.003);
#38=CIRCLE('',#846,0.003);
#39=CIRCLE('',#848,0.003);
#40=CIRCLE('',#855,0.003);
#41=CIRCLE('',#856,0.003);
#42=CIRCLE('',#865,0.0026);
#43=CIRCLE('',#866,0.0026);
#44=CIRCLE('',#872,0.003);
#45=CIRCLE('',#873,0.003);
#46=CIRCLE('',#877,0.003);
#47=CIRCLE('',#879,0.003);
#48=CIRCLE('',#881,0.003);
#49=CIRCLE('',#883,0.003);
#50=CIRCLE('',#885,0.002);
#51=CIRCLE('',#887,0.002);
#52=ORIENTED_EDGE('',*,*,#284,.T.);
#53=ORIENTED_EDGE('',*,*,#285,.T.);
#54=ORIENTED_EDGE('',*,*,#286,.T.);
#55=ORIENTED_EDGE('',*,*,#287,.T.);
#56=ORIENTED_EDGE('',*,*,#288,.F.);
#57=ORIENTED_EDGE('',*,*,#289,.T.);
#58=ORIENTED_EDGE('',*,*,#290,.F.);
#59=ORIENTED_EDGE('',*,*,#291,.T.);
#60=ORIENTED_EDGE('',*,*,#292,.F.);
#61=ORIENTED_EDGE('',*,*,#293,.T.);
#62=ORIENTED_EDGE('',*,*,#294,.F.);
#63=ORIENTED_EDGE('',*,*,#295,.T.);
#64=ORIENTED_EDGE('',*,*,#296,.T.);
#65=ORIENTED_EDGE('',*,*,#290,.T.);
#66=ORIENTED_EDGE('',*,*,#297,.T.);
#67=ORIENTED_EDGE('',*,*,#298,.F.);
#68=ORIENTED_EDGE('',*,*,#299,.T.);
#69=ORIENTED_EDGE('',*,*,#300,.T.);
#70=ORIENTED_EDGE('',*,*,#301,.T.);
#71=ORIENTED_EDGE('',*,*,#302,.T.);
#72=ORIENTED_EDGE('',*,*,#303,.T.);
#73=ORIENTED_EDGE('',*,*,#304,.T.);
#74=ORIENTED_EDGE('',*,*,#305,.T.);
#75=ORIENTED_EDGE('',*,*,#306,.T.);
#76=ORIENTED_EDGE('',*,*,#307,.T.);
#77=ORIENTED_EDGE('',*,*,#308,.T.);
#78=ORIENTED_EDGE('',*,*,#309,.T.);
#79=ORIENTED_EDGE('',*,*,#310,.T.);
#80=ORIENTED_EDGE('',*,*,#311,.T.);
#81=ORIENTED_EDGE('',*,*,#312,.F.);
#82=ORIENTED_EDGE('',*,*,#313,.T.);
#83=ORIENTED_EDGE('',*,*,#314,.T.);
#84=ORIENTED_EDGE('',*,*,#315,.T.);
#85=ORIENTED_EDGE('',*,*,#316,.T.);
#86=ORIENTED_EDGE('',*,*,#317,.T.);
#87=ORIENTED_EDGE('',*,*,#318,.F.);
#88=ORIENTED_EDGE('',*,*,#319,.T.);
#89=ORIENTED_EDGE('',*,*,#320,.T.);
#90=ORIENTED_EDGE('',*,*,#321,.T.);
#91=ORIENTED_EDGE('',*,*,#288,.T.);
#92=ORIENTED_EDGE('',*,*,#322,.F.);
#93=ORIENTED_EDGE('',*,*,#323,.T.);
#94=ORIENTED_EDGE('',*,*,#324,.T.);
#95=ORIENTED_EDGE('',*,*,#325,.F.);
#96=ORIENTED_EDGE('',*,*,#326,.F.);
#97=ORIENTED_EDGE('',*,*,#325,.T.);
#98=ORIENTED_EDGE('',*,*,#327,.T.);
#99=ORIENTED_EDGE('',*,*,#328,.F.);
#100=ORIENTED_EDGE('',*,*,#329,.F.);
#101=ORIENTED_EDGE('',*,*,#328,.T.);
#102=ORIENTED_EDGE('',*,*,#330,.T.);
#103=ORIENTED_EDGE('',*,*,#331,.F.);
#104=ORIENTED_EDGE('',*,*,#332,.F.);
#105=ORIENTED_EDGE('',*,*,#331,.T.);
#106=ORIENTED_EDGE('',*,*,#333,.T.);
#107=ORIENTED_EDGE('',*,*,#334,.F.);
#108=ORIENTED_EDGE('',*,*,#324,.F.);
#109=ORIENTED_EDGE('',*,*,#335,.F.);
#110=ORIENTED_EDGE('',*,*,#336,.F.);
#111=ORIENTED_EDGE('',*,*,#333,.F.);
#112=ORIENTED_EDGE('',*,*,#330,.F.);
#113=ORIENTED_EDGE('',*,*,#327,.F.);
#114=ORIENTED_EDGE('',*,*,#337,.T.);
#115=ORIENTED_EDGE('',*,*,#338,.T.);
#116=ORIENTED_EDGE('',*,*,#339,.T.);
#117=ORIENTED_EDGE('',*,*,#292,.T.);
#118=ORIENTED_EDGE('',*,*,#302,.F.);
#119=ORIENTED_EDGE('',*,*,#340,.T.);
#120=ORIENTED_EDGE('',*,*,#316,.F.);
#121=ORIENTED_EDGE('',*,*,#341,.T.);
#122=ORIENTED_EDGE('',*,*,#342,.T.);
#123=ORIENTED_EDGE('',*,*,#343,.T.);
#124=ORIENTED_EDGE('',*,*,#344,.T.);
#125=ORIENTED_EDGE('',*,*,#345,.T.);
#126=ORIENTED_EDGE('',*,*,#346,.F.);
#127=ORIENTED_EDGE('',*,*,#347,.F.);
#128=ORIENTED_EDGE('',*,*,#346,.T.);
#129=ORIENTED_EDGE('',*,*,#348,.T.);
#130=ORIENTED_EDGE('',*,*,#349,.F.);
#131=ORIENTED_EDGE('',*,*,#350,.F.);
#132=ORIENTED_EDGE('',*,*,#349,.T.);
#133=ORIENTED_EDGE('',*,*,#351,.T.);
#134=ORIENTED_EDGE('',*,*,#352,.F.);
#135=ORIENTED_EDGE('',*,*,#353,.F.);
#136=ORIENTED_EDGE('',*,*,#354,.F.);
#137=ORIENTED_EDGE('',*,*,#355,.T.);
#138=ORIENTED_EDGE('',*,*,#344,.F.);
#139=ORIENTED_EDGE('',*,*,#356,.F.);
#140=ORIENTED_EDGE('',*,*,#357,.T.);
#141=ORIENTED_EDGE('',*,*,#335,.T.);
#142=ORIENTED_EDGE('',*,*,#323,.F.);
#143=ORIENTED_EDGE('',*,*,#358,.F.);
#144=ORIENTED_EDGE('',*,*,#352,.T.);
#145=ORIENTED_EDGE('',*,*,#359,.T.);
#146=ORIENTED_EDGE('',*,*,#360,.F.);
#147=ORIENTED_EDGE('',*,*,#361,.F.);
#148=ORIENTED_EDGE('',*,*,#360,.T.);
#149=ORIENTED_EDGE('',*,*,#362,.T.);
#150=ORIENTED_EDGE('',*,*,#363,.F.);
#151=ORIENTED_EDGE('',*,*,#364,.F.);
#152=ORIENTED_EDGE('',*,*,#334,.T.);
#153=ORIENTED_EDGE('',*,*,#336,.T.);
#154=ORIENTED_EDGE('',*,*,#357,.F.);
#155=ORIENTED_EDGE('',*,*,#365,.F.);
#156=ORIENTED_EDGE('',*,*,#356,.T.);
#157=ORIENTED_EDGE('',*,*,#347,.T.);
#158=ORIENTED_EDGE('',*,*,#350,.T.);
#159=ORIENTED_EDGE('',*,*,#353,.T.);
#160=ORIENTED_EDGE('',*,*,#361,.T.);
#161=ORIENTED_EDGE('',*,*,#365,.T.);
#162=ORIENTED_EDGE('',*,*,#366,.T.);
#163=ORIENTED_EDGE('',*,*,#367,.T.);
#164=ORIENTED_EDGE('',*,*,#368,.T.);
#165=ORIENTED_EDGE('',*,*,#369,.T.);
#166=ORIENTED_EDGE('',*,*,#370,.T.);
#167=ORIENTED_EDGE('',*,*,#371,.T.);
#168=ORIENTED_EDGE('',*,*,#318,.T.);
#169=ORIENTED_EDGE('',*,*,#372,.T.);
#170=ORIENTED_EDGE('',*,*,#300,.F.);
#171=ORIENTED_EDGE('',*,*,#373,.F.);
#172=ORIENTED_EDGE('',*,*,#362,.F.);
#173=ORIENTED_EDGE('',*,*,#359,.F.);
#174=ORIENTED_EDGE('',*,*,#351,.F.);
#175=ORIENTED_EDGE('',*,*,#348,.F.);
#176=ORIENTED_EDGE('',*,*,#345,.F.);
#177=ORIENTED_EDGE('',*,*,#355,.F.);
#178=ORIENTED_EDGE('',*,*,#374,.F.);
#179=ORIENTED_EDGE('',*,*,#298,.T.);
#180=ORIENTED_EDGE('',*,*,#375,.T.);
#181=ORIENTED_EDGE('',*,*,#320,.F.);
#182=ORIENTED_EDGE('',*,*,#376,.T.);
#183=ORIENTED_EDGE('',*,*,#358,.T.);
#184=ORIENTED_EDGE('',*,*,#322,.T.);
#185=ORIENTED_EDGE('',*,*,#326,.T.);
#186=ORIENTED_EDGE('',*,*,#329,.T.);
#187=ORIENTED_EDGE('',*,*,#332,.T.);
#188=ORIENTED_EDGE('',*,*,#364,.T.);
#189=ORIENTED_EDGE('',*,*,#377,.T.);
#190=ORIENTED_EDGE('',*,*,#354,.T.);
#191=ORIENTED_EDGE('',*,*,#376,.F.);
#192=ORIENTED_EDGE('',*,*,#319,.F.);
#193=ORIENTED_EDGE('',*,*,#374,.T.);
#194=ORIENTED_EDGE('',*,*,#363,.T.);
#195=ORIENTED_EDGE('',*,*,#373,.T.);
#196=ORIENTED_EDGE('',*,*,#299,.F.);
#197=ORIENTED_EDGE('',*,*,#377,.F.);
#198=ORIENTED_EDGE('',*,*,#312,.T.);
#199=ORIENTED_EDGE('',*,*,#378,.T.);
#200=ORIENTED_EDGE('',*,*,#306,.F.);
#201=ORIENTED_EDGE('',*,*,#379,.T.);
#202=ORIENTED_EDGE('',*,*,#287,.F.);
#203=ORIENTED_EDGE('',*,*,#380,.T.);
#204=ORIENTED_EDGE('',*,*,#310,.F.);
#205=ORIENTED_EDGE('',*,*,#381,.T.);
#206=ORIENTED_EDGE('',*,*,#294,.T.);
#207=ORIENTED_EDGE('',*,*,#382,.T.);
#208=ORIENTED_EDGE('',*,*,#383,.T.);
#209=ORIENTED_EDGE('',*,*,#384,.T.);
#210=ORIENTED_EDGE('',*,*,#342,.F.);
#211=ORIENTED_EDGE('',*,*,#385,.T.);
#212=ORIENTED_EDGE('',*,*,#339,.F.);
#213=ORIENTED_EDGE('',*,*,#386,.T.);
#214=ORIENTED_EDGE('',*,*,#308,.F.);
#215=ORIENTED_EDGE('',*,*,#293,.F.);
#216=ORIENTED_EDGE('',*,*,#296,.F.);
#217=ORIENTED_EDGE('',*,*,#387,.T.);
#218=ORIENTED_EDGE('',*,*,#337,.F.);
#219=ORIENTED_EDGE('',*,*,#291,.F.);
#220=ORIENTED_EDGE('',*,*,#305,.F.);
#221=ORIENTED_EDGE('',*,*,#388,.T.);
#222=ORIENTED_EDGE('',*,*,#284,.F.);
#223=ORIENTED_EDGE('',*,*,#379,.F.);
#224=ORIENTED_EDGE('',*,*,#286,.F.);
#225=ORIENTED_EDGE('',*,*,#389,.T.);
#226=ORIENTED_EDGE('',*,*,#313,.F.);
#227=ORIENTED_EDGE('',*,*,#380,.F.);
#228=ORIENTED_EDGE('',*,*,#304,.F.);
#229=ORIENTED_EDGE('',*,*,#390,.T.);
#230=ORIENTED_EDGE('',*,*,#391,.F.);
#231=ORIENTED_EDGE('',*,*,#388,.F.);
#232=ORIENTED_EDGE('',*,*,#391,.T.);
#233=ORIENTED_EDGE('',*,*,#383,.F.);
#234=ORIENTED_EDGE('',*,*,#392,.F.);
#235=ORIENTED_EDGE('',*,*,#285,.F.);
#236=ORIENTED_EDGE('',*,*,#392,.T.);
#237=ORIENTED_EDGE('',*,*,#393,.T.);
#238=ORIENTED_EDGE('',*,*,#314,.F.);
#239=ORIENTED_EDGE('',*,*,#389,.F.);
#240=ORIENTED_EDGE('',*,*,#311,.F.);
#241=ORIENTED_EDGE('',*,*,#382,.F.);
#242=ORIENTED_EDGE('',*,*,#307,.F.);
#243=ORIENTED_EDGE('',*,*,#378,.F.);
#244=ORIENTED_EDGE('',*,*,#343,.F.);
#245=ORIENTED_EDGE('',*,*,#384,.F.);
#246=ORIENTED_EDGE('',*,*,#390,.F.);
#247=ORIENTED_EDGE('',*,*,#303,.F.);
#248=ORIENTED_EDGE('',*,*,#341,.F.);
#249=ORIENTED_EDGE('',*,*,#315,.F.);
#250=ORIENTED_EDGE('',*,*,#393,.F.);
#251=ORIENTED_EDGE('',*,*,#385,.F.);
#252=ORIENTED_EDGE('',*,*,#394,.F.);
#253=ORIENTED_EDGE('',*,*,#387,.F.);
#254=ORIENTED_EDGE('',*,*,#395,.F.);
#255=ORIENTED_EDGE('',*,*,#370,.F.);
#256=ORIENTED_EDGE('',*,*,#395,.T.);
#257=ORIENTED_EDGE('',*,*,#295,.F.);
#258=ORIENTED_EDGE('',*,*,#396,.F.);
#259=ORIENTED_EDGE('',*,*,#371,.F.);
#260=ORIENTED_EDGE('',*,*,#394,.T.);
#261=ORIENTED_EDGE('',*,*,#369,.F.);
#262=ORIENTED_EDGE('',*,*,#397,.F.);
#263=ORIENTED_EDGE('',*,*,#338,.F.);
#264=ORIENTED_EDGE('',*,*,#396,.T.);
#265=ORIENTED_EDGE('',*,*,#381,.F.);
#266=ORIENTED_EDGE('',*,*,#398,.F.);
#267=ORIENTED_EDGE('',*,*,#366,.F.);
#268=ORIENTED_EDGE('',*,*,#397,.T.);
#269=ORIENTED_EDGE('',*,*,#368,.F.);
#270=ORIENTED_EDGE('',*,*,#399,.F.);
#271=ORIENTED_EDGE('',*,*,#386,.F.);
#272=ORIENTED_EDGE('',*,*,#398,.T.);
#273=ORIENTED_EDGE('',*,*,#309,.F.);
#274=ORIENTED_EDGE('',*,*,#399,.T.);
#275=ORIENTED_EDGE('',*,*,#367,.F.);
#276=ORIENTED_EDGE('',*,*,#321,.F.);
#277=ORIENTED_EDGE('',*,*,#375,.F.);
#278=ORIENTED_EDGE('',*,*,#297,.F.);
#279=ORIENTED_EDGE('',*,*,#289,.F.);
#280=ORIENTED_EDGE('',*,*,#317,.F.);
#281=ORIENTED_EDGE('',*,*,#340,.F.);
#282=ORIENTED_EDGE('',*,*,#301,.F.);
#283=ORIENTED_EDGE('',*,*,#372,.F.);
#284=EDGE_CURVE('',#400,#401,#474,.F.);
#285=EDGE_CURVE('',#401,#402,#475,.F.);
#286=EDGE_CURVE('',#402,#403,#476,.T.);
#287=EDGE_CURVE('',#403,#400,#477,.T.);
#288=EDGE_CURVE('',#404,#405,#478,.T.);
#289=EDGE_CURVE('',#404,#406,#479,.T.);
#290=EDGE_CURVE('',#407,#406,#480,.T.);
#291=EDGE_CURVE('',#407,#408,#36,.T.);
#292=EDGE_CURVE('',#409,#408,#481,.T.);
#293=EDGE_CURVE('',#409,#405,#37,.T.);
#294=EDGE_CURVE('',#410,#411,#482,.T.);
#295=EDGE_CURVE('',#410,#412,#483,.T.);
#296=EDGE_CURVE('',#412,#407,#484,.F.);
#297=EDGE_CURVE('',#406,#413,#485,.F.);
#298=EDGE_CURVE('',#414,#413,#486,.T.);
#299=EDGE_CURVE('',#414,#415,#487,.T.);
#300=EDGE_CURVE('',#415,#416,#488,.T.);
#301=EDGE_CURVE('',#416,#417,#489,.T.);
#302=EDGE_CURVE('',#417,#418,#490,.T.);
#303=EDGE_CURVE('',#418,#419,#491,.T.);
#304=EDGE_CURVE('',#419,#420,#32,.T.);
#305=EDGE_CURVE('',#420,#421,#492,.T.);
#306=EDGE_CURVE('',#421,#422,#493,.T.);
#307=EDGE_CURVE('',#422,#411,#38,.T.);
#308=EDGE_CURVE('',#405,#423,#494,.T.);
#309=EDGE_CURVE('',#423,#424,#495,.T.);
#310=EDGE_CURVE('',#424,#425,#496,.T.);
#311=EDGE_CURVE('',#425,#426,#39,.T.);
#312=EDGE_CURVE('',#427,#426,#497,.T.);
#313=EDGE_CURVE('',#427,#428,#498,.F.);
#314=EDGE_CURVE('',#428,#429,#33,.F.);
#315=EDGE_CURVE('',#429,#430,#499,.F.);
#316=EDGE_CURVE('',#430,#431,#500,.T.);
#317=EDGE_CURVE('',#431,#432,#501,.T.);
#318=EDGE_CURVE('',#433,#432,#502,.T.);
#319=EDGE_CURVE('',#433,#434,#503,.T.);
#320=EDGE_CURVE('',#434,#435,#504,.T.);
#321=EDGE_CURVE('',#435,#404,#505,.F.);
#322=EDGE_CURVE('',#436,#437,#506,.T.);
#323=EDGE_CURVE('',#436,#438,#507,.T.);
#324=EDGE_CURVE('',#438,#439,#508,.T.);
#325=EDGE_CURVE('',#437,#439,#509,.T.);
#326=EDGE_CURVE('',#437,#440,#510,.T.);
#327=EDGE_CURVE('',#439,#441,#511,.T.);
#328=EDGE_CURVE('',#440,#441,#512,.T.);
#329=EDGE_CURVE('',#440,#442,#513,.T.);
#330=EDGE_CURVE('',#441,#443,#514,.T.);
#331=EDGE_CURVE('',#442,#443,#515,.T.);
#332=EDGE_CURVE('',#442,#444,#516,.T.);
#333=EDGE_CURVE('',#443,#445,#517,.T.);
#334=EDGE_CURVE('',#444,#445,#518,.T.);
#335=EDGE_CURVE('',#446,#438,#519,.T.);
#336=EDGE_CURVE('',#445,#446,#520,.T.);
#337=EDGE_CURVE('',#408,#447,#521,.T.);
#338=EDGE_CURVE('',#447,#448,#522,.T.);
#339=EDGE_CURVE('',#448,#409,#523,.F.);
#340=EDGE_CURVE('',#417,#431,#524,.T.);
#341=EDGE_CURVE('',#430,#449,#40,.T.);
#342=EDGE_CURVE('',#449,#450,#525,.T.);
#343=EDGE_CURVE('',#450,#418,#41,.T.);
#344=EDGE_CURVE('',#451,#452,#526,.T.);
#345=EDGE_CURVE('',#452,#453,#527,.T.);
#346=EDGE_CURVE('',#454,#453,#528,.T.);
#347=EDGE_CURVE('',#451,#454,#529,.T.);
#348=EDGE_CURVE('',#453,#455,#530,.T.);
#349=EDGE_CURVE('',#456,#455,#531,.T.);
#350=EDGE_CURVE('',#454,#456,#532,.T.);
#351=EDGE_CURVE('',#455,#457,#533,.T.);
#352=EDGE_CURVE('',#458,#457,#534,.T.);
#353=EDGE_CURVE('',#456,#458,#535,.T.);
#354=EDGE_CURVE('',#459,#460,#536,.T.);
#355=EDGE_CURVE('',#459,#452,#537,.T.);
#356=EDGE_CURVE('',#461,#451,#538,.T.);
#357=EDGE_CURVE('',#461,#446,#539,.T.);
#358=EDGE_CURVE('',#460,#436,#540,.T.);
#359=EDGE_CURVE('',#457,#462,#541,.T.);
#360=EDGE_CURVE('',#463,#462,#542,.T.);
#361=EDGE_CURVE('',#458,#463,#543,.T.);
#362=EDGE_CURVE('',#462,#464,#544,.T.);
#363=EDGE_CURVE('',#465,#464,#545,.T.);
#364=EDGE_CURVE('',#444,#465,#546,.T.);
#365=EDGE_CURVE('',#463,#461,#547,.T.);
#366=EDGE_CURVE('',#466,#467,#548,.T.);
#367=EDGE_CURVE('',#467,#468,#549,.T.);
#368=EDGE_CURVE('',#468,#469,#42,.F.);
#369=EDGE_CURVE('',#469,#470,#550,.T.);
#370=EDGE_CURVE('',#470,#471,#43,.F.);
#371=EDGE_CURVE('',#471,#466,#551,.T.);
#372=EDGE_CURVE('',#432,#416,#552,.T.);
#373=EDGE_CURVE('',#464,#415,#553,.T.);
#374=EDGE_CURVE('',#433,#459,#554,.T.);
#375=EDGE_CURVE('',#413,#435,#555,.T.);
#376=EDGE_CURVE('',#434,#460,#556,.T.);
#377=EDGE_CURVE('',#465,#414,#557,.T.);
#378=EDGE_CURVE('',#426,#422,#558,.T.);
#379=EDGE_CURVE('',#421,#400,#44,.F.);
#380=EDGE_CURVE('',#403,#427,#45,.F.);
#381=EDGE_CURVE('',#424,#410,#559,.T.);
#382=EDGE_CURVE('',#411,#425,#560,.F.);
#383=EDGE_CURVE('',#472,#473,#561,.T.);
#384=EDGE_CURVE('',#473,#450,#562,.F.);
#385=EDGE_CURVE('',#449,#472,#563,.T.);
#386=EDGE_CURVE('',#448,#423,#46,.T.);
#387=EDGE_CURVE('',#412,#447,#47,.T.);
#388=EDGE_CURVE('',#420,#401,#48,.F.);
#389=EDGE_CURVE('',#402,#428,#49,.F.);
#390=EDGE_CURVE('',#419,#473,#34,.T.);
#391=EDGE_CURVE('',#401,#473,#50,.T.);
#392=EDGE_CURVE('',#402,#472,#51,.T.);
#393=EDGE_CURVE('',#472,#429,#35,.T.);
#394=EDGE_CURVE('',#447,#470,#564,.T.);
#395=EDGE_CURVE('',#471,#412,#565,.T.);
#396=EDGE_CURVE('',#466,#410,#566,.F.);
#397=EDGE_CURVE('',#448,#469,#567,.T.);
#398=EDGE_CURVE('',#467,#424,#568,.T.);
#399=EDGE_CURVE('',#423,#468,#569,.T.);
#400=VERTEX_POINT('',#1119);
#401=VERTEX_POINT('',#1120);
#402=VERTEX_POINT('',#1122);
#403=VERTEX_POINT('',#1124);
#404=VERTEX_POINT('',#1128);
#405=VERTEX_POINT('',#1129);
#406=VERTEX_POINT('',#1131);
#407=VERTEX_POINT('',#1133);
#408=VERTEX_POINT('',#1135);
#409=VERTEX_POINT('',#1137);
#410=VERTEX_POINT('',#1141);
#411=VERTEX_POINT('',#1142);
#412=VERTEX_POINT('',#1144);
#413=VERTEX_POINT('',#1147);
#414=VERTEX_POINT('',#1149);
#415=VERTEX_POINT('',#1151);
#416=VERTEX_POINT('',#1153);
#417=VERTEX_POINT('',#1155);
#418=VERTEX_POINT('',#1157);
#419=VERTEX_POINT('',#1159);
#420=VERTEX_POINT('',#1164);
#421=VERTEX_POINT('',#1166);
#422=VERTEX_POINT('',#1168);
#423=VERTEX_POINT('',#1172);
#424=VERTEX_POINT('',#1174);
#425=VERTEX_POINT('',#1176);
#426=VERTEX_POINT('',#1178);
#427=VERTEX_POINT('',#1180);
#428=VERTEX_POINT('',#1182);
#429=VERTEX_POINT('',#1187);
#430=VERTEX_POINT('',#1189);
#431=VERTEX_POINT('',#1191);
#432=VERTEX_POINT('',#1193);
#433=VERTEX_POINT('',#1195);
#434=VERTEX_POINT('',#1197);
#435=VERTEX_POINT('',#1199);
#436=VERTEX_POINT('',#1203);
#437=VERTEX_POINT('',#1204);
#438=VERTEX_POINT('',#1206);
#439=VERTEX_POINT('',#1208);
#440=VERTEX_POINT('',#1212);
#441=VERTEX_POINT('',#1214);
#442=VERTEX_POINT('',#1218);
#443=VERTEX_POINT('',#1220);
#444=VERTEX_POINT('',#1224);
#445=VERTEX_POINT('',#1226);
#446=VERTEX_POINT('',#1230);
#447=VERTEX_POINT('',#1233);
#448=VERTEX_POINT('',#1235);
#449=VERTEX_POINT('',#1240);
#450=VERTEX_POINT('',#1242);
#451=VERTEX_POINT('',#1246);
#452=VERTEX_POINT('',#1247);
#453=VERTEX_POINT('',#1249);
#454=VERTEX_POINT('',#1251);
#455=VERTEX_POINT('',#1255);
#456=VERTEX_POINT('',#1257);
#457=VERTEX_POINT('',#1261);
#458=VERTEX_POINT('',#1263);
#459=VERTEX_POINT('',#1267);
#460=VERTEX_POINT('',#1268);
#461=VERTEX_POINT('',#1271);
#462=VERTEX_POINT('',#1276);
#463=VERTEX_POINT('',#1278);
#464=VERTEX_POINT('',#1282);
#465=VERTEX_POINT('',#1284);
#466=VERTEX_POINT('',#1290);
#467=VERTEX_POINT('',#1291);
#468=VERTEX_POINT('',#1293);
#469=VERTEX_POINT('',#1295);
#470=VERTEX_POINT('',#1297);
#471=VERTEX_POINT('',#1299);
#472=VERTEX_POINT('',#1320);
#473=VERTEX_POINT('',#1321);
#474=LINE('',#1118,#570);
#475=LINE('',#1121,#571);
#476=LINE('',#1123,#572);
#477=LINE('',#1125,#573);
#478=LINE('',#1127,#574);
#479=LINE('',#1130,#575);
#480=LINE('',#1132,#576);
#481=LINE('',#1136,#577);
#482=LINE('',#1140,#578);
#483=LINE('',#1143,#579);
#484=LINE('',#1145,#580);
#485=LINE('',#1146,#581);
#486=LINE('',#1148,#582);
#487=LINE('',#1150,#583);
#488=LINE('',#1152,#584);
#489=LINE('',#1154,#585);
#490=LINE('',#1156,#586);
#491=LINE('',#1158,#587);
#492=LINE('',#1165,#588);
#493=LINE('',#1167,#589);
#494=LINE('',#1171,#590);
#495=LINE('',#1173,#591);
#496=LINE('',#1175,#592);
#497=LINE('',#1179,#593);
#498=LINE('',#1181,#594);
#499=LINE('',#1188,#595);
#500=LINE('',#1190,#596);
#501=LINE('',#1192,#597);
#502=LINE('',#1194,#598);
#503=LINE('',#1196,#599);
#504=LINE('',#1198,#600);
#505=LINE('',#1200,#601);
#506=LINE('',#1202,#602);
#507=LINE('',#1205,#603);
#508=LINE('',#1207,#604);
#509=LINE('',#1209,#605);
#510=LINE('',#1211,#606);
#511=LINE('',#1213,#607);
#512=LINE('',#1215,#608);
#513=LINE('',#1217,#609);
#514=LINE('',#1219,#610);
#515=LINE('',#1221,#611);
#516=LINE('',#1223,#612);
#517=LINE('',#1225,#613);
#518=LINE('',#1227,#614);
#519=LINE('',#1229,#615);
#520=LINE('',#1231,#616);
#521=LINE('',#1232,#617);
#522=LINE('',#1234,#618);
#523=LINE('',#1236,#619);
#524=LINE('',#1238,#620);
#525=LINE('',#1241,#621);
#526=LINE('',#1245,#622);
#527=LINE('',#1248,#623);
#528=LINE('',#1250,#624);
#529=LINE('',#1252,#625);
#530=LINE('',#1254,#626);
#531=LINE('',#1256,#627);
#532=LINE('',#1258,#628);
#533=LINE('',#1260,#629);
#534=LINE('',#1262,#630);
#535=LINE('',#1264,#631);
#536=LINE('',#1266,#632);
#537=LINE('',#1269,#633);
#538=LINE('',#1270,#634);
#539=LINE('',#1272,#635);
#540=LINE('',#1273,#636);
#541=LINE('',#1275,#637);
#542=LINE('',#1277,#638);
#543=LINE('',#1279,#639);
#544=LINE('',#1281,#640);
#545=LINE('',#1283,#641);
#546=LINE('',#1285,#642);
#547=LINE('',#1286,#643);
#548=LINE('',#1289,#644);
#549=LINE('',#1292,#645);
#550=LINE('',#1296,#646);
#551=LINE('',#1300,#647);
#552=LINE('',#1302,#648);
#553=LINE('',#1303,#649);
#554=LINE('',#1304,#650);
#555=LINE('',#1306,#651);
#556=LINE('',#1307,#652);
#557=LINE('',#1308,#653);
#558=LINE('',#1312,#654);
#559=LINE('',#1316,#655);
#560=LINE('',#1317,#656);
#561=LINE('',#1319,#657);
#562=LINE('',#1322,#658);
#563=LINE('',#1323,#659);
#564=LINE('',#1353,#660);
#565=LINE('',#1354,#661);
#566=LINE('',#1356,#662);
#567=LINE('',#1358,#663);
#568=LINE('',#1360,#664);
#569=LINE('',#1362,#665);
#570=VECTOR('',#904,1.);
#571=VECTOR('',#905,1.);
#572=VECTOR('',#906,1.);
#573=VECTOR('',#907,1.);
#574=VECTOR('',#910,1.);
#575=VECTOR('',#911,1.);
#576=VECTOR('',#912,1.);
#577=VECTOR('',#915,1.);
#578=VECTOR('',#920,1.);
#579=VECTOR('',#921,1.);
#580=VECTOR('',#922,1.);
#581=VECTOR('',#923,1.);
#582=VECTOR('',#924,1.);
#583=VECTOR('',#925,1.);
#584=VECTOR('',#926,1.);
#585=VECTOR('',#927,1.);
#586=VECTOR('',#928,1.);
#587=VECTOR('',#929,1.);
#588=VECTOR('',#930,1.);
#589=VECTOR('',#931,1.);
#590=VECTOR('',#936,1.);
#591=VECTOR('',#937,1.);
#592=VECTOR('',#938,1.);
#593=VECTOR('',#941,1.);
#594=VECTOR('',#942,1.);
#595=VECTOR('',#943,1.);
#596=VECTOR('',#944,1.);
#597=VECTOR('',#945,1.);
#598=VECTOR('',#946,1.);
#599=VECTOR('',#947,1.);
#600=VECTOR('',#948,1.);
#601=VECTOR('',#949,1.);
#602=VECTOR('',#952,1.);
#603=VECTOR('',#953,1.);
#604=VECTOR('',#954,1.);
#605=VECTOR('',#955,1.);
#606=VECTOR('',#958,1.);
#607=VECTOR('',#959,1.);
#608=VECTOR('',#960,1.);
#609=VECTOR('',#963,1.);
#610=VECTOR('',#964,1.);
#611=VECTOR('',#965,1.);
#612=VECTOR('',#968,1.);
#613=VECTOR('',#969,1.);
#614=VECTOR('',#970,1.);
#615=VECTOR('',#973,1.);
#616=VECTOR('',#974,1.);
#617=VECTOR('',#975,1.);
#618=VECTOR('',#976,1.);
#619=VECTOR('',#977,1.);
#620=VECTOR('',#980,1.);
#621=VECTOR('',#983,1.);
#622=VECTOR('',#988,1.);
#623=VECTOR('',#989,1.);
#624=VECTOR('',#990,1.);
#625=VECTOR('',#991,1.);
#626=VECTOR('',#994,1.);
#627=VECTOR('',#995,1.);
#628=VECTOR('',#996,1.);
#629=VECTOR('',#999,1.);
#630=VECTOR('',#1000,1.);
#631=VECTOR('',#1001,1.);
#632=VECTOR('',#1004,1.);
#633=VECTOR('',#1005,1.);
#634=VECTOR('',#1006,1.);
#635=VECTOR('',#1007,1.);
#636=VECTOR('',#1008,1.);
#637=VECTOR('',#1011,1.);
#638=VECTOR('',#1012,1.);
#639=VECTOR('',#1013,1.);
#640=VECTOR('',#1016,1.);
#641=VECTOR('',#1017,1.);
#642=VECTOR('',#1018,1.);
#643=VECTOR('',#1019,1.);
#644=VECTOR('',#1024,1.);
#645=VECTOR('',#1025,1.);
#646=VECTOR('',#1028,1.);
#647=VECTOR('',#1031,1.);
#648=VECTOR('',#1034,1.);
#649=VECTOR('',#1035,1.);
#650=VECTOR('',#1036,1.);
#651=VECTOR('',#1039,1.);
#652=VECTOR('',#1040,1.);
#653=VECTOR('',#1041,1.);
#654=VECTOR('',#1048,1.);
#655=VECTOR('',#1055,1.);
#656=VECTOR('',#1056,1.);
#657=VECTOR('',#1059,1.);
#658=VECTOR('',#1060,1.);
#659=VECTOR('',#1061,1.);
#660=VECTOR('',#1096,1.);
#661=VECTOR('',#1097,1.);
#662=VECTOR('',#1100,1.);
#663=VECTOR('',#1103,1.);
#664=VECTOR('',#1106,1.);
#665=VECTOR('',#1109,1.);
#666=EDGE_LOOP('',(#52,#53,#54,#55));
#667=EDGE_LOOP('',(#56,#57,#58,#59,#60,#61));
#668=EDGE_LOOP('',(#62,#63,#64,#65,#66,#67,#68,#69,#70,#71,#72,#73,#74,
#75,#76));
#669=EDGE_LOOP('',(#77,#78,#79,#80,#81,#82,#83,#84,#85,#86,#87,#88,#89,
#90,#91));
#670=EDGE_LOOP('',(#92,#93,#94,#95));
#671=EDGE_LOOP('',(#96,#97,#98,#99));
#672=EDGE_LOOP('',(#100,#101,#102,#103));
#673=EDGE_LOOP('',(#104,#105,#106,#107));
#674=EDGE_LOOP('',(#108,#109,#110,#111,#112,#113));
#675=EDGE_LOOP('',(#114,#115,#116,#117));
#676=EDGE_LOOP('',(#118,#119,#120,#121,#122,#123));
#677=EDGE_LOOP('',(#124,#125,#126,#127));
#678=EDGE_LOOP('',(#128,#129,#130,#131));
#679=EDGE_LOOP('',(#132,#133,#134,#135));
#680=EDGE_LOOP('',(#136,#137,#138,#139,#140,#141,#142,#143));
#681=EDGE_LOOP('',(#144,#145,#146,#147));
#682=EDGE_LOOP('',(#148,#149,#150,#151,#152,#153,#154,#155));
#683=EDGE_LOOP('',(#156,#157,#158,#159,#160,#161));
#684=EDGE_LOOP('',(#162,#163,#164,#165,#166,#167));
#685=EDGE_LOOP('',(#168,#169,#170,#171,#172,#173,#174,#175,#176,#177,#178));
#686=EDGE_LOOP('',(#179,#180,#181,#182,#183,#184,#185,#186,#187,#188,#189));
#687=EDGE_LOOP('',(#190,#191,#192,#193));
#688=EDGE_LOOP('',(#194,#195,#196,#197));
#689=EDGE_LOOP('',(#198,#199,#200,#201,#202,#203));
#690=EDGE_LOOP('',(#204,#205,#206,#207));
#691=EDGE_LOOP('',(#208,#209,#210,#211));
#692=EDGE_LOOP('',(#212,#213,#214,#215));
#693=EDGE_LOOP('',(#216,#217,#218,#219));
#694=EDGE_LOOP('',(#220,#221,#222,#223));
#695=EDGE_LOOP('',(#224,#225,#226,#227));
#696=EDGE_LOOP('',(#228,#229,#230,#231));
#697=EDGE_LOOP('',(#232,#233,#234,#235));
#698=EDGE_LOOP('',(#236,#237,#238,#239));
#699=EDGE_LOOP('',(#240,#241,#242,#243));
#700=EDGE_LOOP('',(#244,#245,#246,#247));
#701=EDGE_LOOP('',(#248,#249,#250,#251));
#702=EDGE_LOOP('',(#252,#253,#254,#255));
#703=EDGE_LOOP('',(#256,#257,#258,#259));
#704=EDGE_LOOP('',(#260,#261,#262,#263));
#705=EDGE_LOOP('',(#264,#265,#266,#267));
#706=EDGE_LOOP('',(#268,#269,#270,#271));
#707=EDGE_LOOP('',(#272,#273,#274,#275));
#708=EDGE_LOOP('',(#276,#277,#278,#279));
#709=EDGE_LOOP('',(#280,#281,#282,#283));
#710=FACE_BOUND('',#666,.T.);
#711=FACE_BOUND('',#667,.T.);
#712=FACE_BOUND('',#668,.T.);
#713=FACE_BOUND('',#669,.T.);
#714=FACE_BOUND('',#670,.T.);
#715=FACE_BOUND('',#671,.T.);
#716=FACE_BOUND('',#672,.T.);
#717=FACE_BOUND('',#673,.T.);
#718=FACE_BOUND('',#674,.T.);
#719=FACE_BOUND('',#675,.T.);
#720=FACE_BOUND('',#676,.T.);
#721=FACE_BOUND('',#677,.T.);
#722=FACE_BOUND('',#678,.T.);
#723=FACE_BOUND('',#679,.T.);
#724=FACE_BOUND('',#680,.T.);
#725=FACE_BOUND('',#681,.T.);
#726=FACE_BOUND('',#682,.T.);
#727=FACE_BOUND('',#683,.T.);
#728=FACE_BOUND('',#684,.T.);
#729=FACE_BOUND('',#685,.T.);
#730=FACE_BOUND('',#686,.T.);
#731=FACE_BOUND('',#687,.T.);
#732=FACE_BOUND('',#688,.T.);
#733=FACE_BOUND('',#689,.T.);
#734=FACE_BOUND('',#690,.T.);
#735=FACE_BOUND('',#691,.T.);
#736=FACE_BOUND('',#692,.T.);
#737=FACE_BOUND('',#693,.T.);
#738=FACE_BOUND('',#694,.T.);
#739=FACE_BOUND('',#695,.T.);
#740=FACE_BOUND('',#696,.T.);
#741=FACE_BOUND('',#697,.T.);
#742=FACE_BOUND('',#698,.T.);
#743=FACE_BOUND('',#699,.T.);
#744=FACE_BOUND('',#700,.T.);
#745=FACE_BOUND('',#701,.T.);
#746=FACE_BOUND('',#702,.T.);
#747=FACE_BOUND('',#703,.T.);
#748=FACE_BOUND('',#704,.T.);
#749=FACE_BOUND('',#705,.T.);
#750=FACE_BOUND('',#706,.T.);
#751=FACE_BOUND('',#707,.T.);
#752=FACE_BOUND('',#708,.T.);
#753=FACE_BOUND('',#709,.T.);
#754=PLANE('',#841);
#755=PLANE('',#842);
#756=PLANE('',#845);
#757=PLANE('',#847);
#758=PLANE('',#849);
#759=PLANE('',#850);
#760=PLANE('',#851);
#761=PLANE('',#852);
#762=PLANE('',#853);
#763=PLANE('',#854);
#764=PLANE('',#857);
#765=PLANE('',#858);
#766=PLANE('',#859);
#767=PLANE('',#860);
#768=PLANE('',#861);
#769=PLANE('',#862);
#770=PLANE('',#863);
#771=PLANE('',#864);
#772=PLANE('',#867);
#773=PLANE('',#868);
#774=PLANE('',#869);
#775=PLANE('',#870);
#776=PLANE('',#871);
#777=PLANE('',#874);
#778=PLANE('',#875);
#779=PLANE('',#893);
#780=PLANE('',#894);
#781=PLANE('',#895);
#782=PLANE('',#897);
#783=PLANE('',#898);
#784=PLANE('',#899);
#785=ADVANCED_FACE('',(#710),#754,.T.);
#786=ADVANCED_FACE('',(#711),#755,.T.);
#787=ADVANCED_FACE('',(#712),#756,.T.);
#788=ADVANCED_FACE('',(#713),#757,.T.);
#789=ADVANCED_FACE('',(#714),#758,.F.);
#790=ADVANCED_FACE('',(#715),#759,.F.);
#791=ADVANCED_FACE('',(#716),#760,.F.);
#792=ADVANCED_FACE('',(#717),#761,.F.);
#793=ADVANCED_FACE('',(#718,#719),#762,.T.);
#794=ADVANCED_FACE('',(#720),#763,.T.);
#795=ADVANCED_FACE('',(#721),#764,.F.);
#796=ADVANCED_FACE('',(#722),#765,.F.);
#797=ADVANCED_FACE('',(#723),#766,.F.);
#798=ADVANCED_FACE('',(#724),#767,.F.);
#799=ADVANCED_FACE('',(#725),#768,.F.);
#800=ADVANCED_FACE('',(#726),#769,.F.);
#801=ADVANCED_FACE('',(#727),#770,.F.);
#802=ADVANCED_FACE('',(#728),#771,.F.);
#803=ADVANCED_FACE('',(#729),#772,.F.);
#804=ADVANCED_FACE('',(#730),#773,.T.);
#805=ADVANCED_FACE('',(#731),#774,.T.);
#806=ADVANCED_FACE('',(#732),#775,.T.);
#807=ADVANCED_FACE('',(#733),#776,.T.);
#808=ADVANCED_FACE('',(#734),#777,.F.);
#809=ADVANCED_FACE('',(#735),#778,.T.);
#810=ADVANCED_FACE('',(#736),#24,.T.);
#811=ADVANCED_FACE('',(#737),#25,.T.);
#812=ADVANCED_FACE('',(#738),#26,.T.);
#813=ADVANCED_FACE('',(#739),#27,.T.);
#814=ADVANCED_FACE('',(#740),#22,.F.);
#815=ADVANCED_FACE('',(#741),#28,.F.);
#816=ADVANCED_FACE('',(#742),#23,.F.);
#817=ADVANCED_FACE('',(#743),#29,.T.);
#818=ADVANCED_FACE('',(#744),#30,.T.);
#819=ADVANCED_FACE('',(#745),#31,.T.);
#820=ADVANCED_FACE('',(#746),#20,.T.);
#821=ADVANCED_FACE('',(#747),#779,.T.);
#822=ADVANCED_FACE('',(#748),#780,.T.);
#823=ADVANCED_FACE('',(#749),#781,.F.);
#824=ADVANCED_FACE('',(#750),#21,.T.);
#825=ADVANCED_FACE('',(#751),#782,.T.);
#826=ADVANCED_FACE('',(#752),#783,.F.);
#827=ADVANCED_FACE('',(#753),#784,.T.);
#828=CLOSED_SHELL('',(#785,#786,#787,#788,#789,#790,#791,#792,#793,#794,
#795,#796,#797,#798,#799,#800,#801,#802,#803,#804,#805,#806,#807,#808,#809,
#810,#811,#812,#813,#814,#815,#816,#817,#818,#819,#820,#821,#822,#823,#824,
#825,#826,#827));
#829=STYLED_ITEM('',(#830),#837);
#830=PRESENTATION_STYLE_ASSIGNMENT((#831));
#831=SURFACE_STYLE_USAGE(.BOTH.,#832);
#832=SURFACE_SIDE_STYLE('',(#833));
#833=SURFACE_STYLE_FILL_AREA(#834);
#834=FILL_AREA_STYLE('',(#835));
#835=FILL_AREA_STYLE_COLOUR('',#836);
#836=COLOUR_RGB('',0.615686274509804,0.811764705882353,0.929411764705882);
#837=MANIFOLD_SOLID_BREP('Part 1',#828);
#838=SHAPE_DEFINITION_REPRESENTATION(#1372,#839);
#839=SHAPE_REPRESENTATION('Part 1',(#840),#1367);
#840=AXIS2_PLACEMENT_3D('',#1116,#900,#901);
#841=AXIS2_PLACEMENT_3D('',#1117,#902,#903);
#842=AXIS2_PLACEMENT_3D('',#1126,#908,#909);
#843=AXIS2_PLACEMENT_3D('',#1134,#913,#914);
#844=AXIS2_PLACEMENT_3D('',#1138,#916,#917);
#845=AXIS2_PLACEMENT_3D('',#1139,#918,#919);
#846=AXIS2_PLACEMENT_3D('',#1169,#932,#933);
#847=AXIS2_PLACEMENT_3D('',#1170,#934,#935);
#848=AXIS2_PLACEMENT_3D('',#1177,#939,#940);
#849=AXIS2_PLACEMENT_3D('',#1201,#950,#951);
#850=AXIS2_PLACEMENT_3D('',#1210,#956,#957);
#851=AXIS2_PLACEMENT_3D('',#1216,#961,#962);
#852=AXIS2_PLACEMENT_3D('',#1222,#966,#967);
#853=AXIS2_PLACEMENT_3D('',#1228,#971,#972);
#854=AXIS2_PLACEMENT_3D('',#1237,#978,#979);
#855=AXIS2_PLACEMENT_3D('',#1239,#981,#982);
#856=AXIS2_PLACEMENT_3D('',#1243,#984,#985);
#857=AXIS2_PLACEMENT_3D('',#1244,#986,#987);
#858=AXIS2_PLACEMENT_3D('',#1253,#992,#993);
#859=AXIS2_PLACEMENT_3D('',#1259,#997,#998);
#860=AXIS2_PLACEMENT_3D('',#1265,#1002,#1003);
#861=AXIS2_PLACEMENT_3D('',#1274,#1009,#1010);
#862=AXIS2_PLACEMENT_3D('',#1280,#1014,#1015);
#863=AXIS2_PLACEMENT_3D('',#1287,#1020,#1021);
#864=AXIS2_PLACEMENT_3D('',#1288,#1022,#1023);
#865=AXIS2_PLACEMENT_3D('',#1294,#1026,#1027);
#866=AXIS2_PLACEMENT_3D('',#1298,#1029,#1030);
#867=AXIS2_PLACEMENT_3D('',#1301,#1032,#1033);
#868=AXIS2_PLACEMENT_3D('',#1305,#1037,#1038);
#869=AXIS2_PLACEMENT_3D('',#1309,#1042,#1043);
#870=AXIS2_PLACEMENT_3D('',#1310,#1044,#1045);
#871=AXIS2_PLACEMENT_3D('',#1311,#1046,#1047);
#872=AXIS2_PLACEMENT_3D('',#1313,#1049,#1050);
#873=AXIS2_PLACEMENT_3D('',#1314,#1051,#1052);
#874=AXIS2_PLACEMENT_3D('',#1315,#1053,#1054);
#875=AXIS2_PLACEMENT_3D('',#1318,#1057,#1058);
#876=AXIS2_PLACEMENT_3D('',#1324,#1062,#1063);
#877=AXIS2_PLACEMENT_3D('',#1325,#1064,#1065);
#878=AXIS2_PLACEMENT_3D('',#1326,#1066,#1067);
#879=AXIS2_PLACEMENT_3D('',#1327,#1068,#1069);
#880=AXIS2_PLACEMENT_3D('',#1328,#1070,#1071);
#881=AXIS2_PLACEMENT_3D('',#1329,#1072,#1073);
#882=AXIS2_PLACEMENT_3D('',#1330,#1074,#1075);
#883=AXIS2_PLACEMENT_3D('',#1331,#1076,#1077);
#884=AXIS2_PLACEMENT_3D('',#1332,#1078,#1079);
#885=AXIS2_PLACEMENT_3D('',#1339,#1080,#1081);
#886=AXIS2_PLACEMENT_3D('',#1340,#1082,#1083);
#887=AXIS2_PLACEMENT_3D('',#1341,#1084,#1085);
#888=AXIS2_PLACEMENT_3D('',#1342,#1086,#1087);
#889=AXIS2_PLACEMENT_3D('',#1349,#1088,#1089);
#890=AXIS2_PLACEMENT_3D('',#1350,#1090,#1091);
#891=AXIS2_PLACEMENT_3D('',#1351,#1092,#1093);
#892=AXIS2_PLACEMENT_3D('',#1352,#1094,#1095);
#893=AXIS2_PLACEMENT_3D('',#1355,#1098,#1099);
#894=AXIS2_PLACEMENT_3D('',#1357,#1101,#1102);
#895=AXIS2_PLACEMENT_3D('',#1359,#1104,#1105);
#896=AXIS2_PLACEMENT_3D('',#1361,#1107,#1108);
#897=AXIS2_PLACEMENT_3D('',#1363,#1110,#1111);
#898=AXIS2_PLACEMENT_3D('',#1364,#1112,#1113);
#899=AXIS2_PLACEMENT_3D('',#1365,#1114,#1115);
#900=DIRECTION('',(0.,0.,1.));
#901=DIRECTION('',(1.,0.,0.));
#902=DIRECTION('',(0.,1.,0.));
#903=DIRECTION('',(0.,0.,1.));
#904=DIRECTION('',(0.,0.,-1.));
#905=DIRECTION('',(-1.,0.,0.));
#906=DIRECTION('',(0.,0.,-1.));
#907=DIRECTION('',(-1.,0.,0.));
#908=DIRECTION('',(0.,0.,1.));
#909=DIRECTION('',(1.,0.,0.));
#910=DIRECTION('',(1.7347234759768E-16,-1.,0.));
#911=DIRECTION('',(-1.,-8.67361737988404E-17,0.));
#912=DIRECTION('',(0.,1.,0.));
#913=DIRECTION('',(0.,0.,1.));
#914=DIRECTION('',(1.,0.,0.));
#915=DIRECTION('',(-1.,0.,0.));
#916=DIRECTION('',(0.,0.,1.));
#917=DIRECTION('',(1.,0.,0.));
#918=DIRECTION('',(-1.,0.,0.));
#919=DIRECTION('',(0.,0.,1.));
#920=DIRECTION('',(0.,0.,1.));
#921=DIRECTION('',(0.,-1.,0.));
#922=DIRECTION('',(0.,0.,-1.));
#923=DIRECTION('',(0.,-0.707106781186548,0.707106781186548));
#924=DIRECTION('',(0.,0.,1.));
#925=DIRECTION('',(0.,1.,0.));
#926=DIRECTION('',(0.,0.,1.));
#927=DIRECTION('',(0.,0.707106781186548,0.707106781186548));
#928=DIRECTION('',(0.,1.,0.));
#929=DIRECTION('',(0.,0.,-1.));
#930=DIRECTION('',(0.,0.,-1.));
#931=DIRECTION('',(0.,1.,-1.7347234759768E-16));
#932=DIRECTION('',(-1.,0.,0.));
#933=DIRECTION('',(0.,0.,1.));
#934=DIRECTION('',(1.,1.7347234759768E-16,0.));
#935=DIRECTION('',(-1.7347234759768E-16,1.,0.));
#936=DIRECTION('',(0.,0.,-1.));
#937=DIRECTION('',(-1.7347234759768E-16,1.,0.));
#938=DIRECTION('',(0.,0.,1.));
#939=DIRECTION('',(1.,1.7347234759768E-16,0.));
#940=DIRECTION('',(-1.7347234759768E-16,1.,0.));
#941=DIRECTION('',(-1.7347234759768E-16,1.,-1.73472347597681E-16));
#942=DIRECTION('',(0.,0.,-1.));
#943=DIRECTION('',(0.,0.,-1.));
#944=DIRECTION('',(1.7347234759768E-16,-1.,0.));
#945=DIRECTION('',(1.2266347333467E-16,-0.707106781186548,-0.707106781186548));
#946=DIRECTION('',(0.,0.,1.));
#947=DIRECTION('',(1.7347234759768E-16,-1.,0.));
#948=DIRECTION('',(0.,0.,1.));
#949=DIRECTION('',(-1.2266347333467E-16,0.707106781186548,-0.707106781186548));
#950=DIRECTION('',(1.,0.,0.));
#951=DIRECTION('',(0.,0.,-1.));
#952=DIRECTION('',(0.,0.,1.));
#953=DIRECTION('',(0.,-1.,0.));
#954=DIRECTION('',(0.,0.,1.));
#955=DIRECTION('',(0.,-1.,0.));
#956=DIRECTION('',(0.5,0.,0.866025403784439));
#957=DIRECTION('',(0.866025403784439,0.,-0.5));
#958=DIRECTION('',(-0.866025403784439,-7.5115729936858E-17,0.5));
#959=DIRECTION('',(-0.866025403784439,0.,0.5));
#960=DIRECTION('',(0.,-1.,0.));
#961=DIRECTION('',(-0.5,0.,0.866025403784439));
#962=DIRECTION('',(0.866025403784439,0.,0.5));
#963=DIRECTION('',(-0.866025403784439,-7.5115729936858E-17,-0.5));
#964=DIRECTION('',(-0.866025403784439,0.,-0.5));
#965=DIRECTION('',(0.,-1.,0.));
#966=DIRECTION('',(-1.,0.,0.));
#967=DIRECTION('',(0.,0.,1.));
#968=DIRECTION('',(0.,0.,-1.));
#969=DIRECTION('',(0.,0.,-1.));
#970=DIRECTION('',(0.,-1.,0.));
#971=DIRECTION('',(0.,-1.,0.));
#972=DIRECTION('',(0.,0.,-1.));
#973=DIRECTION('',(0.866025403784439,0.,0.5));
#974=DIRECTION('',(0.866025403784439,0.,-0.5));
#975=DIRECTION('',(0.,0.,-1.));
#976=DIRECTION('',(1.,0.,0.));
#977=DIRECTION('',(0.,0.,-1.));
#978=DIRECTION('',(0.,0.,1.));
#979=DIRECTION('',(1.,0.,0.));
#980=DIRECTION('',(1.,1.30104260698261E-16,0.));
#981=DIRECTION('',(0.,0.,1.));
#982=DIRECTION('',(1.,0.,0.));
#983=DIRECTION('',(-1.,0.,0.));
#984=DIRECTION('',(0.,0.,1.));
#985=DIRECTION('',(1.,0.,0.));
#986=DIRECTION('',(1.,0.,0.));
#987=DIRECTION('',(0.,0.,-1.));
#988=DIRECTION('',(0.,-1.,0.));
#989=DIRECTION('',(0.,0.,1.));
#990=DIRECTION('',(0.,-1.,0.));
#991=DIRECTION('',(0.,0.,1.));
#992=DIRECTION('',(0.5,0.,0.866025403784439));
#993=DIRECTION('',(0.866025403784439,0.,-0.5));
#994=DIRECTION('',(-0.866025403784439,-1.12673594905287E-16,0.5));
#995=DIRECTION('',(0.,-1.,0.));
#996=DIRECTION('',(-0.866025403784439,0.,0.5));
#997=DIRECTION('',(-0.5,0.,0.866025403784439));
#998=DIRECTION('',(0.866025403784439,0.,0.5));
#999=DIRECTION('',(-0.866025403784439,-1.12673594905287E-16,-0.5));
#1000=DIRECTION('',(0.,-1.,0.));
#1001=DIRECTION('',(-0.866025403784439,0.,-0.5));
#1002=DIRECTION('',(0.5,0.,-0.866025403784439));
#1003=DIRECTION('',(-0.866025403784439,0.,-0.5));
#1004=DIRECTION('',(0.,-1.,0.));
#1005=DIRECTION('',(0.866025403784439,1.12673594905287E-16,0.5));
#1006=DIRECTION('',(0.866025403784439,0.,0.5));
#1007=DIRECTION('',(0.,-1.,0.));
#1008=DIRECTION('',(0.866025403784439,7.5115729936858E-17,0.5));
#1009=DIRECTION('',(-1.,0.,0.));
#1010=DIRECTION('',(0.,0.,1.));
#1011=DIRECTION('',(0.,0.,-1.));
#1012=DIRECTION('',(0.,-1.,0.));
#1013=DIRECTION('',(0.,0.,-1.));
#1014=DIRECTION('',(-0.5,0.,-0.866025403784438));
#1015=DIRECTION('',(-0.866025403784439,0.,0.5));
#1016=DIRECTION('',(0.866025403784439,1.12673594905287E-16,-0.5));
#1017=DIRECTION('',(0.,1.,0.));
#1018=DIRECTION('',(0.866025403784439,7.51157299368579E-17,-0.5));
#1019=DIRECTION('',(0.866025403784439,0.,-0.5));
#1020=DIRECTION('',(0.,1.,0.));
#1021=DIRECTION('',(-1.,0.,0.));
#1022=DIRECTION('',(0.,0.,1.));
#1023=DIRECTION('',(1.,0.,0.));
#1024=DIRECTION('',(1.,0.,0.));
#1025=DIRECTION('',(1.7347234759768E-16,-1.,0.));
#1026=DIRECTION('',(0.,0.,1.));
#1027=DIRECTION('',(1.,0.,0.));
#1028=DIRECTION('',(-1.,0.,0.));
#1029=DIRECTION('',(0.,0.,1.));
#1030=DIRECTION('',(1.,0.,0.));
#1031=DIRECTION('',(0.,1.,0.));
#1032=DIRECTION('',(-1.30104260698261E-16,1.,0.));
#1033=DIRECTION('',(-1.,-1.30104260698261E-16,0.));
#1034=DIRECTION('',(-1.,-1.30104260698261E-16,0.));
#1035=DIRECTION('',(-1.,-1.30104260698261E-16,0.));
#1036=DIRECTION('',(-1.,-1.30104260698261E-16,0.));
#1037=DIRECTION('',(-8.67361737988404E-17,1.,0.));
#1038=DIRECTION('',(-1.,-8.67361737988404E-17,0.));
#1039=DIRECTION('',(1.,8.67361737988404E-17,0.));
#1040=DIRECTION('',(-1.,-8.67361737988404E-17,0.));
#1041=DIRECTION('',(-1.,-8.67361737988404E-17,0.));
#1042=DIRECTION('',(0.,0.,1.));
#1043=DIRECTION('',(1.,0.,0.));
#1044=DIRECTION('',(0.,0.,1.));
#1045=DIRECTION('',(1.,0.,0.));
#1046=DIRECTION('',(0.,1.73472347597681E-16,1.));
#1047=DIRECTION('',(0.,-1.,1.73472347597681E-16));
#1048=DIRECTION('',(-1.,0.,0.));
#1049=DIRECTION('',(0.,1.73472347597681E-16,1.));
#1050=DIRECTION('',(0.,-1.,1.73472347597681E-16));
#1051=DIRECTION('',(0.,1.73472347597681E-16,1.));
#1052=DIRECTION('',(0.,-1.,1.73472347597681E-16));
#1053=DIRECTION('',(0.,-1.,0.));
#1054=DIRECTION('',(0.,0.,-1.));
#1055=DIRECTION('',(-1.,0.,0.));
#1056=DIRECTION('',(-1.,0.,0.));
#1057=DIRECTION('',(0.,1.,0.));
#1058=DIRECTION('',(0.,0.,1.));
#1059=DIRECTION('',(-1.,0.,0.));
#1060=DIRECTION('',(0.,0.,-1.));
#1061=DIRECTION('',(0.,0.,-1.));
#1062=DIRECTION('',(0.,0.,-1.));
#1063=DIRECTION('',(-1.,0.,0.));
#1064=DIRECTION('',(0.,0.,1.));
#1065=DIRECTION('',(1.,0.,0.));
#1066=DIRECTION('',(0.,0.,-1.));
#1067=DIRECTION('',(-1.,0.,0.));
#1068=DIRECTION('',(0.,0.,1.));
#1069=DIRECTION('',(1.,0.,0.));
#1070=DIRECTION('',(0.,0.,-1.));
#1071=DIRECTION('',(-1.,0.,0.));
#1072=DIRECTION('',(0.,2.16840434497101E-16,1.));
#1073=DIRECTION('',(0.,-1.,2.16840434497101E-16));
#1074=DIRECTION('',(0.,0.,-1.));
#1075=DIRECTION('',(-1.,0.,0.));
#1076=DIRECTION('',(0.,2.16840434497101E-16,1.));
#1077=DIRECTION('',(0.,-1.,2.16840434497101E-16));
#1078=DIRECTION('',(0.,2.16840434497101E-16,1.));
#1079=DIRECTION('',(0.,-1.,2.16840434497101E-16));
#1080=DIRECTION('',(-1.,0.,0.));
#1081=DIRECTION('',(0.,0.,1.));
#1082=DIRECTION('',(-1.,0.,0.));
#1083=DIRECTION('',(0.,0.,1.));
#1084=DIRECTION('',(-1.,0.,0.));
#1085=DIRECTION('',(0.,0.,1.));
#1086=DIRECTION('',(0.,2.16840434497101E-16,1.));
#1087=DIRECTION('',(0.,-1.,2.16840434497101E-16));
#1088=DIRECTION('',(1.,0.,0.));
#1089=DIRECTION('',(0.,0.,-1.));
#1090=DIRECTION('',(0.,0.,-1.));
#1091=DIRECTION('',(-1.,0.,0.));
#1092=DIRECTION('',(0.,0.,-1.));
#1093=DIRECTION('',(-1.,0.,0.));
#1094=DIRECTION('',(0.,0.,1.));
#1095=DIRECTION('',(1.,0.,0.));
#1096=DIRECTION('',(0.,0.707106781186552,-0.707106781186544));
#1097=DIRECTION('',(-0.707106781186551,0.,0.707106781186544));
#1098=DIRECTION('',(-0.707106781186546,0.,-0.707106781186549));
#1099=DIRECTION('',(0.,-1.,0.));
#1100=DIRECTION('',(0.577350269189627,-0.577350269189627,-0.577350269189624));
#1101=DIRECTION('',(0.,-0.707106781186546,-0.707106781186549));
#1102=DIRECTION('',(1.,0.,0.));
#1103=DIRECTION('',(0.,0.707106781186549,-0.707106781186546));
#1104=DIRECTION('',(0.,-0.707106781186546,0.707106781186549));
#1105=DIRECTION('',(-1.,0.,0.));
#1106=DIRECTION('',(0.577350269189627,0.577350269189627,0.577350269189624));
#1107=DIRECTION('',(0.,0.,1.));
#1108=DIRECTION('',(1.,0.,0.));
#1109=DIRECTION('',(-0.707106781186551,0.,-0.707106781186544));
#1110=DIRECTION('',(0.707106781186546,1.2266347333467E-16,-0.707106781186549));
#1111=DIRECTION('',(-1.7347234759768E-16,1.,0.));
#1112=DIRECTION('',(6.1331736667335E-17,-0.707106781186548,-0.707106781186548));
#1113=DIRECTION('',(-1.,-8.67361737988404E-17,0.));
#1114=DIRECTION('',(9.19976050010025E-17,-0.707106781186548,0.707106781186548));
#1115=DIRECTION('',(1.,1.30104260698261E-16,0.));
#1116=CARTESIAN_POINT('',(0.,0.,0.));
#1117=CARTESIAN_POINT('',(-5.20417042793042E-18,0.0144,0.005));
#1118=CARTESIAN_POINT('',(-0.007,0.0144,0.005));
#1119=CARTESIAN_POINT('',(-0.007,0.0144,-0.002));
#1120=CARTESIAN_POINT('',(-0.007,0.0144,0.));
#1121=CARTESIAN_POINT('',(-5.20417042793042E-18,0.0144,0.));
#1122=CARTESIAN_POINT('',(0.007,0.0144,0.));
#1123=CARTESIAN_POINT('',(0.007,0.0144,0.005));
#1124=CARTESIAN_POINT('',(0.007,0.0144,-0.002));
#1125=CARTESIAN_POINT('',(0.010002,0.0144,-0.002));
#1126=CARTESIAN_POINT('',(0.,0.0034,0.005));
#1127=CARTESIAN_POINT('',(0.01,0.0044,0.005));
#1128=CARTESIAN_POINT('',(0.01,0.0054,0.005));
#1129=CARTESIAN_POINT('',(0.01,-0.0026,0.005));
#1130=CARTESIAN_POINT('',(-1.73472347597681E-19,0.0054,0.005));
#1131=CARTESIAN_POINT('',(-0.01,0.0054,0.005));
#1132=CARTESIAN_POINT('',(-0.01,0.0044,0.005));
#1133=CARTESIAN_POINT('',(-0.01,-0.0026,0.005));
#1134=CARTESIAN_POINT('',(-0.007,-0.0026,0.005));
#1135=CARTESIAN_POINT('',(-0.007,-0.0056,0.005));
#1136=CARTESIAN_POINT('',(0.00625,-0.0056,0.005));
#1137=CARTESIAN_POINT('',(0.007,-0.0056,0.005));
#1138=CARTESIAN_POINT('',(0.007,-0.0026,0.005));
#1139=CARTESIAN_POINT('',(-0.01,0.0044,0.005));
#1140=CARTESIAN_POINT('',(-0.01,0.0194,-0.006));
#1141=CARTESIAN_POINT('',(-0.01,0.0194,-0.0096));
#1142=CARTESIAN_POINT('',(-0.01,0.0194,-0.005));
#1143=CARTESIAN_POINT('',(-0.01,-0.0026,-0.0096));
#1144=CARTESIAN_POINT('',(-0.01,-0.0026,-0.0096));
#1145=CARTESIAN_POINT('',(-0.01,-0.0026,0.005));
#1146=CARTESIAN_POINT('',(-0.01,0.0049,0.0055));
#1147=CARTESIAN_POINT('',(-0.01,0.0058,0.0046));
#1148=CARTESIAN_POINT('',(-0.01,0.0058,-0.0025));
#1149=CARTESIAN_POINT('',(-0.01,0.0058,-0.0025));
#1150=CARTESIAN_POINT('',(-0.01,0.0044,-0.0025));
#1151=CARTESIAN_POINT('',(-0.01,0.0066,-0.0025));
#1152=CARTESIAN_POINT('',(-0.01,0.0066,-0.0025));
#1153=CARTESIAN_POINT('',(-0.01,0.0066,0.0046));
#1154=CARTESIAN_POINT('',(-0.01,0.0057,0.0037));
#1155=CARTESIAN_POINT('',(-0.01,0.007,0.005));
#1156=CARTESIAN_POINT('',(-0.01,0.0044,0.005));
#1157=CARTESIAN_POINT('',(-0.01,0.0134,0.005));
#1158=CARTESIAN_POINT('',(-0.01,0.0134,0.005));
#1159=CARTESIAN_POINT('',(-0.01,0.0133999999999971,0.00143370595124505));
#1160=CARTESIAN_POINT('',(-0.01,0.0133999999999971,0.00143370595124505));
#1161=CARTESIAN_POINT('',(-0.01,0.0126808874121218,0.00104573637367668));
#1162=CARTESIAN_POINT('',(-0.01,0.0120358015594673,0.000519128501628856));
#1163=CARTESIAN_POINT('',(-0.01,0.0114,8.67361737988404E-19));
#1164=CARTESIAN_POINT('',(-0.01,0.0114,0.));
#1165=CARTESIAN_POINT('',(-0.01,0.0114,0.005));
#1166=CARTESIAN_POINT('',(-0.01,0.0114,-0.002));
#1167=CARTESIAN_POINT('',(-0.01,0.0169,-0.002));
#1168=CARTESIAN_POINT('',(-0.01,0.0164,-0.002));
#1169=CARTESIAN_POINT('',(-0.01,0.0164,-0.005));
#1170=CARTESIAN_POINT('',(0.01,0.0044,0.005));
#1171=CARTESIAN_POINT('',(0.01,-0.0026,0.005));
#1172=CARTESIAN_POINT('',(0.01,-0.0026,-0.0096));
#1173=CARTESIAN_POINT('',(0.01,0.0194,-0.0096));
#1174=CARTESIAN_POINT('',(0.01,0.0194,-0.0096));
#1175=CARTESIAN_POINT('',(0.01,0.0194,-0.006));
#1176=CARTESIAN_POINT('',(0.01,0.0194,-0.005));
#1177=CARTESIAN_POINT('',(0.01,0.0164,-0.005));
#1178=CARTESIAN_POINT('',(0.01,0.0164,-0.002));
#1179=CARTESIAN_POINT('',(0.01,0.0169,-0.002));
#1180=CARTESIAN_POINT('',(0.01,0.0114,-0.002));
#1181=CARTESIAN_POINT('',(0.01,0.0114,0.005));
#1182=CARTESIAN_POINT('',(0.01,0.0114,8.67361737988404E-19));
#1183=CARTESIAN_POINT('',(0.01,0.0133999999999971,0.00143370595124505));
#1184=CARTESIAN_POINT('',(0.01,0.0126808874121218,0.00104573637367668));
#1185=CARTESIAN_POINT('',(0.01,0.0120358015594718,0.000519128501623308));
#1186=CARTESIAN_POINT('',(0.01,0.0114,8.67361737988403E-19));
#1187=CARTESIAN_POINT('',(0.01,0.0133999999999971,0.00143370595124505));
#1188=CARTESIAN_POINT('',(0.01,0.0134,0.005));
#1189=CARTESIAN_POINT('',(0.01,0.0134,0.005));
#1190=CARTESIAN_POINT('',(0.01,0.0044,0.005));
#1191=CARTESIAN_POINT('',(0.01,0.007,0.005));
#1192=CARTESIAN_POINT('',(0.01,0.0057,0.0037));
#1193=CARTESIAN_POINT('',(0.01,0.0066,0.0046));
#1194=CARTESIAN_POINT('',(0.01,0.0066,-0.0025));
#1195=CARTESIAN_POINT('',(0.01,0.0066,-0.0025));
#1196=CARTESIAN_POINT('',(0.01,0.0044,-0.0025));
#1197=CARTESIAN_POINT('',(0.01,0.0058,-0.0025));
#1198=CARTESIAN_POINT('',(0.01,0.0058,-0.0025));
#1199=CARTESIAN_POINT('',(0.01,0.0058,0.0046));
#1200=CARTESIAN_POINT('',(0.01,0.0049,0.0055));
#1201=CARTESIAN_POINT('',(0.0025,0.007602,-4.33680868994202E-19));
#1202=CARTESIAN_POINT('',(0.0025,0.0058,-4.33680868994202E-19));
#1203=CARTESIAN_POINT('',(0.0025,0.0058,-0.00144337567297406));
#1204=CARTESIAN_POINT('',(0.0025,0.0058,0.00144337567297406));
#1205=CARTESIAN_POINT('',(0.0025,0.007602,-0.00144337567297406));
#1206=CARTESIAN_POINT('',(0.0025,-0.0056,-0.00144337567297406));
#1207=CARTESIAN_POINT('',(0.0025,-0.0056,-4.33680868994202E-19));
#1208=CARTESIAN_POINT('',(0.0025,-0.0056,0.00144337567297406));
#1209=CARTESIAN_POINT('',(0.0025,0.007602,0.00144337567297406));
#1210=CARTESIAN_POINT('',(0.00125,0.007602,0.00216506350946109));
#1211=CARTESIAN_POINT('',(0.00125,0.0058,0.00216506350946109));
#1212=CARTESIAN_POINT('',(2.16840434497101E-18,0.0058,0.00288675134594813));
#1213=CARTESIAN_POINT('',(0.00125,-0.0056,0.00216506350946109));
#1214=CARTESIAN_POINT('',(2.16840434497101E-18,-0.0056,0.00288675134594813));
#1215=CARTESIAN_POINT('',(2.16840434497101E-18,0.007602,0.00288675134594813));
#1216=CARTESIAN_POINT('',(-0.00125,0.007602,0.00216506350946109));
#1217=CARTESIAN_POINT('',(-0.00125,0.0058,0.00216506350946109));
#1218=CARTESIAN_POINT('',(-0.0025,0.0058,0.00144337567297406));
#1219=CARTESIAN_POINT('',(-0.00125,-0.0056,0.00216506350946109));
#1220=CARTESIAN_POINT('',(-0.0025,-0.0056,0.00144337567297406));
#1221=CARTESIAN_POINT('',(-0.0025,0.007602,0.00144337567297406));
#1222=CARTESIAN_POINT('',(-0.0025,0.007602,6.50521303491303E-19));
#1223=CARTESIAN_POINT('',(-0.0025,0.0058,6.50521303491303E-19));
#1224=CARTESIAN_POINT('',(-0.0025,0.0058,-0.00144337567297406));
#1225=CARTESIAN_POINT('',(-0.0025,-0.0056,6.50521303491303E-19));
#1226=CARTESIAN_POINT('',(-0.0025,-0.0056,-0.00144337567297406));
#1227=CARTESIAN_POINT('',(-0.0025,0.007602,-0.00144337567297406));
#1228=CARTESIAN_POINT('',(0.00625,-0.0056,0.005));
#1229=CARTESIAN_POINT('',(0.00125,-0.0056,-0.00216506350946109));
#1230=CARTESIAN_POINT('',(0.,-0.0056,-0.00288675134594813));
#1231=CARTESIAN_POINT('',(-0.00125,-0.0056,-0.00216506350946109));
#1232=CARTESIAN_POINT('',(-0.007,-0.0056,0.005));
#1233=CARTESIAN_POINT('',(-0.007,-0.0056,-0.0096));
#1234=CARTESIAN_POINT('',(0.007,-0.0056,-0.0096));
#1235=CARTESIAN_POINT('',(0.007,-0.0056,-0.0096));
#1236=CARTESIAN_POINT('',(0.007,-0.0056,0.005));
#1237=CARTESIAN_POINT('',(0.,0.0034,0.005));
#1238=CARTESIAN_POINT('',(0.01,0.007,0.005));
#1239=CARTESIAN_POINT('',(0.007,0.0134,0.005));
#1240=CARTESIAN_POINT('',(0.007,0.0164,0.005));
#1241=CARTESIAN_POINT('',(0.010002,0.0164,0.005));
#1242=CARTESIAN_POINT('',(-0.007,0.0164,0.005));
#1243=CARTESIAN_POINT('',(-0.007,0.0134,0.005));
#1244=CARTESIAN_POINT('',(0.0025,0.007602,-4.33680868994202E-19));
#1245=CARTESIAN_POINT('',(0.0025,0.007602,-0.00144337567297406));
#1246=CARTESIAN_POINT('',(0.0025,0.0076,-0.00144337567297406));
#1247=CARTESIAN_POINT('',(0.0025,0.0066,-0.00144337567297406));
#1248=CARTESIAN_POINT('',(0.0025,0.0066,-4.33680868994202E-19));
#1249=CARTESIAN_POINT('',(0.0025,0.0066,0.00144337567297406));
#1250=CARTESIAN_POINT('',(0.0025,0.007602,0.00144337567297406));
#1251=CARTESIAN_POINT('',(0.0025,0.0076,0.00144337567297406));
#1252=CARTESIAN_POINT('',(0.0025,0.0076,-4.33680868994202E-19));
#1253=CARTESIAN_POINT('',(0.00125,0.007602,0.00216506350946109));
#1254=CARTESIAN_POINT('',(0.00125,0.0066,0.00216506350946109));
#1255=CARTESIAN_POINT('',(2.16840434497101E-18,0.0066,0.00288675134594813));
#1256=CARTESIAN_POINT('',(2.16840434497101E-18,0.007602,0.00288675134594813));
#1257=CARTESIAN_POINT('',(2.16840434497101E-18,0.0076,0.00288675134594813));
#1258=CARTESIAN_POINT('',(0.00125,0.0076,0.00216506350946109));
#1259=CARTESIAN_POINT('',(-0.00125,0.007602,0.00216506350946109));
#1260=CARTESIAN_POINT('',(-0.00125,0.0066,0.00216506350946109));
#1261=CARTESIAN_POINT('',(-0.0025,0.0066,0.00144337567297406));
#1262=CARTESIAN_POINT('',(-0.0025,0.007602,0.00144337567297406));
#1263=CARTESIAN_POINT('',(-0.0025,0.0076,0.00144337567297406));
#1264=CARTESIAN_POINT('',(-0.00125,0.0076,0.00216506350946109));
#1265=CARTESIAN_POINT('',(0.00125,0.007602,-0.00216506350946109));
#1266=CARTESIAN_POINT('',(0.000669872981077807,0.007602,-0.0025));
#1267=CARTESIAN_POINT('',(0.000669872981077807,0.0066,-0.0025));
#1268=CARTESIAN_POINT('',(0.000669872981077807,0.0058,-0.0025));
#1269=CARTESIAN_POINT('',(0.00125,0.0066,-0.00216506350946109));
#1270=CARTESIAN_POINT('',(0.00125,0.0076,-0.00216506350946109));
#1271=CARTESIAN_POINT('',(0.,0.0076,-0.00288675134594813));
#1272=CARTESIAN_POINT('',(0.,0.007602,-0.00288675134594813));
#1273=CARTESIAN_POINT('',(0.00125,0.0058,-0.00216506350946109));
#1274=CARTESIAN_POINT('',(-0.0025,0.007602,6.50521303491303E-19));
#1275=CARTESIAN_POINT('',(-0.0025,0.0066,6.50521303491303E-19));
#1276=CARTESIAN_POINT('',(-0.0025,0.0066,-0.00144337567297406));
#1277=CARTESIAN_POINT('',(-0.0025,0.007602,-0.00144337567297406));
#1278=CARTESIAN_POINT('',(-0.0025,0.0076,-0.00144337567297406));
#1279=CARTESIAN_POINT('',(-0.0025,0.0076,6.50521303491303E-19));
#1280=CARTESIAN_POINT('',(-0.00125,0.007602,-0.00216506350946109));
#1281=CARTESIAN_POINT('',(-0.00125,0.0066,-0.00216506350946109));
#1282=CARTESIAN_POINT('',(-0.000669872981077808,0.0066,-0.0025));
#1283=CARTESIAN_POINT('',(-0.000669872981077808,0.007602,-0.0025));
#1284=CARTESIAN_POINT('',(-0.000669872981077808,0.0058,-0.0025));
#1285=CARTESIAN_POINT('',(-0.00125,0.0058,-0.00216506350946109));
#1286=CARTESIAN_POINT('',(-0.00125,0.0076,-0.00216506350946109));
#1287=CARTESIAN_POINT('',(0.,0.0076,0.));
#1288=CARTESIAN_POINT('',(0.,0.0034,-0.01));
#1289=CARTESIAN_POINT('',(0.,0.019,-0.01));
#1290=CARTESIAN_POINT('',(-0.0096,0.019,-0.01));
#1291=CARTESIAN_POINT('',(0.0096,0.019,-0.01));
#1292=CARTESIAN_POINT('',(0.0096,-0.0026,-0.01));
#1293=CARTESIAN_POINT('',(0.0096,-0.0026,-0.01));
#1294=CARTESIAN_POINT('',(0.007,-0.0026,-0.01));
#1295=CARTESIAN_POINT('',(0.007,-0.0052,-0.01));
#1296=CARTESIAN_POINT('',(-0.007,-0.0052,-0.01));
#1297=CARTESIAN_POINT('',(-0.007,-0.0052,-0.01));
#1298=CARTESIAN_POINT('',(-0.007,-0.0026,-0.01));
#1299=CARTESIAN_POINT('',(-0.0096,-0.0026,-0.01));
#1300=CARTESIAN_POINT('',(-0.0096,0.0194,-0.01));
#1301=CARTESIAN_POINT('',(8.67361737988404E-19,0.0066,-0.0025));
#1302=CARTESIAN_POINT('',(-0.01,0.0066,0.0046));
#1303=CARTESIAN_POINT('',(8.67361737988404E-19,0.0066,-0.0025));
#1304=CARTESIAN_POINT('',(8.67361737988404E-19,0.0066,-0.0025));
#1305=CARTESIAN_POINT('',(0.,0.0058,-0.0025));
#1306=CARTESIAN_POINT('',(0.,0.0058,0.0046));
#1307=CARTESIAN_POINT('',(0.,0.0058,-0.0025));
#1308=CARTESIAN_POINT('',(0.,0.0058,-0.0025));
#1309=CARTESIAN_POINT('',(0.,0.0044,-0.0025));
#1310=CARTESIAN_POINT('',(0.,0.0044,-0.0025));
#1311=CARTESIAN_POINT('',(0.010002,0.0169,-0.002));
#1312=CARTESIAN_POINT('',(-0.01,0.0164,-0.002));
#1313=CARTESIAN_POINT('',(-0.007,0.0114,-0.002));
#1314=CARTESIAN_POINT('',(0.007,0.0114,-0.002));
#1315=CARTESIAN_POINT('',(0.010002,0.0194,-0.006));
#1316=CARTESIAN_POINT('',(0.010002,0.0194,-0.0096));
#1317=CARTESIAN_POINT('',(0.01,0.0194,-0.005));
#1318=CARTESIAN_POINT('',(0.010002,0.0164,0.0035));
#1319=CARTESIAN_POINT('',(0.010002,0.0164,0.002));
#1320=CARTESIAN_POINT('',(0.007,0.0164,0.002));
#1321=CARTESIAN_POINT('',(-0.007,0.0164,0.002));
#1322=CARTESIAN_POINT('',(-0.007,0.0164,0.0035));
#1323=CARTESIAN_POINT('',(0.007,0.0164,0.0035));
#1324=CARTESIAN_POINT('',(0.007,-0.0026,0.005));
#1325=CARTESIAN_POINT('',(0.007,-0.0026,-0.0096));
#1326=CARTESIAN_POINT('',(-0.007,-0.0026,0.005));
#1327=CARTESIAN_POINT('',(-0.007,-0.0026,-0.0096));
#1328=CARTESIAN_POINT('',(-0.007,0.0114,0.005));
#1329=CARTESIAN_POINT('',(-0.007,0.0114,0.));
#1330=CARTESIAN_POINT('',(0.007,0.0114,0.005));
#1331=CARTESIAN_POINT('',(0.007,0.0114,8.67361737988404E-19));
#1332=CARTESIAN_POINT('',(-0.007,0.0114,8.67361737988404E-19));
#1333=CARTESIAN_POINT('',(-0.01,0.0134,0.00143370595124505));
#1334=CARTESIAN_POINT('',(-0.01,0.0137551271263351,0.00162530115276191));
#1335=CARTESIAN_POINT('',(-0.0098663069093804,0.0145243708351627,0.00185943937393194));
#1336=CARTESIAN_POINT('',(-0.00898658403544388,0.0158940789105855,0.00201990305842179));
#1337=CARTESIAN_POINT('',(-0.00780522820398083,0.0164,0.002));
#1338=CARTESIAN_POINT('',(-0.007,0.0164,0.002));
#1339=CARTESIAN_POINT('',(-0.007,0.0164,-6.93889390390723E-19));
#1340=CARTESIAN_POINT('',(0.010002,0.0164,-2.16840434497101E-19));
#1341=CARTESIAN_POINT('',(0.007,0.0164,-2.16840434497101E-19));
#1342=CARTESIAN_POINT('',(0.007,0.0114,8.67361737988404E-19));
#1343=CARTESIAN_POINT('',(0.007,0.0164,0.002));
#1344=CARTESIAN_POINT('',(0.00780587200697434,0.0164,0.002));
#1345=CARTESIAN_POINT('',(0.00898631351491442,0.0158933217884906,0.00201965695717589));
#1346=CARTESIAN_POINT('',(0.00986542340861491,0.0145267815974658,0.00185994483566187));
#1347=CARTESIAN_POINT('',(0.0100000000000001,0.0137554013129488,0.00162544907962003));
#1348=CARTESIAN_POINT('',(0.01,0.0133999999999996,0.00143370595124646));
#1349=CARTESIAN_POINT('',(0.010002,0.0164,-0.005));
#1350=CARTESIAN_POINT('',(-0.007,0.0134,0.005));
#1351=CARTESIAN_POINT('',(0.007,0.0134,0.0035));
#1352=CARTESIAN_POINT('',(-0.007,-0.0026,-0.01));
#1353=CARTESIAN_POINT('',(-0.007,-0.0056,-0.0096));
#1354=CARTESIAN_POINT('',(-0.0096,-0.0026,-0.01));
#1355=CARTESIAN_POINT('',(-0.0096,0.0034,-0.01));
#1356=CARTESIAN_POINT('',(-0.00333266666666665,0.0127326666666666,-0.0162673333333333));
#1357=CARTESIAN_POINT('',(0.,-0.0052,-0.01));
#1358=CARTESIAN_POINT('',(0.007,-0.0056,-0.0096));
#1359=CARTESIAN_POINT('',(0.010002,0.0194,-0.0096));
#1360=CARTESIAN_POINT('',(0.0100006666666667,0.0194006666666666,-0.00959933333333333));
#1361=CARTESIAN_POINT('',(0.007,-0.0026,-0.01));
#1362=CARTESIAN_POINT('',(0.01,-0.0026,-0.0096));
#1363=CARTESIAN_POINT('',(0.0096,0.0034,-0.01));
#1364=CARTESIAN_POINT('',(-1.73472347597681E-19,0.0054,0.005));
#1365=CARTESIAN_POINT('',(8.67361737988404E-19,0.0066,0.0046));
#1366=MECHANICAL_DESIGN_GEOMETRIC_PRESENTATION_REPRESENTATION('',(#829),
#1367);
#1367=(
GEOMETRIC_REPRESENTATION_CONTEXT(3)
GLOBAL_UNCERTAINTY_ASSIGNED_CONTEXT((#1368))
GLOBAL_UNIT_ASSIGNED_CONTEXT((#1371,#1370,#1369))
REPRESENTATION_CONTEXT('Part 1','TOP_LEVEL_ASSEMBLY_PART')
);
#1368=UNCERTAINTY_MEASURE_WITH_UNIT(LENGTH_MEASURE(2.E-5),#1371,
'DISTANCE_ACCURACY_VALUE','Maximum Tolerance applied to model');
#1369=(
NAMED_UNIT(*)
SI_UNIT($,.STERADIAN.)
SOLID_ANGLE_UNIT()
);
#1370=(
NAMED_UNIT(*)
PLANE_ANGLE_UNIT()
SI_UNIT($,.RADIAN.)
);
#1371=(
LENGTH_UNIT()
NAMED_UNIT(*)
SI_UNIT($,.METRE.)
);
#1372=PRODUCT_DEFINITION_SHAPE('','',#1373);
#1373=PRODUCT_DEFINITION('','',#1375,#1374);
#1374=PRODUCT_DEFINITION_CONTEXT('',#1381,'design');
#1375=PRODUCT_DEFINITION_FORMATION_WITH_SPECIFIED_SOURCE('','',#1377,
 .NOT_KNOWN.);
#1376=PRODUCT_RELATED_PRODUCT_CATEGORY('','',(#1377));
#1377=PRODUCT('Part 1','Part 1','Part 1',(#1379));
#1378=PRODUCT_CATEGORY('','');
#1379=PRODUCT_CONTEXT('',#1381,'mechanical');
#1380=APPLICATION_PROTOCOL_DEFINITION('international standard',
'automotive_design',2010,#1381);
#1381=APPLICATION_CONTEXT(
'core data for automotive mechanical design processes');
ENDSEC;
END-ISO-10303-21;
