ISO-10303-21;
HEADER;
/* Generated by software containing ST-Developer
 * from STEP Tools, Inc. (www.steptools.com) 
 */
/* OPTION: using custom renumber hook */

FILE_DESCRIPTION(
/* description */ ('STEP AP214',
'CAx-IF Rec.Pracs.---User Defined Attributes---1.5---2016-08-15'),
/* implementation_level */ '2;1');

FILE_NAME(
/* name */ '6a7bfb24e5d6ddc0b13a3a4b',
/* time_stamp */ '2026-08-12T04:48:37Z',
/* author */ (''),
/* organization */ (''),
/* preprocessor_version */ 'ST-DEVELOPER v20',
/* originating_system */ 'ONSHAPE BY PTC INC, 1.219',
/* authorisation */ '  ');

FILE_SCHEMA (('AUTOMOTIVE_DESIGN {1 0 10303 214 3 1 1}'));
ENDSEC;

DATA;
#10=PROPERTY_DEFINITION_REPRESENTATION(#14,#12);
#11=PROPERTY_DEFINITION_REPRESENTATION(#15,#13);
#12=REPRESENTATION('',(#16),#271);
#13=REPRESENTATION('',(#17),#271);
#14=PROPERTY_DEFINITION('pmi validation property','',#281);
#15=PROPERTY_DEFINITION('pmi validation property','',#281);
#16=VALUE_REPRESENTATION_ITEM('number of annotations',COUNT_MEASURE(0.));
#17=VALUE_REPRESENTATION_ITEM('number of views',COUNT_MEASURE(0.));
#18=B_SPLINE_CURVE_WITH_KNOTS('',3,(#231,#232,#233,#234,#235,#236,#237,
#238,#239,#240,#241),.UNSPECIFIED.,.T.,.F.,(1,1,1,1,1,1,1,1,1,1,1,1,1,1,
1),(-0.00234864543538136,-0.00156576362358757,-0.000782881811793787,0.,
0.000782881811793787,0.00156576362358757,0.00234864543538136,0.00313152724717515,
0.00391440905896893,0.00469729087076272,0.00548017268255651,0.00626305449435029,
0.00704593630614408,0.00782881811793787,0.00861169992973165),
 .UNSPECIFIED.);
#19=B_SPLINE_CURVE_WITH_KNOTS('',3,(#243,#244,#245,#246,#247,#248,#249,
#250,#251,#252,#253),.UNSPECIFIED.,.T.,.F.,(1,1,1,1,1,1,1,1,1,1,1,1,1,1,
1),(-0.00234864543538136,-0.00156576362358757,-0.000782881811793786,0.,
0.000782881811793786,0.00156576362358757,0.00234864543538136,0.00313152724717514,
0.00391440905896893,0.00469729087076272,0.0054801726825565,0.00626305449435029,
0.00704593630614407,0.00782881811793786,0.00861169992973165),
 .UNSPECIFIED.);
#20=COLOUR_RGB('',0.615686274509804,0.811764705882353,0.929411764705882);
#21=SHAPE_REPRESENTATION_RELATIONSHIP('','',#154,#23);
#22=SHAPE_REPRESENTATION_RELATIONSHIP('','',#155,#24);
#23=ADVANCED_BREP_SHAPE_REPRESENTATION('',(#150),#270);
#24=ADVANCED_BREP_SHAPE_REPRESENTATION('',(#151),#271);
#25=PLANE('',#163);
#26=PLANE('',#164);
#27=PLANE('',#172);
#28=PLANE('',#173);
#29=PLANE('',#174);
#30=ORIENTED_EDGE('',*,*,#50,.F.);
#31=ORIENTED_EDGE('',*,*,#51,.T.);
#32=ORIENTED_EDGE('',*,*,#52,.T.);
#33=ORIENTED_EDGE('',*,*,#53,.F.);
#34=ORIENTED_EDGE('',*,*,#50,.T.);
#35=ORIENTED_EDGE('',*,*,#52,.F.);
#36=ORIENTED_EDGE('',*,*,#51,.F.);
#37=ORIENTED_EDGE('',*,*,#53,.T.);
#38=ORIENTED_EDGE('',*,*,#54,.T.);
#39=ORIENTED_EDGE('',*,*,#55,.T.);
#40=ORIENTED_EDGE('',*,*,#56,.F.);
#41=ORIENTED_EDGE('',*,*,#57,.F.);
#42=ORIENTED_EDGE('',*,*,#58,.F.);
#43=ORIENTED_EDGE('',*,*,#59,.T.);
#44=ORIENTED_EDGE('',*,*,#58,.T.);
#45=ORIENTED_EDGE('',*,*,#56,.T.);
#46=ORIENTED_EDGE('',*,*,#59,.F.);
#47=ORIENTED_EDGE('',*,*,#57,.T.);
#48=ORIENTED_EDGE('',*,*,#54,.F.);
#49=ORIENTED_EDGE('',*,*,#55,.F.);
#50=EDGE_CURVE('',#60,#60,#70,.T.);
#51=EDGE_CURVE('',#61,#61,#71,.T.);
#52=EDGE_CURVE('',#62,#62,#72,.T.);
#53=EDGE_CURVE('',#63,#63,#73,.T.);
#54=EDGE_CURVE('',#64,#64,#18,.T.);
#55=EDGE_CURVE('',#65,#65,#19,.T.);
#56=EDGE_CURVE('',#66,#66,#74,.T.);
#57=EDGE_CURVE('',#67,#67,#75,.F.);
#58=EDGE_CURVE('',#68,#68,#76,.T.);
#59=EDGE_CURVE('',#69,#69,#77,.T.);
#60=VERTEX_POINT('',#219);
#61=VERTEX_POINT('',#221);
#62=VERTEX_POINT('',#224);
#63=VERTEX_POINT('',#226);
#64=VERTEX_POINT('',#242);
#65=VERTEX_POINT('',#254);
#66=VERTEX_POINT('',#256);
#67=VERTEX_POINT('',#258);
#68=VERTEX_POINT('',#261);
#69=VERTEX_POINT('',#263);
#70=CIRCLE('',#158,0.0064);
#71=CIRCLE('',#159,0.0064);
#72=CIRCLE('',#161,0.008);
#73=CIRCLE('',#162,0.008);
#74=CIRCLE('',#167,0.006);
#75=CIRCLE('',#168,0.006);
#76=CIRCLE('',#170,0.01);
#77=CIRCLE('',#171,0.01);
#78=EDGE_LOOP('',(#30));
#79=EDGE_LOOP('',(#31));
#80=EDGE_LOOP('',(#32));
#81=EDGE_LOOP('',(#33));
#82=EDGE_LOOP('',(#34));
#83=EDGE_LOOP('',(#35));
#84=EDGE_LOOP('',(#36));
#85=EDGE_LOOP('',(#37));
#86=EDGE_LOOP('',(#38));
#87=EDGE_LOOP('',(#39));
#88=EDGE_LOOP('',(#40));
#89=EDGE_LOOP('',(#41));
#90=EDGE_LOOP('',(#42));
#91=EDGE_LOOP('',(#43));
#92=EDGE_LOOP('',(#44));
#93=EDGE_LOOP('',(#45));
#94=EDGE_LOOP('',(#46));
#95=EDGE_LOOP('',(#47));
#96=EDGE_LOOP('',(#48));
#97=EDGE_LOOP('',(#49));
#98=FACE_BOUND('',#78,.T.);
#99=FACE_BOUND('',#79,.T.);
#100=FACE_BOUND('',#80,.T.);
#101=FACE_BOUND('',#81,.T.);
#102=FACE_BOUND('',#82,.T.);
#103=FACE_BOUND('',#83,.T.);
#104=FACE_BOUND('',#84,.T.);
#105=FACE_BOUND('',#85,.T.);
#106=FACE_BOUND('',#86,.T.);
#107=FACE_BOUND('',#87,.T.);
#108=FACE_BOUND('',#88,.T.);
#109=FACE_BOUND('',#89,.T.);
#110=FACE_BOUND('',#90,.T.);
#111=FACE_BOUND('',#91,.T.);
#112=FACE_BOUND('',#92,.T.);
#113=FACE_BOUND('',#93,.T.);
#114=FACE_BOUND('',#94,.T.);
#115=FACE_BOUND('',#95,.T.);
#116=FACE_BOUND('',#96,.T.);
#117=FACE_BOUND('',#97,.T.);
#118=CYLINDRICAL_SURFACE('',#157,0.0064);
#119=CYLINDRICAL_SURFACE('',#160,0.008);
#120=CYLINDRICAL_SURFACE('',#166,0.006);
#121=CYLINDRICAL_SURFACE('',#169,0.01);
#122=CYLINDRICAL_SURFACE('',#175,0.001);
#123=ADVANCED_FACE('',(#98,#99),#118,.F.);
#124=ADVANCED_FACE('',(#100,#101),#119,.T.);
#125=ADVANCED_FACE('',(#102,#103),#25,.F.);
#126=ADVANCED_FACE('',(#104,#105),#26,.T.);
#127=ADVANCED_FACE('',(#106,#107,#108,#109),#120,.T.);
#128=ADVANCED_FACE('',(#110,#111),#121,.T.);
#129=ADVANCED_FACE('',(#112),#27,.T.);
#130=ADVANCED_FACE('',(#113,#114),#28,.F.);
#131=ADVANCED_FACE('',(#115),#29,.F.);
#132=ADVANCED_FACE('',(#116,#117),#122,.F.);
#133=CLOSED_SHELL('',(#123,#124,#125,#126));
#134=CLOSED_SHELL('',(#127,#128,#129,#130,#131,#132));
#135=STYLED_ITEM('',(#137),#150);
#136=STYLED_ITEM('',(#138),#151);
#137=PRESENTATION_STYLE_ASSIGNMENT((#139));
#138=PRESENTATION_STYLE_ASSIGNMENT((#140));
#139=SURFACE_STYLE_USAGE(.BOTH.,#141);
#140=SURFACE_STYLE_USAGE(.BOTH.,#142);
#141=SURFACE_SIDE_STYLE('',(#143));
#142=SURFACE_SIDE_STYLE('',(#144));
#143=SURFACE_STYLE_FILL_AREA(#145);
#144=SURFACE_STYLE_FILL_AREA(#146);
#145=FILL_AREA_STYLE('',(#147));
#146=FILL_AREA_STYLE('',(#148));
#147=FILL_AREA_STYLE_COLOUR('',#149);
#148=FILL_AREA_STYLE_COLOUR('',#20);
#149=DRAUGHTING_PRE_DEFINED_COLOUR('red');
#150=MANIFOLD_SOLID_BREP('TPU Spacer',#133);
#151=MANIFOLD_SOLID_BREP('Front Wheel Pin',#134);
#152=SHAPE_DEFINITION_REPRESENTATION(#280,#154);
#153=SHAPE_DEFINITION_REPRESENTATION(#281,#155);
#154=SHAPE_REPRESENTATION('TPU Spacer',(#156),#270);
#155=SHAPE_REPRESENTATION('Front Wheel Pin',(#165),#271);
#156=AXIS2_PLACEMENT_3D('',#216,#176,#177);
#157=AXIS2_PLACEMENT_3D('',#217,#178,#179);
#158=AXIS2_PLACEMENT_3D('',#218,#180,#181);
#159=AXIS2_PLACEMENT_3D('',#220,#182,#183);
#160=AXIS2_PLACEMENT_3D('',#222,#184,#185);
#161=AXIS2_PLACEMENT_3D('',#223,#186,#187);
#162=AXIS2_PLACEMENT_3D('',#225,#188,#189);
#163=AXIS2_PLACEMENT_3D('',#227,#190,#191);
#164=AXIS2_PLACEMENT_3D('',#228,#192,#193);
#165=AXIS2_PLACEMENT_3D('',#229,#194,#195);
#166=AXIS2_PLACEMENT_3D('',#230,#196,#197);
#167=AXIS2_PLACEMENT_3D('',#255,#198,#199);
#168=AXIS2_PLACEMENT_3D('',#257,#200,#201);
#169=AXIS2_PLACEMENT_3D('',#259,#202,#203);
#170=AXIS2_PLACEMENT_3D('',#260,#204,#205);
#171=AXIS2_PLACEMENT_3D('',#262,#206,#207);
#172=AXIS2_PLACEMENT_3D('',#264,#208,#209);
#173=AXIS2_PLACEMENT_3D('',#265,#210,#211);
#174=AXIS2_PLACEMENT_3D('',#266,#212,#213);
#175=AXIS2_PLACEMENT_3D('',#267,#214,#215);
#176=DIRECTION('',(0.,0.,1.));
#177=DIRECTION('',(1.,0.,0.));
#178=DIRECTION('',(0.,1.,0.));
#179=DIRECTION('',(0.,0.,1.));
#180=DIRECTION('',(0.,1.,0.));
#181=DIRECTION('',(0.,0.,1.));
#182=DIRECTION('',(0.,1.,0.));
#183=DIRECTION('',(0.,0.,1.));
#184=DIRECTION('',(0.,1.,0.));
#185=DIRECTION('',(0.,0.,1.));
#186=DIRECTION('',(0.,1.,0.));
#187=DIRECTION('',(0.,0.,1.));
#188=DIRECTION('',(0.,1.,0.));
#189=DIRECTION('',(0.,0.,1.));
#190=DIRECTION('',(0.,1.,0.));
#191=DIRECTION('',(-1.,0.,0.));
#192=DIRECTION('',(0.,1.,0.));
#193=DIRECTION('',(-1.,0.,0.));
#194=DIRECTION('',(0.,0.,1.));
#195=DIRECTION('',(1.,0.,0.));
#196=DIRECTION('',(0.,1.,0.));
#197=DIRECTION('',(0.,0.,1.));
#198=DIRECTION('',(0.,-1.,0.));
#199=DIRECTION('',(0.,0.,-1.));
#200=DIRECTION('',(0.,-1.,0.));
#201=DIRECTION('',(0.,0.,-1.));
#202=DIRECTION('',(0.,1.,0.));
#203=DIRECTION('',(0.,0.,1.));
#204=DIRECTION('',(0.,-1.,0.));
#205=DIRECTION('',(0.,0.,-1.));
#206=DIRECTION('',(0.,-1.,0.));
#207=DIRECTION('',(0.,0.,-1.));
#208=DIRECTION('',(0.,-1.,0.));
#209=DIRECTION('',(1.,0.,0.));
#210=DIRECTION('',(0.,-1.,0.));
#211=DIRECTION('',(1.,0.,0.));
#212=DIRECTION('',(0.,-1.,0.));
#213=DIRECTION('',(1.,0.,0.));
#214=DIRECTION('',(-1.,0.,0.));
#215=DIRECTION('',(0.,0.,1.));
#216=CARTESIAN_POINT('',(0.,0.,0.));
#217=CARTESIAN_POINT('',(0.,-0.006,7.59281015471359E-19));
#218=CARTESIAN_POINT('',(0.,-0.006,7.59281015471359E-19));
#219=CARTESIAN_POINT('',(0.,-0.006,0.0064));
#220=CARTESIAN_POINT('',(0.,0.,7.59281015471359E-19));
#221=CARTESIAN_POINT('',(0.,0.,0.0064));
#222=CARTESIAN_POINT('',(0.,-0.006,8.57252759403147E-19));
#223=CARTESIAN_POINT('',(0.,-0.006,8.57252759403147E-19));
#224=CARTESIAN_POINT('',(0.,-0.006,0.008));
#225=CARTESIAN_POINT('',(0.,0.,8.57252759403147E-19));
#226=CARTESIAN_POINT('',(0.,0.,0.008));
#227=CARTESIAN_POINT('',(0.,-0.006,0.));
#228=CARTESIAN_POINT('',(0.,0.,0.));
#229=CARTESIAN_POINT('',(0.,0.,0.));
#230=CARTESIAN_POINT('',(0.,-0.014,3.67394039744206E-19));
#231=CARTESIAN_POINT('',(0.00595843646695704,0.00371555045362489,0.000782953980075903));
#232=CARTESIAN_POINT('',(0.00589492021577318,0.00450018558941015,0.00110846597999281));
#233=CARTESIAN_POINT('',(0.00595836136854797,0.0052837071887345,0.000783182099952839));
#234=CARTESIAN_POINT('',(0.00602081722846269,0.00560810706980036,9.65525809279379E-7));
#235=CARTESIAN_POINT('',(0.00595836955290723,0.00528386354389974,-0.000783600662765657));
#236=CARTESIAN_POINT('',(0.0058949746181387,0.00450029427715117,-0.00110798837847977));
#237=CARTESIAN_POINT('',(0.00595821075101851,0.00371731075864308,-0.00078444536255405));
#238=CARTESIAN_POINT('',(0.00602083811508105,0.00339178517948342,-8.30338078807724E-7));
#239=CARTESIAN_POINT('',(0.00595843646695704,0.00371555045362489,0.000782953980075903));
#240=CARTESIAN_POINT('',(0.00589492021577318,0.00450018558941015,0.00110846597999281));
#241=CARTESIAN_POINT('',(0.00595836136854797,0.0052837071887345,0.000783182099952839));
#242=CARTESIAN_POINT('',(0.00591607978309962,0.0045,0.001));
#243=CARTESIAN_POINT('',(-0.00595843646695704,0.00528444954637511,0.000782953980075904));
#244=CARTESIAN_POINT('',(-0.00589492021577318,0.00449981441058984,0.00110846597999281));
#245=CARTESIAN_POINT('',(-0.00595836136854797,0.0037162928112655,0.00078318209995284));
#246=CARTESIAN_POINT('',(-0.00602081722846269,0.00339189293019963,9.65525809280178E-7));
#247=CARTESIAN_POINT('',(-0.00595836955290723,0.00371613645610026,-0.000783600662765658));
#248=CARTESIAN_POINT('',(-0.0058949746181387,0.00449970572284882,-0.00110798837847977));
#249=CARTESIAN_POINT('',(-0.00595821075101851,0.00528268924135692,-0.000784445362554051));
#250=CARTESIAN_POINT('',(-0.00602083811508106,0.00560821482051658,-8.30338078807588E-7));
#251=CARTESIAN_POINT('',(-0.00595843646695704,0.00528444954637511,0.000782953980075904));
#252=CARTESIAN_POINT('',(-0.00589492021577318,0.00449981441058984,0.00110846597999281));
#253=CARTESIAN_POINT('',(-0.00595836136854797,0.0037162928112655,0.00078318209995284));
#254=CARTESIAN_POINT('',(-0.00591607978309962,0.0045,0.001));
#255=CARTESIAN_POINT('',(0.,-0.029,3.67394039744206E-19));
#256=CARTESIAN_POINT('',(0.,-0.029,-0.006));
#257=CARTESIAN_POINT('',(0.,0.009,3.67394039744206E-19));
#258=CARTESIAN_POINT('',(0.,0.009,-0.006));
#259=CARTESIAN_POINT('',(0.,-0.032,6.12323399573677E-19));
#260=CARTESIAN_POINT('',(0.,-0.032,6.12323399573677E-19));
#261=CARTESIAN_POINT('',(0.,-0.032,-0.01));
#262=CARTESIAN_POINT('',(0.,-0.029,6.12323399573677E-19));
#263=CARTESIAN_POINT('',(0.,-0.029,-0.01));
#264=CARTESIAN_POINT('',(0.,-0.032,0.));
#265=CARTESIAN_POINT('',(0.,-0.029,0.));
#266=CARTESIAN_POINT('',(0.,0.009,0.));
#267=CARTESIAN_POINT('',(0.021,0.0045,6.12323399573677E-20));
#268=MECHANICAL_DESIGN_GEOMETRIC_PRESENTATION_REPRESENTATION('',(#135),
#270);
#269=MECHANICAL_DESIGN_GEOMETRIC_PRESENTATION_REPRESENTATION('',(#136),
#271);
#270=(
GEOMETRIC_REPRESENTATION_CONTEXT(3)
GLOBAL_UNCERTAINTY_ASSIGNED_CONTEXT((#272))
GLOBAL_UNIT_ASSIGNED_CONTEXT((#278,#276,#274))
REPRESENTATION_CONTEXT('TPU Spacer','TOP_LEVEL_ASSEMBLY_PART')
);
#271=(
GEOMETRIC_REPRESENTATION_CONTEXT(3)
GLOBAL_UNCERTAINTY_ASSIGNED_CONTEXT((#273))
GLOBAL_UNIT_ASSIGNED_CONTEXT((#279,#277,#275))
REPRESENTATION_CONTEXT('Front Wheel Pin','TOP_LEVEL_ASSEMBLY_PART')
);
#272=UNCERTAINTY_MEASURE_WITH_UNIT(LENGTH_MEASURE(1.E-8),#278,
'DISTANCE_ACCURACY_VALUE','Maximum Tolerance applied to model');
#273=UNCERTAINTY_MEASURE_WITH_UNIT(LENGTH_MEASURE(2.E-5),#279,
'DISTANCE_ACCURACY_VALUE','Maximum Tolerance applied to model');
#274=(
NAMED_UNIT(*)
SI_UNIT($,.STERADIAN.)
SOLID_ANGLE_UNIT()
);
#275=(
NAMED_UNIT(*)
SI_UNIT($,.STERADIAN.)
SOLID_ANGLE_UNIT()
);
#276=(
NAMED_UNIT(*)
PLANE_ANGLE_UNIT()
SI_UNIT($,.RADIAN.)
);
#277=(
NAMED_UNIT(*)
PLANE_ANGLE_UNIT()
SI_UNIT($,.RADIAN.)
);
#278=(
LENGTH_UNIT()
NAMED_UNIT(*)
SI_UNIT($,.METRE.)
);
#279=(
LENGTH_UNIT()
NAMED_UNIT(*)
SI_UNIT($,.METRE.)
);
#280=PRODUCT_DEFINITION_SHAPE('','',#282);
#281=PRODUCT_DEFINITION_SHAPE('','',#283);
#282=PRODUCT_DEFINITION('','',#286,#284);
#283=PRODUCT_DEFINITION('','',#287,#285);
#284=PRODUCT_DEFINITION_CONTEXT('',#298,'design');
#285=PRODUCT_DEFINITION_CONTEXT('',#299,'design');
#286=PRODUCT_DEFINITION_FORMATION_WITH_SPECIFIED_SOURCE('','',#290,
 .NOT_KNOWN.);
#287=PRODUCT_DEFINITION_FORMATION_WITH_SPECIFIED_SOURCE('','',#291,
 .NOT_KNOWN.);
#288=PRODUCT_RELATED_PRODUCT_CATEGORY('','',(#290));
#289=PRODUCT_RELATED_PRODUCT_CATEGORY('','',(#291));
#290=PRODUCT('TPU Spacer','TPU Spacer','TPU Spacer',(#294));
#291=PRODUCT('Front Wheel Pin','Front Wheel Pin','Front Wheel Pin',(#295));
#292=PRODUCT_CATEGORY('','');
#293=PRODUCT_CATEGORY('','');
#294=PRODUCT_CONTEXT('',#298,'mechanical');
#295=PRODUCT_CONTEXT('',#299,'mechanical');
#296=APPLICATION_PROTOCOL_DEFINITION('international standard',
'automotive_design',2010,#298);
#297=APPLICATION_PROTOCOL_DEFINITION('international standard',
'automotive_design',2010,#299);
#298=APPLICATION_CONTEXT(
'core data for automotive mechanical design processes');
#299=APPLICATION_CONTEXT(
'core data for automotive mechanical design processes');
ENDSEC;
END-ISO-10303-21;
