ISO-10303-21;
HEADER;
/* Generated by software containing ST-Developer
 * from STEP Tools, Inc. (www.steptools.com) 
 */
/* OPTION: using custom renumber hook */

FILE_DESCRIPTION(
/* description */ ('STEP AP214',
'CAx-IF Rec.Pracs.---User Defined Attributes---1.5---2016-08-15'),
/* implementation_level */ '2;1');

FILE_NAME(
/* name */ '6a7bfb3be5d6ddc0b13a3b26',
/* time_stamp */ '2026-08-12T04:49:00Z',
/* author */ (''),
/* organization */ (''),
/* preprocessor_version */ 'ST-DEVELOPER v20',
/* originating_system */ 'ONSHAPE BY PTC INC, 1.219',
/* authorisation */ '  ');

FILE_SCHEMA (('AUTOMOTIVE_DESIGN {1 0 10303 214 3 1 1}'));
ENDSEC;

DATA;
#10=PROPERTY_DEFINITION_REPRESENTATION(#14,#12);
#11=PROPERTY_DEFINITION_REPRESENTATION(#15,#13);
#12=REPRESENTATION('',(#16),#693);
#13=REPRESENTATION('',(#17),#693);
#14=PROPERTY_DEFINITION('pmi validation property','',#703);
#15=PROPERTY_DEFINITION('pmi validation property','',#703);
#16=VALUE_REPRESENTATION_ITEM('number of annotations',COUNT_MEASURE(0.));
#17=VALUE_REPRESENTATION_ITEM('number of views',COUNT_MEASURE(0.));
#18=SHAPE_REPRESENTATION_RELATIONSHIP('','',#436,#20);
#19=SHAPE_REPRESENTATION_RELATIONSHIP('','',#437,#21);
#20=ADVANCED_BREP_SHAPE_REPRESENTATION('',(#432),#692);
#21=ADVANCED_BREP_SHAPE_REPRESENTATION('',(#433),#693);
#22=CYLINDRICAL_SURFACE('',#444,0.0015);
#23=CYLINDRICAL_SURFACE('',#452,0.006);
#24=CYLINDRICAL_SURFACE('',#461,0.005);
#25=CYLINDRICAL_SURFACE('',#465,0.003);
#26=CIRCLE('',#440,0.0015);
#27=CIRCLE('',#442,0.0015);
#28=CIRCLE('',#453,0.006);
#29=CIRCLE('',#454,0.006);
#30=CIRCLE('',#462,0.005);
#31=CIRCLE('',#463,0.005);
#32=CIRCLE('',#466,0.003);
#33=CIRCLE('',#467,0.003);
#34=ORIENTED_EDGE('',*,*,#138,.T.);
#35=ORIENTED_EDGE('',*,*,#139,.T.);
#36=ORIENTED_EDGE('',*,*,#140,.T.);
#37=ORIENTED_EDGE('',*,*,#141,.T.);
#38=ORIENTED_EDGE('',*,*,#142,.T.);
#39=ORIENTED_EDGE('',*,*,#143,.T.);
#40=ORIENTED_EDGE('',*,*,#144,.F.);
#41=ORIENTED_EDGE('',*,*,#145,.F.);
#42=ORIENTED_EDGE('',*,*,#146,.T.);
#43=ORIENTED_EDGE('',*,*,#147,.T.);
#44=ORIENTED_EDGE('',*,*,#148,.T.);
#45=ORIENTED_EDGE('',*,*,#149,.T.);
#46=ORIENTED_EDGE('',*,*,#150,.T.);
#47=ORIENTED_EDGE('',*,*,#151,.T.);
#48=ORIENTED_EDGE('',*,*,#139,.F.);
#49=ORIENTED_EDGE('',*,*,#152,.T.);
#50=ORIENTED_EDGE('',*,*,#151,.F.);
#51=ORIENTED_EDGE('',*,*,#153,.F.);
#52=ORIENTED_EDGE('',*,*,#144,.T.);
#53=ORIENTED_EDGE('',*,*,#145,.T.);
#54=ORIENTED_EDGE('',*,*,#140,.F.);
#55=ORIENTED_EDGE('',*,*,#153,.T.);
#56=ORIENTED_EDGE('',*,*,#150,.F.);
#57=ORIENTED_EDGE('',*,*,#154,.F.);
#58=ORIENTED_EDGE('',*,*,#141,.F.);
#59=ORIENTED_EDGE('',*,*,#154,.T.);
#60=ORIENTED_EDGE('',*,*,#149,.F.);
#61=ORIENTED_EDGE('',*,*,#155,.F.);
#62=ORIENTED_EDGE('',*,*,#142,.F.);
#63=ORIENTED_EDGE('',*,*,#155,.T.);
#64=ORIENTED_EDGE('',*,*,#148,.F.);
#65=ORIENTED_EDGE('',*,*,#156,.F.);
#66=ORIENTED_EDGE('',*,*,#143,.F.);
#67=ORIENTED_EDGE('',*,*,#156,.T.);
#68=ORIENTED_EDGE('',*,*,#147,.F.);
#69=ORIENTED_EDGE('',*,*,#157,.F.);
#70=ORIENTED_EDGE('',*,*,#138,.F.);
#71=ORIENTED_EDGE('',*,*,#157,.T.);
#72=ORIENTED_EDGE('',*,*,#146,.F.);
#73=ORIENTED_EDGE('',*,*,#152,.F.);
#74=ORIENTED_EDGE('',*,*,#158,.F.);
#75=ORIENTED_EDGE('',*,*,#159,.F.);
#76=ORIENTED_EDGE('',*,*,#160,.T.);
#77=ORIENTED_EDGE('',*,*,#161,.T.);
#78=ORIENTED_EDGE('',*,*,#162,.T.);
#79=ORIENTED_EDGE('',*,*,#163,.F.);
#80=ORIENTED_EDGE('',*,*,#164,.F.);
#81=ORIENTED_EDGE('',*,*,#159,.T.);
#82=ORIENTED_EDGE('',*,*,#165,.F.);
#83=ORIENTED_EDGE('',*,*,#166,.F.);
#84=ORIENTED_EDGE('',*,*,#167,.T.);
#85=ORIENTED_EDGE('',*,*,#163,.T.);
#86=ORIENTED_EDGE('',*,*,#168,.F.);
#87=ORIENTED_EDGE('',*,*,#169,.F.);
#88=ORIENTED_EDGE('',*,*,#170,.T.);
#89=ORIENTED_EDGE('',*,*,#171,.T.);
#90=ORIENTED_EDGE('',*,*,#172,.F.);
#91=ORIENTED_EDGE('',*,*,#173,.F.);
#92=ORIENTED_EDGE('',*,*,#174,.T.);
#93=ORIENTED_EDGE('',*,*,#169,.T.);
#94=ORIENTED_EDGE('',*,*,#175,.F.);
#95=ORIENTED_EDGE('',*,*,#176,.F.);
#96=ORIENTED_EDGE('',*,*,#177,.T.);
#97=ORIENTED_EDGE('',*,*,#173,.T.);
#98=ORIENTED_EDGE('',*,*,#178,.F.);
#99=ORIENTED_EDGE('',*,*,#179,.F.);
#100=ORIENTED_EDGE('',*,*,#180,.T.);
#101=ORIENTED_EDGE('',*,*,#176,.T.);
#102=ORIENTED_EDGE('',*,*,#181,.F.);
#103=ORIENTED_EDGE('',*,*,#182,.F.);
#104=ORIENTED_EDGE('',*,*,#183,.T.);
#105=ORIENTED_EDGE('',*,*,#179,.T.);
#106=ORIENTED_EDGE('',*,*,#184,.T.);
#107=ORIENTED_EDGE('',*,*,#161,.F.);
#108=ORIENTED_EDGE('',*,*,#185,.F.);
#109=ORIENTED_EDGE('',*,*,#166,.T.);
#110=ORIENTED_EDGE('',*,*,#186,.F.);
#111=ORIENTED_EDGE('',*,*,#171,.F.);
#112=ORIENTED_EDGE('',*,*,#187,.T.);
#113=ORIENTED_EDGE('',*,*,#182,.T.);
#114=ORIENTED_EDGE('',*,*,#188,.T.);
#115=ORIENTED_EDGE('',*,*,#189,.F.);
#116=ORIENTED_EDGE('',*,*,#170,.F.);
#117=ORIENTED_EDGE('',*,*,#174,.F.);
#118=ORIENTED_EDGE('',*,*,#177,.F.);
#119=ORIENTED_EDGE('',*,*,#180,.F.);
#120=ORIENTED_EDGE('',*,*,#183,.F.);
#121=ORIENTED_EDGE('',*,*,#187,.F.);
#122=ORIENTED_EDGE('',*,*,#160,.F.);
#123=ORIENTED_EDGE('',*,*,#164,.T.);
#124=ORIENTED_EDGE('',*,*,#167,.F.);
#125=ORIENTED_EDGE('',*,*,#185,.T.);
#126=ORIENTED_EDGE('',*,*,#188,.F.);
#127=ORIENTED_EDGE('',*,*,#168,.T.);
#128=ORIENTED_EDGE('',*,*,#186,.T.);
#129=ORIENTED_EDGE('',*,*,#181,.T.);
#130=ORIENTED_EDGE('',*,*,#178,.T.);
#131=ORIENTED_EDGE('',*,*,#175,.T.);
#132=ORIENTED_EDGE('',*,*,#172,.T.);
#133=ORIENTED_EDGE('',*,*,#158,.T.);
#134=ORIENTED_EDGE('',*,*,#184,.F.);
#135=ORIENTED_EDGE('',*,*,#165,.T.);
#136=ORIENTED_EDGE('',*,*,#162,.F.);
#137=ORIENTED_EDGE('',*,*,#189,.T.);
#138=EDGE_CURVE('',#190,#191,#226,.T.);
#139=EDGE_CURVE('',#191,#192,#227,.T.);
#140=EDGE_CURVE('',#192,#193,#228,.T.);
#141=EDGE_CURVE('',#193,#194,#229,.T.);
#142=EDGE_CURVE('',#194,#195,#230,.T.);
#143=EDGE_CURVE('',#195,#190,#231,.T.);
#144=EDGE_CURVE('',#196,#196,#26,.F.);
#145=EDGE_CURVE('',#197,#197,#27,.T.);
#146=EDGE_CURVE('',#198,#199,#232,.T.);
#147=EDGE_CURVE('',#199,#200,#233,.T.);
#148=EDGE_CURVE('',#200,#201,#234,.T.);
#149=EDGE_CURVE('',#201,#202,#235,.T.);
#150=EDGE_CURVE('',#202,#203,#236,.T.);
#151=EDGE_CURVE('',#203,#198,#237,.T.);
#152=EDGE_CURVE('',#191,#198,#238,.T.);
#153=EDGE_CURVE('',#192,#203,#239,.T.);
#154=EDGE_CURVE('',#193,#202,#240,.T.);
#155=EDGE_CURVE('',#194,#201,#241,.T.);
#156=EDGE_CURVE('',#195,#200,#242,.T.);
#157=EDGE_CURVE('',#190,#199,#243,.T.);
#158=EDGE_CURVE('',#204,#205,#244,.T.);
#159=EDGE_CURVE('',#206,#204,#245,.T.);
#160=EDGE_CURVE('',#206,#207,#246,.T.);
#161=EDGE_CURVE('',#207,#205,#247,.T.);
#162=EDGE_CURVE('',#204,#208,#28,.T.);
#163=EDGE_CURVE('',#209,#208,#248,.T.);
#164=EDGE_CURVE('',#206,#209,#29,.T.);
#165=EDGE_CURVE('',#210,#208,#249,.T.);
#166=EDGE_CURVE('',#211,#210,#250,.T.);
#167=EDGE_CURVE('',#211,#209,#251,.T.);
#168=EDGE_CURVE('',#212,#213,#252,.T.);
#169=EDGE_CURVE('',#214,#212,#253,.T.);
#170=EDGE_CURVE('',#214,#215,#254,.T.);
#171=EDGE_CURVE('',#215,#213,#255,.T.);
#172=EDGE_CURVE('',#216,#212,#256,.T.);
#173=EDGE_CURVE('',#217,#216,#257,.T.);
#174=EDGE_CURVE('',#217,#214,#258,.T.);
#175=EDGE_CURVE('',#218,#216,#259,.T.);
#176=EDGE_CURVE('',#219,#218,#260,.T.);
#177=EDGE_CURVE('',#219,#217,#261,.T.);
#178=EDGE_CURVE('',#220,#218,#262,.T.);
#179=EDGE_CURVE('',#221,#220,#263,.T.);
#180=EDGE_CURVE('',#221,#219,#264,.T.);
#181=EDGE_CURVE('',#222,#220,#265,.T.);
#182=EDGE_CURVE('',#223,#222,#266,.T.);
#183=EDGE_CURVE('',#223,#221,#267,.T.);
#184=EDGE_CURVE('',#210,#205,#30,.T.);
#185=EDGE_CURVE('',#211,#207,#31,.T.);
#186=EDGE_CURVE('',#213,#222,#268,.T.);
#187=EDGE_CURVE('',#215,#223,#269,.T.);
#188=EDGE_CURVE('',#224,#224,#32,.T.);
#189=EDGE_CURVE('',#225,#225,#33,.T.);
#190=VERTEX_POINT('',#581);
#191=VERTEX_POINT('',#582);
#192=VERTEX_POINT('',#584);
#193=VERTEX_POINT('',#586);
#194=VERTEX_POINT('',#588);
#195=VERTEX_POINT('',#590);
#196=VERTEX_POINT('',#593);
#197=VERTEX_POINT('',#596);
#198=VERTEX_POINT('',#598);
#199=VERTEX_POINT('',#599);
#200=VERTEX_POINT('',#601);
#201=VERTEX_POINT('',#603);
#202=VERTEX_POINT('',#605);
#203=VERTEX_POINT('',#607);
#204=VERTEX_POINT('',#625);
#205=VERTEX_POINT('',#626);
#206=VERTEX_POINT('',#628);
#207=VERTEX_POINT('',#630);
#208=VERTEX_POINT('',#634);
#209=VERTEX_POINT('',#636);
#210=VERTEX_POINT('',#640);
#211=VERTEX_POINT('',#642);
#212=VERTEX_POINT('',#646);
#213=VERTEX_POINT('',#647);
#214=VERTEX_POINT('',#649);
#215=VERTEX_POINT('',#651);
#216=VERTEX_POINT('',#655);
#217=VERTEX_POINT('',#657);
#218=VERTEX_POINT('',#661);
#219=VERTEX_POINT('',#663);
#220=VERTEX_POINT('',#667);
#221=VERTEX_POINT('',#669);
#222=VERTEX_POINT('',#673);
#223=VERTEX_POINT('',#675);
#224=VERTEX_POINT('',#685);
#225=VERTEX_POINT('',#687);
#226=LINE('',#580,#270);
#227=LINE('',#583,#271);
#228=LINE('',#585,#272);
#229=LINE('',#587,#273);
#230=LINE('',#589,#274);
#231=LINE('',#591,#275);
#232=LINE('',#597,#276);
#233=LINE('',#600,#277);
#234=LINE('',#602,#278);
#235=LINE('',#604,#279);
#236=LINE('',#606,#280);
#237=LINE('',#608,#281);
#238=LINE('',#610,#282);
#239=LINE('',#611,#283);
#240=LINE('',#614,#284);
#241=LINE('',#616,#285);
#242=LINE('',#618,#286);
#243=LINE('',#620,#287);
#244=LINE('',#624,#288);
#245=LINE('',#627,#289);
#246=LINE('',#629,#290);
#247=LINE('',#631,#291);
#248=LINE('',#635,#292);
#249=LINE('',#639,#293);
#250=LINE('',#641,#294);
#251=LINE('',#643,#295);
#252=LINE('',#645,#296);
#253=LINE('',#648,#297);
#254=LINE('',#650,#298);
#255=LINE('',#652,#299);
#256=LINE('',#654,#300);
#257=LINE('',#656,#301);
#258=LINE('',#658,#302);
#259=LINE('',#660,#303);
#260=LINE('',#662,#304);
#261=LINE('',#664,#305);
#262=LINE('',#666,#306);
#263=LINE('',#668,#307);
#264=LINE('',#670,#308);
#265=LINE('',#672,#309);
#266=LINE('',#674,#310);
#267=LINE('',#676,#311);
#268=LINE('',#681,#312);
#269=LINE('',#682,#313);
#270=VECTOR('',#474,1.);
#271=VECTOR('',#475,1.);
#272=VECTOR('',#476,1.);
#273=VECTOR('',#477,1.);
#274=VECTOR('',#478,1.);
#275=VECTOR('',#479,1.);
#276=VECTOR('',#486,1.);
#277=VECTOR('',#487,1.);
#278=VECTOR('',#488,1.);
#279=VECTOR('',#489,1.);
#280=VECTOR('',#490,1.);
#281=VECTOR('',#491,1.);
#282=VECTOR('',#494,1.);
#283=VECTOR('',#495,1.);
#284=VECTOR('',#500,1.);
#285=VECTOR('',#503,1.);
#286=VECTOR('',#506,1.);
#287=VECTOR('',#509,1.);
#288=VECTOR('',#516,1.);
#289=VECTOR('',#517,1.);
#290=VECTOR('',#518,1.);
#291=VECTOR('',#519,1.);
#292=VECTOR('',#524,1.);
#293=VECTOR('',#529,1.);
#294=VECTOR('',#530,1.);
#295=VECTOR('',#531,1.);
#296=VECTOR('',#534,1.);
#297=VECTOR('',#535,1.);
#298=VECTOR('',#536,1.);
#299=VECTOR('',#537,1.);
#300=VECTOR('',#540,1.);
#301=VECTOR('',#541,1.);
#302=VECTOR('',#542,1.);
#303=VECTOR('',#545,1.);
#304=VECTOR('',#546,1.);
#305=VECTOR('',#547,1.);
#306=VECTOR('',#550,1.);
#307=VECTOR('',#551,1.);
#308=VECTOR('',#552,1.);
#309=VECTOR('',#555,1.);
#310=VECTOR('',#556,1.);
#311=VECTOR('',#557,1.);
#312=VECTOR('',#566,1.);
#313=VECTOR('',#567,1.);
#314=EDGE_LOOP('',(#34,#35,#36,#37,#38,#39));
#315=EDGE_LOOP('',(#40));
#316=EDGE_LOOP('',(#41));
#317=EDGE_LOOP('',(#42,#43,#44,#45,#46,#47));
#318=EDGE_LOOP('',(#48,#49,#50,#51));
#319=EDGE_LOOP('',(#52));
#320=EDGE_LOOP('',(#53));
#321=EDGE_LOOP('',(#54,#55,#56,#57));
#322=EDGE_LOOP('',(#58,#59,#60,#61));
#323=EDGE_LOOP('',(#62,#63,#64,#65));
#324=EDGE_LOOP('',(#66,#67,#68,#69));
#325=EDGE_LOOP('',(#70,#71,#72,#73));
#326=EDGE_LOOP('',(#74,#75,#76,#77));
#327=EDGE_LOOP('',(#78,#79,#80,#81));
#328=EDGE_LOOP('',(#82,#83,#84,#85));
#329=EDGE_LOOP('',(#86,#87,#88,#89));
#330=EDGE_LOOP('',(#90,#91,#92,#93));
#331=EDGE_LOOP('',(#94,#95,#96,#97));
#332=EDGE_LOOP('',(#98,#99,#100,#101));
#333=EDGE_LOOP('',(#102,#103,#104,#105));
#334=EDGE_LOOP('',(#106,#107,#108,#109));
#335=EDGE_LOOP('',(#110,#111,#112,#113));
#336=EDGE_LOOP('',(#114));
#337=EDGE_LOOP('',(#115));
#338=EDGE_LOOP('',(#116,#117,#118,#119,#120,#121));
#339=EDGE_LOOP('',(#122,#123,#124,#125));
#340=EDGE_LOOP('',(#126));
#341=EDGE_LOOP('',(#127,#128,#129,#130,#131,#132));
#342=EDGE_LOOP('',(#133,#134,#135,#136));
#343=EDGE_LOOP('',(#137));
#344=FACE_BOUND('',#314,.T.);
#345=FACE_BOUND('',#315,.T.);
#346=FACE_BOUND('',#316,.T.);
#347=FACE_BOUND('',#317,.T.);
#348=FACE_BOUND('',#318,.T.);
#349=FACE_BOUND('',#319,.T.);
#350=FACE_BOUND('',#320,.T.);
#351=FACE_BOUND('',#321,.T.);
#352=FACE_BOUND('',#322,.T.);
#353=FACE_BOUND('',#323,.T.);
#354=FACE_BOUND('',#324,.T.);
#355=FACE_BOUND('',#325,.T.);
#356=FACE_BOUND('',#326,.T.);
#357=FACE_BOUND('',#327,.T.);
#358=FACE_BOUND('',#328,.T.);
#359=FACE_BOUND('',#329,.T.);
#360=FACE_BOUND('',#330,.T.);
#361=FACE_BOUND('',#331,.T.);
#362=FACE_BOUND('',#332,.T.);
#363=FACE_BOUND('',#333,.T.);
#364=FACE_BOUND('',#334,.T.);
#365=FACE_BOUND('',#335,.T.);
#366=FACE_BOUND('',#336,.T.);
#367=FACE_BOUND('',#337,.T.);
#368=FACE_BOUND('',#338,.T.);
#369=FACE_BOUND('',#339,.T.);
#370=FACE_BOUND('',#340,.T.);
#371=FACE_BOUND('',#341,.T.);
#372=FACE_BOUND('',#342,.T.);
#373=FACE_BOUND('',#343,.T.);
#374=PLANE('',#439);
#375=PLANE('',#441);
#376=PLANE('',#443);
#377=PLANE('',#445);
#378=PLANE('',#446);
#379=PLANE('',#447);
#380=PLANE('',#448);
#381=PLANE('',#449);
#382=PLANE('',#451);
#383=PLANE('',#455);
#384=PLANE('',#456);
#385=PLANE('',#457);
#386=PLANE('',#458);
#387=PLANE('',#459);
#388=PLANE('',#460);
#389=PLANE('',#464);
#390=PLANE('',#468);
#391=PLANE('',#469);
#392=ADVANCED_FACE('',(#344,#345),#374,.F.);
#393=ADVANCED_FACE('',(#346,#347),#375,.T.);
#394=ADVANCED_FACE('',(#348),#376,.T.);
#395=ADVANCED_FACE('',(#349,#350),#22,.F.);
#396=ADVANCED_FACE('',(#351),#377,.T.);
#397=ADVANCED_FACE('',(#352),#378,.T.);
#398=ADVANCED_FACE('',(#353),#379,.T.);
#399=ADVANCED_FACE('',(#354),#380,.T.);
#400=ADVANCED_FACE('',(#355),#381,.T.);
#401=ADVANCED_FACE('',(#356),#382,.T.);
#402=ADVANCED_FACE('',(#357),#23,.T.);
#403=ADVANCED_FACE('',(#358),#383,.T.);
#404=ADVANCED_FACE('',(#359),#384,.T.);
#405=ADVANCED_FACE('',(#360),#385,.T.);
#406=ADVANCED_FACE('',(#361),#386,.T.);
#407=ADVANCED_FACE('',(#362),#387,.T.);
#408=ADVANCED_FACE('',(#363),#388,.T.);
#409=ADVANCED_FACE('',(#364),#24,.T.);
#410=ADVANCED_FACE('',(#365),#389,.T.);
#411=ADVANCED_FACE('',(#366,#367),#25,.F.);
#412=ADVANCED_FACE('',(#368,#369,#370),#390,.T.);
#413=ADVANCED_FACE('',(#371,#372,#373),#391,.F.);
#414=CLOSED_SHELL('',(#392,#393,#394,#395,#396,#397,#398,#399,#400));
#415=CLOSED_SHELL('',(#401,#402,#403,#404,#405,#406,#407,#408,#409,#410,
#411,#412,#413));
#416=STYLED_ITEM('',(#418),#432);
#417=STYLED_ITEM('',(#419),#433);
#418=PRESENTATION_STYLE_ASSIGNMENT((#420));
#419=PRESENTATION_STYLE_ASSIGNMENT((#421));
#420=SURFACE_STYLE_USAGE(.BOTH.,#422);
#421=SURFACE_STYLE_USAGE(.BOTH.,#423);
#422=SURFACE_SIDE_STYLE('',(#424));
#423=SURFACE_SIDE_STYLE('',(#425));
#424=SURFACE_STYLE_FILL_AREA(#426);
#425=SURFACE_STYLE_FILL_AREA(#427);
#426=FILL_AREA_STYLE('',(#428));
#427=FILL_AREA_STYLE('',(#429));
#428=FILL_AREA_STYLE_COLOUR('',#430);
#429=FILL_AREA_STYLE_COLOUR('',#431);
#430=COLOUR_RGB('',0.647058823529412,0.647058823529412,0.647058823529412);
#431=COLOUR_RGB('',0.615686274509804,0.811764705882353,0.929411764705882);
#432=MANIFOLD_SOLID_BREP('M3x6 Spacer',#414);
#433=MANIFOLD_SOLID_BREP('Horn',#415);
#434=SHAPE_DEFINITION_REPRESENTATION(#702,#436);
#435=SHAPE_DEFINITION_REPRESENTATION(#703,#437);
#436=SHAPE_REPRESENTATION('M3x6 Spacer',(#438),#692);
#437=SHAPE_REPRESENTATION('Horn',(#450),#693);
#438=AXIS2_PLACEMENT_3D('',#578,#470,#471);
#439=AXIS2_PLACEMENT_3D('',#579,#472,#473);
#440=AXIS2_PLACEMENT_3D('',#592,#480,#481);
#441=AXIS2_PLACEMENT_3D('',#594,#482,#483);
#442=AXIS2_PLACEMENT_3D('',#595,#484,#485);
#443=AXIS2_PLACEMENT_3D('',#609,#492,#493);
#444=AXIS2_PLACEMENT_3D('',#612,#496,#497);
#445=AXIS2_PLACEMENT_3D('',#613,#498,#499);
#446=AXIS2_PLACEMENT_3D('',#615,#501,#502);
#447=AXIS2_PLACEMENT_3D('',#617,#504,#505);
#448=AXIS2_PLACEMENT_3D('',#619,#507,#508);
#449=AXIS2_PLACEMENT_3D('',#621,#510,#511);
#450=AXIS2_PLACEMENT_3D('',#622,#512,#513);
#451=AXIS2_PLACEMENT_3D('',#623,#514,#515);
#452=AXIS2_PLACEMENT_3D('',#632,#520,#521);
#453=AXIS2_PLACEMENT_3D('',#633,#522,#523);
#454=AXIS2_PLACEMENT_3D('',#637,#525,#526);
#455=AXIS2_PLACEMENT_3D('',#638,#527,#528);
#456=AXIS2_PLACEMENT_3D('',#644,#532,#533);
#457=AXIS2_PLACEMENT_3D('',#653,#538,#539);
#458=AXIS2_PLACEMENT_3D('',#659,#543,#544);
#459=AXIS2_PLACEMENT_3D('',#665,#548,#549);
#460=AXIS2_PLACEMENT_3D('',#671,#553,#554);
#461=AXIS2_PLACEMENT_3D('',#677,#558,#559);
#462=AXIS2_PLACEMENT_3D('',#678,#560,#561);
#463=AXIS2_PLACEMENT_3D('',#679,#562,#563);
#464=AXIS2_PLACEMENT_3D('',#680,#564,#565);
#465=AXIS2_PLACEMENT_3D('',#683,#568,#569);
#466=AXIS2_PLACEMENT_3D('',#684,#570,#571);
#467=AXIS2_PLACEMENT_3D('',#686,#572,#573);
#468=AXIS2_PLACEMENT_3D('',#688,#574,#575);
#469=AXIS2_PLACEMENT_3D('',#689,#576,#577);
#470=DIRECTION('',(0.,0.,1.));
#471=DIRECTION('',(1.,0.,0.));
#472=DIRECTION('',(0.,0.,1.));
#473=DIRECTION('',(1.,0.,0.));
#474=DIRECTION('',(0.5,0.866025403784438,0.));
#475=DIRECTION('',(1.,-1.17828595979385E-15,0.));
#476=DIRECTION('',(0.5,-0.86602540378444,0.));
#477=DIRECTION('',(-0.5,-0.866025403784438,0.));
#478=DIRECTION('',(-1.,1.17828595979385E-15,0.));
#479=DIRECTION('',(-0.5,0.866025403784439,0.));
#480=DIRECTION('',(0.,0.,1.));
#481=DIRECTION('',(1.,0.,0.));
#482=DIRECTION('',(0.,0.,1.));
#483=DIRECTION('',(1.,0.,0.));
#484=DIRECTION('',(0.,0.,1.));
#485=DIRECTION('',(1.,0.,0.));
#486=DIRECTION('',(-0.5,-0.866025403784438,0.));
#487=DIRECTION('',(0.5,-0.866025403784439,0.));
#488=DIRECTION('',(1.,-1.17828595979385E-15,0.));
#489=DIRECTION('',(0.5,0.866025403784438,0.));
#490=DIRECTION('',(-0.5,0.866025403784439,0.));
#491=DIRECTION('',(-1.,1.17828595979385E-15,0.));
#492=DIRECTION('',(1.17828595979385E-15,1.,0.));
#493=DIRECTION('',(-1.,1.17828595979385E-15,0.));
#494=DIRECTION('',(0.,0.,1.));
#495=DIRECTION('',(0.,0.,1.));
#496=DIRECTION('',(0.,0.,1.));
#497=DIRECTION('',(1.,0.,0.));
#498=DIRECTION('',(0.866025403784439,0.5,0.));
#499=DIRECTION('',(-0.5,0.86602540378444,0.));
#500=DIRECTION('',(0.,0.,1.));
#501=DIRECTION('',(0.866025403784438,-0.5,0.));
#502=DIRECTION('',(0.5,0.866025403784438,0.));
#503=DIRECTION('',(0.,0.,1.));
#504=DIRECTION('',(-1.17828595979385E-15,-1.,0.));
#505=DIRECTION('',(1.,-1.17828595979385E-15,0.));
#506=DIRECTION('',(0.,0.,1.));
#507=DIRECTION('',(-0.866025403784439,-0.5,0.));
#508=DIRECTION('',(0.5,-0.866025403784439,0.));
#509=DIRECTION('',(0.,0.,1.));
#510=DIRECTION('',(-0.866025403784438,0.5,0.));
#511=DIRECTION('',(-0.5,-0.866025403784438,0.));
#512=DIRECTION('',(0.,0.,1.));
#513=DIRECTION('',(1.,0.,0.));
#514=DIRECTION('',(0.0333148302326385,0.999444906979154,0.));
#515=DIRECTION('',(-0.999444906979154,0.0333148302326385,0.));
#516=DIRECTION('',(0.999444906979154,-0.0333148302326385,0.));
#517=DIRECTION('',(0.,0.,-1.));
#518=DIRECTION('',(0.999444906979154,-0.0333148302326385,0.));
#519=DIRECTION('',(0.,0.,-1.));
#520=DIRECTION('',(0.,0.,-1.));
#521=DIRECTION('',(-1.,0.,0.));
#522=DIRECTION('',(0.,0.,1.));
#523=DIRECTION('',(1.,0.,0.));
#524=DIRECTION('',(0.,0.,-1.));
#525=DIRECTION('',(0.,0.,1.));
#526=DIRECTION('',(1.,0.,0.));
#527=DIRECTION('',(0.0333148302326385,-0.999444906979154,0.));
#528=DIRECTION('',(0.999444906979154,0.0333148302326386,0.));
#529=DIRECTION('',(-0.999444906979154,-0.0333148302326385,0.));
#530=DIRECTION('',(0.,0.,-1.));
#531=DIRECTION('',(-0.999444906979154,-0.0333148302326385,0.));
#532=DIRECTION('',(0.866025403784439,0.5,0.));
#533=DIRECTION('',(-0.5,0.866025403784439,0.));
#534=DIRECTION('',(0.5,-0.866025403784439,0.));
#535=DIRECTION('',(0.,0.,-1.));
#536=DIRECTION('',(0.5,-0.866025403784439,0.));
#537=DIRECTION('',(0.,0.,-1.));
#538=DIRECTION('',(0.866025403784438,-0.5,0.));
#539=DIRECTION('',(0.5,0.866025403784438,0.));
#540=DIRECTION('',(-0.5,-0.866025403784438,0.));
#541=DIRECTION('',(0.,0.,-1.));
#542=DIRECTION('',(-0.5,-0.866025403784438,0.));
#543=DIRECTION('',(-1.17828595979385E-15,-1.,0.));
#544=DIRECTION('',(1.,-1.17828595979385E-15,0.));
#545=DIRECTION('',(-1.,1.17828595979385E-15,0.));
#546=DIRECTION('',(0.,0.,-1.));
#547=DIRECTION('',(-1.,1.17828595979385E-15,0.));
#548=DIRECTION('',(-0.86602540378444,-0.5,0.));
#549=DIRECTION('',(0.5,-0.86602540378444,0.));
#550=DIRECTION('',(-0.5,0.866025403784439,0.));
#551=DIRECTION('',(0.,0.,-1.));
#552=DIRECTION('',(-0.5,0.866025403784439,0.));
#553=DIRECTION('',(-0.866025403784438,0.5,0.));
#554=DIRECTION('',(-0.5,-0.866025403784438,0.));
#555=DIRECTION('',(0.5,0.866025403784438,0.));
#556=DIRECTION('',(0.,0.,-1.));
#557=DIRECTION('',(0.5,0.866025403784438,0.));
#558=DIRECTION('',(0.,0.,-1.));
#559=DIRECTION('',(-1.,0.,0.));
#560=DIRECTION('',(0.,0.,1.));
#561=DIRECTION('',(1.,0.,0.));
#562=DIRECTION('',(0.,0.,1.));
#563=DIRECTION('',(1.,0.,0.));
#564=DIRECTION('',(1.17828595979385E-15,1.,0.));
#565=DIRECTION('',(-1.,1.17828595979385E-15,0.));
#566=DIRECTION('',(1.,-1.17828595979385E-15,0.));
#567=DIRECTION('',(1.,-1.17828595979385E-15,0.));
#568=DIRECTION('',(0.,0.,-1.));
#569=DIRECTION('',(-1.,0.,0.));
#570=DIRECTION('',(0.,0.,1.));
#571=DIRECTION('',(1.,0.,0.));
#572=DIRECTION('',(0.,0.,1.));
#573=DIRECTION('',(1.,0.,0.));
#574=DIRECTION('',(0.,0.,1.));
#575=DIRECTION('',(1.,0.,0.));
#576=DIRECTION('',(0.,0.,1.));
#577=DIRECTION('',(1.,0.,0.));
#578=CARTESIAN_POINT('',(0.,0.,0.));
#579=CARTESIAN_POINT('',(0.0145,0.,-0.003));
#580=CARTESIAN_POINT('',(0.0277916352203497,0.001275,-0.003));
#581=CARTESIAN_POINT('',(0.0270555136271329,0.,-0.003));
#582=CARTESIAN_POINT('',(0.0285277568135665,0.00255,-0.003));
#583=CARTESIAN_POINT('',(0.03,0.00255,-0.003));
#584=CARTESIAN_POINT('',(0.0314722431864335,0.00255,-0.003));
#585=CARTESIAN_POINT('',(0.0322083647796503,0.001275,-0.003));
#586=CARTESIAN_POINT('',(0.0329444863728671,5.63785129692462E-18,-0.003));
#587=CARTESIAN_POINT('',(0.0322083647796503,-0.001275,-0.003));
#588=CARTESIAN_POINT('',(0.0314722431864335,-0.00255,-0.003));
#589=CARTESIAN_POINT('',(0.03,-0.00255,-0.003));
#590=CARTESIAN_POINT('',(0.0285277568135665,-0.00255,-0.003));
#591=CARTESIAN_POINT('',(0.0277916352203497,-0.001275,-0.003));
#592=CARTESIAN_POINT('',(0.03,9.18485099360515E-20,-0.003));
#593=CARTESIAN_POINT('',(0.0315,9.18485099360515E-20,-0.003));
#594=CARTESIAN_POINT('',(0.0145,0.,0.003));
#595=CARTESIAN_POINT('',(0.03,9.18485099360515E-20,0.003));
#596=CARTESIAN_POINT('',(0.0315,9.18485099360515E-20,0.003));
#597=CARTESIAN_POINT('',(0.0277916352203497,0.001275,0.003));
#598=CARTESIAN_POINT('',(0.0285277568135665,0.00255,0.003));
#599=CARTESIAN_POINT('',(0.0270555136271329,0.,0.003));
#600=CARTESIAN_POINT('',(0.0277916352203497,-0.001275,0.003));
#601=CARTESIAN_POINT('',(0.0285277568135665,-0.00255,0.003));
#602=CARTESIAN_POINT('',(0.03,-0.00255,0.003));
#603=CARTESIAN_POINT('',(0.0314722431864335,-0.00255,0.003));
#604=CARTESIAN_POINT('',(0.0322083647796503,-0.001275,0.003));
#605=CARTESIAN_POINT('',(0.0329444863728671,5.63785129692462E-18,0.003));
#606=CARTESIAN_POINT('',(0.0322083647796503,0.001275,0.003));
#607=CARTESIAN_POINT('',(0.0314722431864335,0.00255,0.003));
#608=CARTESIAN_POINT('',(0.03,0.00255,0.003));
#609=CARTESIAN_POINT('',(0.03,0.00255,-0.003002));
#610=CARTESIAN_POINT('',(0.0285277568135665,0.00255,-0.003002));
#611=CARTESIAN_POINT('',(0.0314722431864335,0.00255,-0.003002));
#612=CARTESIAN_POINT('',(0.03,9.18485099360515E-20,-0.003002));
#613=CARTESIAN_POINT('',(0.0322083647796503,0.001275,-0.003002));
#614=CARTESIAN_POINT('',(0.0329444863728671,5.63785129692462E-18,-0.003002));
#615=CARTESIAN_POINT('',(0.0322083647796503,-0.001275,-0.003002));
#616=CARTESIAN_POINT('',(0.0314722431864335,-0.00255,-0.003002));
#617=CARTESIAN_POINT('',(0.03,-0.00255,-0.003002));
#618=CARTESIAN_POINT('',(0.0285277568135665,-0.00255,-0.003002));
#619=CARTESIAN_POINT('',(0.0277916352203497,-0.001275,-0.003002));
#620=CARTESIAN_POINT('',(0.0270555136271329,0.,-0.003002));
#621=CARTESIAN_POINT('',(0.0277916352203497,0.001275,-0.003002));
#622=CARTESIAN_POINT('',(0.,0.,0.));
#623=CARTESIAN_POINT('',(0.015,0.0055,0.003));
#624=CARTESIAN_POINT('',(0.015,0.0055,-0.003));
#625=CARTESIAN_POINT('',(1.33061737974652E-18,0.006,-0.003));
#626=CARTESIAN_POINT('',(0.03,0.005,-0.003));
#627=CARTESIAN_POINT('',(1.33061737974652E-18,0.006,0.003));
#628=CARTESIAN_POINT('',(1.33061737974652E-18,0.006,0.003));
#629=CARTESIAN_POINT('',(0.015,0.0055,0.003));
#630=CARTESIAN_POINT('',(0.03,0.005,0.003));
#631=CARTESIAN_POINT('',(0.03,0.005,0.003));
#632=CARTESIAN_POINT('',(2.06540545923493E-18,0.,0.003));
#633=CARTESIAN_POINT('',(2.06540545923493E-18,0.,-0.003));
#634=CARTESIAN_POINT('',(6.93889390390723E-18,-0.006,-0.003));
#635=CARTESIAN_POINT('',(6.93889390390723E-18,-0.006,0.003));
#636=CARTESIAN_POINT('',(6.93889390390723E-18,-0.006,0.003));
#637=CARTESIAN_POINT('',(2.06540545923493E-18,0.,0.003));
#638=CARTESIAN_POINT('',(0.015,-0.0055,0.003));
#639=CARTESIAN_POINT('',(0.015,-0.0055,-0.003));
#640=CARTESIAN_POINT('',(0.03,-0.005,-0.003));
#641=CARTESIAN_POINT('',(0.03,-0.005,0.003));
#642=CARTESIAN_POINT('',(0.03,-0.005,0.003));
#643=CARTESIAN_POINT('',(0.015,-0.0055,0.003));
#644=CARTESIAN_POINT('',(0.0277916352203497,-0.001275,0.003));
#645=CARTESIAN_POINT('',(0.0277916352203497,-0.001275,-0.003));
#646=CARTESIAN_POINT('',(0.0270555136271329,0.,-0.003));
#647=CARTESIAN_POINT('',(0.0285277568135665,-0.00255,-0.003));
#648=CARTESIAN_POINT('',(0.0270555136271329,0.,0.003));
#649=CARTESIAN_POINT('',(0.0270555136271329,0.,0.003));
#650=CARTESIAN_POINT('',(0.0277916352203497,-0.001275,0.003));
#651=CARTESIAN_POINT('',(0.0285277568135665,-0.00255,0.003));
#652=CARTESIAN_POINT('',(0.0285277568135665,-0.00255,0.003));
#653=CARTESIAN_POINT('',(0.0277916352203497,0.001275,0.003));
#654=CARTESIAN_POINT('',(0.0277916352203497,0.001275,-0.003));
#655=CARTESIAN_POINT('',(0.0285277568135665,0.00255,-0.003));
#656=CARTESIAN_POINT('',(0.0285277568135665,0.00255,0.003));
#657=CARTESIAN_POINT('',(0.0285277568135665,0.00255,0.003));
#658=CARTESIAN_POINT('',(0.0277916352203497,0.001275,0.003));
#659=CARTESIAN_POINT('',(0.03,0.00255,0.003));
#660=CARTESIAN_POINT('',(0.03,0.00255,-0.003));
#661=CARTESIAN_POINT('',(0.0314722431864335,0.00255,-0.003));
#662=CARTESIAN_POINT('',(0.0314722431864335,0.00255,0.003));
#663=CARTESIAN_POINT('',(0.0314722431864335,0.00255,0.003));
#664=CARTESIAN_POINT('',(0.03,0.00255,0.003));
#665=CARTESIAN_POINT('',(0.0322083647796503,0.001275,0.003));
#666=CARTESIAN_POINT('',(0.0322083647796503,0.001275,-0.003));
#667=CARTESIAN_POINT('',(0.0329444863728671,5.63785129692462E-18,-0.003));
#668=CARTESIAN_POINT('',(0.0329444863728671,5.63785129692462E-18,0.003));
#669=CARTESIAN_POINT('',(0.0329444863728671,5.63785129692462E-18,0.003));
#670=CARTESIAN_POINT('',(0.0322083647796503,0.001275,0.003));
#671=CARTESIAN_POINT('',(0.0322083647796503,-0.001275,0.003));
#672=CARTESIAN_POINT('',(0.0322083647796503,-0.001275,-0.003));
#673=CARTESIAN_POINT('',(0.0314722431864335,-0.00255,-0.003));
#674=CARTESIAN_POINT('',(0.0314722431864335,-0.00255,0.003));
#675=CARTESIAN_POINT('',(0.0314722431864335,-0.00255,0.003));
#676=CARTESIAN_POINT('',(0.0322083647796503,-0.001275,0.003));
#677=CARTESIAN_POINT('',(0.03,0.,0.003));
#678=CARTESIAN_POINT('',(0.03,0.,-0.003));
#679=CARTESIAN_POINT('',(0.03,0.,0.003));
#680=CARTESIAN_POINT('',(0.03,-0.00255,0.003));
#681=CARTESIAN_POINT('',(0.03,-0.00255,-0.003));
#682=CARTESIAN_POINT('',(0.03,-0.00255,0.003));
#683=CARTESIAN_POINT('',(0.,1.83697019872103E-19,0.003));
#684=CARTESIAN_POINT('',(0.,1.83697019872103E-19,0.003));
#685=CARTESIAN_POINT('',(0.003,1.83697019872103E-19,0.003));
#686=CARTESIAN_POINT('',(0.,1.83697019872103E-19,-0.003));
#687=CARTESIAN_POINT('',(0.003,1.83697019872103E-19,-0.003));
#688=CARTESIAN_POINT('',(0.0145,0.,0.003));
#689=CARTESIAN_POINT('',(0.0145,0.,-0.003));
#690=MECHANICAL_DESIGN_GEOMETRIC_PRESENTATION_REPRESENTATION('',(#416),
#692);
#691=MECHANICAL_DESIGN_GEOMETRIC_PRESENTATION_REPRESENTATION('',(#417),
#693);
#692=(
GEOMETRIC_REPRESENTATION_CONTEXT(3)
GLOBAL_UNCERTAINTY_ASSIGNED_CONTEXT((#694))
GLOBAL_UNIT_ASSIGNED_CONTEXT((#700,#698,#696))
REPRESENTATION_CONTEXT('M3x6 Spacer','TOP_LEVEL_ASSEMBLY_PART')
);
#693=(
GEOMETRIC_REPRESENTATION_CONTEXT(3)
GLOBAL_UNCERTAINTY_ASSIGNED_CONTEXT((#695))
GLOBAL_UNIT_ASSIGNED_CONTEXT((#701,#699,#697))
REPRESENTATION_CONTEXT('Horn','TOP_LEVEL_ASSEMBLY_PART')
);
#694=UNCERTAINTY_MEASURE_WITH_UNIT(LENGTH_MEASURE(1.E-8),#700,
'DISTANCE_ACCURACY_VALUE','Maximum Tolerance applied to model');
#695=UNCERTAINTY_MEASURE_WITH_UNIT(LENGTH_MEASURE(1.E-8),#701,
'DISTANCE_ACCURACY_VALUE','Maximum Tolerance applied to model');
#696=(
NAMED_UNIT(*)
SI_UNIT($,.STERADIAN.)
SOLID_ANGLE_UNIT()
);
#697=(
NAMED_UNIT(*)
SI_UNIT($,.STERADIAN.)
SOLID_ANGLE_UNIT()
);
#698=(
NAMED_UNIT(*)
PLANE_ANGLE_UNIT()
SI_UNIT($,.RADIAN.)
);
#699=(
NAMED_UNIT(*)
PLANE_ANGLE_UNIT()
SI_UNIT($,.RADIAN.)
);
#700=(
LENGTH_UNIT()
NAMED_UNIT(*)
SI_UNIT($,.METRE.)
);
#701=(
LENGTH_UNIT()
NAMED_UNIT(*)
SI_UNIT($,.METRE.)
);
#702=PRODUCT_DEFINITION_SHAPE('','',#704);
#703=PRODUCT_DEFINITION_SHAPE('','',#705);
#704=PRODUCT_DEFINITION('','',#708,#706);
#705=PRODUCT_DEFINITION('','',#709,#707);
#706=PRODUCT_DEFINITION_CONTEXT('',#720,'design');
#707=PRODUCT_DEFINITION_CONTEXT('',#721,'design');
#708=PRODUCT_DEFINITION_FORMATION_WITH_SPECIFIED_SOURCE('','',#712,
 .NOT_KNOWN.);
#709=PRODUCT_DEFINITION_FORMATION_WITH_SPECIFIED_SOURCE('','',#713,
 .NOT_KNOWN.);
#710=PRODUCT_RELATED_PRODUCT_CATEGORY('','',(#712));
#711=PRODUCT_RELATED_PRODUCT_CATEGORY('','',(#713));
#712=PRODUCT('M3x6 Spacer','M3x6 Spacer','M3x6 Spacer',(#716));
#713=PRODUCT('Horn','Horn','Horn',(#717));
#714=PRODUCT_CATEGORY('','');
#715=PRODUCT_CATEGORY('','');
#716=PRODUCT_CONTEXT('',#720,'mechanical');
#717=PRODUCT_CONTEXT('',#721,'mechanical');
#718=APPLICATION_PROTOCOL_DEFINITION('international standard',
'automotive_design',2010,#720);
#719=APPLICATION_PROTOCOL_DEFINITION('international standard',
'automotive_design',2010,#721);
#720=APPLICATION_CONTEXT(
'core data for automotive mechanical design processes');
#721=APPLICATION_CONTEXT(
'core data for automotive mechanical design processes');
ENDSEC;
END-ISO-10303-21;
