ISO-10303-21;
HEADER;
/* Generated by software containing ST-Developer
 * from STEP Tools, Inc. (www.steptools.com) 
 */
/* OPTION: using custom renumber hook */

FILE_DESCRIPTION(
/* description */ ('STEP AP214',
'CAx-IF Rec.Pracs.---User Defined Attributes---1.5---2016-08-15'),
/* implementation_level */ '2;1');

FILE_NAME(
/* name */ '6a7bfb42e5d6ddc0b13a3b53',
/* time_stamp */ '2026-08-12T04:49:07Z',
/* author */ (''),
/* organization */ (''),
/* preprocessor_version */ 'ST-DEVELOPER v20',
/* originating_system */ 'ONSHAPE BY PTC INC, 1.219',
/* authorisation */ '  ');

FILE_SCHEMA (('AUTOMOTIVE_DESIGN {1 0 10303 214 3 1 1}'));
ENDSEC;

DATA;
#10=PROPERTY_DEFINITION_REPRESENTATION(#14,#12);
#11=PROPERTY_DEFINITION_REPRESENTATION(#15,#13);
#12=REPRESENTATION('',(#16),#1013);
#13=REPRESENTATION('',(#17),#1013);
#14=PROPERTY_DEFINITION('pmi validation property','',#1028);
#15=PROPERTY_DEFINITION('pmi validation property','',#1028);
#16=VALUE_REPRESENTATION_ITEM('number of annotations',COUNT_MEASURE(0.));
#17=VALUE_REPRESENTATION_ITEM('number of views',COUNT_MEASURE(0.));
#18=DEGENERATE_TOROIDAL_SURFACE('',#643,0.001,0.0015,.T.);
#19=DEGENERATE_TOROIDAL_SURFACE('',#650,0.001,0.0015,.T.);
#20=SHAPE_REPRESENTATION_RELATIONSHIP('','',#580,#23);
#21=SHAPE_REPRESENTATION_RELATIONSHIP('','',#581,#24);
#22=SHAPE_REPRESENTATION_RELATIONSHIP('','',#582,#25);
#23=ADVANCED_BREP_SHAPE_REPRESENTATION('',(#574),#1011);
#24=ADVANCED_BREP_SHAPE_REPRESENTATION('',(#575),#1012);
#25=ADVANCED_BREP_SHAPE_REPRESENTATION('',(#576),#1013);
#26=PLANE('',#592);
#27=PLANE('',#593);
#28=PLANE('',#594);
#29=PLANE('',#600);
#30=PLANE('',#601);
#31=PLANE('',#602);
#32=PLANE('',#603);
#33=PLANE('',#610);
#34=PLANE('',#612);
#35=PLANE('',#616);
#36=PLANE('',#623);
#37=PLANE('',#627);
#38=PLANE('',#628);
#39=PLANE('',#634);
#40=PLANE('',#635);
#41=PLANE('',#636);
#42=PLANE('',#640);
#43=LINE('',#835,#73);
#44=LINE('',#851,#74);
#45=LINE('',#862,#75);
#46=LINE('',#865,#76);
#47=LINE('',#866,#77);
#48=LINE('',#870,#78);
#49=LINE('',#875,#79);
#50=LINE('',#879,#80);
#51=LINE('',#884,#81);
#52=LINE('',#885,#82);
#53=LINE('',#887,#83);
#54=LINE('',#888,#84);
#55=LINE('',#890,#85);
#56=LINE('',#891,#86);
#57=LINE('',#945,#87);
#58=LINE('',#952,#88);
#59=LINE('',#954,#89);
#60=LINE('',#957,#90);
#61=LINE('',#959,#91);
#62=LINE('',#961,#92);
#63=LINE('',#965,#93);
#64=LINE('',#969,#94);
#65=LINE('',#971,#95);
#66=LINE('',#973,#96);
#67=LINE('',#979,#97);
#68=LINE('',#984,#98);
#69=LINE('',#988,#99);
#70=LINE('',#989,#100);
#71=LINE('',#991,#101);
#72=LINE('',#992,#102);
#73=VECTOR('',#665,1.);
#74=VECTOR('',#668,1.);
#75=VECTOR('',#675,1.);
#76=VECTOR('',#676,1.);
#77=VECTOR('',#677,1.);
#78=VECTOR('',#682,1.);
#79=VECTOR('',#685,1.);
#80=VECTOR('',#688,1.);
#81=VECTOR('',#695,1.);
#82=VECTOR('',#696,1.);
#83=VECTOR('',#699,1.);
#84=VECTOR('',#700,1.);
#85=VECTOR('',#703,1.);
#86=VECTOR('',#704,1.);
#87=VECTOR('',#745,1.);
#88=VECTOR('',#746,1.);
#89=VECTOR('',#749,1.);
#90=VECTOR('',#750,1.);
#91=VECTOR('',#751,1.);
#92=VECTOR('',#752,1.);
#93=VECTOR('',#757,1.);
#94=VECTOR('',#762,1.);
#95=VECTOR('',#763,1.);
#96=VECTOR('',#764,1.);
#97=VECTOR('',#771,1.);
#98=VECTOR('',#776,1.);
#99=VECTOR('',#781,1.);
#100=VECTOR('',#782,1.);
#101=VECTOR('',#785,1.);
#102=VECTOR('',#786,1.);
#103=B_SPLINE_CURVE_WITH_KNOTS('',3,(#829,#830,#831,#832,#833),
 .UNSPECIFIED.,.F.,.F.,(4,1,4),(0.,0.00186337912038316,0.00372675824076631),
 .UNSPECIFIED.);
#104=B_SPLINE_CURVE_WITH_KNOTS('',3,(#837,#838,#839,#840,#841),
 .UNSPECIFIED.,.F.,.F.,(4,1,4),(0.,0.00186337912038316,0.00372675824076631),
 .UNSPECIFIED.);
#105=B_SPLINE_CURVE_WITH_KNOTS('',3,(#845,#846,#847,#848,#849),
 .UNSPECIFIED.,.F.,.F.,(4,1,4),(0.,0.00186337912038316,0.00372675824076631),
 .UNSPECIFIED.);
#106=B_SPLINE_CURVE_WITH_KNOTS('',3,(#853,#854,#855,#856,#857),
 .UNSPECIFIED.,.F.,.F.,(4,1,4),(0.,0.00186337912038316,0.00372675824076632),
 .UNSPECIFIED.);
#107=B_SPLINE_CURVE_WITH_KNOTS('',3,(#914,#915,#916,#917),.UNSPECIFIED.,
 .F.,.F.,(4,4),(0.,0.000324009194758105),.UNSPECIFIED.);
#108=B_SPLINE_CURVE_WITH_KNOTS('',3,(#921,#922,#923,#924),.UNSPECIFIED.,
 .F.,.F.,(4,4),(0.,0.000324007455264728),.UNSPECIFIED.);
#109=B_SPLINE_CURVE_WITH_KNOTS('',3,(#928,#929,#930,#931),.UNSPECIFIED.,
 .F.,.F.,(4,4),(0.,0.00032400745526473),.UNSPECIFIED.);
#110=B_SPLINE_CURVE_WITH_KNOTS('',3,(#935,#936,#937,#938),.UNSPECIFIED.,
 .F.,.F.,(4,4),(0.,0.000324009194758105),.UNSPECIFIED.);
#111=B_SPLINE_CURVE_WITH_KNOTS('',3,(#939,#940,#941,#942),.UNSPECIFIED.,
 .F.,.F.,(4,4),(0.000353045899977523,0.001004315297153),.UNSPECIFIED.);
#112=B_SPLINE_CURVE_WITH_KNOTS('',3,(#947,#948,#949,#950),.UNSPECIFIED.,
 .F.,.F.,(4,4),(0.000704167126115304,0.00135303804433689),.UNSPECIFIED.);
#113=ORIENTED_EDGE('',*,*,#255,.F.);
#114=ORIENTED_EDGE('',*,*,#256,.T.);
#115=ORIENTED_EDGE('',*,*,#257,.T.);
#116=ORIENTED_EDGE('',*,*,#258,.F.);
#117=ORIENTED_EDGE('',*,*,#259,.T.);
#118=ORIENTED_EDGE('',*,*,#260,.F.);
#119=ORIENTED_EDGE('',*,*,#261,.T.);
#120=ORIENTED_EDGE('',*,*,#262,.T.);
#121=ORIENTED_EDGE('',*,*,#263,.T.);
#122=ORIENTED_EDGE('',*,*,#264,.T.);
#123=ORIENTED_EDGE('',*,*,#265,.T.);
#124=ORIENTED_EDGE('',*,*,#266,.F.);
#125=ORIENTED_EDGE('',*,*,#255,.T.);
#126=ORIENTED_EDGE('',*,*,#257,.F.);
#127=ORIENTED_EDGE('',*,*,#267,.T.);
#128=ORIENTED_EDGE('',*,*,#268,.T.);
#129=ORIENTED_EDGE('',*,*,#258,.T.);
#130=ORIENTED_EDGE('',*,*,#269,.T.);
#131=ORIENTED_EDGE('',*,*,#270,.F.);
#132=ORIENTED_EDGE('',*,*,#271,.F.);
#133=ORIENTED_EDGE('',*,*,#272,.T.);
#134=ORIENTED_EDGE('',*,*,#273,.T.);
#135=ORIENTED_EDGE('',*,*,#274,.T.);
#136=ORIENTED_EDGE('',*,*,#275,.T.);
#137=ORIENTED_EDGE('',*,*,#276,.T.);
#138=ORIENTED_EDGE('',*,*,#267,.F.);
#139=ORIENTED_EDGE('',*,*,#277,.T.);
#140=ORIENTED_EDGE('',*,*,#264,.F.);
#141=ORIENTED_EDGE('',*,*,#278,.T.);
#142=ORIENTED_EDGE('',*,*,#271,.T.);
#143=ORIENTED_EDGE('',*,*,#279,.T.);
#144=ORIENTED_EDGE('',*,*,#260,.T.);
#145=ORIENTED_EDGE('',*,*,#280,.T.);
#146=ORIENTED_EDGE('',*,*,#275,.F.);
#147=ORIENTED_EDGE('',*,*,#281,.T.);
#148=ORIENTED_EDGE('',*,*,#273,.F.);
#149=ORIENTED_EDGE('',*,*,#282,.T.);
#150=ORIENTED_EDGE('',*,*,#262,.F.);
#151=ORIENTED_EDGE('',*,*,#283,.T.);
#152=ORIENTED_EDGE('',*,*,#256,.F.);
#153=ORIENTED_EDGE('',*,*,#266,.T.);
#154=ORIENTED_EDGE('',*,*,#263,.F.);
#155=ORIENTED_EDGE('',*,*,#282,.F.);
#156=ORIENTED_EDGE('',*,*,#272,.F.);
#157=ORIENTED_EDGE('',*,*,#278,.F.);
#158=ORIENTED_EDGE('',*,*,#259,.F.);
#159=ORIENTED_EDGE('',*,*,#268,.F.);
#160=ORIENTED_EDGE('',*,*,#276,.F.);
#161=ORIENTED_EDGE('',*,*,#280,.F.);
#162=ORIENTED_EDGE('',*,*,#265,.F.);
#163=ORIENTED_EDGE('',*,*,#279,.F.);
#164=ORIENTED_EDGE('',*,*,#277,.F.);
#165=ORIENTED_EDGE('',*,*,#269,.F.);
#166=ORIENTED_EDGE('',*,*,#261,.F.);
#167=ORIENTED_EDGE('',*,*,#281,.F.);
#168=ORIENTED_EDGE('',*,*,#274,.F.);
#169=ORIENTED_EDGE('',*,*,#283,.F.);
#170=ORIENTED_EDGE('',*,*,#284,.T.);
#171=ORIENTED_EDGE('',*,*,#270,.T.);
#172=ORIENTED_EDGE('',*,*,#284,.F.);
#173=ORIENTED_EDGE('',*,*,#285,.T.);
#174=ORIENTED_EDGE('',*,*,#285,.F.);
#175=ORIENTED_EDGE('',*,*,#286,.T.);
#176=ORIENTED_EDGE('',*,*,#286,.F.);
#177=ORIENTED_EDGE('',*,*,#287,.T.);
#178=ORIENTED_EDGE('',*,*,#288,.T.);
#179=ORIENTED_EDGE('',*,*,#289,.T.);
#180=ORIENTED_EDGE('',*,*,#290,.T.);
#181=ORIENTED_EDGE('',*,*,#291,.F.);
#182=ORIENTED_EDGE('',*,*,#292,.T.);
#183=ORIENTED_EDGE('',*,*,#293,.T.);
#184=ORIENTED_EDGE('',*,*,#294,.T.);
#185=ORIENTED_EDGE('',*,*,#295,.F.);
#186=ORIENTED_EDGE('',*,*,#296,.T.);
#187=ORIENTED_EDGE('',*,*,#297,.F.);
#188=ORIENTED_EDGE('',*,*,#298,.T.);
#189=ORIENTED_EDGE('',*,*,#299,.T.);
#190=ORIENTED_EDGE('',*,*,#300,.T.);
#191=ORIENTED_EDGE('',*,*,#301,.F.);
#192=ORIENTED_EDGE('',*,*,#302,.T.);
#193=ORIENTED_EDGE('',*,*,#301,.T.);
#194=ORIENTED_EDGE('',*,*,#303,.T.);
#195=ORIENTED_EDGE('',*,*,#304,.F.);
#196=ORIENTED_EDGE('',*,*,#305,.T.);
#197=ORIENTED_EDGE('',*,*,#304,.T.);
#198=ORIENTED_EDGE('',*,*,#306,.T.);
#199=ORIENTED_EDGE('',*,*,#307,.F.);
#200=ORIENTED_EDGE('',*,*,#308,.T.);
#201=ORIENTED_EDGE('',*,*,#309,.F.);
#202=ORIENTED_EDGE('',*,*,#307,.T.);
#203=ORIENTED_EDGE('',*,*,#310,.T.);
#204=ORIENTED_EDGE('',*,*,#311,.T.);
#205=ORIENTED_EDGE('',*,*,#312,.T.);
#206=ORIENTED_EDGE('',*,*,#299,.F.);
#207=ORIENTED_EDGE('',*,*,#313,.T.);
#208=ORIENTED_EDGE('',*,*,#314,.F.);
#209=ORIENTED_EDGE('',*,*,#315,.T.);
#210=ORIENTED_EDGE('',*,*,#289,.F.);
#211=ORIENTED_EDGE('',*,*,#316,.T.);
#212=ORIENTED_EDGE('',*,*,#314,.T.);
#213=ORIENTED_EDGE('',*,*,#317,.T.);
#214=ORIENTED_EDGE('',*,*,#311,.F.);
#215=ORIENTED_EDGE('',*,*,#318,.T.);
#216=ORIENTED_EDGE('',*,*,#291,.T.);
#217=ORIENTED_EDGE('',*,*,#319,.T.);
#218=ORIENTED_EDGE('',*,*,#320,.T.);
#219=ORIENTED_EDGE('',*,*,#296,.F.);
#220=ORIENTED_EDGE('',*,*,#295,.T.);
#221=ORIENTED_EDGE('',*,*,#321,.F.);
#222=ORIENTED_EDGE('',*,*,#297,.T.);
#223=ORIENTED_EDGE('',*,*,#320,.F.);
#224=ORIENTED_EDGE('',*,*,#309,.T.);
#225=ORIENTED_EDGE('',*,*,#321,.T.);
#226=ORIENTED_EDGE('',*,*,#298,.F.);
#227=ORIENTED_EDGE('',*,*,#319,.F.);
#228=ORIENTED_EDGE('',*,*,#294,.F.);
#229=ORIENTED_EDGE('',*,*,#322,.F.);
#230=ORIENTED_EDGE('',*,*,#300,.F.);
#231=ORIENTED_EDGE('',*,*,#312,.F.);
#232=ORIENTED_EDGE('',*,*,#322,.T.);
#233=ORIENTED_EDGE('',*,*,#293,.F.);
#234=ORIENTED_EDGE('',*,*,#323,.F.);
#235=ORIENTED_EDGE('',*,*,#303,.F.);
#236=ORIENTED_EDGE('',*,*,#292,.F.);
#237=ORIENTED_EDGE('',*,*,#318,.F.);
#238=ORIENTED_EDGE('',*,*,#310,.F.);
#239=ORIENTED_EDGE('',*,*,#306,.F.);
#240=ORIENTED_EDGE('',*,*,#323,.T.);
#241=ORIENTED_EDGE('',*,*,#313,.F.);
#242=ORIENTED_EDGE('',*,*,#302,.F.);
#243=ORIENTED_EDGE('',*,*,#324,.F.);
#244=ORIENTED_EDGE('',*,*,#290,.F.);
#245=ORIENTED_EDGE('',*,*,#317,.F.);
#246=ORIENTED_EDGE('',*,*,#316,.F.);
#247=ORIENTED_EDGE('',*,*,#288,.F.);
#248=ORIENTED_EDGE('',*,*,#325,.F.);
#249=ORIENTED_EDGE('',*,*,#308,.F.);
#250=ORIENTED_EDGE('',*,*,#315,.F.);
#251=ORIENTED_EDGE('',*,*,#324,.T.);
#252=ORIENTED_EDGE('',*,*,#305,.F.);
#253=ORIENTED_EDGE('',*,*,#325,.T.);
#254=ORIENTED_EDGE('',*,*,#287,.F.);
#255=EDGE_CURVE('',#326,#326,#375,.T.);
#256=EDGE_CURVE('',#327,#327,#376,.T.);
#257=EDGE_CURVE('',#328,#328,#377,.T.);
#258=EDGE_CURVE('',#329,#330,#378,.T.);
#259=EDGE_CURVE('',#329,#331,#103,.T.);
#260=EDGE_CURVE('',#332,#331,#43,.T.);
#261=EDGE_CURVE('',#332,#333,#104,.F.);
#262=EDGE_CURVE('',#333,#334,#379,.T.);
#263=EDGE_CURVE('',#334,#335,#105,.T.);
#264=EDGE_CURVE('',#335,#336,#44,.T.);
#265=EDGE_CURVE('',#336,#330,#106,.F.);
#266=EDGE_CURVE('',#337,#337,#380,.T.);
#267=EDGE_CURVE('',#338,#339,#45,.T.);
#268=EDGE_CURVE('',#339,#329,#46,.F.);
#269=EDGE_CURVE('',#330,#338,#47,.T.);
#270=EDGE_CURVE('',#340,#340,#381,.T.);
#271=EDGE_CURVE('',#341,#342,#48,.T.);
#272=EDGE_CURVE('',#341,#343,#382,.T.);
#273=EDGE_CURVE('',#343,#344,#49,.T.);
#274=EDGE_CURVE('',#344,#345,#383,.T.);
#275=EDGE_CURVE('',#345,#346,#50,.T.);
#276=EDGE_CURVE('',#346,#339,#384,.T.);
#277=EDGE_CURVE('',#338,#342,#385,.T.);
#278=EDGE_CURVE('',#335,#341,#51,.T.);
#279=EDGE_CURVE('',#342,#336,#52,.F.);
#280=EDGE_CURVE('',#331,#346,#53,.T.);
#281=EDGE_CURVE('',#345,#332,#54,.F.);
#282=EDGE_CURVE('',#343,#334,#55,.F.);
#283=EDGE_CURVE('',#333,#344,#56,.T.);
#284=EDGE_CURVE('',#347,#347,#386,.F.);
#285=EDGE_CURVE('',#348,#348,#387,.T.);
#286=EDGE_CURVE('',#349,#349,#388,.F.);
#287=EDGE_CURVE('',#350,#351,#389,.F.);
#288=EDGE_CURVE('',#351,#352,#107,.T.);
#289=EDGE_CURVE('',#352,#353,#390,.T.);
#290=EDGE_CURVE('',#353,#350,#108,.T.);
#291=EDGE_CURVE('',#354,#355,#391,.T.);
#292=EDGE_CURVE('',#354,#356,#109,.T.);
#293=EDGE_CURVE('',#356,#357,#392,.F.);
#294=EDGE_CURVE('',#357,#355,#110,.T.);
#295=EDGE_CURVE('',#358,#359,#111,.T.);
#296=EDGE_CURVE('',#358,#360,#57,.T.);
#297=EDGE_CURVE('',#361,#360,#112,.T.);
#298=EDGE_CURVE('',#361,#359,#58,.F.);
#299=EDGE_CURVE('',#362,#363,#59,.T.);
#300=EDGE_CURVE('',#363,#364,#60,.T.);
#301=EDGE_CURVE('',#365,#364,#61,.T.);
#302=EDGE_CURVE('',#365,#362,#62,.F.);
#303=EDGE_CURVE('',#364,#366,#393,.T.);
#304=EDGE_CURVE('',#367,#366,#63,.T.);
#305=EDGE_CURVE('',#367,#365,#394,.F.);
#306=EDGE_CURVE('',#366,#368,#64,.T.);
#307=EDGE_CURVE('',#369,#368,#65,.T.);
#308=EDGE_CURVE('',#369,#367,#66,.F.);
#309=EDGE_CURVE('',#370,#370,#395,.F.);
#310=EDGE_CURVE('',#368,#371,#396,.F.);
#311=EDGE_CURVE('',#371,#372,#67,.T.);
#312=EDGE_CURVE('',#372,#363,#397,.F.);
#313=EDGE_CURVE('',#362,#373,#398,.F.);
#314=EDGE_CURVE('',#374,#373,#68,.T.);
#315=EDGE_CURVE('',#374,#369,#399,.F.);
#316=EDGE_CURVE('',#352,#374,#69,.T.);
#317=EDGE_CURVE('',#373,#353,#70,.T.);
#318=EDGE_CURVE('',#371,#354,#71,.F.);
#319=EDGE_CURVE('',#355,#372,#72,.F.);
#320=EDGE_CURVE('',#358,#360,#400,.T.);
#321=EDGE_CURVE('',#361,#359,#401,.T.);
#322=EDGE_CURVE('',#364,#357,#402,.T.);
#323=EDGE_CURVE('',#366,#356,#403,.T.);
#324=EDGE_CURVE('',#350,#365,#404,.T.);
#325=EDGE_CURVE('',#367,#351,#405,.T.);
#326=VERTEX_POINT('',#820);
#327=VERTEX_POINT('',#822);
#328=VERTEX_POINT('',#825);
#329=VERTEX_POINT('',#827);
#330=VERTEX_POINT('',#828);
#331=VERTEX_POINT('',#834);
#332=VERTEX_POINT('',#836);
#333=VERTEX_POINT('',#842);
#334=VERTEX_POINT('',#844);
#335=VERTEX_POINT('',#850);
#336=VERTEX_POINT('',#852);
#337=VERTEX_POINT('',#859);
#338=VERTEX_POINT('',#863);
#339=VERTEX_POINT('',#864);
#340=VERTEX_POINT('',#869);
#341=VERTEX_POINT('',#871);
#342=VERTEX_POINT('',#872);
#343=VERTEX_POINT('',#874);
#344=VERTEX_POINT('',#876);
#345=VERTEX_POINT('',#878);
#346=VERTEX_POINT('',#880);
#347=VERTEX_POINT('',#899);
#348=VERTEX_POINT('',#904);
#349=VERTEX_POINT('',#907);
#350=VERTEX_POINT('',#912);
#351=VERTEX_POINT('',#913);
#352=VERTEX_POINT('',#918);
#353=VERTEX_POINT('',#920);
#354=VERTEX_POINT('',#926);
#355=VERTEX_POINT('',#927);
#356=VERTEX_POINT('',#932);
#357=VERTEX_POINT('',#934);
#358=VERTEX_POINT('',#943);
#359=VERTEX_POINT('',#944);
#360=VERTEX_POINT('',#946);
#361=VERTEX_POINT('',#951);
#362=VERTEX_POINT('',#955);
#363=VERTEX_POINT('',#956);
#364=VERTEX_POINT('',#958);
#365=VERTEX_POINT('',#960);
#366=VERTEX_POINT('',#964);
#367=VERTEX_POINT('',#966);
#368=VERTEX_POINT('',#970);
#369=VERTEX_POINT('',#972);
#370=VERTEX_POINT('',#976);
#371=VERTEX_POINT('',#978);
#372=VERTEX_POINT('',#980);
#373=VERTEX_POINT('',#983);
#374=VERTEX_POINT('',#985);
#375=CIRCLE('',#585,0.00155);
#376=CIRCLE('',#586,0.00155);
#377=CIRCLE('',#588,0.0035);
#378=CIRCLE('',#589,0.0035);
#379=CIRCLE('',#590,0.0035);
#380=CIRCLE('',#591,0.0035);
#381=CIRCLE('',#595,0.0018);
#382=CIRCLE('',#596,0.0015);
#383=CIRCLE('',#597,0.0015);
#384=CIRCLE('',#598,0.0015);
#385=CIRCLE('',#599,0.0015);
#386=CIRCLE('',#609,0.0018);
#387=CIRCLE('',#613,0.0015);
#388=CIRCLE('',#615,0.0015);
#389=CIRCLE('',#619,0.00105);
#390=CIRCLE('',#620,0.00105);
#391=CIRCLE('',#621,0.00105);
#392=CIRCLE('',#622,0.00105);
#393=CIRCLE('',#625,0.0025);
#394=CIRCLE('',#626,0.0025);
#395=CIRCLE('',#629,0.00175);
#396=CIRCLE('',#630,0.0015);
#397=CIRCLE('',#631,0.0015);
#398=CIRCLE('',#632,0.0015);
#399=CIRCLE('',#633,0.0015);
#400=CIRCLE('',#637,0.00175);
#401=CIRCLE('',#639,0.00175);
#402=CIRCLE('',#642,0.0015);
#403=CIRCLE('',#644,0.0015);
#404=CIRCLE('',#647,0.0015);
#405=CIRCLE('',#649,0.0015);
#406=EDGE_LOOP('',(#113));
#407=EDGE_LOOP('',(#114));
#408=EDGE_LOOP('',(#115));
#409=EDGE_LOOP('',(#116,#117,#118,#119,#120,#121,#122,#123));
#410=EDGE_LOOP('',(#124));
#411=EDGE_LOOP('',(#125));
#412=EDGE_LOOP('',(#126));
#413=EDGE_LOOP('',(#127,#128,#129,#130));
#414=EDGE_LOOP('',(#131));
#415=EDGE_LOOP('',(#132,#133,#134,#135,#136,#137,#138,#139));
#416=EDGE_LOOP('',(#140,#141,#142,#143));
#417=EDGE_LOOP('',(#144,#145,#146,#147));
#418=EDGE_LOOP('',(#148,#149,#150,#151));
#419=EDGE_LOOP('',(#152));
#420=EDGE_LOOP('',(#153));
#421=EDGE_LOOP('',(#154,#155,#156,#157));
#422=EDGE_LOOP('',(#158,#159,#160,#161));
#423=EDGE_LOOP('',(#162,#163,#164,#165));
#424=EDGE_LOOP('',(#166,#167,#168,#169));
#425=EDGE_LOOP('',(#170));
#426=EDGE_LOOP('',(#171));
#427=EDGE_LOOP('',(#172));
#428=EDGE_LOOP('',(#173));
#429=EDGE_LOOP('',(#174));
#430=EDGE_LOOP('',(#175));
#431=EDGE_LOOP('',(#176));
#432=EDGE_LOOP('',(#177,#178,#179,#180));
#433=EDGE_LOOP('',(#181,#182,#183,#184));
#434=EDGE_LOOP('',(#185,#186,#187,#188));
#435=EDGE_LOOP('',(#189,#190,#191,#192));
#436=EDGE_LOOP('',(#193,#194,#195,#196));
#437=EDGE_LOOP('',(#197,#198,#199,#200));
#438=EDGE_LOOP('',(#201));
#439=EDGE_LOOP('',(#202,#203,#204,#205,#206,#207,#208,#209));
#440=EDGE_LOOP('',(#210,#211,#212,#213));
#441=EDGE_LOOP('',(#214,#215,#216,#217));
#442=EDGE_LOOP('',(#218,#219));
#443=EDGE_LOOP('',(#220,#221,#222,#223));
#444=EDGE_LOOP('',(#224));
#445=EDGE_LOOP('',(#225,#226));
#446=EDGE_LOOP('',(#227,#228,#229,#230,#231));
#447=EDGE_LOOP('',(#232,#233,#234,#235));
#448=EDGE_LOOP('',(#236,#237,#238,#239,#240));
#449=EDGE_LOOP('',(#241,#242,#243,#244,#245));
#450=EDGE_LOOP('',(#246,#247,#248,#249,#250));
#451=EDGE_LOOP('',(#251,#252,#253,#254));
#452=FACE_BOUND('',#406,.T.);
#453=FACE_BOUND('',#407,.T.);
#454=FACE_BOUND('',#408,.T.);
#455=FACE_BOUND('',#409,.T.);
#456=FACE_BOUND('',#410,.T.);
#457=FACE_BOUND('',#411,.T.);
#458=FACE_BOUND('',#412,.T.);
#459=FACE_BOUND('',#413,.T.);
#460=FACE_BOUND('',#414,.T.);
#461=FACE_BOUND('',#415,.T.);
#462=FACE_BOUND('',#416,.T.);
#463=FACE_BOUND('',#417,.T.);
#464=FACE_BOUND('',#418,.T.);
#465=FACE_BOUND('',#419,.T.);
#466=FACE_BOUND('',#420,.T.);
#467=FACE_BOUND('',#421,.T.);
#468=FACE_BOUND('',#422,.T.);
#469=FACE_BOUND('',#423,.T.);
#470=FACE_BOUND('',#424,.T.);
#471=FACE_BOUND('',#425,.T.);
#472=FACE_BOUND('',#426,.T.);
#473=FACE_BOUND('',#427,.T.);
#474=FACE_BOUND('',#428,.T.);
#475=FACE_BOUND('',#429,.T.);
#476=FACE_BOUND('',#430,.T.);
#477=FACE_BOUND('',#431,.T.);
#478=FACE_BOUND('',#432,.T.);
#479=FACE_BOUND('',#433,.T.);
#480=FACE_BOUND('',#434,.T.);
#481=FACE_BOUND('',#435,.T.);
#482=FACE_BOUND('',#436,.T.);
#483=FACE_BOUND('',#437,.T.);
#484=FACE_BOUND('',#438,.T.);
#485=FACE_BOUND('',#439,.T.);
#486=FACE_BOUND('',#440,.T.);
#487=FACE_BOUND('',#441,.T.);
#488=FACE_BOUND('',#442,.T.);
#489=FACE_BOUND('',#443,.T.);
#490=FACE_BOUND('',#444,.T.);
#491=FACE_BOUND('',#445,.T.);
#492=FACE_BOUND('',#446,.T.);
#493=FACE_BOUND('',#447,.T.);
#494=FACE_BOUND('',#448,.T.);
#495=FACE_BOUND('',#449,.T.);
#496=FACE_BOUND('',#450,.T.);
#497=FACE_BOUND('',#451,.T.);
#498=CYLINDRICAL_SURFACE('',#584,0.00155);
#499=CYLINDRICAL_SURFACE('',#587,0.0035);
#500=CYLINDRICAL_SURFACE('',#604,0.0015);
#501=CYLINDRICAL_SURFACE('',#605,0.0015);
#502=CYLINDRICAL_SURFACE('',#606,0.0015);
#503=CYLINDRICAL_SURFACE('',#607,0.0015);
#504=CYLINDRICAL_SURFACE('',#608,0.0018);
#505=CYLINDRICAL_SURFACE('',#614,0.0015);
#506=CYLINDRICAL_SURFACE('',#618,0.00105);
#507=CYLINDRICAL_SURFACE('',#624,0.0025);
#508=CYLINDRICAL_SURFACE('',#638,0.00175);
#509=CYLINDRICAL_SURFACE('',#641,0.0015);
#510=CYLINDRICAL_SURFACE('',#645,0.0015);
#511=CYLINDRICAL_SURFACE('',#646,0.0015);
#512=CYLINDRICAL_SURFACE('',#648,0.0015);
#513=ADVANCED_FACE('',(#452,#453),#498,.F.);
#514=ADVANCED_FACE('',(#454,#455,#456),#499,.T.);
#515=ADVANCED_FACE('',(#457,#458),#26,.F.);
#516=ADVANCED_FACE('',(#459),#27,.F.);
#517=ADVANCED_FACE('',(#460,#461),#28,.T.);
#518=ADVANCED_FACE('',(#462),#29,.T.);
#519=ADVANCED_FACE('',(#463),#30,.F.);
#520=ADVANCED_FACE('',(#464),#31,.T.);
#521=ADVANCED_FACE('',(#465,#466),#32,.T.);
#522=ADVANCED_FACE('',(#467),#500,.T.);
#523=ADVANCED_FACE('',(#468),#501,.T.);
#524=ADVANCED_FACE('',(#469),#502,.T.);
#525=ADVANCED_FACE('',(#470),#503,.T.);
#526=ADVANCED_FACE('',(#471,#472),#504,.F.);
#527=ADVANCED_FACE('',(#473),#33,.T.);
#528=ADVANCED_FACE('',(#474),#34,.T.);
#529=ADVANCED_FACE('',(#475,#476),#505,.T.);
#530=ADVANCED_FACE('',(#477),#35,.T.);
#531=ADVANCED_FACE('',(#478,#479,#480),#506,.F.);
#532=ADVANCED_FACE('',(#481),#36,.F.);
#533=ADVANCED_FACE('',(#482),#507,.T.);
#534=ADVANCED_FACE('',(#483),#37,.F.);
#535=ADVANCED_FACE('',(#484,#485),#38,.F.);
#536=ADVANCED_FACE('',(#486),#39,.T.);
#537=ADVANCED_FACE('',(#487),#40,.F.);
#538=ADVANCED_FACE('',(#488),#41,.T.);
#539=ADVANCED_FACE('',(#489,#490),#508,.F.);
#540=ADVANCED_FACE('',(#491),#42,.T.);
#541=ADVANCED_FACE('',(#492),#509,.T.);
#542=ADVANCED_FACE('',(#493),#18,.T.);
#543=ADVANCED_FACE('',(#494),#510,.T.);
#544=ADVANCED_FACE('',(#495),#511,.T.);
#545=ADVANCED_FACE('',(#496),#512,.T.);
#546=ADVANCED_FACE('',(#497),#19,.T.);
#547=CLOSED_SHELL('',(#513,#514,#515,#516,#517,#518,#519,#520,#521,#522,
#523,#524,#525,#526,#527));
#548=CLOSED_SHELL('',(#528,#529,#530));
#549=CLOSED_SHELL('',(#531,#532,#533,#534,#535,#536,#537,#538,#539,#540,
#541,#542,#543,#544,#545,#546));
#550=STYLED_ITEM('',(#553),#574);
#551=STYLED_ITEM('',(#554),#575);
#552=STYLED_ITEM('',(#555),#576);
#553=PRESENTATION_STYLE_ASSIGNMENT((#556));
#554=PRESENTATION_STYLE_ASSIGNMENT((#557));
#555=PRESENTATION_STYLE_ASSIGNMENT((#558));
#556=SURFACE_STYLE_USAGE(.BOTH.,#559);
#557=SURFACE_STYLE_USAGE(.BOTH.,#560);
#558=SURFACE_STYLE_USAGE(.BOTH.,#561);
#559=SURFACE_SIDE_STYLE('',(#562));
#560=SURFACE_SIDE_STYLE('',(#563));
#561=SURFACE_SIDE_STYLE('',(#564));
#562=SURFACE_STYLE_FILL_AREA(#565);
#563=SURFACE_STYLE_FILL_AREA(#566);
#564=SURFACE_STYLE_FILL_AREA(#567);
#565=FILL_AREA_STYLE('',(#568));
#566=FILL_AREA_STYLE('',(#569));
#567=FILL_AREA_STYLE('',(#570));
#568=FILL_AREA_STYLE_COLOUR('',#571);
#569=FILL_AREA_STYLE_COLOUR('',#572);
#570=FILL_AREA_STYLE_COLOUR('',#573);
#571=COLOUR_RGB('',0.615686274509804,0.811764705882353,0.929411764705882);
#572=COLOUR_RGB('',0.498039215686275,0.498039215686275,0.498039215686275);
#573=COLOUR_RGB('',0.647058823529412,0.647058823529412,0.647058823529412);
#574=MANIFOLD_SOLID_BREP('Servo Link',#547);
#575=MANIFOLD_SOLID_BREP('CF Rod',#548);
#576=MANIFOLD_SOLID_BREP('Wheel Link',#549);
#577=SHAPE_DEFINITION_REPRESENTATION(#1026,#580);
#578=SHAPE_DEFINITION_REPRESENTATION(#1027,#581);
#579=SHAPE_DEFINITION_REPRESENTATION(#1028,#582);
#580=SHAPE_REPRESENTATION('Servo Link',(#583),#1011);
#581=SHAPE_REPRESENTATION('CF Rod',(#611),#1012);
#582=SHAPE_REPRESENTATION('Wheel Link',(#617),#1013);
#583=AXIS2_PLACEMENT_3D('',#817,#651,#652);
#584=AXIS2_PLACEMENT_3D('',#818,#653,#654);
#585=AXIS2_PLACEMENT_3D('',#819,#655,#656);
#586=AXIS2_PLACEMENT_3D('',#821,#657,#658);
#587=AXIS2_PLACEMENT_3D('',#823,#659,#660);
#588=AXIS2_PLACEMENT_3D('',#824,#661,#662);
#589=AXIS2_PLACEMENT_3D('',#826,#663,#664);
#590=AXIS2_PLACEMENT_3D('',#843,#666,#667);
#591=AXIS2_PLACEMENT_3D('',#858,#669,#670);
#592=AXIS2_PLACEMENT_3D('',#860,#671,#672);
#593=AXIS2_PLACEMENT_3D('',#861,#673,#674);
#594=AXIS2_PLACEMENT_3D('',#867,#678,#679);
#595=AXIS2_PLACEMENT_3D('',#868,#680,#681);
#596=AXIS2_PLACEMENT_3D('',#873,#683,#684);
#597=AXIS2_PLACEMENT_3D('',#877,#686,#687);
#598=AXIS2_PLACEMENT_3D('',#881,#689,#690);
#599=AXIS2_PLACEMENT_3D('',#882,#691,#692);
#600=AXIS2_PLACEMENT_3D('',#883,#693,#694);
#601=AXIS2_PLACEMENT_3D('',#886,#697,#698);
#602=AXIS2_PLACEMENT_3D('',#889,#701,#702);
#603=AXIS2_PLACEMENT_3D('',#892,#705,#706);
#604=AXIS2_PLACEMENT_3D('',#893,#707,#708);
#605=AXIS2_PLACEMENT_3D('',#894,#709,#710);
#606=AXIS2_PLACEMENT_3D('',#895,#711,#712);
#607=AXIS2_PLACEMENT_3D('',#896,#713,#714);
#608=AXIS2_PLACEMENT_3D('',#897,#715,#716);
#609=AXIS2_PLACEMENT_3D('',#898,#717,#718);
#610=AXIS2_PLACEMENT_3D('',#900,#719,#720);
#611=AXIS2_PLACEMENT_3D('',#901,#721,#722);
#612=AXIS2_PLACEMENT_3D('',#902,#723,#724);
#613=AXIS2_PLACEMENT_3D('',#903,#725,#726);
#614=AXIS2_PLACEMENT_3D('',#905,#727,#728);
#615=AXIS2_PLACEMENT_3D('',#906,#729,#730);
#616=AXIS2_PLACEMENT_3D('',#908,#731,#732);
#617=AXIS2_PLACEMENT_3D('',#909,#733,#734);
#618=AXIS2_PLACEMENT_3D('',#910,#735,#736);
#619=AXIS2_PLACEMENT_3D('',#911,#737,#738);
#620=AXIS2_PLACEMENT_3D('',#919,#739,#740);
#621=AXIS2_PLACEMENT_3D('',#925,#741,#742);
#622=AXIS2_PLACEMENT_3D('',#933,#743,#744);
#623=AXIS2_PLACEMENT_3D('',#953,#747,#748);
#624=AXIS2_PLACEMENT_3D('',#962,#753,#754);
#625=AXIS2_PLACEMENT_3D('',#963,#755,#756);
#626=AXIS2_PLACEMENT_3D('',#967,#758,#759);
#627=AXIS2_PLACEMENT_3D('',#968,#760,#761);
#628=AXIS2_PLACEMENT_3D('',#974,#765,#766);
#629=AXIS2_PLACEMENT_3D('',#975,#767,#768);
#630=AXIS2_PLACEMENT_3D('',#977,#769,#770);
#631=AXIS2_PLACEMENT_3D('',#981,#772,#773);
#632=AXIS2_PLACEMENT_3D('',#982,#774,#775);
#633=AXIS2_PLACEMENT_3D('',#986,#777,#778);
#634=AXIS2_PLACEMENT_3D('',#987,#779,#780);
#635=AXIS2_PLACEMENT_3D('',#990,#783,#784);
#636=AXIS2_PLACEMENT_3D('',#993,#787,#788);
#637=AXIS2_PLACEMENT_3D('',#994,#789,#790);
#638=AXIS2_PLACEMENT_3D('',#995,#791,#792);
#639=AXIS2_PLACEMENT_3D('',#996,#793,#794);
#640=AXIS2_PLACEMENT_3D('',#997,#795,#796);
#641=AXIS2_PLACEMENT_3D('',#998,#797,#798);
#642=AXIS2_PLACEMENT_3D('',#999,#799,#800);
#643=AXIS2_PLACEMENT_3D('',#1000,#801,#802);
#644=AXIS2_PLACEMENT_3D('',#1001,#803,#804);
#645=AXIS2_PLACEMENT_3D('',#1002,#805,#806);
#646=AXIS2_PLACEMENT_3D('',#1003,#807,#808);
#647=AXIS2_PLACEMENT_3D('',#1004,#809,#810);
#648=AXIS2_PLACEMENT_3D('',#1005,#811,#812);
#649=AXIS2_PLACEMENT_3D('',#1006,#813,#814);
#650=AXIS2_PLACEMENT_3D('',#1007,#815,#816);
#651=DIRECTION('',(0.,0.,1.));
#652=DIRECTION('',(1.,0.,0.));
#653=DIRECTION('',(0.,0.,1.));
#654=DIRECTION('',(1.,0.,0.));
#655=DIRECTION('',(0.,0.,1.));
#656=DIRECTION('',(1.,0.,0.));
#657=DIRECTION('',(0.,0.,1.));
#658=DIRECTION('',(1.,0.,0.));
#659=DIRECTION('',(0.,0.,1.));
#660=DIRECTION('',(1.,0.,0.));
#661=DIRECTION('',(0.,0.,1.));
#662=DIRECTION('',(1.,0.,0.));
#663=DIRECTION('',(0.,0.,1.));
#664=DIRECTION('',(1.,0.,0.));
#665=DIRECTION('',(0.,0.,-1.));
#666=DIRECTION('',(0.,0.,1.));
#667=DIRECTION('',(1.,0.,0.));
#668=DIRECTION('',(0.,0.,-1.));
#669=DIRECTION('',(0.,0.,1.));
#670=DIRECTION('',(1.,0.,0.));
#671=DIRECTION('',(0.,0.,1.));
#672=DIRECTION('',(1.,0.,0.));
#673=DIRECTION('',(0.,0.,1.));
#674=DIRECTION('',(1.,0.,0.));
#675=DIRECTION('',(2.47817639425258E-16,-1.,0.));
#676=DIRECTION('',(1.,0.,0.));
#677=DIRECTION('',(1.,0.,0.));
#678=DIRECTION('',(1.,2.47817639425258E-16,0.));
#679=DIRECTION('',(-2.47817639425258E-16,1.,0.));
#680=DIRECTION('',(1.,2.47817639425258E-16,0.));
#681=DIRECTION('',(-2.47817639425258E-16,1.,0.));
#682=DIRECTION('',(0.,0.,-1.));
#683=DIRECTION('',(1.,2.47817639425258E-16,0.));
#684=DIRECTION('',(-2.47817639425258E-16,1.,0.));
#685=DIRECTION('',(2.47817639425258E-16,-1.,0.));
#686=DIRECTION('',(1.,2.47817639425258E-16,0.));
#687=DIRECTION('',(-2.47817639425258E-16,1.,0.));
#688=DIRECTION('',(0.,0.,-1.));
#689=DIRECTION('',(1.,2.47817639425258E-16,0.));
#690=DIRECTION('',(-2.47817639425258E-16,1.,0.));
#691=DIRECTION('',(1.,2.47817639425258E-16,0.));
#692=DIRECTION('',(-2.47817639425258E-16,1.,0.));
#693=DIRECTION('',(0.,1.,0.));
#694=DIRECTION('',(0.,0.,1.));
#695=DIRECTION('',(1.,0.,0.));
#696=DIRECTION('',(1.,0.,0.));
#697=DIRECTION('',(0.,1.,0.));
#698=DIRECTION('',(0.,0.,1.));
#699=DIRECTION('',(1.,0.,0.));
#700=DIRECTION('',(1.,0.,0.));
#701=DIRECTION('',(0.,0.,1.));
#702=DIRECTION('',(1.,0.,0.));
#703=DIRECTION('',(1.,0.,0.));
#704=DIRECTION('',(1.,0.,0.));
#705=DIRECTION('',(0.,0.,1.));
#706=DIRECTION('',(1.,0.,0.));
#707=DIRECTION('',(1.,0.,0.));
#708=DIRECTION('',(0.,0.,-1.));
#709=DIRECTION('',(1.,0.,0.));
#710=DIRECTION('',(0.,0.,-1.));
#711=DIRECTION('',(-1.,0.,0.));
#712=DIRECTION('',(0.,0.,1.));
#713=DIRECTION('',(-1.,0.,0.));
#714=DIRECTION('',(0.,0.,1.));
#715=DIRECTION('',(1.,2.47817639425258E-16,0.));
#716=DIRECTION('',(-2.47817639425258E-16,1.,0.));
#717=DIRECTION('',(1.,2.47817639425258E-16,0.));
#718=DIRECTION('',(-2.47817639425258E-16,1.,0.));
#719=DIRECTION('',(1.,2.47817639425258E-16,0.));
#720=DIRECTION('',(-2.47817639425258E-16,1.,0.));
#721=DIRECTION('',(0.,0.,1.));
#722=DIRECTION('',(1.,0.,0.));
#723=DIRECTION('',(0.,-1.,0.));
#724=DIRECTION('',(1.,0.,0.));
#725=DIRECTION('',(0.,-1.,0.));
#726=DIRECTION('',(0.,0.,-1.));
#727=DIRECTION('',(0.,-1.,0.));
#728=DIRECTION('',(0.,0.,-1.));
#729=DIRECTION('',(0.,1.,0.));
#730=DIRECTION('',(0.,0.,1.));
#731=DIRECTION('',(0.,1.,0.));
#732=DIRECTION('',(-1.,0.,0.));
#733=DIRECTION('',(0.,0.,1.));
#734=DIRECTION('',(1.,0.,0.));
#735=DIRECTION('',(0.,0.,-1.));
#736=DIRECTION('',(-1.,0.,0.));
#737=DIRECTION('',(0.,0.,-1.));
#738=DIRECTION('',(-1.,0.,0.));
#739=DIRECTION('',(0.,0.,1.));
#740=DIRECTION('',(1.,0.,0.));
#741=DIRECTION('',(0.,0.,1.));
#742=DIRECTION('',(1.,0.,0.));
#743=DIRECTION('',(0.,0.,1.));
#744=DIRECTION('',(1.,0.,0.));
#745=DIRECTION('',(0.,0.,-1.));
#746=DIRECTION('',(0.,0.,-1.));
#747=DIRECTION('',(0.,1.,0.));
#748=DIRECTION('',(0.,0.,1.));
#749=DIRECTION('',(0.,0.,-1.));
#750=DIRECTION('',(1.,0.,0.));
#751=DIRECTION('',(0.,0.,-1.));
#752=DIRECTION('',(1.,0.,0.));
#753=DIRECTION('',(0.,0.,-1.));
#754=DIRECTION('',(-1.,0.,0.));
#755=DIRECTION('',(0.,0.,1.));
#756=DIRECTION('',(1.,0.,0.));
#757=DIRECTION('',(0.,0.,-1.));
#758=DIRECTION('',(0.,0.,1.));
#759=DIRECTION('',(1.,0.,0.));
#760=DIRECTION('',(0.,-1.,0.));
#761=DIRECTION('',(0.,0.,-1.));
#762=DIRECTION('',(-1.,0.,0.));
#763=DIRECTION('',(0.,0.,-1.));
#764=DIRECTION('',(-1.,0.,0.));
#765=DIRECTION('',(1.,0.,0.));
#766=DIRECTION('',(0.,0.,-1.));
#767=DIRECTION('',(1.,0.,0.));
#768=DIRECTION('',(0.,0.,-1.));
#769=DIRECTION('',(1.,0.,0.));
#770=DIRECTION('',(0.,0.,-1.));
#771=DIRECTION('',(0.,-1.,0.));
#772=DIRECTION('',(1.,0.,0.));
#773=DIRECTION('',(0.,0.,-1.));
#774=DIRECTION('',(1.,0.,0.));
#775=DIRECTION('',(0.,0.,-1.));
#776=DIRECTION('',(0.,-1.,0.));
#777=DIRECTION('',(1.,0.,0.));
#778=DIRECTION('',(0.,0.,-1.));
#779=DIRECTION('',(0.,0.,1.));
#780=DIRECTION('',(1.,0.,0.));
#781=DIRECTION('',(-1.,0.,0.));
#782=DIRECTION('',(1.,0.,0.));
#783=DIRECTION('',(0.,0.,1.));
#784=DIRECTION('',(1.,0.,0.));
#785=DIRECTION('',(-1.,0.,0.));
#786=DIRECTION('',(1.,0.,0.));
#787=DIRECTION('',(-1.,0.,0.));
#788=DIRECTION('',(0.,-1.,0.));
#789=DIRECTION('',(-1.,0.,0.));
#790=DIRECTION('',(0.,0.,1.));
#791=DIRECTION('',(-1.,0.,0.));
#792=DIRECTION('',(0.,0.,1.));
#793=DIRECTION('',(-1.,0.,0.));
#794=DIRECTION('',(0.,0.,1.));
#795=DIRECTION('',(-1.,0.,0.));
#796=DIRECTION('',(0.,-1.,0.));
#797=DIRECTION('',(1.,0.,0.));
#798=DIRECTION('',(0.,0.,-1.));
#799=DIRECTION('',(1.,0.,0.));
#800=DIRECTION('',(0.,0.,-1.));
#801=DIRECTION('',(0.,0.,1.));
#802=DIRECTION('',(1.,0.,0.));
#803=DIRECTION('',(-1.,0.,0.));
#804=DIRECTION('',(0.,0.,1.));
#805=DIRECTION('',(-1.,0.,0.));
#806=DIRECTION('',(0.,0.,1.));
#807=DIRECTION('',(-1.,0.,0.));
#808=DIRECTION('',(0.,0.,1.));
#809=DIRECTION('',(1.,0.,0.));
#810=DIRECTION('',(0.,0.,-1.));
#811=DIRECTION('',(1.,0.,0.));
#812=DIRECTION('',(0.,0.,-1.));
#813=DIRECTION('',(1.,0.,0.));
#814=DIRECTION('',(0.,0.,-1.));
#815=DIRECTION('',(0.,0.,1.));
#816=DIRECTION('',(1.,0.,0.));
#817=CARTESIAN_POINT('',(0.,0.,0.));
#818=CARTESIAN_POINT('',(0.,-0.03,-0.0012));
#819=CARTESIAN_POINT('',(0.,-0.03,-0.0012));
#820=CARTESIAN_POINT('',(0.00155,-0.03,-0.0012));
#821=CARTESIAN_POINT('',(0.,-0.03,0.0059));
#822=CARTESIAN_POINT('',(0.00155,-0.03,0.0059));
#823=CARTESIAN_POINT('',(-2.14313189850787E-19,-0.03,-0.0012));
#824=CARTESIAN_POINT('',(-2.14313189850787E-19,-0.03,-0.0012));
#825=CARTESIAN_POINT('',(0.0035,-0.03,-0.0012));
#826=CARTESIAN_POINT('',(-2.14313189850787E-19,-0.03,0.));
#827=CARTESIAN_POINT('',(0.00287228132326901,-0.032,0.));
#828=CARTESIAN_POINT('',(0.00287228132326901,-0.028,0.));
#829=CARTESIAN_POINT('',(0.00287228132326902,-0.032,0.));
#830=CARTESIAN_POINT('',(0.00251135110762079,-0.0325183465587049,0.));
#831=CARTESIAN_POINT('',(0.00156112565815835,-0.0332784576668134,0.000479292115126661));
#832=CARTESIAN_POINT('',(0.000519672179009467,-0.0335,0.00115979515245574));
#833=CARTESIAN_POINT('',(-2.14313189850787E-19,-0.0335,0.0015));
#834=CARTESIAN_POINT('',(-6.4293956955236E-19,-0.0335,0.0015));
#835=CARTESIAN_POINT('',(-6.4293956955236E-19,-0.0335,0.005));
#836=CARTESIAN_POINT('',(-6.4293956955236E-19,-0.0335,0.0035));
#837=CARTESIAN_POINT('',(0.00287228132326902,-0.032,0.005));
#838=CARTESIAN_POINT('',(0.00251135110762079,-0.0325183465587049,0.005));
#839=CARTESIAN_POINT('',(0.00156112565815828,-0.0332784576668134,0.00452070788487344));
#840=CARTESIAN_POINT('',(0.000519672179009601,-0.0335,0.00384020484754405));
#841=CARTESIAN_POINT('',(-2.14313189850787E-19,-0.0335,0.0035));
#842=CARTESIAN_POINT('',(0.00287228132326901,-0.032,0.005));
#843=CARTESIAN_POINT('',(-2.14313189850787E-19,-0.03,0.005));
#844=CARTESIAN_POINT('',(0.00287228132326901,-0.028,0.005));
#845=CARTESIAN_POINT('',(0.00287228132326901,-0.028,0.005));
#846=CARTESIAN_POINT('',(0.00251135110762079,-0.0274816534412951,0.005));
#847=CARTESIAN_POINT('',(0.00156112565815879,-0.0267215423331867,0.00452070788487267));
#848=CARTESIAN_POINT('',(0.000519672179008596,-0.0265,0.00384020484754559));
#849=CARTESIAN_POINT('',(-2.14313189850787E-19,-0.0265,0.0035));
#850=CARTESIAN_POINT('',(2.14313189850787E-19,-0.0265,0.0035));
#851=CARTESIAN_POINT('',(2.14313189850787E-19,-0.0265,0.005));
#852=CARTESIAN_POINT('',(2.14313189850787E-19,-0.0265,0.0015));
#853=CARTESIAN_POINT('',(0.00287228132326901,-0.028,0.));
#854=CARTESIAN_POINT('',(0.00251135110762079,-0.0274816534412951,0.));
#855=CARTESIAN_POINT('',(0.00156112565815878,-0.0267215423331867,0.00047929211512731));
#856=CARTESIAN_POINT('',(0.000519672179008624,-0.0265,0.00115979515245445));
#857=CARTESIAN_POINT('',(-2.14313189850787E-19,-0.0265,0.0015));
#858=CARTESIAN_POINT('',(-2.14313189850787E-19,-0.03,0.0059));
#859=CARTESIAN_POINT('',(0.0035,-0.03,0.0059));
#860=CARTESIAN_POINT('',(0.0285520879155466,-0.0258597995258428,-0.0012));
#861=CARTESIAN_POINT('',(0.0285520879155466,-0.0258597995258428,0.));
#862=CARTESIAN_POINT('',(0.012,-0.03,0.));
#863=CARTESIAN_POINT('',(0.012,-0.028,0.));
#864=CARTESIAN_POINT('',(0.012,-0.032,0.));
#865=CARTESIAN_POINT('',(0.0285520879155466,-0.032,0.));
#866=CARTESIAN_POINT('',(0.012,-0.028,0.));
#867=CARTESIAN_POINT('',(0.012,-0.03,0.005));
#868=CARTESIAN_POINT('',(0.012,-0.03,0.0025));
#869=CARTESIAN_POINT('',(0.012,-0.0282,0.0025));
#870=CARTESIAN_POINT('',(0.012,-0.0265,0.005));
#871=CARTESIAN_POINT('',(0.012,-0.0265,0.0035));
#872=CARTESIAN_POINT('',(0.012,-0.0265,0.0015));
#873=CARTESIAN_POINT('',(0.012,-0.028,0.0035));
#874=CARTESIAN_POINT('',(0.012,-0.028,0.005));
#875=CARTESIAN_POINT('',(0.012,-0.03,0.005));
#876=CARTESIAN_POINT('',(0.012,-0.032,0.005));
#877=CARTESIAN_POINT('',(0.012,-0.032,0.0035));
#878=CARTESIAN_POINT('',(0.012,-0.0335,0.0035));
#879=CARTESIAN_POINT('',(0.012,-0.0335,0.005));
#880=CARTESIAN_POINT('',(0.012,-0.0335,0.0015));
#881=CARTESIAN_POINT('',(0.012,-0.032,0.0015));
#882=CARTESIAN_POINT('',(0.012,-0.028,0.0015));
#883=CARTESIAN_POINT('',(0.006,-0.0265,0.005));
#884=CARTESIAN_POINT('',(0.006,-0.0265,0.0035));
#885=CARTESIAN_POINT('',(0.,-0.0265,0.0015));
#886=CARTESIAN_POINT('',(0.006,-0.0335,0.005));
#887=CARTESIAN_POINT('',(0.006,-0.0335,0.0015));
#888=CARTESIAN_POINT('',(0.,-0.0335,0.0035));
#889=CARTESIAN_POINT('',(0.0285520879155466,-0.0258597995258428,0.005));
#890=CARTESIAN_POINT('',(0.0285520879155466,-0.028,0.005));
#891=CARTESIAN_POINT('',(0.012,-0.032,0.005));
#892=CARTESIAN_POINT('',(0.0285520879155466,-0.0258597995258428,0.0059));
#893=CARTESIAN_POINT('',(0.006,-0.028,0.0035));
#894=CARTESIAN_POINT('',(0.006,-0.032,0.0015));
#895=CARTESIAN_POINT('',(0.0285520879155466,-0.028,0.0015));
#896=CARTESIAN_POINT('',(0.0285520879155466,-0.032,0.0035));
#897=CARTESIAN_POINT('',(0.001998,-0.03,0.0025));
#898=CARTESIAN_POINT('',(0.002,-0.03,0.0025));
#899=CARTESIAN_POINT('',(0.002,-0.0282,0.0025));
#900=CARTESIAN_POINT('',(0.002,-0.03,0.0025));
#901=CARTESIAN_POINT('',(0.,0.,0.));
#902=CARTESIAN_POINT('',(0.,0.006,0.));
#903=CARTESIAN_POINT('',(0.,0.006,9.18485099360515E-20));
#904=CARTESIAN_POINT('',(0.,0.006,-0.0015));
#905=CARTESIAN_POINT('',(0.,0.05284264,9.18485099360515E-20));
#906=CARTESIAN_POINT('',(0.,0.05284064,9.18485099360515E-20));
#907=CARTESIAN_POINT('',(0.,0.05284064,0.0015));
#908=CARTESIAN_POINT('',(0.,0.05284064,0.));
#909=CARTESIAN_POINT('',(0.,0.,0.));
#910=CARTESIAN_POINT('',(0.0581041758310932,-0.0207195990516857,0.005));
#911=CARTESIAN_POINT('',(0.0581041758310932,-0.0207195990516857,0.0049991664350565));
#912=CARTESIAN_POINT('',(0.0581041758310932,-0.0217695990516856,0.0049991664350565));
#913=CARTESIAN_POINT('',(0.0581041758310932,-0.0196695990516857,0.0049991664350565));
#914=CARTESIAN_POINT('',(0.0581041758310932,-0.0196695990516857,0.0049991664350565));
#915=CARTESIAN_POINT('',(0.057994625035403,-0.0196695990516857,0.0049991664350565));
#916=CARTESIAN_POINT('',(0.0578879193460042,-0.0196863349087444,0.005));
#917=CARTESIAN_POINT('',(0.0577840196192215,-0.0197195990516857,0.005));
#918=CARTESIAN_POINT('',(0.0577840196192215,-0.0197195990516857,0.005));
#919=CARTESIAN_POINT('',(0.0581041758310932,-0.0207195990516857,0.005));
#920=CARTESIAN_POINT('',(0.0577840196192215,-0.0217195990516856,0.005));
#921=CARTESIAN_POINT('',(0.0577840196192215,-0.0217195990516856,0.005));
#922=CARTESIAN_POINT('',(0.0578883601979228,-0.0217530043361071,0.005));
#923=CARTESIAN_POINT('',(0.0579950878544058,-0.0217695990516856,0.0049991664350565));
#924=CARTESIAN_POINT('',(0.0581041758310932,-0.0217695990516856,0.0049991664350565));
#925=CARTESIAN_POINT('',(0.0581041758310932,-0.0207195990516857,0.));
#926=CARTESIAN_POINT('',(0.0577840196192215,-0.0197195990516857,0.));
#927=CARTESIAN_POINT('',(0.0577840196192215,-0.0217195990516856,0.));
#928=CARTESIAN_POINT('',(0.0577840196192215,-0.0197195990516857,0.));
#929=CARTESIAN_POINT('',(0.0578883601979228,-0.0196861937672642,0.));
#930=CARTESIAN_POINT('',(0.0579950878544058,-0.0196695990516857,8.33564943504834E-7));
#931=CARTESIAN_POINT('',(0.0581041758310932,-0.0196695990516857,8.33564943504834E-7));
#932=CARTESIAN_POINT('',(0.0581041758310932,-0.0196695990516857,8.33564943505168E-7));
#933=CARTESIAN_POINT('',(0.0581041758310932,-0.0207195990516857,8.33564943505168E-7));
#934=CARTESIAN_POINT('',(0.0581041758310932,-0.0217695990516856,8.33564943504951E-7));
#935=CARTESIAN_POINT('',(0.0581041758310932,-0.0217695990516856,8.33564943504951E-7));
#936=CARTESIAN_POINT('',(0.057994625035403,-0.0217695990516856,8.33564943504951E-7));
#937=CARTESIAN_POINT('',(0.0578879193460042,-0.0217528631946269,-2.01675021602751E-19));
#938=CARTESIAN_POINT('',(0.0577840196192215,-0.0217195990516856,1.06080123295653E-19));
#939=CARTESIAN_POINT('',(0.0571041758310932,-0.0203994428398141,0.00422046505340854));
#940=CARTESIAN_POINT('',(0.0570382775612927,-0.020605274453748,0.00425876764471659));
#941=CARTESIAN_POINT('',(0.0570384537738968,-0.0208344740453291,0.00425866522322084));
#942=CARTESIAN_POINT('',(0.0571041758310931,-0.0210397552635573,0.00422046505340854));
#943=CARTESIAN_POINT('',(0.0571041758310931,-0.020399442839814,0.00422046505340853));
#944=CARTESIAN_POINT('',(0.0571041758310931,-0.0210397552635573,0.00422046505340853));
#945=CARTESIAN_POINT('',(0.0571041758310931,-0.020399442839814,0.005));
#946=CARTESIAN_POINT('',(0.0571041758310931,-0.020399442839814,0.000779534946591472));
#947=CARTESIAN_POINT('',(0.0571041758310927,-0.0210397552635575,0.000779534946591303));
#948=CARTESIAN_POINT('',(0.0570388511689619,-0.0208357152989761,0.000741565757969049));
#949=CARTESIAN_POINT('',(0.0570385911372128,-0.0206042950071263,0.000741414617584807));
#950=CARTESIAN_POINT('',(0.0571041758310931,-0.0203994428398141,0.000779534946591448));
#951=CARTESIAN_POINT('',(0.0571041758310931,-0.0210397552635573,0.000779534946591472));
#952=CARTESIAN_POINT('',(0.0571041758310931,-0.0210397552635573,0.005));
#953=CARTESIAN_POINT('',(0.0531041758310931,-0.0232195990516856,0.005));
#954=CARTESIAN_POINT('',(0.0481041758310931,-0.0232195990516856,0.005));
#955=CARTESIAN_POINT('',(0.0481041758310931,-0.0232195990516856,0.0035));
#956=CARTESIAN_POINT('',(0.0481041758310931,-0.0232195990516856,0.0015));
#957=CARTESIAN_POINT('',(0.0531041758310931,-0.0232195990516856,0.0015));
#958=CARTESIAN_POINT('',(0.0581041758310932,-0.0232195990516856,0.0015));
#959=CARTESIAN_POINT('',(0.0581041758310932,-0.0232195990516856,0.005));
#960=CARTESIAN_POINT('',(0.0581041758310932,-0.0232195990516856,0.0035));
#961=CARTESIAN_POINT('',(0.0481041758310931,-0.0232195990516856,0.0035));
#962=CARTESIAN_POINT('',(0.0581041758310932,-0.0207195990516857,0.005));
#963=CARTESIAN_POINT('',(0.0581041758310932,-0.0207195990516857,0.0015));
#964=CARTESIAN_POINT('',(0.0581041758310932,-0.0182195990516857,0.0015));
#965=CARTESIAN_POINT('',(0.0581041758310932,-0.0182195990516857,0.005));
#966=CARTESIAN_POINT('',(0.0581041758310932,-0.0182195990516857,0.0035));
#967=CARTESIAN_POINT('',(0.0581041758310932,-0.0207195990516857,0.0035));
#968=CARTESIAN_POINT('',(0.0531041758310931,-0.0182195990516857,0.005));
#969=CARTESIAN_POINT('',(0.0531041758310931,-0.0182195990516857,0.0015));
#970=CARTESIAN_POINT('',(0.0481041758310931,-0.0182195990516857,0.0015));
#971=CARTESIAN_POINT('',(0.0481041758310931,-0.0182195990516857,0.005));
#972=CARTESIAN_POINT('',(0.0481041758310931,-0.0182195990516857,0.0035));
#973=CARTESIAN_POINT('',(0.0581041758310932,-0.0182195990516857,0.0035));
#974=CARTESIAN_POINT('',(0.0481041758310931,-0.0207195990516857,0.005));
#975=CARTESIAN_POINT('',(0.0481041758310931,-0.0207195990516857,0.0025));
#976=CARTESIAN_POINT('',(0.0481041758310931,-0.0207195990516857,0.00075));
#977=CARTESIAN_POINT('',(0.0481041758310931,-0.0197195990516857,0.0015));
#978=CARTESIAN_POINT('',(0.0481041758310931,-0.0197195990516857,0.));
#979=CARTESIAN_POINT('',(0.0481041758310931,-0.0207195990516857,0.));
#980=CARTESIAN_POINT('',(0.0481041758310931,-0.0217195990516856,0.));
#981=CARTESIAN_POINT('',(0.0481041758310931,-0.0217195990516856,0.0015));
#982=CARTESIAN_POINT('',(0.0481041758310931,-0.0217195990516856,0.0035));
#983=CARTESIAN_POINT('',(0.0481041758310931,-0.0217195990516856,0.005));
#984=CARTESIAN_POINT('',(0.0481041758310931,-0.0207195990516857,0.005));
#985=CARTESIAN_POINT('',(0.0481041758310931,-0.0197195990516857,0.005));
#986=CARTESIAN_POINT('',(0.0481041758310931,-0.0197195990516857,0.0035));
#987=CARTESIAN_POINT('',(0.0285520879155466,-0.0258597995258428,0.005));
#988=CARTESIAN_POINT('',(0.0481041758310931,-0.0197195990516857,0.005));
#989=CARTESIAN_POINT('',(0.0581041758310932,-0.0217195990516856,0.005));
#990=CARTESIAN_POINT('',(0.0285520879155466,-0.0258597995258428,0.));
#991=CARTESIAN_POINT('',(0.0285520879155466,-0.0197195990516857,0.));
#992=CARTESIAN_POINT('',(0.0285520879155466,-0.0217195990516856,0.));
#993=CARTESIAN_POINT('',(0.0571041758310931,-0.0207195990516857,0.0025));
#994=CARTESIAN_POINT('',(0.0571041758310931,-0.0207195990516857,0.0025));
#995=CARTESIAN_POINT('',(0.0571041758310931,-0.0207195990516857,0.0025));
#996=CARTESIAN_POINT('',(0.0571041758310931,-0.0207195990516857,0.0025));
#997=CARTESIAN_POINT('',(0.0571041758310931,-0.0207195990516857,0.0025));
#998=CARTESIAN_POINT('',(0.0531041758310931,-0.0217195990516856,0.0015));
#999=CARTESIAN_POINT('',(0.0581041758310932,-0.0217195990516856,0.0015));
#1000=CARTESIAN_POINT('',(0.0581041758310932,-0.0207195990516857,0.0015));
#1001=CARTESIAN_POINT('',(0.0581041758310932,-0.0197195990516857,0.0015));
#1002=CARTESIAN_POINT('',(0.0531041758310931,-0.0197195990516857,0.0015));
#1003=CARTESIAN_POINT('',(0.0285520879155466,-0.0217195990516856,0.0035));
#1004=CARTESIAN_POINT('',(0.0581041758310932,-0.0217195990516856,0.0035));
#1005=CARTESIAN_POINT('',(0.0285520879155466,-0.0197195990516857,0.0035));
#1006=CARTESIAN_POINT('',(0.0581041758310932,-0.0197195990516857,0.0035));
#1007=CARTESIAN_POINT('',(0.0581041758310932,-0.0207195990516857,0.0035));
#1008=MECHANICAL_DESIGN_GEOMETRIC_PRESENTATION_REPRESENTATION('',(#550),
#1011);
#1009=MECHANICAL_DESIGN_GEOMETRIC_PRESENTATION_REPRESENTATION('',(#551),
#1012);
#1010=MECHANICAL_DESIGN_GEOMETRIC_PRESENTATION_REPRESENTATION('',(#552),
#1013);
#1011=(
GEOMETRIC_REPRESENTATION_CONTEXT(3)
GLOBAL_UNCERTAINTY_ASSIGNED_CONTEXT((#1014))
GLOBAL_UNIT_ASSIGNED_CONTEXT((#1023,#1020,#1017))
REPRESENTATION_CONTEXT('Servo Link','TOP_LEVEL_ASSEMBLY_PART')
);
#1012=(
GEOMETRIC_REPRESENTATION_CONTEXT(3)
GLOBAL_UNCERTAINTY_ASSIGNED_CONTEXT((#1015))
GLOBAL_UNIT_ASSIGNED_CONTEXT((#1024,#1021,#1018))
REPRESENTATION_CONTEXT('CF Rod','TOP_LEVEL_ASSEMBLY_PART')
);
#1013=(
GEOMETRIC_REPRESENTATION_CONTEXT(3)
GLOBAL_UNCERTAINTY_ASSIGNED_CONTEXT((#1016))
GLOBAL_UNIT_ASSIGNED_CONTEXT((#1025,#1022,#1019))
REPRESENTATION_CONTEXT('Wheel Link','TOP_LEVEL_ASSEMBLY_PART')
);
#1014=UNCERTAINTY_MEASURE_WITH_UNIT(LENGTH_MEASURE(2.E-5),#1023,
'DISTANCE_ACCURACY_VALUE','Maximum Tolerance applied to model');
#1015=UNCERTAINTY_MEASURE_WITH_UNIT(LENGTH_MEASURE(1.E-8),#1024,
'DISTANCE_ACCURACY_VALUE','Maximum Tolerance applied to model');
#1016=UNCERTAINTY_MEASURE_WITH_UNIT(LENGTH_MEASURE(2.E-5),#1025,
'DISTANCE_ACCURACY_VALUE','Maximum Tolerance applied to model');
#1017=(
NAMED_UNIT(*)
SI_UNIT($,.STERADIAN.)
SOLID_ANGLE_UNIT()
);
#1018=(
NAMED_UNIT(*)
SI_UNIT($,.STERADIAN.)
SOLID_ANGLE_UNIT()
);
#1019=(
NAMED_UNIT(*)
SI_UNIT($,.STERADIAN.)
SOLID_ANGLE_UNIT()
);
#1020=(
NAMED_UNIT(*)
PLANE_ANGLE_UNIT()
SI_UNIT($,.RADIAN.)
);
#1021=(
NAMED_UNIT(*)
PLANE_ANGLE_UNIT()
SI_UNIT($,.RADIAN.)
);
#1022=(
NAMED_UNIT(*)
PLANE_ANGLE_UNIT()
SI_UNIT($,.RADIAN.)
);
#1023=(
LENGTH_UNIT()
NAMED_UNIT(*)
SI_UNIT($,.METRE.)
);
#1024=(
LENGTH_UNIT()
NAMED_UNIT(*)
SI_UNIT($,.METRE.)
);
#1025=(
LENGTH_UNIT()
NAMED_UNIT(*)
SI_UNIT($,.METRE.)
);
#1026=PRODUCT_DEFINITION_SHAPE('','',#1029);
#1027=PRODUCT_DEFINITION_SHAPE('','',#1030);
#1028=PRODUCT_DEFINITION_SHAPE('','',#1031);
#1029=PRODUCT_DEFINITION('','',#1035,#1032);
#1030=PRODUCT_DEFINITION('','',#1036,#1033);
#1031=PRODUCT_DEFINITION('','',#1037,#1034);
#1032=PRODUCT_DEFINITION_CONTEXT('',#1053,'design');
#1033=PRODUCT_DEFINITION_CONTEXT('',#1054,'design');
#1034=PRODUCT_DEFINITION_CONTEXT('',#1055,'design');
#1035=PRODUCT_DEFINITION_FORMATION_WITH_SPECIFIED_SOURCE('','',#1041,
 .NOT_KNOWN.);
#1036=PRODUCT_DEFINITION_FORMATION_WITH_SPECIFIED_SOURCE('','',#1042,
 .NOT_KNOWN.);
#1037=PRODUCT_DEFINITION_FORMATION_WITH_SPECIFIED_SOURCE('','',#1043,
 .NOT_KNOWN.);
#1038=PRODUCT_RELATED_PRODUCT_CATEGORY('','',(#1041));
#1039=PRODUCT_RELATED_PRODUCT_CATEGORY('','',(#1042));
#1040=PRODUCT_RELATED_PRODUCT_CATEGORY('','',(#1043));
#1041=PRODUCT('Servo Link','Servo Link','Servo Link',(#1047));
#1042=PRODUCT('CF Rod','CF Rod','CF Rod',(#1048));
#1043=PRODUCT('Wheel Link','Wheel Link','Wheel Link',(#1049));
#1044=PRODUCT_CATEGORY('','');
#1045=PRODUCT_CATEGORY('','');
#1046=PRODUCT_CATEGORY('','');
#1047=PRODUCT_CONTEXT('',#1053,'mechanical');
#1048=PRODUCT_CONTEXT('',#1054,'mechanical');
#1049=PRODUCT_CONTEXT('',#1055,'mechanical');
#1050=APPLICATION_PROTOCOL_DEFINITION('international standard',
'automotive_design',2010,#1053);
#1051=APPLICATION_PROTOCOL_DEFINITION('international standard',
'automotive_design',2010,#1054);
#1052=APPLICATION_PROTOCOL_DEFINITION('international standard',
'automotive_design',2010,#1055);
#1053=APPLICATION_CONTEXT(
'core data for automotive mechanical design processes');
#1054=APPLICATION_CONTEXT(
'core data for automotive mechanical design processes');
#1055=APPLICATION_CONTEXT(
'core data for automotive mechanical design processes');
ENDSEC;
END-ISO-10303-21;
